<?xml version="1.0" encoding="utf-8"?>
<!-- Generator: Adobe Illustrator 23.0.1, SVG Export Plug-In . SVG Version: 6.00 Build 0)  -->
<svg version="1.1" id="Layer_1" xmlns="http://www.w3.org/2000/svg" xmlns:xlink="http://www.w3.org/1999/xlink" x="0px" y="0px"
	 viewBox="0 0 283.46 80.25" style="enable-background:new 0 0 283.46 80.25;" xml:space="preserve">
<style type="text/css">
	.st0{fill:#12A84B;}
	.st1{fill:#FFFFFF;}
</style>
<g>
	<polygon class="st0" points="43.26,9.84 43.27,31.44 58.36,22.76 58.36,16.2 48.97,21.6 48.97,0 33.87,8.68 33.87,15.24 	"/>
	<polygon class="st0" points="15.09,21.81 33.87,32.6 33.87,15.24 28.17,11.96 28.17,22.76 9.39,11.96 9.39,29.33 15.09,32.6 	"/>
	<polygon class="st0" points="11.41,52.09 30.18,41.29 15.09,32.6 9.39,35.88 18.78,41.29 0,52.09 15.1,60.77 20.79,57.49 	"/>
	<polygon class="st0" points="35.89,70.41 35.89,48.81 20.79,57.49 20.79,64.05 30.19,58.65 30.19,80.25 45.29,71.57 45.28,65.02 	
		"/>
	<polygon class="st0" points="64.06,58.45 45.28,47.65 45.28,65.02 50.98,68.3 50.98,57.49 69.76,68.29 69.76,50.92 64.07,47.65 	
		"/>
	<polygon class="st0" points="67.74,28.16 48.97,38.97 64.07,47.65 69.77,44.37 60.38,38.97 79.16,28.17 64.06,19.48 58.36,22.76 	
		"/>
</g>
<g>
	<path class="st1" d="M125.37,28.16l-22.98,33.3h22.03l-4.67,6.76h-30.2l22.98-33.3H90.77l4.66-6.76
		C95.43,28.16,125.37,28.16,125.37,28.16z"/>
	<path class="st1" d="M132.05,53.92V28.16h7.28V52.7c0,6.85,4.25,9.8,9.63,9.8c6.76,0,9.97-6.59,9.97-6.59V28.16h7.28v40.07h-6.76
		v-6.16c0,0-3.64,7.2-12.31,7.2C139.16,69.27,132.05,63.81,132.05,53.92z"/>
	<path class="st1" d="M179.4,28.16l12.31,27.14l12.31-27.14h7.46l-20.03,41.8l-20.03-41.8H179.4z"/>
	<path class="st1" d="M252.25,48.46c0,0.78,0,1.39-0.09,2.34h-32.35c0.43,6.07,6.24,11.71,13.79,11.71c7.89,0,12.05-5.9,12.05-5.9
		l4.6,4.77c0,0-6.07,7.89-16.65,7.89c-12.14,0-20.9-9.19-20.9-21.07c0-11.71,7.98-21.07,20.03-21.07
		C243.92,27.12,252.25,35.54,252.25,48.46z M245.13,44.73c-0.26-4.51-4.34-10.84-12.4-10.84c-8.67,0-12.23,6.68-12.75,10.84H245.13z
		"/>
	<path class="st1" d="M283.46,28.16l-2.69,6.59c0,0-1.56-0.87-4.6-0.87c-6.33,0-9.19,6.76-9.19,6.76v27.58h-7.28V28.16h6.76v6.16
		c0,0,3.56-7.2,11.19-7.2C280.95,27.12,283.46,28.16,283.46,28.16z"/>
</g>
</svg>
