<?xml version="1.0" encoding="utf-8"?>
<!-- Generator: Adobe Illustrator 19.1.0, SVG Export Plug-In . SVG Version: 6.00 Build 0)  -->
<svg version="1.1" id="Calque_1" xmlns="http://www.w3.org/2000/svg" xmlns:xlink="http://www.w3.org/1999/xlink" x="0px" y="0px"
	 viewBox="0 0 301 26" style="enable-background:new 0 0 301 26;" xml:space="preserve">
<style type="text/css">
	.st0{fill:#B4B4B4;}
</style>
<path class="st0" d="M122,15.5c-0.7,0.4-1.6,0.9-3.9,1c-0.1,0-0.2,0-0.3,0c-2.5,0-4.2-1.8-4.2-3.4c0-1.8,2.2-3.4,4.6-3.4
	c1,0,2.8,0.2,3.5,0.7l0.2,0.1l1.2-2.4L123,8c-1.4-0.7-3-1.1-4.8-1.1c-4.7,0-8.2,2.6-8.2,6.1c0,3.6,3.4,6.2,8.2,6.2
	c1.6,0,3.5-0.5,5.1-1.3l0.2-0.1l-1.2-2.5L122,15.5z"/>
<path class="st0" d="M135.3,7.1C134.7,7,134.2,7,133.7,7c-2,0-3.2,0.7-4.4,1.7l0-4.8l-3.6,0v15.2h3.7l0-6.5c0-0.8,0.3-1.5,1-2.1
	c0.7-0.5,1.8-0.8,2.9-0.8c1.6,0,3.3,0.7,3.3,2.5v7h3.7v-6.6C140.3,9.5,138.6,7.6,135.3,7.1"/>
<path class="st0" d="M88,14.2c0,2-2.3,2.5-3.6,2.5c-1.5,0-3.7-0.7-3.7-2.5V7.6h-3.7v6.3c0,1.7,0.8,3.2,2.3,4.2
	c1.3,0.8,2.8,1.2,5,1.2c3.4,0,7.3-1.4,7.3-5.5V7.6H88V14.2z"/>
<path class="st0" d="M153.5,14.2c0,2-2.3,2.5-3.6,2.5c-1.5,0-3.7-0.7-3.7-2.5V7.6h-3.7v6.3c0,1.7,0.8,3.2,2.3,4.2
	c1.3,0.8,2.8,1.2,5,1.2c3.4,0,7.3-1.4,7.3-5.5V7.6h-3.7V14.2z"/>
<path class="st0" d="M72,5.8c-2-1.5-4.6-2.4-7.2-2.4c-1.7,0-3.4,0.3-4.9,1c-1.5,0.7-3.5,1.9-4.6,4.1c-1,2-1,4.3,0,6.1
	c1.2,2.4,3.6,4,6.8,4.7l0.4,0.1v-3l-0.2-0.1c-1.4-0.4-2.5-1.3-3.3-2.5c-1-1.5-0.9-3.7,0.3-5.1l0,0c1.5-1.8,3.5-2.2,4.9-2.3
	c0.3,0,0.6,0,0.9,0c1.7,0,3.2,0.5,4.3,1.4l0,0c0.1,0.1,0.1,0.1,0.2,0.1L69.6,8c0.9,0.7,1.4,1.6,1.7,2.5c0.3,0.9,0.2,2-0.3,2.9
	c-0.7,1.4-1.9,2.4-3.9,3l-0.3,0.1v-2.1l-3.3,1.2v1.3l0,4.1l3.5,1.3v-2.8l0.2,0c2.3-0.5,5.4-1.6,7-4.6c0.8-1.4,1-3.3,0.6-4.9
	C74.4,8.4,73.5,7,72,5.8"/>
<path class="st0" d="M100.8,6.9c-4.3,0-7.4,2.6-7.4,6.2c0,3.6,3.1,6.2,7.4,6.2c3,0,5.6-1.3,6.9-3.6h-4.1c-0.7,0.6-1.7,0.9-2.8,0.9
	c-1.9,0-3.5-1.1-4-2.6H108l0.1-0.2l0,0c0-0.2,0-0.4,0-0.6C108.1,9.5,105.1,6.9,100.8,6.9 M97,11.6c0.3-1.5,1.9-2.3,3.9-2.3
	c1.6,0,3.5,0.8,3.9,2.3H97z"/>
<path class="st0" d="M167,6.8L167,6.8c-4.7,0-8,2.6-8,6.3c0,3.6,3.4,6.3,8,6.3c1,0,2-0.1,2.9-0.4v-3.2c-0.2,0.1-0.4,0.2-0.4,0.2
	c-0.7,0.4-1.6,0.6-2.5,0.6c-2.5,0-4.5-1.6-4.5-3.5c0-1,0.6-2,1.7-2.7l0,0l0.1-0.1c0.8-0.5,1.7-0.7,2.6-0.7c0.9,0,1.8,0.3,2.6,0.7
	l0.1,0.1c1,0.6,1.7,1.6,1.7,2.5v0.9v1v3.6v1h3.5l0-6.3C175,9.4,171.6,6.8,167,6.8"/>
<path class="st0" d="M46.4,19l-5.7-5.3h0c-0.6-0.5-1.3-0.9-2.1-0.9c-0.8,0-1.6,0.3-2.2,0.9h0l-6.9,6.4l2-2.6l0.4-1.8l2-7.9L34,7.7
	c0,0,0,0,0,0c0,0,0,0,0,0c0-0.1-0.1-0.1-0.1-0.1h-0.3h-1.2c-1.9,0-4.2-0.1-7.4,2.9l-8.6,7.9l2.9-3.4l0.6-1.4l5.8-13.2l0.1-0.2v0
	c0,0,0,0,0,0c0-0.1-0.1-0.1-0.1-0.1h-0.2h-4.9L0,19l0,0h0v0c0,0,0,0,0,0.1c0,0.1,0.1,0.1,0.1,0.1h0h6.7L19.6,7.4l-4,4.4l-0.2,0.6
	l-3,6.8c-0.2,0.4-0.2,0.9-0.2,1.3c0,1,0.4,2,1.2,2.6c0.7,0.6,1.5,0.9,2.4,0.9c1,0,2-0.5,3-1.4l10.9-10.1l-2.4,2.9l-0.8,3.2
	c-0.1,0.3-0.1,0.7-0.1,1.1c0,2.4,1.9,4.3,4.3,4.3c0,0,0,0,0,0c0,0,0,0,0,0c1.1,0,2.1-0.4,2.8-1.1l0,0l5.3-4.9l0.1,0.1l1,0.9l0,0
	c0,0,0,0,0.1,0h0h0H46h0.3C46.4,19.3,46.4,19.2,46.4,19C46.4,19.1,46.4,19.1,46.4,19"/>
<g>
	<path class="st0" d="M216,10.4h-1.2v7.2h1.2c2.4,0,3.5-1.1,3.5-3.6C219.5,11.7,218.3,10.4,216,10.4z"/>
	<path class="st0" d="M277.8,10.7c-1.9,0-3.4,1.5-3.4,3.4c0,2,1.6,3.5,3.4,3.5c1.8,0,3.3-1.5,3.3-3.5
		C281.1,12.1,279.6,10.7,277.8,10.7z"/>
	<path class="st0" d="M205.3,2.1V26H301V2.1H205.3z M229.6,10.5h-3.9v2.1h3.4v2.7h-3.4v2.4h3.9v2.7h-7v-5.1
		c-0.2,1.4-0.8,2.6-1.8,3.6c-1.4,1.3-2.6,1.6-4.4,1.6h-4.8V7.7h4.4c2,0,3.5,0.3,4.8,1.5c1,0.9,1.6,2.2,1.8,3.7V7.7h7V10.5z
		 M247,20.4h-3v-1.8H241c-0.4,0.4-0.8,0.7-1.1,1c-1.1,0.7-2.2,1.1-3.8,1.2c-1.1,0-3.2-0.4-4.9-2.2c-1-1.1-1.6-2.6-1.7-4.5
		c0-1.6,0.4-2.7,1.3-3.9c1.5-1.9,3.4-2.7,5.3-2.7c2,0.1,3.4,0.8,4.3,1.6c0.4,0.3,0.5,0.4,0.8,0.7l-1.7,3c-0.3-0.4-0.5-0.6-0.8-0.9
		c0,0-1.1-1.2-2.7-1.3c-1.9,0-3.2,1.5-3.3,3.4c0,1.9,1.5,3.6,3.4,3.5c1.9-0.1,2.8-1.5,2.9-1.7l4.6-8.1h3.3V20.4z M255.5,10.7h-2.4
		v9.8h-3.1v-9.8h-2.4v-3h7.9V10.7z M265.5,20.5h-3.1v-4.9h-3.2v4.9H256V7.7h3.1v4.8h3.2V7.7h3.1V20.5z M294.6,20.5h-2.7l-4.8-7.1
		v7.1H284v-4.3c-0.3,1-0.8,1.8-1.5,2.6c-1.2,1.3-2.9,2-4.7,2c-1.7,0-3.1-0.5-4.3-1.6v1.3h-6.8V7.7h3.1v9.9h2.4c-0.7-1.1-1-2.3-1-3.7
		c0-1.7,0.7-3.4,1.9-4.6c1.3-1.2,2.8-1.9,4.7-1.9c1.7,0,3.3,0.7,4.6,1.9c0.8,0.8,1.4,1.7,1.7,2.6V7.7h2.8l4.7,7.1V7.7h3.1V20.5z"/>
	<polygon class="st0" points="244,13 244,15.9 242.3,15.9 	"/>
</g>
</svg>
