<?xml version="1.0" encoding="UTF-8"?>
<svg width="19px" height="19px" viewBox="0 0 19 19" version="1.1" xmlns="http://www.w3.org/2000/svg" xmlns:xlink="http://www.w3.org/1999/xlink">
    <!-- Generator: Sketch 53.2 (72643) - https://sketchapp.com -->
    <title>Linkedin</title>
    <desc>Created with Sketch.</desc>
    <g id="Page-1" stroke="none" stroke-width="1" fill="none" fill-rule="evenodd">
        <g id="Extra-Large---1200px" transform="translate(-133.000000, -9.000000)">
            <g id="default" transform="translate(134.000000, 10.000000)">
                <g id="Linkedin">
                    <circle id="Oval-1-Copy-5" stroke="#FFFFFF" cx="8.5" cy="8.5" r="8.5"></circle>
                    <path d="M5.18871032,6.30623207 C5.7738881,6.30623207 6.24828254,5.87360755 6.24828254,5.3393503 C6.24828254,4.80462034 5.7738881,4.37142857 5.18871032,4.37142857 C4.60296587,4.37142857 4.12857143,4.80462034 4.12857143,5.3393503 C4.12857143,5.87360755 4.60296587,6.30623207 5.18871032,6.30623207" id="Fill-182" fill="#FFFFFF"></path>
                    <polygon id="Fill-183" fill="#FFFFFF" points="4.37142857 12.5260137 6.27259524 12.5260137 6.27259524 7.04285714 4.37142857 7.04285714"></polygon>
                    <path d="M8.94090714,9.4763915 C8.94090714,8.84759219 9.23840714,8.23269055 9.9497627,8.23269055 C10.6611183,8.23269055 10.8360294,8.84759219 10.8360294,9.46135931 L10.8360294,12.4559794 L12.728696,12.4559794 L12.728696,9.33892733 C12.728696,7.17334664 11.448596,6.8 10.6611183,6.8 C9.87430159,6.8 9.44032937,7.06613593 8.94090714,7.7110074 L8.94090714,6.97282291 L7.04285714,6.97282291 L7.04285714,12.4559794 L8.94090714,12.4559794 L8.94090714,9.4763915 Z" id="Fill-184" fill="#FFFFFF"></path>
                </g>
            </g>
        </g>
    </g>
</svg>