<?xml version="1.0" encoding="utf-8"?>
<!-- Generator: Adobe Illustrator 24.0.0, SVG Export Plug-In . SVG Version: 6.00 Build 0)  -->
<svg version="1.1" id="Layer_1" xmlns="http://www.w3.org/2000/svg" xmlns:xlink="http://www.w3.org/1999/xlink" x="0px" y="0px"
	 viewBox="0 0 113.1 116.8" style="enable-background:new 0 0 113.1 116.8;" xml:space="preserve">
<style type="text/css">
	.st0{fill:#F99D22;}
	.st1{fill:#FFFFFF;}
	.st2{fill:#414042;}
</style>
<title>persona-equipment-manager</title>
<g id="Layer_2_1_">
	<g id="Layer_1-2">
		<circle class="st0" cx="56.5" cy="56.5" r="56.5"/>
		<path class="st1" d="M22.5,116.8v-11.8c0-5.2,4.8-9.4,10.7-9.4h46.7c5.9,0,10.6,4.2,10.6,9.4v11.8"/>
		<path class="st2" d="M92.5,116.8h-4v-11.8c0-4.1-3.9-7.4-8.6-7.4H33.2c-4.8,0-8.6,3.3-8.6,7.4v11.8h-4v-11.8
			c0-6.3,5.7-11.4,12.6-11.4h46.7c7,0,12.6,5.1,12.6,11.4V116.8z"/>
		<path class="st1" d="M56.3,73.1h0.5c4.4,0,8,3.6,8,8v20.5c0,4.4-3.6,8-8,8h-0.5c-4.4,0-8-3.6-8-8V81.1
			C48.3,76.7,51.9,73.1,56.3,73.1z"/>
		<path class="st2" d="M56.8,111.6h-0.5c-5.5,0-10-4.5-10-10V81.1c0-5.5,4.5-10,10-10h0.5c5.5,0,10,4.5,10,10v20.5
			C66.8,107.1,62.3,111.6,56.8,111.6z M56.3,75.1c-3.3,0-6,2.7-6,6v20.5c0,3.3,2.7,6,6,6h0.5c3.3,0,6-2.7,6-6V81.1c0-3.3-2.7-6-6-6
			H56.3z"/>
		<path class="st1" d="M80.8,65.4c0,13.1-10.6,23.8-23.8,23.8c0,0,0,0-0.1,0l0,0c-13.1,0-23.7-10.7-23.7-23.8v-19
			c0-13.1,10.6-23.8,23.7-23.8l0,0c13.1,0,23.8,10.6,23.8,23.7c0,0,0,0,0,0V65.4z"/>
		<path class="st2" d="M57,91.2c-14.2,0-25.7-11.6-25.7-25.8v-19c0-14.2,11.5-25.8,25.8-25.8s25.8,11.5,25.8,25.8c0,0,0,0,0,0v19
			C82.8,79.6,71.2,91.2,57,91.2C57,91.2,57,91.2,57,91.2z M57,24.6c-12,0-21.7,9.8-21.7,21.8v19c0,12,9.7,21.8,21.8,21.8
			s21.8-9.7,21.8-21.8c0,0,0,0,0,0v-19C78.8,34.3,69,24.6,57,24.6C57,24.6,57,24.6,57,24.6z"/>
		<path class="st1" d="M36.3,61.1V42.9c0-0.3,0-0.5,0-0.8c6.8,1.4,13.8,2.1,20.7,2.1c7,0,13.9-0.7,20.7-2.1c0,0.3,0,0.5,0,0.8v18.2
			h6.7c1.5-3.5,2.3-7.2,2.2-11v-3.5c0-15.5-12.5-28-28-28h-3.5c-15.5,0-28,12.5-28,28v3.5c0,3.8,0.8,7.5,2.3,11L36.3,61.1z"/>
		<path class="st2" d="M85.9,63.1h-10V44.5c-6.2,1.1-12.5,1.7-18.9,1.6c-6.3,0-12.6-0.5-18.8-1.6v18.5h-10l-0.5-1.2
			c-1.6-3.7-2.4-7.7-2.4-11.8v-3.5c0-16.6,13.4-30,30-30h3.5c16.6,0,30,13.4,30,30v3.5c0,4.1-0.8,8.1-2.4,11.8L85.9,63.1z
			 M79.9,59.1h3.4c1.1-2.9,1.6-5.9,1.6-9v-3.5c0-14.4-11.6-26-26-26h-3.5c-14.4,0-26,11.6-26,26v3.5c0,3.1,0.5,6.1,1.6,9h3.4V42.9
			c0-0.2,0-0.4,0-0.6V42l0.1-2.4l2.3,0.5c6.7,1.4,13.5,2,20.3,2c6.8,0,13.6-0.6,20.3-2l2.3-0.5l0.1,2.6c0,0.2,0,0.4,0,0.6L79.9,59.1
			z"/>
		<path class="st1" d="M77.8,63c0-2.6,2.1-4.7,4.7-4.7h0.4c2.6,0,4.7,2.1,4.7,4.7v5.7c0,2.6-2.1,4.7-4.7,4.7h-0.4
			c-1.9,0-3.5-1.1-4.3-2.8"/>
		<path class="st2" d="M82.9,75.4h-0.4c-2.7,0-5.1-1.6-6.1-4l3.6-1.6c0.4,1,1.4,1.6,2.5,1.6h0.4c1.5,0,2.7-1.2,2.7-2.7V63
			c0-1.5-1.2-2.7-2.7-2.7h-0.4c-1.5,0-2.7,1.2-2.7,2.7h-4c0-3.7,3-6.7,6.7-6.7h0.4c3.7,0,6.7,3,6.7,6.7v5.7
			C89.6,72.4,86.6,75.4,82.9,75.4z"/>
		<path class="st1" d="M36.2,58.3c-2.5,0.3-6.6,2.4-6.6,5v6c0,2.6,4.1,4.7,6.6,5V58.3z"/>
		<path class="st2" d="M38.2,76.5L36,76.2c-3.5-0.4-8.4-3-8.4-7v-6c0-3.9,5-6.6,8.4-7l2.2-0.2L38.2,76.5z M34.2,61
			c-1.5,0.7-2.6,1.7-2.6,2.3v6c0,0.7,1.2,1.7,2.6,2.3V61z"/>
		<path class="st1" d="M60.3,66.6c0,2.3-1.9,4.2-4.2,4.2s-4.2-1.9-4.2-4.2"/>
		<path class="st1" d="M46.4,76.8c4.2,5.9,12.3,7.3,18.2,3.1c1.2-0.8,2.2-1.9,3.1-3.1H46.4z"/>
		<path class="st1" d="M57.1,45.4h23l1.4-1.2h6.6v-9.7h-2.5c0,0,0.6-6.1-3.7-13.6s-8.6-9.4-8.6-9.4l-7,20.6L69,6.5
			c0,0-7-3.2-11.9-3.2h-0.3C52,3.3,45,6.5,45,6.5l2.6,25.6l-7-20.6c0,0-4.2,2-8.6,9.4s-3.7,13.6-3.7,13.6h-2.6v9.7h6.5l1.4,1.2
			C33.7,45.4,57.1,45.4,57.1,45.4z"/>
		<path class="st2" d="M80.2,47.9H33.7c-0.6,0-1.1-0.2-1.6-0.5l-0.8-0.6h-5.6c-1.4,0-2.5-1.1-2.5-2.5c0,0,0,0,0,0v-9.7
			c0-1.4,1.1-2.5,2.5-2.5c0,0,0,0,0,0h0.1c0.4-4.4,1.8-8.6,4-12.4c4.6-7.9,9.2-10.2,9.7-10.4c1.2-0.6,2.7,0,3.3,1.2l-0.4-3.7
			c-0.1-1.1,0.5-2.1,1.4-2.5c0.3-0.1,7.6-3.5,12.9-3.5h0.3c5.4,0,12.6,3.3,12.9,3.5c1,0.4,1.5,1.5,1.4,2.5l-0.4,3.7
			c0.6-1.2,2.1-1.8,3.3-1.2c0.5,0.2,5.1,2.5,9.7,10.4c2.3,3.8,3.6,8,4,12.4h0.1c1.4,0,2.5,1.1,2.5,2.5v9.7c0,1.4-1.1,2.5-2.5,2.5
			h-5.7l-0.8,0.6C81.3,47.7,80.8,47.9,80.2,47.9z M34.6,42.9h44.7l0.8-0.6c0.4-0.4,1-0.5,1.6-0.5h4.1V37h-0.1
			c-0.7,0-1.4-0.3-1.9-0.8c-0.5-0.5-0.7-1.2-0.6-1.9c0,0,0.5-5.5-3.4-12.1c-1.4-2.4-3.1-4.7-5.2-6.6l-5.9,17.3
			c-0.4,1.3-1.8,2-3.2,1.6c-1.1-0.4-1.8-1.5-1.7-2.6l2.4-23.8c-2.4-1-6.4-2.3-9.2-2.3h-0.3c-2.8,0-6.7,1.3-9.2,2.3l2.4,23.8
			c0.2,1.4-0.8,2.6-2.2,2.8c-1.2,0.1-2.3-0.6-2.7-1.7l-5.9-17.3c-2,1.9-3.8,4.2-5.2,6.6c-3.9,6.6-3.4,12-3.4,12.1
			c0.1,0.7-0.2,1.4-0.6,1.9C29.7,36.7,29,37,28.3,37h-0.1v4.7h4c0.6,0,1.1,0.2,1.6,0.5L34.6,42.9z"/>
	</g>
</g>
</svg>
