<?xml version="1.0" encoding="utf-8"?>
<!-- Generator: Adobe Illustrator 24.0.0, SVG Export Plug-In . SVG Version: 6.00 Build 0)  -->
<svg version="1.1" id="Layer_1" xmlns="http://www.w3.org/2000/svg" xmlns:xlink="http://www.w3.org/1999/xlink" x="0px" y="0px"
	 viewBox="0 0 113.1 116.8" style="enable-background:new 0 0 113.1 116.8;" xml:space="preserve">
<style type="text/css">
	.st0{fill:#F99D22;}
	.st1{fill:#FFFFFF;}
	.st2{fill:#414042;}
	.st3{fill:#B7BEC0;}
</style>
<title>persona-estimator</title>
<g id="Layer_2_1_">
	<g id="Layer_1-2">
		<circle class="st0" cx="56.5" cy="56.5" r="56.5"/>
		<path class="st1" d="M22.5,116.8v-11.8c0-5.2,4.8-9.4,10.7-9.4h46.7c5.9,0,10.6,4.2,10.6,9.4v11.8"/>
		<path class="st2" d="M92.5,116.8h-4v-11.8c0-4.1-3.9-7.4-8.6-7.4H33.2c-4.8,0-8.6,3.3-8.6,7.4v11.8h-4v-11.8
			c0-6.3,5.7-11.4,12.6-11.4h46.7c7,0,12.6,5.1,12.6,11.4V116.8z"/>
		<polygon class="st1" points="66.7,95.4 56.5,101.2 46.4,95.4 46.4,73.2 56.5,73.2 66.7,73.2 		"/>
		<path class="st2" d="M56.5,103.6l-12.2-7V71.2h24.3v25.4L56.5,103.6z M48.4,94.2l8.2,4.7l8.2-4.7v-19H48.4L48.4,94.2z"/>
		<path class="st3" d="M68.1,28.1c0,6.4-5.2,11.7-11.7,11.7c-6.4,0-11.7-5.2-11.7-11.7s5.2-11.7,11.7-11.7c0,0,0,0,0,0
			C62.8,16.5,68.1,21.7,68.1,28.1C68.1,28.1,68.1,28.1,68.1,28.1z"/>
		<path class="st2" d="M56.4,41.8c-7.5,0-13.7-6.1-13.7-13.7s6.1-13.7,13.7-13.7s13.7,6.1,13.7,13.7c0,0,0,0,0,0
			C70.1,35.7,63.9,41.8,56.4,41.8z M56.4,18.5c-5.3,0-9.7,4.3-9.7,9.7c0,5.3,4.3,9.7,9.7,9.7c5.3,0,9.7-4.3,9.7-9.7c0,0,0,0,0,0
			C66.1,22.8,61.7,18.5,56.4,18.5z"/>
		<path class="st1" d="M80.6,53.3H81c2.6,0,4.7,2.1,4.7,4.6c0,0,0,0,0,0v8.6c0,2.6-2.1,4.7-4.7,4.7h-0.4c-2.6,0-4.7-2.1-4.7-4.7V58
			C75.9,55.4,78,53.3,80.6,53.3z"/>
		<path class="st2" d="M81,73.3h-0.4c-3.7,0-6.6-3-6.6-6.7V58c0-3.7,3-6.7,6.7-6.7H81c3.7,0,6.7,3,6.7,6.7c0,0,0,0,0,0v8.6
			C87.7,70.3,84.7,73.3,81,73.3C81,73.3,81,73.3,81,73.3z M80.6,55.3c-1.5,0-2.6,1.2-2.6,2.7v8.6c0,1.5,1.2,2.7,2.7,2.7c0,0,0,0,0,0
			H81c1.5,0,2.7-1.2,2.7-2.7V58c0-1.5-1.2-2.7-2.7-2.7L80.6,55.3z"/>
		<path class="st1" d="M80.2,66.4c0,13.1-10.6,23.8-23.8,23.8l0,0l0,0c-13.1,0-23.8-10.6-23.8-23.8c0,0,0,0,0,0v-19
			c0-13.1,10.6-23.8,23.8-23.8c0,0,0,0,0,0l0,0c13.1,0,23.8,10.6,23.8,23.8l0,0V66.4z"/>
		<path class="st2" d="M56.4,92.2c-14.2,0-25.8-11.5-25.8-25.8v-19c0-14.2,11.5-25.8,25.8-25.8c14.2,0,25.8,11.5,25.8,25.8v19
			C82.2,80.6,70.7,92.2,56.4,92.2z M56.4,25.6c-12,0-21.8,9.8-21.8,21.8v19c0,12,9.8,21.8,21.8,21.8c12,0,21.8-9.8,21.8-21.8v-19
			C78.2,35.4,68.5,25.6,56.4,25.6z"/>
		<path class="st1" d="M32.7,53.4c-2.4,0.2-6.2,2.2-6.2,4.6v8.6c0,2.4,3.8,4.4,6.2,4.7V53.4z"/>
		<path class="st2" d="M34.7,73.5l-2.2-0.2c-3.3-0.3-8-2.9-8-6.6V58c0-3.7,4.7-6.3,8-6.6l2.2-0.2V73.5z M30.7,56
			c-1.2,0.6-2.2,1.4-2.2,2v8.6c0,0.5,1,1.4,2.2,2V56z"/>
		<rect x="54.5" y="106.1" class="st2" width="4" height="3.9"/>
		<rect x="54.5" y="112.9" class="st2" width="4" height="3.9"/>
		<path class="st3" d="M56.4,23.6c-13.1,0-23.8,10.6-23.8,23.8v4.4h30.9l4.2-7.2l4.2,7.2h8.3v-4.4C80.2,34.2,69.6,23.6,56.4,23.6
			L56.4,23.6z"/>
		<path class="st2" d="M82.2,53.8H70.7l-3-5.2l-3,5.2H30.7v-6.4c0-14.2,11.5-25.8,25.8-25.8c14.2,0,25.8,11.5,25.8,25.8V53.8z
			 M73,49.8h5.2v-2.4c0-12-9.7-21.8-21.8-21.8c-12,0-21.8,9.7-21.8,21.8c0,0,0,0,0,0v2.4h27.8l5.3-9.2L73,49.8z"/>
		<path class="st1" d="M53,69.4c0.9,2,3.3,2.9,5.3,1.9c0.9-0.4,1.5-1.1,1.9-1.9"/>
		<path class="st1" d="M50.9,78v0.4c0,2.4,1.9,4.3,4.3,4.3h0h3c2.3,0,4.2-1.9,4.2-4.3c0,0,0,0,0,0V78H50.9z"/>
	</g>
</g>
</svg>
