<?xml version="1.0" encoding="UTF-8"?>
<svg width="8px" height="13px" viewBox="0 0 8 13" version="1.1" xmlns="http://www.w3.org/2000/svg" xmlns:xlink="http://www.w3.org/1999/xlink">
    <!-- Generator: Sketch 54.1 (76490) - https://sketchapp.com -->
    <title>angle-right-white</title>
    <desc>Created with Sketch.</desc>
    <g id="HiFi-Wires" stroke="none" stroke-width="1" fill="none" fill-rule="evenodd">
        <g id="Colors" transform="translate(-1085.000000, -402.000000)" fill="#FFFFFF" fill-rule="nonzero">
            <path d="M1092.03984,408.675023 L1086.52734,414.225023 C1086.42734,414.325023 1086.32109,414.375023 1086.20859,414.375023 C1086.09609,414.375023 1085.98984,414.337523 1085.88984,414.262523 L1085.13984,413.512523 C1085.06484,413.412523 1085.02734,413.300023 1085.02734,413.175023 C1085.02734,413.050023 1085.06484,412.950023 1085.13984,412.875023 L1089.60234,408.375023 L1085.13984,403.875023 C1085.06484,403.800023 1085.02734,403.700023 1085.02734,403.575023 C1085.02734,403.450023 1085.06484,403.337523 1085.13984,403.237523 L1085.88984,402.487523 C1085.98984,402.412523 1086.09609,402.375023 1086.20859,402.375023 C1086.32109,402.375023 1086.42734,402.412523 1086.52734,402.487523 L1092.03984,408.037523 C1092.11484,408.137523 1092.15234,408.250023 1092.15234,408.375023 C1092.15234,408.500023 1092.11484,408.612523 1092.03984,408.712523 L1092.03984,408.675023 Z" id="angle-right-white"></path>
        </g>
    </g>
</svg>