<?xml version="1.0" encoding="UTF-8"?>
<svg width="60px" height="83px" viewBox="0 0 60 83" version="1.1" xmlns="http://www.w3.org/2000/svg" xmlns:xlink="http://www.w3.org/1999/xlink">
    <!-- Generator: Sketch 54.1 (76490) - https://sketchapp.com -->
    <title>close</title>
    <desc>Created with Sketch.</desc>
    <g id="close" stroke="none" stroke-width="1" fill="none" fill-rule="evenodd">
        <path d="M34.675,30 L51.725,47.05 C51.9083326,47.2333326 52,47.4854174 52,47.80625 C52,48.1270826 51.9083326,48.3791674 51.725,48.5625 L48.5625,51.725 C48.3791674,51.9083326 48.1270826,52 47.80625,52 C47.4854174,52 47.2333326,51.9083326 47.05,51.725 L30,34.675 L12.95,51.725 C12.7666674,51.9083326 12.5145826,52 12.19375,52 C11.8729174,52 11.6208326,51.9083326 11.4375,51.725 L8.275,48.5625 C8.09166737,48.3791674 8,48.1270826 8,47.80625 C8,47.4854174 8.09166737,47.2333326 8.275,47.05 L25.325,30 L8.275,12.95 C8.09166737,12.7666674 8,12.5145826 8,12.19375 C8,11.8729174 8.09166737,11.6208326 8.275,11.4375 L11.4375,8.275 C11.6208326,8.09166737 11.8729174,8 12.19375,8 C12.5145826,8 12.7666674,8.09166737 12.95,8.275 L30,25.325 L47.05,8.275 C47.2333326,8.09166737 47.4854174,8 47.80625,8 C48.1270826,8 48.3791674,8.09166737 48.5625,8.275 L51.725,11.4375 C51.9083326,11.6208326 52,11.8729174 52,12.19375 C52,12.5145826 51.9083326,12.7666674 51.725,12.95 L34.675,30 Z" id="t" fill="#FFFFFF" fill-rule="nonzero"></path>
        <path d="M18.696,65.336 C18.6533331,65.394667 18.6106669,65.4399998 18.568,65.472 C18.5253331,65.5040002 18.4640004,65.52 18.384,65.52 C18.3039996,65.52 18.2173338,65.486667 18.124,65.42 C18.0306662,65.353333 17.9120007,65.2800004 17.768,65.2 C17.6239993,65.1199996 17.4493344,65.046667 17.244,64.98 C17.0386656,64.913333 16.7866682,64.88 16.488,64.88 C16.0933314,64.88 15.7440015,64.950666 15.44,65.092 C15.1359985,65.233334 14.8813344,65.437332 14.676,65.704 C14.4706656,65.970668 14.3160005,66.2933314 14.212,66.672 C14.1079995,67.0506686 14.056,67.4746643 14.056,67.944 C14.056,68.4346691 14.1119994,68.8706648 14.224,69.252 C14.3360006,69.6333352 14.4933323,69.953332 14.696,70.212 C14.8986677,70.470668 15.1453319,70.6679993 15.436,70.804 C15.7266681,70.9400007 16.0533315,71.008 16.416,71.008 C16.7626684,71.008 17.0479989,70.9666671 17.272,70.884 C17.4960011,70.8013329 17.6826659,70.7093338 17.832,70.608 C17.9813341,70.5066662 18.1039995,70.4146671 18.2,70.332 C18.2960005,70.2493329 18.3919995,70.208 18.488,70.208 C18.6106673,70.208 18.701333,70.2533329 18.76,70.344 L19.16,70.864 C18.8079982,71.2960022 18.3680026,71.611999 17.84,71.812 C17.3119974,72.012001 16.7546696,72.112 16.168,72.112 C15.6613308,72.112 15.1906688,72.0186676 14.756,71.832 C14.3213312,71.6453324 13.9440016,71.3746684 13.624,71.02 C13.3039984,70.6653316 13.0520009,70.2293359 12.868,69.712 C12.6839991,69.1946641 12.592,68.6053366 12.592,67.944 C12.592,67.3413303 12.6759992,66.7840026 12.844,66.272 C13.0120008,65.7599974 13.2573317,65.3186685 13.58,64.948 C13.9026683,64.5773315 14.301331,64.288001 14.776,64.08 C15.250669,63.871999 15.7946636,63.768 16.408,63.768 C16.9733362,63.768 17.4746645,63.8599991 17.912,64.044 C18.3493355,64.2280009 18.7359983,64.4879983 19.072,64.824 L18.696,65.336 Z M22.224,60.216 L22.224,72 L20.8,72 L20.8,60.216 L22.224,60.216 Z M28.016,63.768 C28.608003,63.768 29.1426643,63.8666657 29.62,64.064 C30.0973357,64.2613343 30.502665,64.5413315 30.836,64.904 C31.169335,65.2666685 31.4253324,65.7053308 31.604,66.22 C31.7826676,66.7346692 31.872,67.3093302 31.872,67.944 C31.872,68.5840032 31.7826676,69.1599974 31.604,69.672 C31.4253324,70.1840026 31.169335,70.6213315 30.836,70.984 C30.502665,71.3466685 30.0973357,71.6253324 29.62,71.82 C29.1426643,72.0146676 28.608003,72.112 28.016,72.112 C27.423997,72.112 26.8893357,72.0146676 26.412,71.82 C25.9346643,71.6253324 25.5280017,71.3466685 25.192,70.984 C24.8559983,70.6213315 24.5973342,70.1840026 24.416,69.672 C24.2346658,69.1599974 24.144,68.5840032 24.144,67.944 C24.144,67.3093302 24.2346658,66.7346692 24.416,66.22 C24.5973342,65.7053308 24.8559983,65.2666685 25.192,64.904 C25.5280017,64.5413315 25.9346643,64.2613343 26.412,64.064 C26.8893357,63.8666657 27.423997,63.768 28.016,63.768 Z M28.016,71 C28.816004,71 29.4133314,70.7320027 29.808,70.196 C30.2026686,69.6599973 30.4,68.9120048 30.4,67.952 C30.4,66.9866618 30.2026686,66.2346694 29.808,65.696 C29.4133314,65.1573306 28.816004,64.888 28.016,64.888 C27.6106646,64.888 27.2586682,64.9573326 26.96,65.096 C26.6613318,65.2346674 26.412001,65.4346654 26.212,65.696 C26.011999,65.9573346 25.8626672,66.2786648 25.764,66.66 C25.6653328,67.0413352 25.616,67.4719976 25.616,67.952 C25.616,68.4320024 25.6653328,68.8613314 25.764,69.24 C25.8626672,69.6186686 26.011999,69.937332 26.212,70.196 C26.412001,70.454668 26.6613318,70.6533326 26.96,70.792 C27.2586682,70.9306674 27.6106646,71 28.016,71 Z M38.272,65.232 C38.2079997,65.3493339 38.109334,65.408 37.976,65.408 C37.8959996,65.408 37.8053338,65.378667 37.704,65.32 C37.6026662,65.261333 37.4786674,65.1960004 37.332,65.124 C37.1853326,65.0519996 37.0106677,64.9853336 36.808,64.924 C36.6053323,64.8626664 36.3653347,64.832 36.088,64.832 C35.8479988,64.832 35.632001,64.8626664 35.44,64.924 C35.247999,64.9853336 35.0840007,65.0693328 34.948,65.176 C34.8119993,65.2826672 34.7080004,65.406666 34.636,65.548 C34.5639996,65.689334 34.528,65.8426658 34.528,66.008 C34.528,66.216001 34.5879994,66.3893326 34.708,66.528 C34.8280006,66.6666674 34.9866657,66.7866662 35.184,66.888 C35.3813343,66.9893338 35.6053321,67.0786663 35.856,67.156 C36.1066679,67.2333337 36.3639987,67.3159996 36.628,67.404 C36.8920013,67.4920004 37.1493321,67.5893328 37.4,67.696 C37.6506679,67.8026672 37.8746657,67.9359992 38.072,68.096 C38.2693343,68.2560008 38.4279994,68.4519988 38.548,68.684 C38.6680006,68.9160012 38.728,69.194665 38.728,69.52 C38.728,69.8933352 38.661334,70.2386651 38.528,70.556 C38.394666,70.8733349 38.1973346,71.1479988 37.936,71.38 C37.6746654,71.6120012 37.3546686,71.794666 36.976,71.928 C36.5973314,72.061334 36.1600025,72.128 35.664,72.128 C35.0986638,72.128 34.586669,72.0360009 34.128,71.852 C33.669331,71.6679991 33.2800016,71.4320014 32.96,71.144 L33.296,70.6 C33.3386669,70.5306663 33.389333,70.4773335 33.448,70.44 C33.506667,70.4026665 33.5839995,70.384 33.68,70.384 C33.7760005,70.384 33.8773328,70.421333 33.984,70.496 C34.0906672,70.570667 34.2199992,70.6533329 34.372,70.744 C34.5240008,70.8346671 34.7079989,70.917333 34.924,70.992 C35.1400011,71.066667 35.410665,71.104 35.736,71.104 C36.0133347,71.104 36.255999,71.0680004 36.464,70.996 C36.672001,70.9239996 36.8453326,70.8266673 36.984,70.704 C37.1226674,70.5813327 37.225333,70.4400008 37.292,70.28 C37.358667,70.1199992 37.392,69.9493342 37.392,69.768 C37.392,69.5439989 37.3320006,69.3586674 37.212,69.212 C37.0919994,69.0653326 36.9333343,68.9400005 36.736,68.836 C36.5386657,68.7319995 36.3133346,68.6413337 36.06,68.564 C35.8066654,68.4866663 35.5480013,68.4053338 35.284,68.32 C35.0199987,68.2346662 34.7613346,68.1373339 34.508,68.028 C34.2546654,67.9186661 34.0293343,67.7813342 33.832,67.616 C33.6346657,67.4506658 33.4760006,67.2466679 33.356,67.004 C33.2359994,66.7613321 33.176,66.4666684 33.176,66.12 C33.176,65.8106651 33.2399994,65.5133348 33.368,65.228 C33.4960006,64.9426652 33.6826654,64.6920011 33.928,64.476 C34.1733346,64.2599989 34.4746649,64.0880006 34.832,63.96 C35.1893351,63.8319994 35.597331,63.768 36.056,63.768 C36.589336,63.768 37.0679979,63.8519992 37.492,64.02 C37.9160021,64.1880008 38.2826651,64.4186652 38.592,64.712 L38.272,65.232 Z M43.784,63.768 C44.2693358,63.768 44.7173313,63.8493325 45.128,64.012 C45.5386687,64.1746675 45.8933318,64.4093318 46.192,64.716 C46.4906682,65.0226682 46.7239992,65.4013311 46.892,65.852 C47.0600008,66.3026689 47.144,66.8159971 47.144,67.392 C47.144,67.6160011 47.1200002,67.765333 47.072,67.84 C47.0239998,67.914667 46.933334,67.952 46.8,67.952 L41.408,67.952 C41.4186667,68.4640026 41.4879994,68.9093314 41.616,69.288 C41.7440006,69.6666686 41.9199989,69.9826654 42.144,70.236 C42.3680011,70.4893346 42.6346651,70.678666 42.944,70.804 C43.2533349,70.929334 43.5999981,70.992 43.984,70.992 C44.3413351,70.992 44.649332,70.9506671 44.908,70.868 C45.166668,70.7853329 45.3893324,70.6960005 45.576,70.6 C45.7626676,70.5039995 45.918666,70.4146671 46.044,70.332 C46.169334,70.2493329 46.2773329,70.208 46.368,70.208 C46.4853339,70.208 46.5759997,70.2533329 46.64,70.344 L47.04,70.864 C46.8639991,71.0773344 46.6533346,71.2626659 46.408,71.42 C46.1626654,71.5773341 45.9000014,71.7066662 45.62,71.808 C45.3399986,71.9093338 45.0506682,71.9853331 44.752,72.036 C44.4533318,72.0866669 44.1573348,72.112 43.864,72.112 C43.3039972,72.112 42.7880024,72.0173343 42.316,71.828 C41.8439976,71.6386657 41.4360017,71.3613352 41.092,70.996 C40.7479983,70.6306648 40.480001,70.1786694 40.288,69.64 C40.095999,69.1013306 40,68.4826702 40,67.784 C40,67.2186638 40.0866658,66.6906691 40.26,66.2 C40.4333342,65.7093309 40.682665,65.2840018 41.008,64.924 C41.333335,64.5639982 41.7306643,64.2813344 42.2,64.076 C42.6693357,63.8706656 43.1973304,63.768 43.784,63.768 Z M43.816,64.816 C43.1279966,64.816 42.5866686,65.0146647 42.192,65.412 C41.7973314,65.8093353 41.5520005,66.3599965 41.456,67.064 L45.864,67.064 C45.864,66.7333317 45.8186671,66.430668 45.728,66.156 C45.6373329,65.881332 45.5040009,65.644001 45.328,65.444 C45.1519991,65.243999 44.9373346,65.0893339 44.684,64.98 C44.4306654,64.8706661 44.141335,64.816 43.816,64.816 Z" fill="#FFFFFF" fill-rule="nonzero"></path>
    </g>
</svg>