<?xml version="1.0" encoding="UTF-8"?>
<svg width="40px" height="40px" viewBox="0 0 40 40" version="1.1" xmlns="http://www.w3.org/2000/svg" xmlns:xlink="http://www.w3.org/1999/xlink">
    <!-- Generator: Sketch 54.1 (76490) - https://sketchapp.com -->
    <title>Medium</title>
    <desc>Created with Sketch.</desc>
    <defs>
        <linearGradient x1="100%" y1="81.47326%" x2="0%" y2="18.52674%" id="linearGradient-1">
            <stop stop-color="#66BDFC" offset="0%"></stop>
            <stop stop-color="#358DCC" offset="100%"></stop>
        </linearGradient>
        <path d="M8.49998927,12.8750456 C8.49998927,12.5000465 8.3541566,12.1667143 8.06249031,11.875048 L5.24999702,8.50005603 L5.24999702,8.00005722 L14.062476,8.00005722 L20.8124599,22.8750218 L26.7499458,8.00005722 L35.1249258,8.00005722 L35.1249258,8.50005603 L32.6874316,10.8125505 C32.4790991,10.9792171 32.3957653,11.2083826 32.4374322,11.5000489 L32.4374322,28.5000083 C32.3957653,28.7916746 32.4790991,29.0208401 32.6874316,29.1875067 L35.0624259,31.5000012 L35.0624259,32 L23.1874543,32 L23.1874543,31.5000012 L25.6249484,29.1250069 C25.7499481,29.0000072 25.822865,28.9062574 25.8436979,28.8437575 C25.8645309,28.7812577 25.8749478,28.645841 25.8749478,28.4375085 L25.8749478,14.6875413 L19.1249639,31.9375001 L18.1874662,31.9375001 L10.2499851,14.6875413 L10.2499851,26.2500137 C10.2083182,26.7500125 10.3541518,27.1875115 10.6874841,27.5625106 L13.8749765,31.4375013 L13.8749765,31.9375001 L4.87499791,31.9375001 L4.87499791,31.4375013 L8.06249031,27.5625106 C8.43748942,27.1875115 8.58332209,26.7500125 8.49998927,26.2500137 L8.49998927,12.8750456 Z" id="path-2"></path>
        <filter x="-1.7%" y="-2.1%" width="103.3%" height="104.2%" filterUnits="objectBoundingBox" id="filter-3">
            <feOffset dx="0" dy="-1" in="SourceAlpha" result="shadowOffsetInner1"></feOffset>
            <feComposite in="shadowOffsetInner1" in2="SourceAlpha" operator="arithmetic" k2="-1" k3="1" result="shadowInnerInner1"></feComposite>
            <feColorMatrix values="0 0 0 0 0   0 0 0 0 0   0 0 0 0 0  0 0 0 0.1 0" type="matrix" in="shadowInnerInner1"></feColorMatrix>
        </filter>
    </defs>
    <g id="Medium" stroke="none" stroke-width="1" fill="none" fill-rule="evenodd">
        <g id="m" fill-rule="nonzero">
            <use fill="#FFFFFF" xlink:href="#path-2"></use>
            <use fill="url(#linearGradient-1)" xlink:href="#path-2"></use>
            <use fill="black" fill-opacity="1" filter="url(#filter-3)" xlink:href="#path-2"></use>
        </g>
    </g>
</svg>