<?xml version="1.0" encoding="utf-8"?>
<!-- Generator: Adobe Illustrator 21.0.2, SVG Export Plug-In . SVG Version: 6.00 Build 0)  -->
<svg version="1.1" xmlns="http://www.w3.org/2000/svg" xmlns:xlink="http://www.w3.org/1999/xlink" x="0px" y="0px"
	 viewBox="0 0 883 210" style="enable-background:new 0 0 883 210;" xml:space="preserve">
<style type="text/css">
	.st0{fill-rule:evenodd;clip-rule:evenodd;fill:#DEDEDE;}
	.st1{fill-rule:evenodd;clip-rule:evenodd;fill:#22648A;}
	.st2{fill-rule:evenodd;clip-rule:evenodd;fill:#FFFFFF;}
	.st3{fill:#22648A;}
	.st4{fill:#FFFFFF;}
</style>
<g id="Book_1_">
	<g id="Rounded_Rectangle_1">
		<g>
			<path class="st0" d="M873,10H743c-5.5,0-10,4.5-10,10v180c0,5.5,4.5,10,10,10h130c5.5,0,10-4.5,10-10V20
				C883,14.5,878.5,10,873,10z"/>
		</g>
	</g>
	<g id="Rounded_Rectangle_1_copy">
		<g>
			<path class="st1" d="M863,0H733c-5.5,0-10,4.5-10,10v180c0,5.5,4.5,10,10,10h130c5.5,0,10-4.5,10-10V10C873,4.5,868.5,0,863,0z"
				/>
		</g>
	</g>
	<g id="Rounded_Rectangle_2">
		<g>
			<path class="st2" d="M740.5,10c-4.1,0-7.5,3.4-7.5,7.5v165c0,4.1,3.4,7.5,7.5,7.5c4.1,0,7.5-3.4,7.5-7.5v-165
				C748,13.4,744.6,10,740.5,10z"/>
		</g>
	</g>
</g>
<g id="eJournal">
	<g>
		<path class="st3" d="M45,183.9c-13.9,0-24.7-4.8-32.4-14.5c-7.7-9.6-11.5-22-11.5-37.2v-4c0-16,3.7-28.9,11.1-39
			c7.4-10,17.8-15,31.2-15c12.4,0,22,4.3,28.6,12.8c6.6,8.5,10,20.1,10,34.8v15H28.6c0.5,7.8,2.2,14,5.3,18.7
			c3.1,4.6,7.9,6.9,14.3,6.9c5.5,0,10-0.6,13.7-1.9c3.7-1.3,7.6-3.3,11.9-6l7.1,17.2c-3.8,3.5-8.9,6.3-15.3,8.7
			C59.3,182.7,52.4,183.9,45,183.9z M43.4,95.8c-4.6,0-8.1,2-10.3,6.1c-2.2,4.1-3.7,9.7-4.2,16.7H55v-2.4c0-6.4-0.9-11.5-2.7-15
			C50.5,97.6,47.5,95.8,43.4,95.8z"/>
		<path class="st4" d="M145.7,39.6h27.5v97.9c0,14.1-3.8,25.4-11.4,33.7c-7.6,8.4-17.3,12.5-29.2,12.5c-13.4,0-24-3.7-31.7-11.1
			c-7.7-7.4-11.5-18.3-11.2-32.5l0.3-0.6h26.7c0,7.7,1.5,13.5,4.4,17.2c3,3.7,6.8,5.6,11.6,5.6c3.8,0,7-2.2,9.4-6.6
			c2.4-4.4,3.7-10.5,3.7-18.2V39.6z"/>
		<path class="st4" d="M189.8,128c0-15.9,3.8-28.8,11.4-38.8c7.6-10,18.2-15,32-15c13.7,0,24.3,5,32,15c7.7,10,11.5,22.9,11.5,38.8
			v2.2c0,15.9-3.8,28.8-11.5,38.7c-7.7,9.9-18.3,14.9-31.9,14.9c-13.8,0-24.5-4.9-32.1-14.8c-7.6-9.9-11.4-22.8-11.4-38.8V128z
			 M217.2,130.2c0,9.8,1.2,17.6,3.7,23.4c2.4,5.8,6.6,8.7,12.5,8.7c5.6,0,9.6-2.9,12.1-8.7c2.5-5.8,3.7-13.6,3.7-23.4V128
			c0-9.7-1.2-17.5-3.7-23.4c-2.5-5.9-6.6-8.8-12.3-8.8c-5.7,0-9.8,3-12.3,8.9c-2.4,5.9-3.7,13.7-3.7,23.3V130.2z"/>
		<path class="st4" d="M346.6,166.8c-2.8,5.5-6.3,9.7-10.5,12.6s-9.1,4.4-14.6,4.4c-9.5,0-17-3.8-22.4-11.4
			c-5.4-7.6-8.2-19.4-8.2-35.4V76.1h27.5v61.1c0,9.4,0.9,16,2.8,19.6s4.8,5.4,8.7,5.4c3.2,0,6-0.6,8.4-1.8c2.4-1.2,4.5-3,6.2-5.3
			v-79h27.6v105.7h-22.6L346.6,166.8z"/>
		<path class="st4" d="M439.3,100l-9.4-0.3c-3.1,0-5.6,0.8-7.7,2.4c-2.1,1.6-3.6,3.9-4.7,6.8v72.9H390V76.1h25.7l1.1,14.9
			c2-5.3,4.6-9.5,7.8-12.5c3.2-3,6.8-4.4,10.9-4.4c1.2,0,2.4,0.1,3.4,0.3c1,0.2,2.1,0.5,3.2,0.8L439.3,100z"/>
		<path class="st4" d="M477.4,76.1l1.2,14.7c3-5.3,6.7-9.4,11-12.3c4.3-2.9,9.2-4.4,14.5-4.4c9,0,16,3.5,21.1,10.5
			c5.1,7,7.7,18,7.7,33v64.2h-27.5v-64.2c0-7.9-1-13.6-2.9-16.8c-1.9-3.3-4.8-4.9-8.7-4.9c-3.1,0-5.8,0.7-8.3,2.1
			c-2.4,1.4-4.5,3.5-6.2,6.1v77.7h-27.5V76.1H477.4z"/>
		<path class="st4" d="M603.4,181.8c-1-2.3-1.9-4.9-2.6-7.6s-1.2-5.5-1.5-8.4c-2.3,5.3-5.4,9.6-9.2,13s-8.5,5.1-14,5.1
			c-9.6,0-17-2.8-22.2-8.4c-5.2-5.6-7.8-13.4-7.8-23.2c0-10.3,3.4-18.3,10.2-24c6.8-5.7,17-8.5,30.5-8.5h12v-8.8
			c0-5.3-1-9.3-2.9-12.2s-4.9-4.2-8.7-4.2c-3.4,0-6,1.1-7.7,3.4c-1.8,2.3-2.6,5.5-2.6,9.8l-26.6-0.1l-0.2-0.6
			c-0.4-9.1,3-16.9,10.3-23.2c7.2-6.4,16.8-9.6,28.6-9.6c11.1,0,20.1,3.2,27.1,9.6c6.9,6.4,10.4,15.5,10.4,27.3v43.4
			c0,4.9,0.4,9.6,1.1,14.1c0.7,4.4,1.8,8.9,3.3,13.3H603.4z M583.2,163.5c3.6,0,6.9-1.1,9.8-3.4c2.9-2.2,4.8-5,5.9-8.2v-16.6h-12
			c-4.6,0-8,1.5-10.1,4.5c-2.1,3-3.2,6.8-3.2,11.3c0,3.6,0.9,6.6,2.6,8.9C577.9,162.3,580.3,163.5,583.2,163.5z"/>
		<path class="st4" d="M673,181.8h-27.5V29.5H673V181.8z"/>
	</g>
</g>
</svg>
