<svg xmlns="http://www.w3.org/2000/svg" viewBox="0 0 524.03 56.84"><defs><style>.cls-1{fill:#fff;}</style></defs><title>Asset 1</title><g id="Layer_2" data-name="Layer 2"><g id="Laag_1" data-name="Laag 1"><rect y="0.14" width="56.69" height="56.69"/><polygon class="cls-1" points="24.07 16.29 28.35 12 32.63 16.29 35 13.92 30.72 9.63 35 5.35 32.63 2.98 28.35 7.26 24.07 2.98 21.7 5.35 25.98 9.63 21.7 13.92 24.07 16.29"/><polygon class="cls-1" points="24.07 32.04 28.35 27.76 32.63 32.04 35 29.67 30.72 25.39 35 21.11 32.63 18.74 28.35 23.02 24.07 18.74 21.7 21.11 25.98 25.39 21.7 29.67 24.07 32.04"/><polygon class="cls-1" points="24.07 53.97 28.35 49.69 32.63 53.97 35 51.6 30.72 47.32 35 43.04 32.63 40.67 28.35 44.95 24.07 40.67 21.7 43.04 25.98 47.32 21.7 51.6 24.07 53.97"/><path class="cls-1" d="M41.23,16.22l-4.93.23a62.67,62.67,0,0,1,.41,10.45c-.29,5-1.08,5.9-1.08,5.9-1.11,2.09-4.56,2.6-6.32,2.73a14.65,14.65,0,0,1-2.56,0s-5.08-.2-6.22-2.56a13.71,13.71,0,0,1-.79-4s0-12.41-.08-12.69a15.09,15.09,0,0,0-2.19.1c-.94,0-2.32-.06-2.32-.06l.41,9.11-.06,5.39s0,2.89.74,4a7.66,7.66,0,0,0,3.43,3,16,16,0,0,0,3.44,1,15.38,15.38,0,0,0,6.78-.36,9.92,9.92,0,0,0,4.42-2.18l2.32-2.18V39.4L41.53,38a78.18,78.18,0,0,1-.64-11.06c0-7,.34-10.69.34-10.69"/><path d="M333.46,17.64l-1.72,5.56a9.28,9.28,0,0,0-.47,2.55c0,1.29,1.84,1.57,2.9,1.57.35,0,.43.23.43.75s0,.55-.32.55c-.9,0-3.76-.2-4.82-.2s-2.7.2-3.88.2c-.78,0-.78-.12-.78-.63v-.43c0-.19.35-.27,1.29-.35,2-.19,2.32-.59,3.06-2.75l7.76-22.57A8.62,8.62,0,0,1,339.49,0l9.84,24.81c.66,1.65,1.37,2.47,3.64,2.47.43,0,.51.47.51.9s-.27.43-.74.43c-.64,0-3.14-.2-4.67-.2s-3.14.08-4.7.2c-.59,0-.63-.12-.63-.67s.23-.63.79-.63S346,27.2,346,26.26a7.87,7.87,0,0,0-.71-2.31l-2.51-6.31Zm8.66-1.53L337.78,4.9h-.08L334,16.11Z"/><path d="M276.33,18.48a11.35,11.35,0,0,1,11.3-11.13c6.15,0,11.62,4.22,11.62,10.31,0,5.89-5.68,11.19-11.51,11.19-6.12,0-11.41-4-11.41-10.37m19.79-.23c0-4.92-3.37-9.93-8.64-9.93s-8,4.25-8,9.19,3,10.2,8.49,10.2,8.17-4.42,8.17-9.46"/><path d="M302.84,11c0-1.78-.29-2.17-2-2.17h-.5c-.52,0-.76-.06-.76-.24s0-.73.33-.73h12c1,0,2-.14,3-.14.17,0,.41,0,.41.26l.12,3.3c0,.21,0,.41,0,.62s-.23.17-.53.17h-.44c-.06-.35-.12-.7-.2-1l-.26-.91C313.71,9,312.86,8.87,312,8.87h-4.1c-2.17,0-2.37.67-2.37,2.81v5.15h4.34c2.51,0,3.13-.7,3.13-2.31a4.54,4.54,0,0,1,.79-.15c.12,0,.18.06.18.21a24.61,24.61,0,0,0-.12,2.81c0,.85.12,2.37.12,3,0,.26-.2.38-.53.38s-.32-.26-.44-.73c-.2-1.2-.79-2.25-3.28-2.25h-4.19v7.67c0,1.14.15,1.76,1.65,1.88l1.52.12c.14,0,.2.18.2.38s0,.59-.32.59c-2.2,0-3.13-.14-4.51-.14-1.2,0-3.37.14-4.15.14-.24,0-.24-.29-.24-.52s0-.44.15-.44l1.29-.09c1.55-.12,1.78-.47,1.78-2.19Z"/><path d="M75.21,5.3c0-3.09-1.88-3.09-4-3.09L71,2V1.38c0-.43.27-.47.7-.47,1,0,3.52.2,5.36.2S81,.92,83,.92l.12.12V2l-.19.16h-.47c-2.54,0-3.68.27-3.68,3.21V16.75c0,5.63,1.1,10.05,7.82,10.05,7,0,9.27-3.37,9.27-10V6.66c0-4.46,0-4.15-3.44-4.46l-.16-.31V1.15l.12-.23c.7,0,1.48.2,4.42.2,1.65,0,3.72-.2,5-.2l.16.23V2l-.24.24c-2.85,0-3.87.16-3.87,2.11v14c0,7.16-4.18,10.79-11.3,10.79-5.67,0-11.26-2-11.26-8.52Z"/><path d="M104.12,11.39a1.78,1.78,0,0,0-.15-1,4.43,4.43,0,0,0-2-1.59l-1.55-.09c-.12,0-.15-.29-.15-.52s0-.38.15-.38c.91,0,1.61-.06,2.34-.06,1.35,0,3.49.12,4,.18l8.88,10.72A67.47,67.47,0,0,0,120.38,24h.12V11.07c0-1.93-.7-2.23-1.64-2.26l-1.26-.06c-.12,0-.18-.29-.18-.49s.09-.47.27-.47c.64,0,2.17.15,3.6.15s2.73-.15,3.55-.15c.15,0,.18.12.18.24v.55c0,.14-.06.18-.26.18H124c-2,0-2,1-2,3.52v17h-.7L105.43,11.16V24.61c0,2.52.35,2.81,2.87,2.9.12,0,.21.26.21.49s0,.47-.12.47c-.56,0-2.43-.15-3.66-.15-1.44,0-2.08.15-3.43.15-.18,0-.21-.2-.21-.58s0-.38.38-.38c1.23,0,2.63-.29,2.63-1.79Z"/><path d="M132.69,23.05c0,4.28.09,4.31,3,4.46l.15.21v.55c0,.17-.44.2-.7.2s-2.37-.15-3.57-.15c-1.41,0-2.84.15-4.37.15-.12-.06-.15-.23-.15-.53s.09-.44.94-.44c2,0,2.11-.44,2.11-2.67v-14c0-1.67-.5-2.08-3-2.08L127,8.61,127,8.14c0-.32.29-.35.47-.35.79,0,1.73.15,3.72.15,1.46,0,3.23-.15,4.4-.15l.15.21v.52l-.12.18-.79.06c-1.17.09-2.08.21-2.08,1.55Z"/><path d="M139.73,9.75c-.32-.79-1.49-1-2.32-1l-.18-.14V7.85l.32-.06c1.23,0,3,.15,3.67.15,1.34,0,2.66-.15,4-.15l.09.09-.09.82-1.38.12c-.47,0-1,.2-1,.64a2.74,2.74,0,0,0,.26.88l3.37,8.79,1.91,4.36c.2.44.23.53.32.53s.14-.12.26-.46l4.19-11.11a11,11,0,0,0,.79-2.7c0-.5-.18-.76-1-.84l-1.52-.15-.18-.09V7.76c1.15,0,2.28.17,3.43.17.91,0,2.84-.17,3-.17l.23.12v.67l-.26.2-.91.06c-.59,0-.82.32-1.23,1.35-2.78,6.71-3.46,8.82-5.68,14.47l-1.49,3.81c-.14.41-.2.44-.41.44s-.32-.09-.38-.21Z"/><path d="M162.65,10.77c0-1.9-1.44-2.11-3.14-2.11-.12,0-.12-.15-.12-.27V8.08c0-.26.5-.29,1.52-.29s2.49.15,3.72.15,2.34-.15,3.52-.15h6.18c.23,0,.26.27.26.59v3.58a.2.2,0,0,1-.2.23c-.23,0-.7,0-.73-.32l-.09-.91c-.18-1.87-1.47-2.2-3.11-2.2h-3c-1.64,0-2.17.35-2.17,2.58v5.3c0,.09.18.24.23.24l3.46-.12c1.76-.06,2.26-.62,2.7-2.17.06-.17.15-.23.47-.23s.36,0,.36.18c0,.62-.18,2-.18,2.93,0,1.58.18,2.43.18,2.92,0,.18-.3.36-.47.36a.45.45,0,0,1-.5-.38,16.19,16.19,0,0,0-.29-1.76c-.15-.44-.5-.64-1.38-.67l-4.16-.09c-.41,0-.41.15-.41.35v7c0,2.11,1.56,2.17,3.58,2.17h1.58a7,7,0,0,0,3.37-.46,8.76,8.76,0,0,0,1.87-2.9c.38,0,.88.09.88.29a1.8,1.8,0,0,1-.15.47l-.82,3c-.23.79-.38.79-.76.79-3.16,0-6.27-.15-10.52-.15-1,0-3.43.15-4.92.15-.09,0-.18-.3-.18-.47s.06-.49.18-.49c2.56-.12,3.25-.38,3.25-3.08Z"/><path d="M182,11c0-1.46-.06-2.2-1.9-2.2h-1.2c-.18,0-.2-.32-.2-.56s.09-.41.2-.41c1.7,0,3.43.09,5.13.09,1.35,0,2.67-.09,4-.09,3,0,5.92,2,5.92,5.07,0,2.66-2.43,4.45-4.72,4.8v.06c1.14.27,2.34,2.41,2.64,2.87l3.22,4.92a3.51,3.51,0,0,0,3.46,1.93l.18.17v.55a.28.28,0,0,1-.32.3c-.61,0-1.52-.09-2-.09-.7,0-1.41.09-2.11.09s-2-2-3.72-5c-1.9-3.37-3-5.21-4.95-5.21a7.74,7.74,0,0,0-1,.06v7.19c0,1,0,2,1.47,2,1.11,0,1.61,0,1.61.23,0,.56-.09.73-.53.73-1.52,0-2.78-.15-4-.15-.5,0-3.75.15-4.16.15-.18,0-.23-.38-.23-.62s.12-.32.71-.35c2-.09,2.54-.38,2.54-2.4Zm2.64,6.24c.38,0,.73.06,1.11.06,2.35,0,5.28-.82,5.28-4.28a4.05,4.05,0,0,0-4.34-4.25c-2,0-2.05.47-2.05,1.35Z"/><path d="M203.34,17.81c-2.11-1.26-3-2.43-3-4.72,0-3.66,3-5.71,6.94-5.71A10.62,10.62,0,0,1,211,8.2l.2,3.66V12c0,.15-.29.21-.7.21s-.44-.18-.47-.47a3.46,3.46,0,0,0-3.7-3.22,3.36,3.36,0,0,0-3.54,3.29c0,2.11,1.28,2.93,4.21,4.48s5.42,2.87,5.42,6.54c0,4-3.6,6.06-7.27,6.06a13.76,13.76,0,0,1-4.31-.85c-.23-.12-.32-.5-.41-1.14l-.35-2.76c0-.17.59-.17.76-.17s.18.06.23.26a4.47,4.47,0,0,0,4.54,3.52,4.08,4.08,0,0,0,4-3.78c0-1.91-1.08-3.05-2.61-4Z"/><path d="M220.64,23.05c0,4.28.09,4.31,3,4.46l.15.21v.55c0,.17-.44.2-.71.2s-2.37-.15-3.57-.15c-1.41,0-2.84.15-4.36.15-.12-.06-.15-.23-.15-.53s.09-.44.94-.44c2,0,2.11-.44,2.11-2.67v-14c0-1.67-.5-2.08-3-2.08L215,8.61l-.06-.47c0-.32.29-.35.47-.35.79,0,1.73.15,3.72.15,1.47,0,3.22-.15,4.4-.15l.15.21v.52l-.11.18-.8.06c-1.17.09-2.08.21-2.08,1.55Z"/><path d="M236.2,25.34c0,2.16,1.47,2.16,3.28,2.16l.18.15v.47c0,.35-.15.35-.62.35s-2-.15-4.07-.15c-1.61,0-4.13.15-4.84.15a1.89,1.89,0,0,1-.12-.53.45.45,0,0,1,.12-.32l.3-.12h.35c2.67,0,2.78-.91,2.78-3.34V10.28l-.09-1.35h-3.93c-2.23,0-2.58,1.4-3.14,3.28a.34.34,0,0,1-.35.26c-.41,0-.68-.12-.68-.29,0-.5.36-3.22.36-5.54,0-.12.41-.12.82-.12.94,1.26,1.23,1.26,2.5,1.26h10.9a3.51,3.51,0,0,0,3.37-1.52c.2,0,.88,0,.88.26a36.5,36.5,0,0,0-.65,4.75c0,.32-.09.94-.23.94s-.94-.15-.94-.3l-.12-1.46c-.11-1.49-.82-1.52-2-1.52h-4Z"/><path d="M254.24,19.16a1.88,1.88,0,0,0-.35-1.15l-6.61-8.94c-.18-.27-.44-.41-1.12-.44L245,8.56l-.18-.09V7.71l.18-.09h.35c.5,0,3.66.15,4.22.15.74,0,1.92-.15,2.89-.15.65,0,.94,0,.94.18v.36c0,.29-.09.44-.18.44l-1.71.06c-.42,0-.68.17-.68.5a2.11,2.11,0,0,0,.48.79l4.22,5.88a5.62,5.62,0,0,0,.8.89c.56-.53,3.16-4.11,4.43-6a3.83,3.83,0,0,0,.74-1.48c0-.41-.24-.59-1.1-.62L259,8.59A3.06,3.06,0,0,0,259,8a.46.46,0,0,1,.18-.41c1.15.12,2.56.15,3.83.15.86,0,2.15-.15,2.54-.15l.18.12v.68l-.12.12-1.09.06c-.94.06-2.12,2.06-2.69,2.83l-4.89,6.7v6.93a6.21,6.21,0,0,0,.09,1.33c.24.7,1,1.09,2.1,1.09h.8l.26.12v.83l-.15,0h-.44c-1.3,0-2.56-.15-3.86-.15s-2.69.15-4,.15h-.42l-.24-.06v-.5c0-.17.06-.38.29-.41l1.39-.15c.86-.09,1.54-.38,1.54-1.86Z"/><path d="M374.64,7.84c.91,0,1.85.08,2.79.08.74,0,1.5-.08,2.23-.08.44,0,.53.11.53.21v.47c0,.21-.09.35-.21.35s-.52-.06-.88-.06c-1.71,0-1.71.85-1.71,2.77,0,1.67.33,12.67.33,14.29a1.61,1.61,0,0,0,1.68,1.76c1.18,0,1.32.06,1.32.32s-.17.65-.26.65c-1.56,0-2.79-.15-4-.15s-2.5.15-3.76.15c-.21,0-.23-.12-.23-.29V28c0-.29.27-.38,1.62-.38.59,0,1.12-.7,1.12-1.74,0-3.17-.12-10-.23-15.05l-.09,0c-1.64,3.38-3.79,8.29-4.79,10.91L367.28,29a.25.25,0,0,1-.26.17c-.14,0-.26-.15-.35-.56a13.21,13.21,0,0,0-.74-2.15l-5.55-13.53c-.21-.5-.38-.85-.49-.85s-.12.59-.12.91c0,2.32-.35,11.2-.35,12.64,0,1.26,0,2,2.59,2,.17,0,.2.14.2.5,0,.12,0,.47-.15.47-.41,0-1.85-.15-3.44-.15s-3.32.15-3.73.15c-.09,0-.18-.09-.18-.24v-.44c0-.26.24-.29.59-.29,2.41,0,2.76-.74,2.76-3.29,0-1.44.5-12.26.5-13.32,0-1.56-.76-2.21-3.4-2.21-.09,0-.15-.14-.15-.32V8.1a.24.24,0,0,1,.24-.26c1.12,0,2.18.15,3.35.15.73,0,1.5-.15,2.24-.15.21,0,.41.47.56.85l6.35,15.2h.14Z"/><path d="M385.27,17.89c-2.12-1.26-3-2.44-3-4.73,0-3.68,3-5.73,7-5.73a10.58,10.58,0,0,1,3.71.82l.21,3.68v.15c0,.15-.3.2-.71.2s-.44-.17-.47-.47a3.47,3.47,0,0,0-3.71-3.24,3.37,3.37,0,0,0-3.55,3.3c0,2.11,1.29,2.94,4.23,4.5s5.44,2.88,5.44,6.56c0,4-3.62,6.08-7.29,6.08a13.56,13.56,0,0,1-4.32-.85c-.23-.12-.32-.5-.41-1.15L382,24.24c0-.18.59-.18.77-.18s.18.06.23.26a4.49,4.49,0,0,0,4.56,3.53,4.09,4.09,0,0,0,4-3.79c0-1.91-1.08-3.06-2.61-4Z"/><path d="M406.68,25.52c0,2.18,1.47,2.18,3.29,2.18l.18.14v.47c0,.36-.15.36-.62.36s-2-.15-4.08-.15c-1.62,0-4.15.15-4.85.15a1.78,1.78,0,0,1-.12-.53.46.46,0,0,1,.12-.33l.3-.12h.35c2.68,0,2.79-.91,2.79-3.35V10.41l-.09-1.35H400c-2.24,0-2.59,1.41-3.15,3.29a.34.34,0,0,1-.35.27c-.42,0-.67-.12-.67-.29,0-.5.35-3.23.35-5.56,0-.12.41-.12.82-.12.94,1.27,1.23,1.27,2.5,1.27h10.93a3.51,3.51,0,0,0,3.38-1.53c.21,0,.88,0,.88.26a36.15,36.15,0,0,0-.65,4.76c0,.32-.09.94-.24.94s-.94-.14-.94-.29l-.12-1.47c-.12-1.5-.82-1.53-2-1.53h-4.06Z"/><path d="M419,10.83c0-1.91-1.44-2.12-3.14-2.12-.12,0-.12-.15-.12-.26V8.13c0-.26.5-.29,1.53-.29S419.78,8,421,8s2.35-.14,3.52-.14h6.21c.23,0,.26.26.26.59V12a.21.21,0,0,1-.21.24c-.23,0-.71,0-.73-.32L430,11c-.18-1.88-1.47-2.21-3.11-2.21h-3c-1.64,0-2.17.35-2.17,2.59v5.32c0,.09.18.24.24.24l3.46-.12c1.76-.06,2.27-.62,2.71-2.18.06-.18.15-.24.47-.24s.35,0,.35.18c0,.62-.17,2-.17,2.94,0,1.59.17,2.44.17,2.94,0,.18-.29.35-.47.35a.45.45,0,0,1-.5-.38,17.37,17.37,0,0,0-.29-1.76c-.15-.44-.51-.65-1.39-.68l-4.17-.09c-.41,0-.41.14-.41.35v7c0,2.11,1.56,2.17,3.59,2.17h1.59a6.94,6.94,0,0,0,3.38-.47,8.53,8.53,0,0,0,1.88-2.91c.39,0,.88.09.88.29a2.06,2.06,0,0,1-.14.47l-.82,3c-.23.8-.38.8-.76.8-3.18,0-6.29-.15-10.55-.15-1,0-3.44.15-4.94.15-.09,0-.18-.29-.18-.47s.06-.5.18-.5c2.55-.12,3.26-.38,3.26-3.09Z"/><path d="M437.47,11c0-1.47-.06-2.21-1.91-2.21h-1.21c-.17,0-.2-.32-.2-.56s.09-.41.2-.41c1.71,0,3.45.09,5.15.09,1.35,0,2.68-.09,4-.09,3,0,5.94,2,5.94,5.08,0,2.67-2.44,4.47-4.73,4.82v.06c1.15.26,2.35,2.41,2.64,2.88l3.23,4.94a3.51,3.51,0,0,0,3.47,1.94l.17.17v.56a.28.28,0,0,1-.32.29c-.62,0-1.53-.09-2-.09-.71,0-1.41.09-2.11.09s-2-2-3.73-5.06c-1.91-3.38-3-5.24-5-5.24a7.1,7.1,0,0,0-1,.06v7.2c0,1.06,0,2.06,1.47,2.06,1.11,0,1.62,0,1.62.23,0,.56-.09.74-.54.74-1.53,0-2.79-.15-4.05-.15-.5,0-3.76.15-4.17.15-.18,0-.24-.38-.24-.62s.12-.32.7-.35c2-.09,2.56-.38,2.56-2.41Zm2.65,6.26c.38,0,.74.06,1.12.06,2.35,0,5.29-.82,5.29-4.29a4.07,4.07,0,0,0-4.35-4.26c-2,0-2.06.47-2.06,1.35Z"/><path d="M458.56,11.08c0-1.12-.23-2.26-1.32-2.26-.35,0-1.29.12-1.85.12-.12,0-.12-.44-.12-.59s0-.27.5-.38a62.06,62.06,0,0,1,9.2-.74,18,18,0,0,1,4.59.53,10.31,10.31,0,0,1,7.73,10.05c0,7.29-6.09,10.59-11.67,10.59-2.79,0-4.26-.12-5.73-.12s-2.94.09-4.41.12c-.12,0-.15-.26-.15-.47s.15-.5.26-.5a5.46,5.46,0,0,0,2.24-.53,1.82,1.82,0,0,0,.73-1.7Zm2.65,13.11c0,3.24,3.32,3.24,4.61,3.24,4,0,8.32-3.32,8.32-9.47,0-5.23-2.82-7.82-4.85-9a12.1,12.1,0,0,0-4.52-.76c-2.41,0-3.55.17-3.55,2.06Z"/><path d="M482.51,20.36l-1.29,4.17a6.79,6.79,0,0,0-.35,1.91c0,1,1.38,1.18,2.18,1.18.26,0,.32.17.32.56s0,.41-.23.41c-.68,0-2.82-.15-3.62-.15s-2,.15-2.91.15c-.59,0-.59-.09-.59-.47V27.8c0-.15.27-.21,1-.26,1.53-.15,1.73-.44,2.29-2.06L485.1,8.54A6.52,6.52,0,0,1,487,7.13l7.38,18.61a2.46,2.46,0,0,0,2.73,1.85c.33,0,.38.36.38.68s-.2.33-.56.33-2.35-.15-3.5-.15-2.35.06-3.53.15c-.44,0-.47-.09-.47-.5s.18-.47.59-.47,1.88-.09,1.88-.8a5.88,5.88,0,0,0-.53-1.73l-1.88-4.73Zm6.5-1.14-3.26-8.41h-.06l-2.78,8.41Z"/><path d="M517.94,7.84c.91,0,1.85.08,2.79.08.73,0,1.5-.08,2.23-.08.44,0,.53.11.53.21v.47c0,.21-.09.35-.2.35s-.54-.06-.89-.06c-1.7,0-1.7.85-1.7,2.77,0,1.67.32,12.67.32,14.29a1.61,1.61,0,0,0,1.68,1.76c1.17,0,1.32.06,1.32.32s-.18.65-.27.65c-1.56,0-2.79-.15-4-.15s-2.5.15-3.77.15c-.21,0-.23-.12-.23-.29V28c0-.29.26-.38,1.61-.38.59,0,1.12-.7,1.12-1.74,0-3.17-.11-10-.23-15.05l-.09,0c-1.65,3.38-3.79,8.29-4.79,10.91L510.6,29a.28.28,0,0,1-.27.17c-.15,0-.26-.15-.36-.56a13.59,13.59,0,0,0-.73-2.15l-5.55-13.53c-.21-.5-.38-.85-.5-.85s-.12.59-.12.91c0,2.32-.36,11.2-.36,12.64,0,1.26,0,2,2.59,2,.18,0,.21.14.21.5,0,.12,0,.47-.15.47-.41,0-1.85-.15-3.44-.15s-3.32.15-3.73.15c-.09,0-.17-.09-.17-.24v-.44c0-.26.23-.29.58-.29,2.41,0,2.77-.74,2.77-3.29,0-1.44.5-12.26.5-13.32,0-1.56-.76-2.21-3.41-2.21-.08,0-.15-.14-.15-.32V8.1a.24.24,0,0,1,.24-.26c1.12,0,2.17.15,3.36.15.73,0,1.49-.15,2.23-.15.21,0,.41.47.56.85L511,23.89h.15Z"/></g></g></svg>