<?xml version="1.0" encoding="UTF-8"?>
<svg width="70px" height="70px" viewBox="0 0 70 70" version="1.1" xmlns="http://www.w3.org/2000/svg" xmlns:xlink="http://www.w3.org/1999/xlink">
    <!-- Generator: Sketch 53.2 (72643) - https://sketchapp.com -->
    <title>Play Button</title>
    <desc>Created with Sketch.</desc>
    <g id="Page-1" stroke="none" stroke-width="1" fill="none" fill-rule="evenodd">
        <g id="Play-Button" transform="translate(-108.000000, -86.000000)" fill-rule="nonzero">
            <g transform="translate(108.000000, 86.000000)">
                <circle id="Oval" fill-opacity="0.6" fill="#333333" cx="35" cy="35" r="35"></circle>
                <path d="M65.3089216,17.50656 C74.9634703,34.2376327 69.2385352,55.6277192 52.5177326,65.298305 C40.2620036,72.3864863 24.9432883,71.3916152 13.7071411,62.7777586 C2.47099398,54.1639019 -2.46887205,39.6281365 1.19178861,25.9508028 C4.85244927,12.273469 16.3924239,2.14923534 30.4287862,0.300642857 C44.4651484,-1.54794963 58.232495,5.24330339 65.3089216,17.50656 Z M50.049062,61.4632864 C64.5429737,53.0564149 69.5110158,34.5170712 61.1621556,19.9923294 C55.0206788,9.35707078 43.0754585,3.46775619 30.8968753,5.07073285 C18.718292,6.6737095 8.70489243,15.4532745 5.52619659,27.3152783 C2.34750075,39.1772821 6.62954617,51.7855278 16.3754988,59.2604481 C26.1214515,66.7353684 39.4118663,67.6047933 50.049062,61.4632864 Z M47.6144435,33.5867597 L29.2916262,22.8928097 C27.6197954,21.916552 26.2733544,22.7020467 26.2845748,24.6321195 L26.3743375,45.8516992 C26.3743375,47.781772 27.7544395,48.5672668 29.4262703,47.6022304 L47.6144435,37.0990434 C49.2862743,36.1227856 49.2862743,34.5630175 47.6144435,33.5867597 Z" id="base" fill="#FFFFFF"></path>
            </g>
        </g>
    </g>
</svg>