<?xml version="1.0" encoding="utf-8"?>
<!-- Generator: Adobe Illustrator 24.1.3, SVG Export Plug-In . SVG Version: 6.00 Build 0)  -->
<svg version="1.1" id="Laag_1" xmlns="http://www.w3.org/2000/svg" xmlns:xlink="http://www.w3.org/1999/xlink" x="0px" y="0px"
	 viewBox="0 0 293 489" style="enable-background:new 0 0 293 489;" xml:space="preserve">
<style type="text/css">
	.st0{clip-path:url(#SVGID_2_);fill:#F4B605;}
	.st1{clip-path:url(#SVGID_2_);fill:#F5BD1C;}
	.st2{fill:#FFFFFF;}
</style>
<g>
	<g>
		<defs>
			<rect id="SVGID_1_" x="1.9" y="0.4" width="289.2" height="488.2"/>
		</defs>
		<clipPath id="SVGID_2_">
			<use xlink:href="#SVGID_1_"  style="overflow:visible;"/>
		</clipPath>
		<path class="st0" d="M285.4,131.8l-5.9-5.6c-7.6-7.3-11.4-21.4-8.4-31.5l2.3-7.8c2.9-10.1-3-20.4-13.2-22.8l-7.8-1.9
			c-10.2-2.5-20.6-12.9-23.1-23.1l-1.9-7.8c-2.5-10.2-12.8-16.1-22.9-13.2l-7.7,2.3c-10.1,2.9-24.3-0.9-31.5-8.5l-5.6-5.8
			c-7.3-7.6-19.1-7.6-26.4,0l-5.6,5.8c-7.3,7.6-21.4,11.4-31.5,8.5l-7.7-2.3c-10.1-2.9-20.4,3-22.8,13.2l-1.9,7.8
			c-2.5,10.2-12.9,20.6-23.1,23.1l-7.9,1.9C22.6,66.6,16.6,76.9,19.6,87l2.3,7.8c2.9,10.1-0.9,24.3-8.4,31.5l-5.8,5.6
			C0,139.1,0,151,7.6,158.2l5.8,5.6c7.6,7.3,11.4,21.4,8.4,31.5l-2.3,7.8c-2.9,10.1,3,20.4,13.2,22.8l7.8,1.9
			c10.2,2.5,20.6,12.9,23.1,23.1l1.9,7.8c2.5,10.2,12.8,16.1,22.9,13.2l7.7-2.3c10.1-2.9,24.3,0.9,31.5,8.5l5.6,5.8
			c7.3,7.6,19.1,7.6,26.4,0l5.6-5.8c7.3-7.6,21.4-11.4,31.5-8.5l7.7,2.3c10.1,2.9,20.4-3,22.9-13.2l1.9-7.8
			c2.5-10.2,12.9-20.6,23.1-23.1l7.8-1.9c10.2-2.5,16.1-12.8,13.2-22.9l-2.3-7.8c-2.9-10.1,0.9-24.3,8.5-31.5l5.8-5.6
			C293,150.9,293,139.1,285.4,131.8L285.4,131.8z M257.6,145c0,61.3-49.7,111.1-111.1,111.1c-61.3,0-111.1-49.8-111.1-111.1
			c0-61.3,49.7-111.1,111.1-111.1C207.9,33.9,257.6,83.7,257.6,145L257.6,145z M239.1,145c0-51-41.5-92.6-92.6-92.6
			c-51,0-92.6,41.5-92.6,92.6c0,51,41.5,92.6,92.6,92.6C197.5,237.6,239.1,196.1,239.1,145L239.1,145z M61.1,276.6v207
			c0,5.1,3.1,6.5,6.9,3.1l73.1-65.6c3.8-3.4,10-3.4,13.7,0.1l70.3,65.3c3.8,3.5,6.8,2.2,6.8-3V276.6c-4.8,6.5-13.3,9.6-21.7,7.2
			l-8.5-2.5c-11.1-3.2-26.7,1-34.6,9.3l-6.1,6.4c-8,8.3-21,8.3-29,0l-6.1-6.4c-8-8.3-23.6-12.5-34.6-9.3l-8.5,2.5
			C74.4,286.2,65.9,283.1,61.1,276.6L61.1,276.6z"/>
		<path class="st1" d="M146.5,0.4c-4.8,0-9.6,1.9-13.2,5.7l-5.6,5.8c-7.3,7.6-21.4,11.4-31.5,8.5l-7.7-2.3
			c-10.1-2.9-20.4,3-22.8,13.2l-1.9,7.8c-2.5,10.2-12.9,20.6-23.1,23.1l-7.9,1.9C22.6,66.6,16.6,76.9,19.6,87l2.3,7.8
			c2.9,10.1-0.9,24.3-8.4,31.5l-5.8,5.6C0,139.1,0,151,7.6,158.2l5.8,5.6c7.6,7.3,11.4,21.4,8.4,31.5l-2.3,7.8
			c-2.9,10.1,3,20.4,13.2,22.8l7.8,1.9c10.2,2.5,20.6,12.9,23.1,23.1l1.9,7.8c2.5,10.2,12.8,16.1,22.9,13.2l7.7-2.3
			c10.1-2.9,24.3,0.9,31.5,8.5l5.6,5.8c3.6,3.8,8.4,5.7,13.2,5.7v-33.5c-61.3,0-111.1-49.8-111.1-111.1
			c0-61.3,49.7-111.1,111.1-111.1V0.4L146.5,0.4z M61.1,276.6v207c0,5.1,3.1,6.5,6.9,3.1l73.1-65.6c1.5-1.4,3.4-2.2,5.4-2.4V303.2
			c-5.3,0-10.5-2.1-14.5-6.3l-6.1-6.4c-8-8.3-23.6-12.5-34.6-9.3l-8.5,2.5C74.4,286.2,65.9,283.1,61.1,276.6L61.1,276.6z
			 M146.5,237.6V52.5c-51,0-92.6,41.5-92.6,92.6C53.9,196.1,95.5,237.6,146.5,237.6L146.5,237.6z"/>
	</g>
	<path class="st2" d="M65.2,149.1c2.2,0,4.1-1.8,4.1-4.1c0-2.2-1.8-4.1-4.1-4.1c-2.2,0-4.1,1.8-4.1,4.1
		C61.1,147.3,62.9,149.1,65.2,149.1L65.2,149.1z"/>
	<path class="st2" d="M227.8,149.1c2.2,0,4.1-1.8,4.1-4.1c0-2.2-1.8-4.1-4.1-4.1s-4.1,1.8-4.1,4.1
		C223.8,147.3,225.6,149.1,227.8,149.1L227.8,149.1z"/>
	<path class="st2" d="M192.1,124.9h-2.5c-0.7,0-1.4,0.6-1.4,1.4v3.9H183v-3.9c0-0.7-0.6-1.4-1.4-1.4h-2.5c-0.7,0-1.4,0.6-1.4,1.4
		v3.9h-5.2v-3.9c0-0.7-0.6-1.4-1.4-1.4h-2.5c-0.7,0-1.4,0.6-1.4,1.4v14.8h-11.8v-17.8h-18.2v17.8h-12v-14.9c0-0.8-0.6-1.4-1.4-1.4
		h-2.5c-0.7,0-1.4,0.6-1.4,1.4v3.9h-5.2v-3.9c0-0.8-0.6-1.4-1.4-1.4h-2.5c-0.8,0-1.4,0.6-1.4,1.4v3.9h-5v-3.9c0-0.8-0.6-1.4-1.4-1.4
		h-2.5c-0.7,0-1.4,0.6-1.4,1.4v52.3c0,0.8,0.6,1.4,1.4,1.4H136c0.8,0,1.4-0.6,1.4-1.4v-11.9c0-4.8,3.6-9,8.4-9.3
		c2.8-0.2,5.2,0.9,7.1,2.7c1.7,1.7,2.7,3.9,2.7,6.4v12.2c0,0.8,0.6,1.4,1.4,1.4h35.3c0.8,0,1.4-0.6,1.4-1.4v-52.4
		C193.4,125.5,192.8,124.9,192.1,124.9L192.1,124.9z M116.9,156.4c0,0.7-0.6,1.2-1.2,1.2h-6.6c-0.7,0-1.2-0.6-1.2-1.2v-8.8
		c0-2.5,2.1-4.6,4.6-4.6c1.3,0,2.4,0.5,3.2,1.3c0.8,0.8,1.3,2,1.3,3.2V156.4L116.9,156.4z M184.9,156.4c0,0.7-0.6,1.2-1.2,1.2h-6.6
		c-0.7,0-1.2-0.6-1.2-1.2v-8.8c0-2.5,2.1-4.6,4.6-4.6c1.3,0,2.4,0.5,3.2,1.3c0.8,0.8,1.3,2,1.3,3.2V156.4L184.9,156.4z"/>
	<path class="st2" d="M137.1,120.5h18.6c1.2,0,1.9-1.3,1.3-2.3l-9.3-15.5c-0.1-0.2-0.3-0.4-0.5-0.5v-4.1h6.5c0.8,0,1.4-0.6,1.4-1.4
		v-4c0-0.8-0.6-1.4-1.4-1.4h-6.5v-0.3c0-0.2-0.2-0.3-0.3-0.3H146c-0.2,0-0.3,0.2-0.3,0.3v11.1c-0.2,0.1-0.4,0.3-0.5,0.5l-9.3,15.5
		C135.2,119.2,135.9,120.5,137.1,120.5L137.1,120.5z"/>
	<path class="st2" d="M107.5,400.7c2.5,0,4.5-1.2,5.6-3l-3-2c-0.5,0.9-1.3,1.6-2.7,1.6c-1.1,0-2.5-0.6-2.7-2.3h8.7
		c0-0.4,0.1-0.7,0.1-1.1c0-3.9-2.8-6-6-6c-3.8,0-6.4,2.8-6.4,6.4C101.2,398.1,104.2,400.7,107.5,400.7L107.5,400.7z M104.8,392.8
		c0.3-1.5,1.6-1.9,2.5-1.9c1.2,0,2.2,0.5,2.5,1.7l0,0.1H104.8L104.8,392.8z M124.9,392v-3.9c-0.5-0.1-0.9-0.2-1.3-0.2
		c-1.2,0-2.1,0.4-2.8,1.3v-1.1H117v12.4h3.7v-8.1c0.6-0.5,1.5-0.8,2.3-0.8C123.6,391.6,124.3,391.7,124.9,392L124.9,392z
		 M133.7,387.9c-3.6,0-6.4,2.9-6.4,6.4c0,3.5,2.9,6.4,6.4,6.4s6.4-2.9,6.4-6.4C140.1,390.8,137.2,387.9,133.7,387.9L133.7,387.9z
		 M133.7,397.2c-1.5,0-2.7-1.2-2.7-2.9s1.1-2.9,2.7-2.9c1.5,0,2.7,1.2,2.7,2.9S135.2,397.2,133.7,397.2L133.7,397.2z M149.4,397.3
		c-0.9,0-1.6-0.4-2.1-1v-3.9c0.5-0.7,1.2-1,2.1-1c1.8,0,2.9,1.3,2.9,3S151.2,397.3,149.4,397.3L149.4,397.3z M147.3,399.7
		c0.7,0.6,1.7,0.9,2.7,0.9c3.7,0,6-3,6-6.4s-2.3-6.4-6-6.4c-1,0-2,0.3-2.7,0.9v-0.7h-3.7v17h3.7V399.7L147.3,399.7z M167.7,400.5
		h3.7v-12.4h-3.7v7.9c-0.5,0.8-1.4,1.3-2.3,1.3c-1.5,0-2.2-1.2-2.2-2.9v-6.2h-3.7v6.9c0,3.4,2,5.7,5.3,5.7c1,0,2.2-0.4,3-1.1V400.5
		L167.7,400.5z M175.2,384.9c0,0.5,0.2,1,0.5,1.4h3.5c0.3-0.4,0.5-0.9,0.5-1.4c0-1.2-1-2.2-2.2-2.2
		C176.2,382.7,175.2,383.7,175.2,384.9L175.2,384.9z M179.3,400.5v-12.4h-3.8v12.4H179.3L179.3,400.5z M188,400.5h3.4v-3.4h-2
		c-1,0-1.4-0.4-1.4-1.5v-4.2h3.1l0.8-3.3h-3.9v-3.7l-3.7,1.9v1.9h-2.4l0.8,3.3h1.6v5.3C184.2,399,185.6,400.5,188,400.5L188,400.5z"
		/>
	<path class="st2" d="M115.6,367c0-1.8-1-3.1-3.3-4l-0.5-0.2c-1.2-0.5-1.6-0.6-1.6-1.1c0-0.4,0.4-0.6,0.9-0.6c0.8,0,1.3,0.4,1.8,1.1
		l2.1-2.1c-0.9-1.4-2.3-2-3.9-2c-2.4,0-4.3,1.6-4.3,3.8c0,1.8,1.1,3.1,3.3,4l0.6,0.2c1.2,0.5,1.6,0.6,1.6,1.1c0,0.4-0.4,0.6-1,0.6
		c-1.1,0-1.8-0.6-2.3-1.5l-2.9,1.9c1.1,1.9,2.8,2.6,5,2.6C113.7,370.9,115.6,369.5,115.6,367L115.6,367z M124.9,367.5
		c-1.8,0-2.9-1.3-2.9-3c0-1.6,1.1-3,2.9-3c0.9,0,1.6,0.4,2.1,1v3.9C126.6,367.1,125.9,367.5,124.9,367.5L124.9,367.5z M127,370v0.7
		h3.7v-12.4H127v0.7c-0.7-0.6-1.7-0.9-2.7-0.9c-3.7,0-6,3-6,6.4c0,3.4,2.3,6.4,6,6.4C125.3,370.9,126.3,370.6,127,370L127,370z
		 M142.7,364.5v6.2h3.7v-6.9c0-0.4,0-0.8-0.1-1.2c0.5-0.6,1.3-1.1,2.1-1.1c1.5,0,2,1.3,2,2.9v6.2h3.7v-6.9c0-3.1-1.5-5.7-5.2-5.7
		c-1.9,0-3.2,0.8-4,1.5c-0.8-1-2.1-1.5-3.5-1.5c-1,0-2.1,0.4-2.8,0.9v-0.7H135v12.4h3.7v-8.2c0.5-0.6,1.3-1,2.1-1
		C142.2,361.6,142.7,362.9,142.7,364.5L142.7,364.5z M163.9,370.9c2.5,0,4.5-1.2,5.6-3l-3-2c-0.5,0.9-1.3,1.6-2.7,1.6
		c-1.1,0-2.5-0.6-2.7-2.3h8.7c0-0.4,0.1-0.7,0.1-1.1c0-3.9-2.8-6-6-6c-3.8,0-6.4,2.8-6.4,6.4C157.5,368.3,160.6,370.9,163.9,370.9
		L163.9,370.9z M161.2,363c0.3-1.5,1.6-1.9,2.5-1.9c1.2,0,2.2,0.5,2.5,1.7l0,0.1H161.2L161.2,363z M181.6,364.5v6.2h3.7v-6.9
		c0-3.3-1.9-5.7-5.4-5.7c-1.1,0-2.1,0.3-2.9,0.9v-0.7h-3.7v12.4h3.7v-8.1c0.6-0.7,1.5-1.1,2.2-1.1
		C181,361.5,181.6,362.8,181.6,364.5L181.6,364.5z"/>
	<path class="st2" d="M119.4,334l-2.9-5.4h-4.3l7.2,12.6l7.2-12.6h-4.3L119.4,334L119.4,334z M133.8,341.2c2.5,0,4.5-1.2,5.6-3l-3-2
		c-0.5,0.9-1.3,1.6-2.7,1.6c-1.1,0-2.5-0.6-2.7-2.3h8.7c0.1-0.4,0.1-0.7,0.1-1.1c0-3.9-2.8-6-6-6c-3.8,0-6.4,2.8-6.4,6.4
		C127.5,338.6,130.5,341.2,133.8,341.2L133.8,341.2z M131.1,333.3c0.3-1.5,1.6-1.9,2.5-1.9c1.2,0,2.2,0.5,2.5,1.7l0,0.1H131.1
		L131.1,333.3z M142.9,325.4c0,0.5,0.2,1,0.5,1.4h3.5c0.3-0.4,0.5-0.9,0.5-1.4c0-1.2-1-2.2-2.2-2.2
		C143.9,323.2,142.9,324.2,142.9,325.4L142.9,325.4z M147.1,341v-12.4h-3.8V341H147.1L147.1,341z M151.2,341h3.8v-17.6h-3.8V341
		L151.2,341z M158.8,325.4c0,0.5,0.2,1,0.5,1.4h3.5c0.3-0.4,0.5-0.9,0.5-1.4c0-1.2-1-2.2-2.2-2.2
		C159.8,323.2,158.8,324.2,158.8,325.4L158.8,325.4z M162.9,341v-12.4h-3.8V341H162.9L162.9,341z M174.9,332.8v3
		c-0.5,0.7-1.3,1-2.2,1c-1.7,0-2.6-1.3-2.6-2.5c0-1.3,0.9-2.5,2.6-2.5C173.5,331.8,174.3,332.2,174.9,332.8L174.9,332.8z
		 M172.6,345.8c3.2,0,6.5-1.3,6.5-4.8c0-0.7-0.1-1.6-0.5-2.4v-10h-3.7v0.7c-0.7-0.6-1.7-0.9-2.7-0.9c-3.7,0-5.9,2.9-5.9,6
		s2.1,6,5.9,6c1,0,2-0.3,2.8-0.9c0.3,0.4,0.3,0.8,0.3,1c0,1.5-1.3,2-2.8,2c-1.4,0-2.7-0.5-3.6-1.3l-1.7,3.3
		C168.8,345.5,170.8,345.8,172.6,345.8L172.6,345.8z"/>
</g>
</svg>
