<?xml version="1.0" encoding="utf-8"?>
<!-- Generator: Adobe Illustrator 24.1.3, SVG Export Plug-In . SVG Version: 6.00 Build 0)  -->
<svg version="1.1" id="Laag_1" xmlns="http://www.w3.org/2000/svg" xmlns:xlink="http://www.w3.org/1999/xlink" x="0px" y="0px"
	 viewBox="0 0 567 567" style="enable-background:new 0 0 567 567;" xml:space="preserve">
<style type="text/css">
	.st0{clip-path:url(#SVGID_2_);fill:#D75319;}
	.st1{fill:#EF7F2B;}
	.st2{fill:#FFFFFF;}
</style>
<g>
	<g>
		<defs>
			<rect id="SVGID_1_" x="-0.1" y="-0.4" width="566.9" height="566.9"/>
		</defs>
		<clipPath id="SVGID_2_">
			<use xlink:href="#SVGID_1_"  style="overflow:visible;"/>
		</clipPath>
		<path class="st0" d="M442.6,50.5c-7.5-13.1-25.8-23.8-40.9-23.8H165c-15.1,0-33.4,10.6-40.9,23.8L5.5,259.3
			c-7.5,13.1-7.5,34.4,0,47.5l118.7,208.8c7.5,13.1,25.8,23.8,40.9,23.8h236.7c15.1,0,33.4-10.6,40.9-23.8l118.7-208.8
			c7.5-13.1,7.5-34.4,0-47.5L442.6,50.5L442.6,50.5z"/>
	</g>
	<path class="st1" d="M145.1,494.6c-1.4,0-2.7-0.7-3.4-2L34.6,299.3c-1-1.9-0.4-4.3,1.5-5.3c1.9-1,4.3-0.4,5.3,1.5l107.1,193.2
		c1,1.9,0.4,4.3-1.5,5.3C146.4,494.4,145.8,494.6,145.1,494.6z"/>
	<path class="st2" d="M241.2,245.2v25.3c0,3.9-3.1,7-7,7c-3.9,0-7-3.1-7-7v-25.3c0-3.9,3.1-7,7-7
		C238.1,238.2,241.2,241.3,241.2,245.2L241.2,245.2z M234.2,288.7c-3.9,0-7,3.1-7,7V321c0,3.9,3.1,7,7,7c3.9,0,7-3.1,7-7v-25.3
		C241.2,291.9,238.1,288.7,234.2,288.7L234.2,288.7z M361.6,198.9H171c-3.9,0-7,3.1-7,7V248c0,3.9,3.1,7,7,7
		c15.5,0,28.1,12.6,28.1,28.1c0,15.5-12.6,28.1-28.1,28.1c-3.9,0-7,3.1-7,7v42.1c0,3.9,3.1,7,7,7h62.8c0.1,0,0.1,0,0.2,0
		c0.1,0,0.1,0,0.2,0c3.9,0,7-3.1,7-7v-14c0-3.9-3.1-7-7-7c-3.9,0-7,3.1-7,7v7h-49.1v-28.7c22.9-3.9,38.4-25.6,34.5-48.5
		c-3-17.7-16.8-31.6-34.5-34.5v-28.7h49.1v7c0,3.9,3.1,7,7,7c3.9,0,7-3.1,7-7v-7h120.3c15,0,27.1,12.1,27.1,27.1v86.2
		c0,15-12.1,27.1-27.1,27.1h-99.2c-3.9,0-7,3.1-7,7c0,3.9,3.1,7,7,7h99.2c22.7,0,41.1-18.4,41.1-41.1V240
		C402.7,217.3,384.3,198.9,361.6,198.9L361.6,198.9z"/>
</g>
</svg>
