<?xml version="1.0" encoding="utf-8"?>
<!-- Generator: Adobe Illustrator 19.1.0, SVG Export Plug-In . SVG Version: 6.00 Build 0)  -->
<svg version="1.1" id="Calque_1" xmlns="http://www.w3.org/2000/svg" xmlns:xlink="http://www.w3.org/1999/xlink" x="0px" y="0px"
	 viewBox="0 0 145 20" style="enable-background:new 0 0 145 20;" xml:space="preserve">
<style type="text/css">
	.st0{fill:#FFFFFF;}
</style>
<path class="st0" d="M101.1,12.8c-0.6,0.3-1.3,0.7-3.2,0.9c-0.1,0-0.2,0-0.3,0c-2.1,0-3.5-1.5-3.5-2.8c0-1.5,1.8-2.8,3.8-2.8
	c0.8,0,2.3,0.2,2.9,0.6l0.1,0.1l1-1.9l-0.1-0.1c-1.1-0.6-2.5-0.9-4-0.9c-3.9,0-6.8,2.1-6.8,5.1c0,2.9,2.8,5.1,6.8,5.1
	c1.3,0,2.9-0.4,4.2-1.1l0.1-0.1l-1-2L101.1,12.8z"/>
<path class="st0" d="M112.1,5.9c-0.5-0.1-0.9-0.1-1.3-0.1c-1.6,0-2.7,0.5-3.6,1.4l0-3.9l-3,0v12.6h3.1l0-5.4c0-0.7,0.3-1.2,0.8-1.7
	c0.6-0.4,1.5-0.7,2.4-0.7c1.3,0,2.7,0.5,2.7,2.1v5.8h3v-5.5C116.2,7.8,114.8,6.3,112.1,5.9"/>
<path class="st0" d="M72.9,11.7c0,1.6-1.9,2.1-3,2.1c-1.2,0-3-0.6-3-2.1V6.3h-3v5.2c0,1.4,0.7,2.6,1.9,3.5c1,0.7,2.4,1,4.1,1
	c2.8,0,6.1-1.2,6.1-4.5V6.3h-3.1V11.7z"/>
<path class="st0" d="M127.1,11.7c0,1.6-1.9,2.1-3,2.1c-1.2,0-3-0.6-3-2.1V6.3h-3v5.2c0,1.4,0.7,2.6,1.9,3.5c1,0.7,2.4,1,4.1,1
	c2.8,0,6.1-1.2,6.1-4.5V6.3h-3.1V11.7z"/>
<path class="st0" d="M59.7,4.8c-1.7-1.3-3.8-2-6-2c-1.4,0-2.8,0.3-4,0.8c-1.2,0.6-2.9,1.6-3.8,3.4c-0.8,1.6-0.8,3.5,0,5.1
	c1,2,3,3.3,5.6,3.9l0.3,0.1v-2.5l-0.2-0.1c-1.2-0.4-2.1-1.1-2.8-2.1c-0.8-1.2-0.7-3,0.3-4.2l0,0c1.3-1.5,2.9-1.8,4-1.9
	c0.2,0,0.5,0,0.7,0c1.4,0,2.6,0.4,3.6,1.1l0,0c0.1,0.1,0.1,0.1,0.1,0.1l0.1,0.1c0.7,0.6,1.2,1.3,1.4,2.1c0.2,0.8,0.1,1.7-0.2,2.4
	c-0.6,1.2-1.6,2-3.2,2.5l-0.2,0.1v-1.7l-2.7,1V14l0,3.4l2.9,1v-2.3l0.2,0c1.9-0.4,4.5-1.4,5.8-3.8c0.7-1.2,0.8-2.7,0.5-4
	C61.7,7,60.9,5.8,59.7,4.8"/>
<path class="st0" d="M83.5,5.7c-3.6,0-6.1,2.1-6.1,5.1c0,3,2.6,5.1,6.1,5.1c2.5,0,4.6-1.1,5.7-3h-3.4c-0.6,0.5-1.4,0.7-2.3,0.7
	c-1.6,0-2.9-0.9-3.3-2.1h9.3l0.1-0.2l0,0c0-0.2,0-0.3,0-0.5C89.6,7.8,87.1,5.7,83.5,5.7 M80.3,9.6c0.2-1.2,1.6-1.9,3.2-1.9
	c1.3,0,2.9,0.7,3.2,1.9H80.3z"/>
<path class="st0" d="M138.3,5.6L138.3,5.6c-3.9,0-6.6,2.2-6.6,5.2c0,3,2.8,5.2,6.6,5.2c0.8,0,1.6-0.1,2.4-0.3v-2.6
	c-0.2,0.1-0.3,0.1-0.3,0.1c-0.6,0.3-1.3,0.5-2.1,0.5c-2,0-3.7-1.3-3.7-2.9c0-0.8,0.5-1.7,1.4-2.3l0,0l0.1-0.1
	c0.6-0.4,1.4-0.6,2.1-0.6c0.7,0,1.5,0.2,2.1,0.6l0.1,0.1c0.8,0.5,1.4,1.3,1.4,2v0.8v0.8v3V16h2.9l0-5.2
	C144.9,7.8,142.1,5.6,138.3,5.6"/>
<path class="st0" d="M38.5,15.8l-4.7-4.4h0c-0.5-0.4-1.1-0.7-1.8-0.7c-0.7,0-1.3,0.3-1.8,0.7h0l-5.7,5.3l1.7-2.2l0.4-1.5l1.7-6.5
	l0-0.2c0,0,0,0,0,0c0,0,0,0,0,0c0-0.1,0-0.1-0.1-0.1h-0.2h-1c-1.6,0-3.5-0.1-6.2,2.4l-7.1,6.6l2.4-2.8l0.5-1.2l4.8-10.9l0.1-0.1v0
	c0,0,0,0,0,0c0-0.1,0-0.1-0.1-0.1h-0.2h-4l-17,15.8l0,0h0v0c0,0,0,0,0,0.1c0,0.1,0,0.1,0.1,0.1h0h5.5l10.6-9.8l-3.3,3.7l-0.2,0.5
	l-2.5,5.7c-0.1,0.4-0.2,0.7-0.2,1.1c0,0.8,0.4,1.6,1,2.2c0.6,0.5,1.3,0.8,2,0.8c0.8,0,1.7-0.4,2.5-1.2l9-8.3l-2,2.4l-0.7,2.6
	c-0.1,0.3-0.1,0.6-0.1,0.9c0,2,1.6,3.5,3.5,3.6c0,0,0,0,0,0c0,0,0,0,0,0c0.9,0,1.7-0.3,2.3-0.9l0,0l4.4-4.1l0.1,0.1l0.8,0.8l0,0
	c0,0,0,0,0.1,0h0h0h5.1h0.2C38.5,15.9,38.5,15.9,38.5,15.8C38.5,15.8,38.5,15.8,38.5,15.8"/>
</svg>
