<?xml version="1.0" encoding="UTF-8"?>
<svg width="40px" height="40px" viewBox="0 0 40 40" version="1.1" xmlns="http://www.w3.org/2000/svg" xmlns:xlink="http://www.w3.org/1999/xlink">
    <!-- Generator: Sketch 54.1 (76490) - https://sketchapp.com -->
    <title>Telegram</title>
    <desc>Created with Sketch.</desc>
    <defs>
        <linearGradient x1="100%" y1="85.1697819%" x2="0%" y2="14.8302181%" id="linearGradient-1">
            <stop stop-color="#66BDFC" offset="0%"></stop>
            <stop stop-color="#358DCC" offset="100%"></stop>
        </linearGradient>
        <path d="M33.9374334,10.187552 L29.6874435,30.0625046 C29.5207769,30.7708359 29.2395276,31.2187519 28.8436955,31.4062514 C28.4478635,31.593751 27.9582807,31.5208342 27.374949,31.1875019 L20.9374644,26.4375133 L17.8124718,29.4375061 C17.6041393,29.6458386 17.4374727,29.7916722 17.312473,29.8750051 C17.1041405,30.0000048 16.8333072,30.0625046 16.499975,30.0625046 L16.9999738,23.5000203 L28.9374453,12.687546 C29.1041119,12.5625463 29.1561948,12.4479636 29.0936949,12.3437969 C29.0311951,12.2396301 28.9061954,12.1979642 28.7186958,12.2187972 C28.5311963,12.2396301 28.3332798,12.3125469 28.1249472,12.4375466 L13.3749824,21.7500244 L6.99999762,19.7500292 C6.29166629,19.5416967 5.95833311,19.2291974 6,18.8125314 C6.04166689,18.3958655 6.47916584,18.0208663 7.31249687,17.6875341 L32.1249377,8.12505692 C32.7499362,7.9167244 33.249935,7.98964026 33.6249341,8.3438064 C33.9999332,8.69797254 34.1041,9.31255409 33.9374334,10.187552 Z" id="path-2"></path>
        <filter x="-1.8%" y="-2.1%" width="103.6%" height="104.3%" filterUnits="objectBoundingBox" id="filter-3">
            <feOffset dx="0" dy="-1" in="SourceAlpha" result="shadowOffsetInner1"></feOffset>
            <feComposite in="shadowOffsetInner1" in2="SourceAlpha" operator="arithmetic" k2="-1" k3="1" result="shadowInnerInner1"></feComposite>
            <feColorMatrix values="0 0 0 0 0   0 0 0 0 0   0 0 0 0 0  0 0 0 0.1 0" type="matrix" in="shadowInnerInner1"></feColorMatrix>
        </filter>
    </defs>
    <g id="Telegram" stroke="none" stroke-width="1" fill="none" fill-rule="evenodd">
        <g id="t" fill-rule="nonzero">
            <use fill="#FFFFFF" xlink:href="#path-2"></use>
            <use fill="url(#linearGradient-1)" xlink:href="#path-2"></use>
            <use fill="black" fill-opacity="1" filter="url(#filter-3)" xlink:href="#path-2"></use>
        </g>
    </g>
</svg>