<?xml version="1.0" encoding="UTF-8"?>
<svg width="7px" height="12px" viewBox="0 0 7 12" version="1.1" xmlns="http://www.w3.org/2000/svg" xmlns:xlink="http://www.w3.org/1999/xlink">
    <!-- Generator: Sketch 54.1 (76490) - https://sketchapp.com -->
    <title>a</title>
    <desc>Created with Sketch.</desc>
    <g id="HiFi-Wires" stroke="none" stroke-width="1" fill="none" fill-rule="evenodd">
        <g id="Buttons" transform="translate(-673.000000, -69.000000)" fill="#358DCC" fill-rule="nonzero">
            <path d="M679.609359,75.5312654 L674.441403,80.734378 C674.347653,80.828128 674.248044,80.8750027 674.142575,80.8750027 C674.037107,80.8750027 673.937498,80.8398465 673.843748,80.7695342 L673.140625,80.0664109 C673.070312,79.9726609 673.035156,79.8671924 673.035156,79.7500054 C673.035156,79.6328183 673.070312,79.5390684 673.140625,79.468756 L677.324208,75.2500161 L673.140625,71.0312762 C673.070312,70.9609638 673.035156,70.8672139 673.035156,70.7500268 C673.035156,70.6328398 673.070312,70.5273713 673.140625,70.4336213 L673.843748,69.730498 C673.937498,69.6601857 674.037107,69.6250295 674.142575,69.6250295 C674.248044,69.6250295 674.347653,69.6601857 674.441403,69.730498 L679.609359,74.9336106 C679.679672,75.0273606 679.714828,75.1328291 679.714828,75.2500161 C679.714828,75.3672031 679.679672,75.4726716 679.609359,75.5664216 L679.609359,75.5312654 Z" id="a"></path>
        </g>
    </g>
</svg>