<?xml version="1.0" encoding="UTF-8"?>
<svg width="509px" height="225px" viewBox="0 0 509 225" version="1.1" xmlns="http://www.w3.org/2000/svg" xmlns:xlink="http://www.w3.org/1999/xlink">
    <!-- Generator: Sketch 54.1 (76490) - https://sketchapp.com -->
    <title>Time-Value</title>
    <desc>Created with Sketch.</desc>
    <defs>
        <linearGradient x1="50%" y1="0%" x2="50%" y2="100%" id="linearGradient-1">
            <stop stop-color="#65C1E8" offset="0%"></stop>
            <stop stop-color="#358DCC" offset="100%"></stop>
        </linearGradient>
        <radialGradient cx="50%" cy="12.0597028%" fx="50%" fy="12.0597028%" r="188.396953%" id="radialGradient-2">
            <stop stop-color="#358DCC" stop-opacity="0" offset="0%"></stop>
            <stop stop-color="#5BBBFF" stop-opacity="0.6" offset="100%"></stop>
        </radialGradient>
        <rect id="path-3" x="0" y="28" width="112" height="112" rx="56"></rect>
        <filter x="-35.7%" y="-28.6%" width="171.4%" height="171.4%" filterUnits="objectBoundingBox" id="filter-4">
            <feOffset dx="0" dy="8" in="SourceAlpha" result="shadowOffsetOuter1"></feOffset>
            <feGaussianBlur stdDeviation="12" in="shadowOffsetOuter1" result="shadowBlurOuter1"></feGaussianBlur>
            <feColorMatrix values="0 0 0 0 0.149019608   0 0 0 0 0.196078431   0 0 0 0 0.219607843  0 0 0 0.12 0" type="matrix" in="shadowBlurOuter1"></feColorMatrix>
        </filter>
        <linearGradient x1="50%" y1="100%" x2="50%" y2="3.061617e-15%" id="linearGradient-5">
            <stop stop-color="#94DEFF" offset="0%"></stop>
            <stop stop-color="#5BBBFF" offset="100%"></stop>
        </linearGradient>
        <path d="M502.710231,164.746212 L397.746217,164.746212 L397.746212,59.746212 C455.998613,61.2123755 502.746212,106.46604 502.746212,162.076721 C502.746212,162.969268 502.73417,163.859147 502.710231,164.74622 Z" id="path-6"></path>
        <filter x="-18.1%" y="-16.2%" width="136.2%" height="136.2%" filterUnits="objectBoundingBox" id="filter-7">
            <feOffset dx="0" dy="2" in="SourceAlpha" result="shadowOffsetOuter1"></feOffset>
            <feGaussianBlur stdDeviation="6" in="shadowOffsetOuter1" result="shadowBlurOuter1"></feGaussianBlur>
            <feColorMatrix values="0 0 0 0 0.149019608   0 0 0 0 0.196078431   0 0 0 0 0.219607843  0 0 0 0.12 0" type="matrix" in="shadowBlurOuter1"></feColorMatrix>
        </filter>
    </defs>
    <g id="Time-Value" stroke="none" stroke-width="1" fill="none" fill-rule="evenodd">
        <g id="Group-2" transform="translate(23.000000, 29.000000)">
            <rect id="Rectangle" fill="url(#linearGradient-1)" x="38" y="0" width="378" height="169" rx="20"></rect>
            <g id="Rectangle">
                <use fill="black" fill-opacity="1" filter="url(#filter-4)" xlink:href="#path-3"></use>
                <use fill="#FFFFFF" fill-rule="evenodd" xlink:href="#path-3"></use>
                <use fill="url(#radialGradient-2)" fill-rule="evenodd" xlink:href="#path-3"></use>
            </g>
        </g>
        <path d="M437.743906,162.746212 C437.745443,162.523137 437.746212,162.299972 437.746212,162.076721 C437.746212,108.331238 393.085395,64.2531699 336.746212,61.8157155 L336.746217,162.746212 L437.743906,162.746212 Z" id="Combined-Shape-Copy" stroke="#FFFFFF" stroke-width="4" opacity="0.8" transform="translate(387.246212, 112.246212) rotate(45.000000) translate(-387.246212, -112.246212) "></path>
        <path d="M379.743906,162.746212 C379.745443,162.523137 379.746212,162.299972 379.746212,162.076721 C379.746212,108.331238 335.085395,64.2531699 278.746212,61.8157155 L278.746217,162.746212 L379.743906,162.746212 Z" id="Combined-Shape-Copy-2" stroke="#FFFFFF" stroke-width="4" opacity="0.4" transform="translate(329.246212, 112.246212) rotate(45.000000) translate(-329.246212, -112.246212) "></path>
        <path d="M323.743906,162.746212 C323.745443,162.523137 323.746212,162.299972 323.746212,162.076721 C323.746212,108.331238 279.085395,64.2531699 222.746212,61.8157155 L222.746217,162.746212 L323.743906,162.746212 Z" id="Combined-Shape-Copy-3" stroke="#FFFFFF" stroke-width="4" opacity="0.2" transform="translate(273.246212, 112.246212) rotate(45.000000) translate(-273.246212, -112.246212) "></path>
        <g id="Combined-Shape" transform="translate(450.246212, 112.246212) rotate(45.000000) translate(-450.246212, -112.246212) ">
            <use fill="black" fill-opacity="1" filter="url(#filter-7)" xlink:href="#path-6"></use>
            <use fill="url(#linearGradient-5)" fill-rule="evenodd" xlink:href="#path-6"></use>
        </g>
    </g>
</svg>