<?xml version="1.0" encoding="UTF-8"?>
<svg width="40px" height="40px" viewBox="0 0 40 40" version="1.1" xmlns="http://www.w3.org/2000/svg" xmlns:xlink="http://www.w3.org/1999/xlink">
    <!-- Generator: Sketch 54.1 (76490) - https://sketchapp.com -->
    <title>Github</title>
    <desc>Created with Sketch.</desc>
    <defs>
        <linearGradient x1="100%" y1="82%" x2="0%" y2="18%" id="linearGradient-1">
            <stop stop-color="#66BDFC" offset="0%"></stop>
            <stop stop-color="#358DCC" offset="100%"></stop>
        </linearGradient>
        <path d="M16.6249723,24.5625177 C16.6249723,25.3541828 16.4374727,26.0833471 16.0624736,26.7500125 C15.6458076,27.5833435 15.072893,28.0000095 14.3437277,28.0000095 C13.6145625,28.0000095 13.0208139,27.5833435 12.562482,26.7500125 C12.2291497,26.0833471 12.0624832,25.3541828 12.0624832,24.5625177 C12.0624832,23.7708526 12.2291497,23.0208544 12.562482,22.3125231 C13.0208139,21.520858 13.6145625,21.1250259 14.3437277,21.1250259 C15.072893,21.1250259 15.6458076,21.520858 16.0624736,22.3125231 C16.4374727,23.0208544 16.6249723,23.7708526 16.6249723,24.5625177 Z M34.9999285,21.3750253 C34.9999285,23.8333525 34.6353463,25.8020978 33.9061811,27.2812613 C33.1770158,28.7604247 32.0416025,29.8750051 30.4999392,30.6250033 C29.2082753,31.2500018 27.5832792,31.6458339 25.6249508,31.8125004 C24.4999535,31.9375001 22.8541244,32 20.6874626,32 L19.8749645,32 C17.6666368,32 15.9791408,31.9375001 14.8124766,31.8125004 C12.8124814,31.6458339 11.1458184,31.2500018 9.81248853,30.6250033 C8.1874924,29.8750051 6.99999523,28.7708407 6.24999702,27.3125112 C5.41666599,25.6458482 5,23.6666869 5,21.3750253 C5,18.6666988 5.87499791,16.3125374 7.62499374,14.3125422 C7.29166152,13.3125446 7.12499493,12.291714 7.12499493,11.2500495 C7.12499493,10.625051 7.18749478,10.0625523 7.31249449,9.5625535 C7.43749419,9.22922127 7.66666063,8.70838855 8,8.00005722 C9.45832239,8.00005722 10.6979034,8.16672381 11.718734,8.50005603 C12.7395646,8.83338825 13.7708121,9.41672083 14.8124766,10.2500519 C16.5624724,9.83338586 18.416635,9.62505335 20.3749633,9.62505335 C22.1249592,9.62505335 23.7916222,9.8125529 25.3749514,10.187552 C26.4166159,9.35422098 27.4478635,8.78130536 28.468694,8.4688061 C29.4895246,8.15630685 30.7082717,8.00005722 32.1249353,8.00005722 C32.4582675,8.70838855 32.687434,9.22922127 32.8124337,9.5625535 C32.9791003,10.0625523 33.0624331,10.625051 33.0624331,11.2500495 C33.0624331,12.291714 32.8957665,13.2917116 32.5624343,14.2500423 C34.1874304,16.1667047 34.9999285,18.5416991 34.9999285,21.3750253 Z M30.999938,24.5625177 C30.999938,23.1041882 30.583272,21.8750241 29.749941,20.8750265 C28.91661,19.8750289 27.7916126,19.3750301 26.374949,19.3750301 C25.7499505,19.3750301 24.8332857,19.4583629 23.6249556,19.6250295 L22.8749574,19.7500292 C21.9999595,19.8750289 21.0624617,19.9375288 20.0624641,19.9375288 C19.0624665,19.9375288 18.1249687,19.8750289 17.2499708,19.7500292 L16.5624724,19.6875294 C15.3124754,19.4791968 14.3749776,19.3750301 13.7499791,19.3750301 C12.3333155,19.3750301 11.2187352,19.8750289 10.4062371,20.8750265 C9.59373905,21.8750241 9.16665705,23.1041882 9.12499017,24.5625177 C9.16665705,27.0208449 10.1874876,28.7500077 12.1874829,29.7500054 C13.6874793,30.5000036 15.8124742,30.8750027 18.5624677,30.8750027 L21.5624605,30.8750027 C24.312454,30.8750027 26.4374489,30.5000036 27.9374453,29.7500054 C29.9791074,28.7500077 30.999938,27.0208449 30.999938,24.5625177 Z M25.8124504,21.1250259 C26.5624486,21.1250259 27.1457802,21.520858 27.5624462,22.3125231 C27.9374453,23.0208544 28.1249449,23.7708526 28.1249449,24.5625177 C28.1249449,25.3541828 27.9374453,26.0833471 27.5624462,26.7500125 C27.1457802,27.5833435 26.5728656,28.0000095 25.8437003,28.0000095 C25.1145351,28.0000095 24.5207865,27.5833435 24.0624546,26.7500125 C23.6874554,26.0833471 23.4999559,25.3541828 23.4999559,24.5625177 C23.4999559,23.7708526 23.6874554,23.0208544 24.0624546,22.3125231 C24.5207865,21.520858 25.1041191,21.1250259 25.8124504,21.1250259 Z" id="path-2"></path>
        <filter x="-1.7%" y="-2.1%" width="103.3%" height="104.2%" filterUnits="objectBoundingBox" id="filter-3">
            <feOffset dx="0" dy="-1" in="SourceAlpha" result="shadowOffsetInner1"></feOffset>
            <feComposite in="shadowOffsetInner1" in2="SourceAlpha" operator="arithmetic" k2="-1" k3="1" result="shadowInnerInner1"></feComposite>
            <feColorMatrix values="0 0 0 0 0   0 0 0 0 0   0 0 0 0 0  0 0 0 0.1 0" type="matrix" in="shadowInnerInner1"></feColorMatrix>
        </filter>
    </defs>
    <g id="Github" stroke="none" stroke-width="1" fill="none" fill-rule="evenodd">
        <g id="g" fill-rule="nonzero">
            <use fill="#FFFFFF" xlink:href="#path-2"></use>
            <use fill="url(#linearGradient-1)" xlink:href="#path-2"></use>
            <use fill="black" fill-opacity="1" filter="url(#filter-3)" xlink:href="#path-2"></use>
        </g>
    </g>
</svg>