<svg xmlns="http://www.w3.org/2000/svg" xmlns:xlink="http://www.w3.org/1999/xlink" viewBox="0 0 1037.41 742.8"><defs><style>.cls-1,.cls-10,.cls-11,.cls-12,.cls-13,.cls-14,.cls-15,.cls-16,.cls-17,.cls-18,.cls-19,.cls-2,.cls-20,.cls-21,.cls-22,.cls-23,.cls-24,.cls-3,.cls-4,.cls-5,.cls-6,.cls-7,.cls-8,.cls-9{fill:none;stroke-linecap:round;stroke-dasharray:0 16;}.cls-1,.cls-10,.cls-11,.cls-12,.cls-13,.cls-14,.cls-15,.cls-16,.cls-17,.cls-18,.cls-19,.cls-20,.cls-21,.cls-22,.cls-23,.cls-24,.cls-3,.cls-4,.cls-5,.cls-6,.cls-7,.cls-8,.cls-9{stroke-miterlimit:10;}.cls-1{stroke-width:7px;stroke:url(#linear-gradient);}.cls-2{stroke-miterlimit:10;stroke-width:6.83px;stroke:url(#linear-gradient-2);}.cls-3{stroke-width:6.65px;stroke:url(#linear-gradient-3);}.cls-4{stroke-width:6.48px;stroke:url(#linear-gradient-4);}.cls-5{stroke-width:6.3px;stroke:url(#linear-gradient-5);}.cls-6{stroke-width:6.13px;stroke:url(#linear-gradient-6);}.cls-7{stroke-width:5.96px;stroke:url(#linear-gradient-7);}.cls-8{stroke-width:5.78px;stroke:url(#linear-gradient-8);}.cls-9{stroke-width:5.61px;stroke:url(#linear-gradient-9);}.cls-10{stroke-width:5.43px;stroke:url(#linear-gradient-10);}.cls-11{stroke-width:5.26px;stroke:url(#linear-gradient-11);}.cls-12{stroke-width:5.09px;stroke:url(#linear-gradient-12);}.cls-13{stroke-width:4.91px;stroke:url(#linear-gradient-13);}.cls-14{stroke-width:4.74px;stroke:url(#linear-gradient-14);}.cls-15{stroke-width:4.57px;stroke:url(#linear-gradient-15);}.cls-16{stroke-width:4.39px;stroke:url(#linear-gradient-16);}.cls-17{stroke-width:4.22px;stroke:url(#linear-gradient-17);}.cls-18{stroke-width:4.04px;stroke:url(#linear-gradient-18);}.cls-19{stroke-width:3.87px;stroke:url(#linear-gradient-19);}.cls-20{stroke-width:3.7px;stroke:url(#linear-gradient-20);}.cls-21{stroke-width:3.52px;stroke:url(#linear-gradient-21);}.cls-22{stroke-width:3.35px;stroke:url(#linear-gradient-22);}.cls-23{stroke-width:3.17px;stroke:url(#linear-gradient-23);}.cls-24{stroke-width:3px;stroke:url(#linear-gradient-24);}</style><linearGradient id="linear-gradient" y1="564.34" x2="627.65" y2="564.34" gradientUnits="userSpaceOnUse"><stop offset="0" stop-color="#fff"/><stop offset="1" stop-color="#fff"/></linearGradient><linearGradient id="linear-gradient-2" x1="17.99" y1="547.48" x2="645.47" y2="547.48" xlink:href="#linear-gradient"/><linearGradient id="linear-gradient-3" x1="35.98" y1="530.61" x2="663.28" y2="530.61" xlink:href="#linear-gradient"/><linearGradient id="linear-gradient-4" x1="53.97" y1="513.75" x2="681.1" y2="513.75" xlink:href="#linear-gradient"/><linearGradient id="linear-gradient-5" x1="71.96" y1="496.88" x2="698.91" y2="496.88" xlink:href="#linear-gradient"/><linearGradient id="linear-gradient-6" x1="89.95" y1="480.02" x2="716.73" y2="480.02" xlink:href="#linear-gradient"/><linearGradient id="linear-gradient-7" x1="107.94" y1="463.15" x2="734.55" y2="463.15" xlink:href="#linear-gradient"/><linearGradient id="linear-gradient-8" x1="125.93" y1="446.29" x2="752.36" y2="446.29" xlink:href="#linear-gradient"/><linearGradient id="linear-gradient-9" x1="143.92" y1="429.43" x2="770.18" y2="429.43" xlink:href="#linear-gradient"/><linearGradient id="linear-gradient-10" x1="161.91" y1="412.56" x2="787.99" y2="412.56" xlink:href="#linear-gradient"/><linearGradient id="linear-gradient-11" x1="179.9" y1="395.7" x2="805.81" y2="395.7" xlink:href="#linear-gradient"/><linearGradient id="linear-gradient-12" x1="197.89" y1="378.83" x2="823.62" y2="378.83" xlink:href="#linear-gradient"/><linearGradient id="linear-gradient-13" x1="215.88" y1="361.97" x2="841.44" y2="361.97" xlink:href="#linear-gradient"/><linearGradient id="linear-gradient-14" x1="233.87" y1="345.11" x2="859.26" y2="345.11" xlink:href="#linear-gradient"/><linearGradient id="linear-gradient-15" x1="251.86" y1="328.24" x2="877.07" y2="328.24" xlink:href="#linear-gradient"/><linearGradient id="linear-gradient-16" x1="269.85" y1="311.38" x2="894.89" y2="311.38" xlink:href="#linear-gradient"/><linearGradient id="linear-gradient-17" x1="287.84" y1="294.51" x2="912.7" y2="294.51" xlink:href="#linear-gradient"/><linearGradient id="linear-gradient-18" x1="305.83" y1="277.65" x2="930.52" y2="277.65" xlink:href="#linear-gradient"/><linearGradient id="linear-gradient-19" x1="323.82" y1="260.78" x2="948.34" y2="260.78" xlink:href="#linear-gradient"/><linearGradient id="linear-gradient-20" x1="341.81" y1="243.92" x2="966.15" y2="243.92" xlink:href="#linear-gradient"/><linearGradient id="linear-gradient-21" x1="359.8" y1="227.06" x2="983.97" y2="227.06" xlink:href="#linear-gradient"/><linearGradient id="linear-gradient-22" x1="377.79" y1="210.19" x2="1001.78" y2="210.19" xlink:href="#linear-gradient"/><linearGradient id="linear-gradient-23" x1="395.77" y1="193.33" x2="1019.6" y2="193.33" xlink:href="#linear-gradient"/><linearGradient id="linear-gradient-24" x1="413.76" y1="176.46" x2="1037.41" y2="176.46" xlink:href="#linear-gradient"/></defs><title>Asset 11</title><g id="Layer_2" data-name="Layer 2"><g id="Layer_1-2" data-name="Layer 1"><path class="cls-1" d="M3.5,389.38s151.81,0,295.81,188S624.15,737.88,624.15,737.88"/><path class="cls-2" d="M21.4,372.51s151.82,0,295.82,188S642.05,721,642.05,721"/><path class="cls-3" d="M39.31,355.65s151.81,0,295.81,188S660,704.16,660,704.16"/><path class="cls-4" d="M57.21,338.78S209,338.78,353,526.83,677.86,687.29,677.86,687.29"/><path class="cls-5" d="M75.11,321.92s151.81,0,295.81,188S695.76,670.43,695.76,670.43"/><path class="cls-6" d="M93,305.06s151.82,0,295.82,188S713.66,653.56,713.66,653.56"/><path class="cls-7" d="M110.92,288.19s151.81,0,295.81,188.05S731.57,636.7,731.57,636.7"/><path class="cls-8" d="M128.82,271.33s151.81,0,295.81,188S749.47,619.83,749.47,619.83"/><path class="cls-9" d="M146.72,254.46s151.82,0,295.82,188S767.37,603,767.37,603"/><path class="cls-10" d="M164.63,237.6s151.81,0,295.81,188S785.28,586.11,785.28,586.11"/><path class="cls-11" d="M182.53,220.74s151.81,0,295.81,188S803.18,569.24,803.18,569.24"/><path class="cls-12" d="M200.43,203.87s151.81,0,295.81,188S821.08,552.38,821.08,552.38"/><path class="cls-13" d="M218.33,187s151.82,0,295.82,188S839,535.51,839,535.51"/><path class="cls-14" d="M236.24,170.14s151.81,0,295.81,188.05S856.89,518.65,856.89,518.65"/><path class="cls-15" d="M254.14,153.28s151.81,0,295.81,188S874.79,501.78,874.79,501.78"/><path class="cls-16" d="M272,136.41s151.82,0,295.82,188S892.69,484.92,892.69,484.92"/><path class="cls-17" d="M290,119.55s151.81,0,295.81,188S910.59,468.06,910.59,468.06"/><path class="cls-18" d="M307.85,102.69s151.81,0,295.81,188S928.5,451.19,928.5,451.19"/><path class="cls-19" d="M325.75,85.82s151.81,0,295.81,188S946.4,434.33,946.4,434.33"/><path class="cls-20" d="M343.65,69s151.82,0,295.82,188S964.3,417.46,964.3,417.46"/><path class="cls-21" d="M361.56,52.09s151.81,0,295.81,188S982.21,400.6,982.21,400.6"/><path class="cls-22" d="M379.46,35.23s151.81,0,295.81,188,324.84,160.47,324.84,160.47"/><path class="cls-23" d="M397.36,18.36s151.82,0,295.82,188.05S1018,366.87,1018,366.87"/><path class="cls-24" d="M415.26,1.5s151.82,0,295.82,188S1035.91,350,1035.91,350"/></g></g></svg>