<?xml version="1.0" encoding="UTF-8"?>
<svg width="140px" height="140px" viewBox="0 0 140 140" version="1.1" xmlns="http://www.w3.org/2000/svg" xmlns:xlink="http://www.w3.org/1999/xlink">
    <!-- Generator: Sketch 54.1 (76490) - https://sketchapp.com -->
    <title>AXP</title>
    <desc>Created with Sketch.</desc>
    <g id="AXP" stroke="none" stroke-width="1" fill="none" fill-rule="evenodd">
        <g id="AXP_Icon-Only" transform="translate(17.000000, 17.000000)" fill-rule="nonzero">
            <path d="M13.4712907,24.5208333 C7.80436992,32.3841343 4.45833333,42.0002804 4.45833333,52.3929557 C4.45833333,62.7780919 7.80055894,72.3904686 13.4636687,80.25 L37.8958333,52.3854167 L13.4712907,24.5208333 Z" id="Fill-19" fill="#0C9949"></path>
            <path d="M70.4073589,55.6231491 L91.4918808,80.1757964 C97.0369088,72.336087 100.3125,62.7487911 100.3125,52.3835375 C100.3125,41.928086 96.9847378,32.2656253 91.3540003,24.3883332 L70.5228803,48.8507825 L55.5721729,31.4500849 L74.2195656,9.6108941 C67.7801783,6.32242534 60.5060555,4.45833333 52.7922059,4.45833333 C45.0187324,4.45833333 37.6887121,6.35249134 31.2083333,9.68605911 L67.7093749,52.1655591 L31.2232393,95.0847742 C37.6998916,98.4183421 45.0224589,100.3125 52.7922059,100.3125 C60.5656795,100.3125 67.8994262,98.4145837 74.379805,95.0734996 L55.5349079,73.1178029 L70.4073589,55.6231491 Z" id="Fill-20" fill="#2F66A6"></path>
            <path d="M53.5018874,0 C24.0029986,0 0,23.9992239 0,53.5018874 C0,82.9970014 24.0029986,107 53.5018874,107 C82.9970014,107 107,82.9970014 107,53.5018874 C107,23.9992239 82.9970014,0 53.5018874,0 M53.5018874,2.45729706 C81.6909726,2.45729706 104.538928,25.3128021 104.538928,53.5018874 C104.538928,81.6871979 81.6909726,104.538928 53.5018874,104.538928 C25.3128021,104.538928 2.46107171,81.6871979 2.46107171,53.5018874 C2.46107171,25.3128021 25.3128021,2.45729706 53.5018874,2.45729706" id="Fill-21" fill="#0C9949"></path>
        </g>
    </g>
</svg>