<?xml version="1.0" encoding="UTF-8"?>
<svg width="509px" height="225px" viewBox="0 0 509 225" version="1.1" xmlns="http://www.w3.org/2000/svg" xmlns:xlink="http://www.w3.org/1999/xlink">
    <!-- Generator: Sketch 54.1 (76490) - https://sketchapp.com -->
    <title>Developer Friendly</title>
    <desc>Created with Sketch.</desc>
    <defs>
        <linearGradient x1="50%" y1="0%" x2="50%" y2="100%" id="linearGradient-1">
            <stop stop-color="#65C1E8" offset="0%"></stop>
            <stop stop-color="#358DCC" offset="100%"></stop>
        </linearGradient>
        <linearGradient x1="144.198477%" y1="106.25818%" x2="-44.1984767%" y2="106.25818%" id="linearGradient-2">
            <stop stop-color="#358DCC" stop-opacity="0" offset="0%"></stop>
            <stop stop-color="#5BBBFF" stop-opacity="0.6" offset="100%"></stop>
        </linearGradient>
        <rect id="path-3" x="0" y="28" width="112" height="112" rx="10"></rect>
        <filter x="-35.7%" y="-28.6%" width="171.4%" height="171.4%" filterUnits="objectBoundingBox" id="filter-4">
            <feOffset dx="0" dy="8" in="SourceAlpha" result="shadowOffsetOuter1"></feOffset>
            <feGaussianBlur stdDeviation="12" in="shadowOffsetOuter1" result="shadowBlurOuter1"></feGaussianBlur>
            <feColorMatrix values="0 0 0 0 0.149019608   0 0 0 0 0.196078431   0 0 0 0 0.219607843  0 0 0 0.12 0" type="matrix" in="shadowBlurOuter1"></feColorMatrix>
        </filter>
        <linearGradient x1="-1.11022302e-14%" y1="50%" x2="100%" y2="50%" id="linearGradient-5">
            <stop stop-color="#94DEFF" offset="0%"></stop>
            <stop stop-color="#5BBBFF" offset="100%"></stop>
        </linearGradient>
        <path d="M461.200036,112 C462.126577,107.435519 466.162084,104 471,104 C476.522847,104 481,108.477153 481,114 C481,119.522847 476.522847,124 471,124 C466.162084,124 462.126577,120.564481 461.200036,116 L135,116 L135,112 L461.200036,112 Z M471,120 C474.313708,120 477,117.313708 477,114 C477,110.686292 474.313708,108 471,108 C467.686292,108 465,110.686292 465,114 C465,117.313708 467.686292,120 471,120 Z" id="path-6"></path>
        <filter x="-5.5%" y="-85.0%" width="111.0%" height="290.0%" filterUnits="objectBoundingBox" id="filter-7">
            <feOffset dx="0" dy="2" in="SourceAlpha" result="shadowOffsetOuter1"></feOffset>
            <feGaussianBlur stdDeviation="6" in="shadowOffsetOuter1" result="shadowBlurOuter1"></feGaussianBlur>
            <feColorMatrix values="0 0 0 0 0.149019608   0 0 0 0 0.196078431   0 0 0 0 0.219607843  0 0 0 0.12 0" type="matrix" in="shadowBlurOuter1"></feColorMatrix>
        </filter>
    </defs>
    <g id="Developer-Friendly" stroke="none" stroke-width="1" fill="none" fill-rule="evenodd">
        <g id="Group-2" transform="translate(23.000000, 29.000000)">
            <rect id="Rectangle" fill="url(#linearGradient-1)" x="38" y="0" width="378" height="169" rx="20"></rect>
            <g id="Rectangle">
                <use fill="black" fill-opacity="1" filter="url(#filter-4)" xlink:href="#path-3"></use>
                <use fill="#FFFFFF" fill-rule="evenodd" xlink:href="#path-3"></use>
                <use fill="url(#linearGradient-2)" fill-rule="evenodd" xlink:href="#path-3"></use>
            </g>
        </g>
        <g id="Combined-Shape">
            <use fill="black" fill-opacity="1" filter="url(#filter-7)" xlink:href="#path-6"></use>
            <use fill="url(#linearGradient-5)" fill-rule="evenodd" xlink:href="#path-6"></use>
        </g>
        <path d="M320.087484,64.5176054 C320.550669,61.9487807 322.797754,60 325.5,60 C328.537566,60 331,62.4624339 331,65.5 C331,68.5375661 328.537566,71 325.5,71 C323.174703,71 321.18644,69.5569881 320.381851,67.5176054 L268.985635,67.5176054 C265.71398,67.5176054 262.50084,68.3852158 259.673841,70.0319714 L221.008947,92.5546642 C217.723516,94.4684612 213.989327,95.4767652 210.187133,95.4767652 L135,95.4767652 L135,92.4767652 L210.187133,92.4767652 C213.458788,92.4767652 216.671928,91.6091548 219.498927,89.9623992 L258.16382,67.4397065 C261.449252,65.5259094 265.183441,64.5176054 268.985635,64.5176054 L320.087484,64.5176054 Z M325.5,68 C326.880712,68 328,66.8807119 328,65.5 C328,64.1192881 326.880712,63 325.5,63 C324.119288,63 323,64.1192881 323,65.5 C323,66.8807119 324.119288,68 325.5,68 Z" id="Combined-Shape" fill="#FFFFFF" fill-rule="nonzero" opacity="0.8"></path>
        <path d="M391.195653,162.95916 L316.71237,162.95916 C313.843543,162.95916 311.003727,162.385019 308.360216,161.270559 L249.492653,136.452982 C247.218005,135.494029 244.774442,135 242.305916,135 L135,135 L135,132 L242.305916,132 L321.207032,132 C321.859961,129.691495 323.982446,128 326.5,128 C329.537566,128 332,130.462434 332,133.5 C332,136.537566 329.537566,139 326.5,139 C323.982446,139 321.859961,137.308505 321.207032,135 L253.768723,135 L309.525633,158.506178 C311.800282,159.465131 314.243844,159.95916 316.71237,159.95916 L391.218755,159.95916 C391.885048,157.671573 393.997315,156 396.5,156 C399.537566,156 402,158.462434 402,161.5 C402,164.537566 399.537566,167 396.5,167 C393.967623,167 391.834981,165.288528 391.195653,162.95916 Z M326.5,136 C327.880712,136 329,134.880712 329,133.5 C329,132.119288 327.880712,131 326.5,131 C325.119288,131 324,132.119288 324,133.5 C324,134.880712 325.119288,136 326.5,136 Z M396.5,164 C397.880712,164 399,162.880712 399,161.5 C399,160.119288 397.880712,159 396.5,159 C395.119288,159 394,160.119288 394,161.5 C394,162.880712 395.119288,164 396.5,164 Z" id="Combined-Shape" fill="#FFFFFF" fill-rule="nonzero" opacity="0.8"></path>
    </g>
</svg>