<?xml version="1.0" encoding="utf-8"?>
<!-- Generator: Adobe Illustrator 24.1.0, SVG Export Plug-In . SVG Version: 6.00 Build 0)  -->
<svg version="1.1" id="Layer_1" xmlns="http://www.w3.org/2000/svg" xmlns:xlink="http://www.w3.org/1999/xlink" x="0px" y="0px"
	 viewBox="0 0 70.9 11.7" style="enable-background:new 0 0 70.9 11.7;" xml:space="preserve">
<style type="text/css">
	.st0{fill:#FFCB11;}
</style>
<path class="st0" d="M12.2,4.4C12.1,4.2,11.9,4,11.6,4L8.1,3.7L6.7,0.4C6.6,0.2,6.4,0,6.1,0C5.9,0,5.6,0.2,5.5,0.4L4.1,3.7L0.6,4
	C0.3,4,0.1,4.2,0,4.4c0,0.3,0,0.5,0.2,0.7l2.7,2.3l-0.8,3.5c-0.1,0.3,0,0.5,0.3,0.7c0.1,0.1,0.2,0.1,0.4,0.1c0.1,0,0.2,0,0.3-0.1
	l3-1.8l3,1.8c0.2,0.1,0.5,0.1,0.7,0c0.2-0.2,0.3-0.4,0.3-0.7L9.3,7.5L12,5.1C12.2,4.9,12.3,4.7,12.2,4.4z"/>
<path class="st0" d="M26.9,4.4C26.8,4.2,26.6,4,26.3,4l-3.5-0.3l-1.4-3.3C21.3,0.2,21,0,20.8,0s-0.5,0.2-0.6,0.4l-1.4,3.3L15.3,4
	c-0.3,0-0.5,0.2-0.6,0.4c-0.1,0.2,0,0.5,0.2,0.7l2.7,2.3l-0.8,3.5c-0.1,0.3,0,0.5,0.3,0.7c0.1,0.1,0.2,0.1,0.4,0.1
	c0.1,0,0.2,0,0.3-0.1l3-1.8l3,1.8c0.2,0.1,0.5,0.1,0.7,0c0.2-0.2,0.3-0.4,0.3-0.7L24,7.5l2.7-2.3C26.9,4.9,26.9,4.7,26.9,4.4z"/>
<path class="st0" d="M41.5,4.4C41.4,4.2,41.2,4,41,4l-3.5-0.3L36,0.4C35.9,0.2,35.7,0,35.4,0s-0.5,0.2-0.6,0.4l-1.4,3.3L29.9,4
	c-0.3,0-0.5,0.2-0.6,0.4c-0.1,0.2,0,0.5,0.2,0.7l2.7,2.3l-0.8,3.5c-0.1,0.3,0,0.5,0.3,0.7c0.1,0.1,0.2,0.1,0.4,0.1
	c0.1,0,0.2,0,0.3-0.1l3-1.8l3,1.8c0.2,0.1,0.5,0.1,0.7,0c0.2-0.2,0.3-0.4,0.3-0.7l-0.8-3.5l2.7-2.3C41.5,4.9,41.6,4.7,41.5,4.4z"/>
<path class="st0" d="M56.2,4.4C56.1,4.2,55.9,4,55.6,4l-3.5-0.3l-1.4-3.3C50.6,0.2,50.4,0,50.1,0s-0.5,0.2-0.6,0.4l-1.4,3.3L44.6,4
	c-0.3,0-0.5,0.2-0.6,0.4c-0.1,0.2,0,0.5,0.2,0.7l2.7,2.3l-0.8,3.5c-0.1,0.3,0,0.5,0.3,0.7c0.1,0.1,0.2,0.1,0.4,0.1
	c0.1,0,0.2,0,0.3-0.1l3-1.8l3,1.8c0.2,0.1,0.5,0.1,0.7,0c0.2-0.2,0.3-0.4,0.3-0.7l-0.8-3.5L56,5.1C56.2,4.9,56.3,4.7,56.2,4.4z"/>
<path class="st0" d="M70.9,4.5C70.8,4.2,70.5,4,70.3,4l-3.5-0.3l-1.4-3.3C65.2,0.2,65,0,64.8,0c-0.3,0-0.5,0.2-0.6,0.4l-1.4,3.3
	L59.2,4c-0.3,0-0.5,0.2-0.6,0.4c-0.1,0.2,0,0.5,0.2,0.7l2.7,2.3l-0.8,3.5c-0.1,0.3,0,0.5,0.3,0.7c0.1,0.1,0.2,0.1,0.4,0.1
	c0.1,0,0.2,0,0.3-0.1l3-1.8l3,1.8c0.1,0.1,0.2,0.1,0.3,0.1c0.1,0,0.3,0,0.4-0.1c0.2-0.2,0.3-0.4,0.3-0.7L68,7.5l2.7-2.3
	C70.9,5,71,4.8,70.9,4.5z M67.7,6.3V4.7l1.7,0.1L67.7,6.3z"/>
</svg>
