<?xml version="1.0" encoding="utf-8"?>
<!-- Generator: Adobe Illustrator 23.0.1, SVG Export Plug-In . SVG Version: 6.00 Build 0)  -->
<svg version="1.1"
	 id="svg2" inkscape:version="0.92.1 r15371" sodipodi:docname=".com.svg" xmlns:cc="http://creativecommons.org/ns#" xmlns:dc="http://purl.org/dc/elements/1.1/" xmlns:inkscape="http://www.inkscape.org/namespaces/inkscape" xmlns:rdf="http://www.w3.org/1999/02/22-rdf-syntax-ns#" xmlns:sodipodi="http://sodipodi.sourceforge.net/DTD/sodipodi-0.dtd" xmlns:svg="http://www.w3.org/2000/svg"
	 xmlns="http://www.w3.org/2000/svg" xmlns:xlink="http://www.w3.org/1999/xlink" x="0px" y="0px" viewBox="0 0 2260.3 540.1"
	 style="enable-background:new 0 0 2260.3 540.1;" xml:space="preserve">
<style type="text/css">
	.st0{opacity:0.65;fill:#FFFFFF;enable-background:new    ;}
	.st1{fill:#FFFFFF;}
</style>
<sodipodi:namedview  bordercolor="#666666" borderopacity="1" fit-margin-bottom="0" fit-margin-left="0" fit-margin-right="0" fit-margin-top="0" gridtolerance="10" guidetolerance="10" id="namedview103" inkscape:current-layer="svg2" inkscape:cx="-366.90843" inkscape:cy="1494.3221" inkscape:pagecheckerboard="true" inkscape:pageopacity="0" inkscape:pageshadow="2" inkscape:window-height="837" inkscape:window-maximized="1" inkscape:window-width="1600" inkscape:window-x="-8" inkscape:window-y="-8" inkscape:zoom="0.08514284" objecttolerance="10" pagecolor="#ffffff" showgrid="false">
	</sodipodi:namedview>
<circle id="path21" class="st0" cx="115.2" cy="272.6" r="115.2"/>
<g id="text25" transform="matrix(0.98077624,0,0,1.0196006,3937.5007,-926.50061)">
	<path id="path12" inkscape:connector-curvature="0" class="st1" d="M-3150.3,1233.5c-6.6,28-17.6,54.6-33.1,79.6
		c-15.5,25.1-34.6,46.8-57.3,65.3c-22.1,18.5-47.7,33.1-77,43.8c-28.6,10.7-59.7,16.1-93.1,16.1c-37.6,0-72.8-6.9-105.6-20.6
		c-32.2-13.7-60.3-32.5-84.1-56.4c-23.3-24.5-41.8-52.8-55.5-85s-20.6-66.8-20.6-103.8c0-36.4,6.6-70.7,19.7-102.9
		c13.7-32.2,32.2-60.3,55.5-84.1c23.9-23.9,51.6-42.7,83.2-56.4c32.2-13.7,66.8-20.6,103.8-20.6c32.8,0,63.8,5.4,93.1,16.1
		c29.2,10.1,55.2,24.5,77.9,43c23.3,17.9,42.7,39.7,58.2,65.3c16.1,25.7,27.4,53.7,34,84.1h-150.3c-4.2-8.4-9.2-16.7-15.2-25.1
		s-13.1-15.8-21.5-22.4s-18.5-11.9-30.4-16.1c-11.3-4.2-24.8-6.3-40.3-6.3c-17.9-0.6-34,2.4-48.3,8.9c-14.3,6-26.8,14.6-37.6,26
		c-10.1,11.3-18.2,25.1-24.2,41.2c-5.4,15.5-8.1,32.2-8.1,50.1c0,17.9,2.7,34.6,8.1,50.1c6,15.5,14,28.9,24.2,40.3
		c10.7,11.3,23.3,20.3,37.6,26.8c14.3,6,30.4,8.9,48.3,8.9c15.5,0,28.9-2.1,40.3-6.3c11.9-4.2,22.1-9.2,30.4-15.2
		c8.4-6.6,15.5-13.7,21.5-21.5s11-15.5,15.2-23.3L-3150.3,1233.5z"/>
	<path id="path14" inkscape:connector-curvature="0" class="st1" d="M-2943.3,1173.6c0,17.9,3,34.6,8.9,50.1
		c6.6,15.5,15.2,28.9,26,40.3c11.3,10.7,24.2,19.4,38.5,26c14.3,6,29.5,8.9,45.6,8.9s31.3-3,45.6-8.9c14.3-6.6,26.8-15.2,37.6-26
		c11.3-11.3,20-24.8,26-40.3c6.6-15.5,9.8-32.2,9.8-50.1c0-17.9-3.3-34.6-9.8-50.1c-6-15.5-14.6-28.6-26-39.4
		c-10.7-11.3-23.3-20-37.6-26c-14.3-6.6-29.5-9.8-45.6-9.8s-31.3,3.3-45.6,9.8c-14.3,6-27.1,14.6-38.5,26
		c-10.7,10.7-19.4,23.9-26,39.4C-2940.3,1139-2943.3,1155.7-2943.3,1173.6z M-3091.8,1173.6c0-30.4,5.4-61.1,16.1-92.2
		c11.3-31.6,28-60,50.1-85c22.1-25.7,49.8-46.5,83.2-62.6c33.4-16.1,72.8-24.2,118.1-24.2s84.7,8.1,118.1,24.2
		c33.4,16.1,61.1,37,83.2,62.6c22.1,25.1,38.5,53.4,49.2,85c11.3,31,17,61.7,17,92.2c0,30.4-5.7,61.4-17,93.1
		c-10.7,31-27.1,59.4-49.2,85c-22.1,25.1-49.8,45.6-83.2,61.7s-72.8,24.2-118.1,24.2s-84.7-8.1-118.1-24.2
		c-33.4-16.1-61.1-36.7-83.2-61.7c-22.1-25.7-38.8-54-50.1-85C-3086.4,1235-3091.8,1204-3091.8,1173.6z"/>
	<path id="path16" inkscape:connector-curvature="0" class="st1" d="M-2472.5,925.7h138.7v52.8h1.8c3-5.4,7.5-11.9,13.4-19.7
		s14-15.2,24.2-22.4c10.7-7.8,24.2-14.3,40.3-19.7s35.8-8.1,59.1-8.1c10.7,0,22.4,1.2,34.9,3.6c13.1,2.4,26,6.9,38.5,13.4
		c12.5,6.6,24.8,15.5,36.7,26.8s23,26.2,33.1,44.7c15.5-24.5,36.1-45.3,61.7-62.6c25.7-17.3,57.6-26,95.8-26
		c8.9,0,18.8,0.6,29.5,1.8s21.8,3.6,33.1,7.2c11.9,3.6,23.6,8.7,34.9,15.2c11.9,6.6,23,15.2,33.1,26c11.3,12.5,20.6,24.5,27.7,35.8
		c7.2,10.7,12.5,23.3,16.1,37.6c4.2,14.3,6.9,31,8.1,50.1c1.2,18.5,1.8,41.5,1.8,68.9v271.1h-148.5v-264c0-10.1-0.6-21.5-1.8-34
		c-0.6-13.1-3.3-25.1-8.1-35.8c-4.8-11.3-12.2-20.9-22.4-28.6c-10.1-7.8-24.8-11.6-43.8-11.6c-20.9,0-37,4.2-48.3,12.5
		c-10.7,7.8-18.8,17.3-24.2,28.6c-4.8,11.3-7.8,22.7-8.9,34c-0.6,11.3-0.9,20.6-0.9,27.7v271.1h-148.5v-270.3
		c0-6.6-0.6-15.5-1.8-26.8c-0.6-11.9-3.3-23.6-8.1-34.9c-4.2-11.3-11.3-21.2-21.5-29.5s-24.5-12.5-43-12.5c-20.9,0-37,4.5-48.3,13.4
		c-11.3,8.4-19.7,18.5-25.1,30.4c-5.4,11.9-8.7,24.2-9.8,36.7c-0.6,12.5-0.9,22.4-0.9,29.5v264h-148.5L-2472.5,925.7z"/>
</g>
</svg>
