<?xml version="1.0" encoding="utf-8"?>
<!-- Generator: Adobe Illustrator 24.0.0, SVG Export Plug-In . SVG Version: 6.00 Build 0)  -->
<svg version="1.1" id="Layer_1" xmlns="http://www.w3.org/2000/svg" xmlns:xlink="http://www.w3.org/1999/xlink" x="0px" y="0px"
	 viewBox="0 0 307 90" style="enable-background:new 0 0 307 90;" xml:space="preserve">
<style type="text/css">
	.st0{enable-background:new    ;}
	.st1{fill:#009639;}
	.st2{fill:none;stroke:#009639;stroke-width:1.5;}
</style>
<g id="Group_1379" transform="translate(-329 -10915.5)">
	<g class="st0">
		<path class="st1" d="M399.5,10963.5c0,3-1.1,5.5-3.2,7.7c-2.1,2.2-4.8,3.3-7.9,3.5c-0.1,1-0.8,2.8-2.1,5.4
			c-1.3,2.7-4.5,4.3-9.4,4.8c-0.3,1-0.9,1.8-1.8,2.4c-0.9,0.6-1.8,0.9-2.8,0.9c-1.4,0-2.5-0.5-3.5-1.4s-1.4-2.1-1.4-3.5
			s0.5-2.5,1.4-3.5s2.1-1.4,3.5-1.4c1.1,0,2.1,0.3,2.9,1c0.8,0.7,1.4,1.5,1.7,2.5c4.2-0.5,6.7-1.9,7.4-4.1c0.7-2.2,1.1-3.4,1.1-3.6
			c0-0.1,0-0.2,0-0.3c0-0.1,0-0.2,0-0.2c0,0-0.1-0.1-0.1-0.2s0-0.1,0-0.2v-17c0-2.9-0.6-5.6-1.7-8.2c-1.1-2.5-2.6-4.7-4.5-6.6
			c-1.9-1.9-4.1-3.4-6.6-4.5s-5.2-1.6-8.1-1.6c-2.9,0-5.6,0.5-8.2,1.6s-4.7,2.6-6.6,4.5c-1.9,1.9-3.4,4.1-4.5,6.7s-1.6,5.2-1.6,8.1
			v17c0,0.5-0.1,0.8-0.4,1.1c-0.3,0.3-0.6,0.4-1.1,0.4c-0.1,0-0.2,0-0.2,0c-0.1,0-0.2,0-0.2,0c-3.4,0-6.2-1.1-8.6-3.3
			c-2.4-2.2-3.6-4.9-3.6-8.1c0-3,1.1-5.6,3.3-7.8c2.2-2.2,4.9-3.4,8-3.6c0.5-2.8,1.5-5.4,2.9-7.8c1.4-2.4,3.2-4.5,5.3-6.3
			c2.1-1.8,4.5-3.2,7.1-4.2c2.6-1,5.4-1.5,8.4-1.5c3,0,5.8,0.5,8.4,1.5c2.6,1,5,2.4,7.1,4.2c2.1,1.8,3.9,3.9,5.3,6.3
			c1.4,2.4,2.4,5.1,2.9,7.9c3.1,0.1,5.8,1.3,8,3.5C398.4,10957.9,399.5,10960.5,399.5,10963.5z M334.9,10969
			c1.5,1.5,3.4,2.5,5.7,2.7v-15.4c0-0.2,0-0.4,0-0.5c0-0.2,0-0.3,0-0.5c-2.3,0.2-4.2,1.1-5.7,2.7c-1.5,1.6-2.3,3.4-2.3,5.5
			C332.6,10965.6,333.3,10967.4,334.9,10969z M373.6,10984.7c0.4-0.4,0.6-0.8,0.6-1.3c0-0.5-0.2-0.9-0.6-1.3
			c-0.4-0.4-0.8-0.6-1.3-0.6c-0.5,0-0.9,0.2-1.3,0.6c-0.4,0.4-0.6,0.8-0.6,1.3c0,0.5,0.2,0.9,0.6,1.3c0.4,0.4,0.8,0.6,1.3,0.6
			C372.7,10985.3,373.2,10985.1,373.6,10984.7z M394.1,10969c1.5-1.5,2.3-3.4,2.3-5.5c0-2.1-0.8-3.9-2.3-5.5
			c-1.5-1.6-3.4-2.5-5.7-2.7c0,0.2,0,0.4,0,0.5c0,0.2,0,0.3,0,0.5v15.4C390.7,10971.4,392.6,10970.5,394.1,10969z"/>
	</g>
	<g class="st0">
		<path d="M434.4,10950.6c3-2.2,5.2-4,6.6-5.2c1.4-1.2,2.5-2.2,3.1-3.1c0.6-0.9,0.9-1.7,0.9-2.6c0-0.8-0.3-1.5-1-2
			c-0.6-0.5-1.4-0.7-2.3-0.7c-2.1,0-3.9,0.8-5.3,2.3l-2.4-2.8c0.9-1,2.1-1.7,3.5-2.2c1.4-0.5,2.8-0.7,4.2-0.7c1.4,0,2.7,0.3,3.9,0.8
			c1.2,0.5,2.1,1.3,2.8,2.3c0.7,1,1,2.1,1,3.5c0,1.7-0.7,3.3-2,4.9c-1.3,1.6-3.4,3.4-6.2,5.5h8.3v3.4h-15.1V10950.6z"/>
		<path d="M461.3,10949.9h-9.6v-3.4l8-12.5h5.9v12.5h2.6v3.4h-2.6v4.1h-4.3V10949.9z M455.7,10946.4h5.6v-8.3L455.7,10946.4z"/>
		<path d="M476,10933.4h2.8l-7.1,21.2h-2.8L476,10933.4z"/>
		<path d="M489.6,10937.4h-10.1v-3.4h15v3l-7.4,17h-4.7L489.6,10937.4z"/>
	</g>
	<g class="st0">
		<path d="M507.7,10934h3.5l-4.4,20h-3.5L507.7,10934z"/>
		<path d="M518,10938.6l-3.4,15.4h-3.5l4.4-20h3.6l6.9,15l3.3-15h3.5l-4.4,20H525L518,10938.6z"/>
		<path d="M534.6,10948.5c0.7,1,1.6,1.7,2.8,2.3c1.2,0.6,2.5,0.8,3.8,0.8c1.2,0,2.1-0.3,2.8-0.9c0.6-0.6,0.9-1.3,0.9-2.1
			c0-0.7-0.3-1.2-0.9-1.6c-0.6-0.4-1.6-0.9-2.9-1.4c-1.3-0.5-2.3-0.9-3.1-1.3s-1.5-1-2-1.7c-0.6-0.7-0.9-1.6-0.9-2.6
			c0-1.1,0.3-2.1,0.9-3.1s1.5-1.7,2.6-2.3c1.1-0.6,2.5-0.9,3.9-0.9c1.6,0,3,0.3,4.4,0.8c1.4,0.5,2.4,1.2,3.2,2.2l-2.2,2.5
			c-0.7-0.8-1.6-1.5-2.6-1.9c-1.1-0.5-2.1-0.7-3.2-0.7c-1,0-1.8,0.3-2.4,0.9c-0.6,0.6-1,1.3-1,2.1c0,0.7,0.3,1.2,0.9,1.7
			s1.5,0.9,2.7,1.5c1.3,0.4,2.4,0.9,3.2,1.3s1.5,1,2.1,1.6c0.6,0.7,0.9,1.5,0.9,2.5c0,1.1-0.3,2.2-0.9,3.1c-0.6,1-1.5,1.7-2.7,2.3
			c-1.2,0.6-2.5,0.9-4.1,0.9c-1.9,0-3.6-0.3-5.1-0.9s-2.7-1.4-3.5-2.4L534.6,10948.5z"/>
		<path d="M558.7,10936.8h-6l0.6-2.8H569l-0.6,2.8h-6.1l-3.7,17.2H555L558.7,10936.8z"/>
		<path d="M579.3,10950.2h-9.5l-2.3,3.8h-4l12.3-20h4.4l3.5,20h-3.7L579.3,10950.2z M571.3,10947.3h7.7l-1.6-10L571.3,10947.3z"/>
		<path d="M592.7,10938.6l-3.4,15.4h-3.5l4.4-20h3.6l6.9,15l3.3-15h3.5l-4.4,20h-3.4L592.7,10938.6z"/>
		<path d="M615.8,10936.8h-6l0.6-2.8h15.6l-0.6,2.8h-6.1l-3.7,17.2h-3.5L615.8,10936.8z"/>
	</g>
	<g class="st0">
		<path d="M435.9,10980.3c0.8,0.8,1.7,1.5,2.8,2c1.1,0.5,2.3,0.8,3.6,0.8c1.1,0,2-0.3,2.6-0.8c0.6-0.5,0.9-1.2,0.9-1.9
			c0-0.8-0.3-1.4-1-1.9s-1.7-0.8-3.1-1.2c-1.6-0.3-2.8-0.7-3.8-1s-1.8-0.9-2.6-1.7c-0.7-0.8-1.1-1.8-1.1-3.1c0-1.1,0.3-2,0.9-2.9
			c0.6-0.9,1.5-1.6,2.7-2.1c1.1-0.5,2.5-0.8,4-0.8c3.2,0,5.8,0.9,7.8,2.6l-2.4,3c-0.8-0.7-1.7-1.3-2.7-1.6c-1-0.4-2-0.6-3-0.6
			c-0.9,0-1.7,0.2-2.2,0.6c-0.5,0.4-0.8,0.9-0.8,1.6c0,0.7,0.3,1.2,0.9,1.5c0.6,0.3,1.6,0.7,3.1,1c1.5,0.3,2.8,0.7,3.8,1.1
			c1,0.4,1.9,1,2.6,1.8c0.7,0.8,1.1,1.9,1.1,3.3c0,1.9-0.7,3.5-2.1,4.7c-1.4,1.2-3.4,1.8-6,1.8c-1.8,0-3.5-0.3-4.9-0.8
			c-1.4-0.5-2.6-1.2-3.6-2.2L435.9,10980.3z"/>
		<path d="M453,10966h4.3v12.2c0,1.5,0.4,2.6,1.2,3.5s1.9,1.3,3.5,1.3c1.5,0,2.6-0.4,3.4-1.3c0.8-0.9,1.2-2,1.2-3.5v-12.2h4.3v12
			c0,2.6-0.8,4.6-2.2,6.1s-3.7,2.3-6.7,2.3c-3,0-5.2-0.8-6.7-2.3c-1.5-1.5-2.3-3.5-2.3-6.1V10966z"/>
		<path d="M474.8,10966h9.4c1.4,0,2.6,0.3,3.6,0.9c1,0.6,1.8,1.4,2.3,2.3c0.5,1,0.8,2.1,0.8,3.3c0,1.2-0.3,2.3-0.8,3.2
			c-0.5,1-1.3,1.7-2.3,2.3c-1,0.6-2.2,0.9-3.6,0.9h-5.1v7.2h-4.3V10966z M485.7,10970.2c-0.6-0.6-1.3-0.8-2.1-0.8h-4.5v6h4.5
			c0.9,0,1.6-0.3,2.1-0.8c0.6-0.6,0.8-1.3,0.8-2.2S486.3,10970.8,485.7,10970.2z"/>
		<path d="M493.5,10966h9.4c1.4,0,2.6,0.3,3.6,0.9c1,0.6,1.8,1.4,2.3,2.3c0.5,1,0.8,2.1,0.8,3.3c0,1.2-0.3,2.3-0.8,3.2
			c-0.5,1-1.3,1.7-2.3,2.3c-1,0.6-2.2,0.9-3.6,0.9h-5.1v7.2h-4.3V10966z M504.4,10970.2c-0.6-0.6-1.3-0.8-2.1-0.8h-4.5v6h4.5
			c0.9,0,1.6-0.3,2.1-0.8c0.5-0.6,0.8-1.3,0.8-2.2S505,10970.8,504.4,10970.2z"/>
		<path d="M512.6,10970.7c0.9-1.6,2.1-2.8,3.7-3.7s3.4-1.3,5.4-1.3c2,0,3.8,0.4,5.4,1.3c1.6,0.9,2.8,2.1,3.7,3.7s1.3,3.3,1.3,5.3
			c0,2-0.4,3.8-1.3,5.3c-0.9,1.6-2.1,2.8-3.7,3.7c-1.6,0.9-3.4,1.3-5.4,1.3c-2,0-3.8-0.4-5.4-1.3c-1.6-0.9-2.8-2.1-3.7-3.7
			c-0.9-1.6-1.4-3.4-1.4-5.3C511.3,10974,511.8,10972.3,512.6,10970.7z M527.1,10972.5c-0.5-1.1-1.2-1.9-2.1-2.5
			c-0.9-0.6-2-0.9-3.2-0.9s-2.3,0.3-3.2,0.9c-0.9,0.6-1.6,1.4-2.1,2.5s-0.8,2.2-0.8,3.6s0.2,2.5,0.8,3.6c0.5,1.1,1.2,1.9,2.1,2.5
			s2,0.9,3.2,0.9s2.3-0.3,3.2-0.9c0.9-0.6,1.6-1.4,2.1-2.5c0.5-1.1,0.8-2.2,0.8-3.6S527.6,10973.5,527.1,10972.5z"/>
		<path d="M542.6,10978.8h-3.1v7.2h-4.3v-20h9.4c1.4,0,2.6,0.3,3.6,0.8c1,0.5,1.8,1.3,2.3,2.3c0.5,1,0.8,2.1,0.8,3.3
			c0,1.6-0.4,3-1.3,4c-0.8,1-1.9,1.7-3.1,2l4.5,7.6h-4.9L542.6,10978.8z M546.1,10970.2c-0.6-0.6-1.3-0.8-2.1-0.8h-4.5v6h4.5
			c0.9,0,1.6-0.3,2.1-0.8c0.6-0.6,0.9-1.3,0.9-2.2S546.7,10970.8,546.1,10970.2z"/>
		<path d="M558.8,10969.4H553v-3.4h16v3.4h-5.8v16.6h-4.3V10969.4z"/>
	</g>
	<line id="Line_35" class="st2" x1="420.5" y1="10915.5" x2="420.5" y2="11005.5"/>
</g>
</svg>
