<?xml version="1.0" encoding="utf-8"?>
<!-- Generator: Adobe Illustrator 24.0.0, SVG Export Plug-In . SVG Version: 6.00 Build 0)  -->
<svg version="1.1" id="Layer_1" xmlns="http://www.w3.org/2000/svg" xmlns:xlink="http://www.w3.org/1999/xlink" x="0px" y="0px"
	 viewBox="0 0 113.2 116.8" style="enable-background:new 0 0 113.2 116.8;" xml:space="preserve">
<style type="text/css">
	.st0{fill:#F99D22;}
	.st1{fill:#FFFFFF;}
	.st2{fill:#414042;}
	.st3{fill:#B7BEC0;}
</style>
<title>persona-fueler</title>
<g id="Layer_2_1_">
	<g id="Layer_1-2">
		<circle class="st0" cx="56.5" cy="56.5" r="56.5"/>
		<path class="st1" d="M15,116.8v-5.5c0-5.9,5.4-10.7,12.1-10.7h53.2c6.7,0,12.1,4.8,12.1,10.7v5.5"/>
		<path class="st2" d="M94.3,116.8h-4v-5.5c0-4.8-4.5-8.7-10.1-8.7H27.1c-5.6,0-10.1,3.9-10.1,8.7v5.5h-4v-5.5
			c0-7,6.3-12.7,14.1-12.7h53.2c7.8,0,14.1,5.7,14.1,12.7V116.8z"/>
		<polygon class="st1" points="63.8,105 53.7,110.9 43.5,105 43.5,82.8 53.7,82.8 63.8,82.8 		"/>
		<path class="st2" d="M53.7,113.2l-12.2-7V80.8h24.3v25.4L53.7,113.2z M45.5,103.9l8.2,4.7l8.2-4.7v-19H45.5L45.5,103.9z"/>
		<path class="st1" d="M42.2,34.2h23c6.6,0,12,5.4,12,12v35.5c0,6.6-5.4,12-12,12h-23c-6.6,0-12-5.4-12-12V46.2
			C30.2,39.5,35.6,34.2,42.2,34.2z"/>
		<path class="st2" d="M65.2,95.7h-23c-7.7,0-14-6.3-14-14V46.2c0-7.7,6.3-14,14-14h23c7.7,0,14,6.3,14,14v35.5
			C79.2,89.4,72.9,95.7,65.2,95.7z M42.2,36.2c-5.5,0-10,4.5-10,10v35.5c0,5.5,4.5,10,10,10h23c5.5,0,10-4.5,10-10V46.2
			c0-5.5-4.5-10-10-10H42.2z"/>
		<path class="st3" d="M71.8,19.5H35.5L24.2,32.2v44.5h6V46.2c0-3.9,1.9-7.5,5-9.7L53.7,41l18.5-4.6c3.1,2.2,5,5.9,5,9.7v30.5h6
			V32.2L71.8,19.5z"/>
		<path class="st2" d="M85.2,78.7h-10V46.2c0-2.9-1.3-5.6-3.4-7.5l-18.1,4.5l-18.1-4.5c-2.2,1.9-3.4,4.6-3.4,7.5v32.5h-10V31.4
			l12.4-13.9h38.1l12.4,13.9V78.7z M79.2,74.7h2V32.9L71,21.5H36.4L26.2,32.9v41.7h2V46.2c0-4.5,2.2-8.7,5.8-11.3l0.8-0.5l19,4.7
			l19-4.7l0.8,0.5c3.6,2.6,5.8,6.8,5.8,11.3L79.2,74.7z"/>
		<path class="st1" d="M30.1,52.8h-1.7c-2.2,0-4,1.8-4,4v9.3c0,2.2,1.8,4,4,4h1.7V52.8z"/>
		<path class="st2" d="M32.1,72.2h-3.7c-3.3,0-6-2.7-6-6v-9.3c0-3.3,2.7-6,6-6h3.7V72.2z M28.1,54.9c-1,0.2-1.7,1-1.7,2v9.3
			c0,1,0.7,1.8,1.7,2V54.9z"/>
		<path class="st1" d="M77.4,70.2h1.7c2.2,0,4-1.8,4-4v-9.3c0-2.2-1.8-4-4-4h-1.7V70.2z"/>
		<path class="st2" d="M79.1,72.2h-3.7V50.8h3.7c3.3,0,6,2.7,6,6v9.3C85.1,69.5,82.4,72.2,79.1,72.2z M79.4,54.9v13.3
			c1-0.2,1.7-1,1.7-2v-9.3C81.1,55.8,80.4,55,79.4,54.9z"/>
		<path class="st2" d="M26.4,116.8h4.3v-15.9c0.9-0.2,1.8-0.2,2.6-0.2H35v16.1h35.8v-16.1h1.6c0.9,0,1.8,0.1,2.7,0.2v15.9h4.2V97.6
			c-2.2-0.8-4.5-1.3-6.8-1.3H68l-0.6,1.2c-0.3,0.5-0.6,1-0.9,1.4v6.5l0,0v8.5H39.3v-8.5l0,0V99c-0.3-0.5-0.6-1-0.9-1.5l-0.6-1.2
			h-4.5c-2.4,0-4.8,0.5-7,1.4v4.8h0L26.4,116.8z"/>
		<path class="st0" d="M104.1,99.8c0,1.8,1.5,3.2,3.2,3.2c1.8,0,3.2-1.5,3.2-3.2c0-2.7-2.7-4.2-3.2-6.5h-0.2
			C106.8,95.6,104.1,97.2,104.1,99.8z"/>
		<polygon class="st1" points="89.7,104.7 88.4,104.3 87.6,105.3 87.1,111.5 87.9,111.5 		"/>
		<path class="st1" d="M75.6,116.7h3l0.3-0.3c0.4-0.4,0.7-0.8,0.8-1.3l2.3,1.6h8.2l6.3-6.3l-2-7.4l3.3-3.3l-4.7-4.7l6.2-6.2l9.5-3.3
			l-0.4-3.3l-11.7,1.3L89.2,91l-1.8-1.8l-16,16l0.2,1.8c-1.3,0.5-2.3,1.7-2.5,3.1c1.3,1.6,2.6,3.2,4.1,4.6
			C74,115.3,74.7,116,75.6,116.7z M88.1,102.9l3,0.7l1.5,5.7l-6.2,6.1L80,111L88.1,102.9z"/>
		<path class="st2" d="M78.9,116.4l-0.3,0.3H82l-2.3-1.6C79.5,115.6,79.3,116,78.9,116.4z"/>
		<path class="st2" d="M69.7,116.7h5.9c-0.8-0.6-1.6-1.3-2.3-2.1c-1.5-1.4-2.8-3-4.1-4.6c0.2-1.4,1.2-2.6,2.5-3.1l-0.2-1.8l16-16
			l1.8,1.8l7.5-7.5l11.8-1.3l0.4,3.3l-9.5,3.3l-6.2,6.2l4.7,4.7l-3.4,3.4l2,7.4l-6.3,6.3h5.7l3.5-3.4l1.6-1.6l-0.6-2.2l-1.4-5.3
			l1.7-1.7l2.8-2.8l-2.8-2.8l-1.9-1.9l2.7-2.7l8.7-3l3-1l-0.4-3.2l-0.4-3.3l-0.5-4l-3.9,0.5l-11.7,1.3l-1.4,0.2l-1,1l-4.7,4.7
			l-1.8-1.8l-2.8,2.8l-16,15.9l-1.4,1.4l0.1,1.3c-1.2,1.2-2,2.8-2.2,4.5L65,111l0.9,1.3C67,113.8,68.3,115.3,69.7,116.7z"/>
		<path class="st2" d="M91.1,103.6l-3-0.7L80,111l6.4,4.5l6.2-6.1L91.1,103.6z M87.9,111.5h-0.8l0.5-6.2l0.8-1.1l1.3,0.5L87.9,111.5
			z"/>
	</g>
</g>
</svg>
