<?xml version="1.0" encoding="utf-8"?>
<!-- Generator: Adobe Illustrator 24.0.0, SVG Export Plug-In . SVG Version: 6.00 Build 0)  -->
<svg version="1.1" id="Layer_1" xmlns="http://www.w3.org/2000/svg" xmlns:xlink="http://www.w3.org/1999/xlink" x="0px" y="0px"
	 viewBox="0 0 113.1 116.8" style="enable-background:new 0 0 113.1 116.8;" xml:space="preserve">
<style type="text/css">
	.st0{fill:#F99D22;}
	.st1{fill:#B7BEC0;}
	.st2{fill:#414042;}
	.st3{fill:#FFFFFF;}
</style>
<title>persona-it-professional</title>
<g id="Layer_2_1_">
	<g id="Layer_1-2">
		<circle class="st0" cx="56.5" cy="56.5" r="56.5"/>
		<path class="st1" d="M76.7,29.8L76.7,29.8c-0.2-1.9-1.1-3.8-2.5-5.1v15.2c2.9,0.5,5,3,5,5.9v14.5h6v-22
			C85.2,33.6,81.4,29.8,76.7,29.8C76.7,29.8,76.7,29.8,76.7,29.8z"/>
		<path class="st2" d="M87.2,62.3h-10V45.8c0-1.9-1.4-3.6-3.3-3.9l-1.7-0.3v-22l3.5,3.8c1.3,1.3,2.2,2.9,2.7,4.6
			c5.1,0.8,8.8,5.2,8.8,10.4L87.2,62.3z M81.2,58.3h2v-20c0-3.6-2.9-6.5-6.5-6.5h-0.5v6.6c3,1.2,5,4.2,5,7.4V58.3z"/>
		<path class="st3" d="M17.9,116.8v-13.4c0-5.9,5.4-10.7,12.1-10.7h53.1c6.7,0,12.1,4.8,12.1,10.7v13.4"/>
		<path class="st2" d="M97.2,116.8h-4v-13.4c0-4.8-4.5-8.7-10.1-8.7H30c-5.6,0-10.1,3.9-10.1,8.7v13.4h-4v-13.4
			c0-7,6.3-12.7,14.1-12.7h53.1c7.8,0,14.1,5.7,14.1,12.7V116.8z"/>
		<polygon class="st3" points="66.7,94.6 56.5,102.4 46.4,94.6 46.4,65.3 56.5,65.3 66.7,65.3 		"/>
		<path class="st2" d="M56.5,104.9l-12.2-9.3V63.3h24.3v32.3L56.5,104.9z M48.4,93.6l8.2,6.2l8.2-6.2V67.3H48.4V93.6z"/>
		<path class="st3" d="M82,55.8h0.4c2.6,0,4.7,2.1,4.7,4.7v4.6c0,2.6-2.1,4.7-4.7,4.7H82c-2.6,0-4.7-2.1-4.7-4.7v-4.6
			C77.3,58,79.4,55.8,82,55.8z"/>
		<path class="st2" d="M82.3,71.8H82c-3.7,0-6.7-3-6.7-6.7v-4.6c0-3.7,3-6.7,6.7-6.7h0.4c3.7,0,6.7,3,6.7,6.7v4.6
			C89.1,68.9,86.1,71.9,82.3,71.8C82.4,71.9,82.4,71.9,82.3,71.8z M82,57.8c-1.5,0-2.7,1.2-2.7,2.7v4.6c0,1.5,1.2,2.7,2.7,2.7
			c0,0,0,0,0.1,0h0.4c1.5,0,2.7-1.2,2.7-2.7c0,0,0,0,0,0v-4.6c0-1.5-1.2-2.7-2.7-2.7H82z"/>
		<path class="st3" d="M79.5,64c0,13.1-10.7,23.7-23.8,23.7l0,0C42.7,87.7,32,77.1,32,64V45c0-13.1,10.6-23.8,23.7-23.8
			c0,0,0,0,0.1,0l0,0c13.1,0,23.8,10.6,23.8,23.8l0,0V64z"/>
		<path class="st2" d="M55.8,89.7C41.6,89.7,30,78.2,30,64V45c0-14.2,11.6-25.8,25.8-25.8C70,19.2,81.6,30.8,81.6,45v19
			C81.5,78.2,70,89.7,55.8,89.7z M55.8,23.2c-12,0-21.7,9.8-21.8,21.8V64c0,12,9.8,21.8,21.8,21.8c12,0,21.8-9.7,21.8-21.8V45
			C77.6,33,67.8,23.2,55.8,23.2C55.8,23.2,55.8,23.1,55.8,23.2z"/>
		<path class="st1" d="M88.2,23.5c-0.9-6.6-13.7-10.3-28.5-8.3c-14.2,1.9-25.1,8.3-25.3,14.6l0,0c-4.7,0-8.5,3.8-8.5,8.5v22h6V45.8
			c0-3.3,2.7-6,6-6h0.5c3.4,2.7,10.7,4.3,19.1,3.9c6.6-0.3,12.4-1.8,16.1-3.9h2.8c6.1,0,11-4.9,11-11l-0.9-0.1
			C87.7,27.3,88.3,25.4,88.2,23.5z"/>
		<path class="st2" d="M33.8,62.3h-10v-24c0-5.1,3.8-9.5,8.8-10.3c1.8-6.8,12.6-12.8,26.8-14.7c2.7-0.4,5.4-0.6,8.2-0.6
			c12.8,0,21.7,4.1,22.6,10.5c0.2,1.6-0.1,3.3-0.9,4.7v0.9c0,7.2-5.8,13-13,13l0,0H74c-4.1,2.2-10.1,3.6-16.5,3.9
			c-8.4,0.4-15.8-1.1-19.9-3.9c-2.1,0.1-3.8,1.9-3.8,4L33.8,62.3z M27.8,58.3h2V45.8c0-4.4,3.6-8,8-8h1.2l0.5,0.4
			c2.7,2.2,8.7,3.6,15.3,3.6c0.8,0,1.6,0,2.4-0.1c6.1-0.3,11.6-1.6,15.2-3.7l0.4-0.3h3.3c4.3,0,8-3,8.8-7.2l-2.5-0.3l2.3-2.9
			c0.9-1,1.4-2.4,1.3-3.8c-0.5-4-8.5-7.1-18.6-7.1c-2.6,0-5.1,0.2-7.7,0.5C46,19.1,36.5,25.3,36.3,29.9l-0.1,1.9h-1.9
			c-3.6,0-6.5,2.9-6.5,6.5L27.8,58.3z"/>
		<path class="st3" d="M50.7,73c1.3,2.8,4.7,4.1,7.5,2.8c1.2-0.6,2.2-1.5,2.8-2.8"/>
		
			<rect x="40.7" y="86.8" transform="matrix(0.7071 -0.7071 0.7071 0.7071 -54.6991 60.5297)" class="st0" width="10" height="18.9"/>
		<path class="st2" d="M48.8,109.3L32.7,93.2l9.9-9.9l16.2,16.2L48.8,109.3z M38.3,93.2l10.5,10.5l4.2-4.2L42.6,88.9L38.3,93.2z"/>
		
			<rect x="57.9" y="91.3" transform="matrix(0.7071 -0.7071 0.7071 0.7071 -48.3562 75.8427)" class="st0" width="18.9" height="10"/>
		<path class="st2" d="M64.2,109.3l-9.9-9.9l16.2-16.2l9.9,9.9L64.2,109.3z M60,99.4l4.2,4.2l10.5-10.5l-4.2-4.2L60,99.4z"/>
		<rect x="56.8" y="108.3" class="st2" width="3.3" height="4"/>
		<path class="st3" d="M31.9,56.4c-0.7-0.4-1.4-0.6-2.2-0.6h-0.4c-2.6,0-4.7,2.1-4.7,4.7v4.6c0,2.6,2.1,4.7,4.7,4.7h0h0.4
			c0.8,0,1.5-0.2,2.2-0.6V56.4z"/>
		<path class="st2" d="M29.7,71.8h-0.4c-3.7,0-6.7-3-6.7-6.7v-4.6c0-3.7,3-6.7,6.7-6.7h0.4c1.1,0,2.1,0.3,3.1,0.8l1.1,0.6v15.3
			l-1.1,0.6C31.8,71.6,30.8,71.8,29.7,71.8z M29.3,57.8c-1.5,0-2.7,1.2-2.7,2.7v4.6c0,1.5,1.2,2.7,2.7,2.7c0,0,0,0,0,0h0.6v-10H29.3
			z"/>
	</g>
</g>
</svg>
