<?xml version="1.0" encoding="utf-8"?>
<!-- Generator: Adobe Illustrator 24.0.0, SVG Export Plug-In . SVG Version: 6.00 Build 0)  -->
<svg version="1.1" id="Layer_1" xmlns="http://www.w3.org/2000/svg" xmlns:xlink="http://www.w3.org/1999/xlink" x="0px" y="0px"
	 viewBox="0 0 113.1 120.1" style="enable-background:new 0 0 113.1 120.1;" xml:space="preserve">
<style type="text/css">
	.st0{fill:#F99D22;}
	.st1{fill:#FFFFFF;}
	.st2{fill:#414042;}
	.st3{fill:#B7BEC0;}
</style>
<title>persona-foremen</title>
<g id="Layer_2_1_">
	<g id="Layer_1-2">
		<circle class="st0" cx="56.5" cy="59.8" r="56.5"/>
		<path class="st1" d="M15,120.1v-5.5c0-5.9,5.4-10.7,12.1-10.7h53.2c6.7,0,12.1,4.8,12.1,10.7v5.5"/>
		<path class="st2" d="M94.3,120.1h-4v-5.5c0-4.8-4.5-8.7-10.1-8.7H27.1c-5.6,0-10.1,3.9-10.1,8.7v5.5h-4v-5.5
			c0-7,6.3-12.7,14.1-12.7h53.2c7.8,0,14.1,5.7,14.1,12.7V120.1z"/>
		<polygon class="st1" points="63.8,108.3 53.7,114.2 43.5,108.3 43.5,86.1 53.7,86.1 63.8,86.1 		"/>
		<path class="st2" d="M53.7,116.5l-12.2-7V84.1h24.3v25.4L53.7,116.5z M45.5,107.1l8.2,4.7l8.2-4.7v-19H45.5L45.5,107.1z"/>
		<path class="st1" d="M42.2,37.4h23c6.6,0,12,5.4,12,12v35.5c0,6.6-5.4,12-12,12h-23c-6.6,0-12-5.4-12-12V49.4
			C30.2,42.8,35.6,37.4,42.2,37.4z"/>
		<path class="st2" d="M65.2,98.9h-23c-7.7,0-14-6.3-14-14V49.4c0-7.7,6.3-14,14-14h23c7.7,0,14,6.3,14,14v35.5
			C79.2,92.7,72.9,98.9,65.2,98.9z M42.2,39.4c-5.5,0-10,4.5-10,10v35.5c0,5.5,4.5,10,10,10h23c5.5,0,10-4.5,10-10V49.4
			c0-5.5-4.5-10-10-10H42.2z"/>
		<path class="st3" d="M71.8,22.8H35.5L24.2,35.4v44.5h6V49.4c0-3.9,1.9-7.5,5-9.7l18.5,4.6l18.5-4.6c3.1,2.2,5,5.9,5,9.7v30.5h6
			V35.4L71.8,22.8z"/>
		<path class="st2" d="M85.2,81.9h-10V49.4c0-2.9-1.3-5.6-3.4-7.5l-18.1,4.5l-18.1-4.5c-2.2,1.9-3.4,4.6-3.4,7.5v32.5h-10V34.7
			l12.4-13.9h38.1l12.4,13.9V81.9z M79.2,77.9h2V36.2L71,24.8H36.4L26.2,36.2v41.7h2V49.4c0-4.5,2.2-8.7,5.8-11.3l0.8-0.5l19,4.7
			l19-4.7l0.8,0.5c3.6,2.6,5.8,6.8,5.8,11.3L79.2,77.9z"/>
		<path class="st1" d="M30.1,56.1h-1.7c-2.2,0-4,1.8-4,4v9.3c0,2.2,1.8,4,4,4h1.7V56.1z"/>
		<path class="st2" d="M32.1,75.4h-3.7c-3.3,0-6-2.7-6-6v-9.3c0-3.3,2.7-6,6-6h3.7V75.4z M28.1,58.1c-1,0.2-1.7,1-1.7,2v9.3
			c0,1,0.7,1.8,1.7,2V58.1z"/>
		<path class="st1" d="M77.4,73.4h1.7c2.2,0,4-1.8,4-4v-9.3c0-2.2-1.8-4-4-4h-1.7V73.4z"/>
		<path class="st2" d="M79.1,75.4h-3.7V54.1h3.7c3.3,0,6,2.7,6,6v9.3C85.1,72.7,82.4,75.4,79.1,75.4z M79.4,58.1v13.3
			c1-0.2,1.7-1,1.7-2v-9.3C81.1,59.1,80.4,58.3,79.4,58.1z"/>
		<path class="st1" d="M54,44.6h23.1l1.4-1.2h6.6v-9.7h-2.6c0,0,0.7-6.2-3.7-13.6s-8.6-9.4-8.6-9.4l-7,20.6l2.6-25.6
			c0,0-7-3.2-11.8-3.2h-0.3c-4.8,0-11.8,3.2-11.8,3.2l2.6,25.6l-7-20.6c0,0-4.2,1.9-8.6,9.4s-3.7,13.6-3.7,13.6h-2.6v9.7h6.5
			l1.4,1.2H54z"/>
		<path class="st2" d="M77.1,47.1H30.6c-0.6,0-1.1-0.2-1.6-0.5L28.3,46h-5.6c-1.4,0-2.5-1.1-2.5-2.5v-9.8c0-1.4,1.1-2.5,2.5-2.5h0.1
			c0.4-4.4,1.7-8.6,4-12.4C31.4,11,36,8.7,36.5,8.5c1.2-0.6,2.7,0,3.3,1.2L39.4,6c-0.1-1.1,0.5-2.1,1.4-2.5C41.2,3.3,48.4,0,53.7,0
			H54c5.4,0,12.6,3.3,12.9,3.5c1,0.5,1.5,1.5,1.4,2.5L68,9.7c0.6-1.2,2.1-1.8,3.3-1.2c0.5,0.2,5.1,2.5,9.7,10.4
			c2.2,3.8,3.6,8,4,12.4h0.1c1.4,0,2.5,1.1,2.5,2.5v9.7c0,1.4-1.1,2.5-2.5,2.5h-5.7l-0.8,0.6C78.2,46.9,77.7,47.1,77.1,47.1z
			 M31.5,42.1h44.7l0.8-0.6c0.5-0.3,1-0.5,1.6-0.5h4.1v-4.8h-0.1c-0.7,0-1.4-0.3-1.9-0.8c-0.5-0.5-0.7-1.2-0.6-1.9
			c0,0,0.5-5.5-3.4-12.1c-1.4-2.4-3.1-4.7-5.2-6.6l-5.9,17.3c-0.5,1.3-1.9,2-3.2,1.5c-1.1-0.4-1.7-1.4-1.7-2.5l2.4-23.8
			C60.8,6.3,56.8,5,54,5h-0.3C51,5,47,6.3,44.6,7.3L47,31.1c0.1,1.4-1,2.6-2.3,2.7c-1.1,0.1-2.1-0.6-2.5-1.7l-5.9-17.3
			c-2,1.9-3.8,4.2-5.1,6.6c-3.9,6.6-3.4,12-3.4,12.1c0.1,0.7-0.2,1.4-0.6,1.9c-0.5,0.5-1.1,0.8-1.9,0.8h-0.1V41h4
			c0.6,0,1.1,0.2,1.6,0.5L31.5,42.1z"/>
		<path class="st2" d="M26.4,120.1h4.3v-15.9c0.9-0.2,1.8-0.2,2.6-0.2H35v16.1h35.8V104h1.6c0.9,0,1.8,0.1,2.7,0.2v15.8h4.2v-19.2
			c-2.2-0.8-4.5-1.3-6.8-1.3H68l-0.6,1.2c-0.3,0.5-0.6,1-0.9,1.4v6.5l0,0v8.5H39.3v-8.5l0,0v-6.5c-0.3-0.5-0.6-1-0.9-1.4l-0.6-1.2
			h-4.5c-2.4,0-4.8,0.5-7,1.3v4.8h0L26.4,120.1z"/>
		<path class="st1" d="M33.7,70.6c-1.4-2.8-4.9-4.3-10-4.3C16.4,66.4,7.3,69.7,4.8,75c-0.5,1-0.7,2.1-0.6,3.2H4.1v41.9h30V74.2
			C34.4,73,34.3,71.7,33.7,70.6z"/>
		<path class="st2" d="M33.7,70.6c-1.4-2.8-4.9-4.3-10-4.3C16.4,66.4,7.3,69.7,4.8,75c-0.5,1-0.7,2.1-0.6,3.2H4.1v41.9h4V82.8
			c2.7,1.1,5.6,1.8,8.6,2v35.3h4V82.6h-0.3v-1.7c-4.1,0-10.8-0.9-12.1-2.9c-0.1-0.2-0.3-0.5,0.1-1.3c1.1-2.3,5.1-4.6,9.7-5.7
			c-2.3,0.9-5,2.4-5.4,4.7c-0.2,1.5,0.5,2.9,1.8,3.6c3.2,2.2,10.9,1.6,15.6-0.8v41.6h4V74.2C34.4,73,34.3,71.7,33.7,70.6z
			 M29.6,74.2c-2.8,2.5-10.4,3.1-12.6,1.9c1.2-0.8,2.6-1.4,4-1.8l-1.1-3.6c1.3-0.2,2.6-0.4,3.9-0.4c3.3,0,5.7,0.8,6.4,2.1v0.1v1.1
			C30,73.8,29.8,74,29.6,74.2z"/>
	</g>
</g>
</svg>
