<?xml version="1.0" encoding="utf-8"?>
<!-- Generator: Adobe Illustrator 24.0.0, SVG Export Plug-In . SVG Version: 6.00 Build 0)  -->
<svg version="1.1" id="Layer_1" xmlns="http://www.w3.org/2000/svg" xmlns:xlink="http://www.w3.org/1999/xlink" x="0px" y="0px"
	 viewBox="0 0 113.1 116.8" style="enable-background:new 0 0 113.1 116.8;" xml:space="preserve">
<style type="text/css">
	.st0{fill:#F99D22;}
	.st1{fill:#FFFFFF;}
	.st2{fill:#414042;}
</style>
<title>persona-quality-manager</title>
<g id="Layer_2_1_">
	<g id="Layer_1-2">
		<circle class="st0" cx="56.5" cy="56.5" r="56.5"/>
		<path class="st1" d="M16.9,115.9v-13.4c0-5.9,5.4-10.7,12.1-10.7h53.1c6.7,0,12.1,4.8,12.1,10.7v13.4"/>
		<path class="st2" d="M96.2,115.9h-4v-13.4c0-4.8-4.5-8.7-10.1-8.7H29c-5.6,0-10.1,3.9-10.1,8.7v13.4h-4v-13.4
			c0-7,6.3-12.7,14.1-12.7h53.2c7.8,0,14.1,5.7,14.1,12.7V115.9z"/>
		<path class="st1" d="M55.6,105c-5.3,0-9.6-4.3-9.6-9.5c0,0,0,0,0,0V44.3c0-5.3,4.3-9.6,9.6-9.6l0,0l0,0c5.3,0,9.6,4.3,9.6,9.6
			v51.2C65.1,100.7,60.9,105,55.6,105z"/>
		<path class="st2" d="M55.6,107c-6.4,0-11.6-5.2-11.6-11.5V44.3c-0.2-6.4,4.8-11.7,11.2-11.9s11.7,4.8,11.9,11.2c0,0.2,0,0.5,0,0.7
			v51.2C67.1,101.8,62,107,55.6,107z M55.6,36.7c-4.2,0-7.6,3.4-7.6,7.6c0,0,0,0,0,0v51.2c0.2,4.2,3.7,7.4,7.8,7.3
			c4-0.1,7.1-3.3,7.3-7.3V44.3C63.1,40.1,59.8,36.7,55.6,36.7L55.6,36.7z"/>
		<path class="st1" d="M30.1,46.8h-1.7c-2.2,0-4,1.8-4,4v9.3c0,2.2,1.8,4,4,4h1.7V46.8z"/>
		<path class="st2" d="M32.2,66.2h-3.7c-3.3,0-6-2.7-6-6v-9.3c0-3.3,2.7-6,6-6h3.7V66.2z M28.2,48.9c-1,0.2-1.7,1-1.7,2v9.3
			c0,1,0.7,1.8,1.7,2V48.9z"/>
		<path class="st1" d="M78,64.2h1.7c2.2,0,4-1.8,4-4v-9.3c0-2.2-1.8-4-4-4H78V64.2z"/>
		<path class="st2" d="M79.7,66.2H76V44.8h3.7c3.3,0,6,2.7,6,6v9.3C85.7,63.5,83,66.2,79.7,66.2C79.7,66.2,79.7,66.2,79.7,66.2z
			 M80,48.8v13.3c1-0.2,1.7-1,1.7-2v-9.3C81.7,49.8,81,49,80,48.8z"/>
		<path class="st1" d="M49.2,17.8h10.1c10.3,0,18.6,8.3,18.6,18.6v37.3c0,10.3-8.3,18.6-18.6,18.6H49.2c-10.3,0-18.6-8.3-18.6-18.6
			V36.4C30.5,26.1,38.9,17.8,49.2,17.8z"/>
		<path class="st2" d="M59.2,94.3H49.2c-11.4,0-20.6-9.2-20.6-20.6V36.4c0-11.4,9.2-20.6,20.6-20.6h10.1c11.4,0,20.6,9.2,20.6,20.6
			v37.3C79.8,85.1,70.6,94.3,59.2,94.3z M49.2,19.8c-9.2,0-16.6,7.5-16.6,16.6v37.3c0,9.2,7.4,16.6,16.6,16.6h10.1
			c9.2,0,16.6-7.5,16.6-16.6V36.4c0-9.2-7.5-16.6-16.6-16.6H49.2z"/>
		<path class="st1" d="M48.4,77v0.4c0,2.4,1.9,4.3,4.3,4.3h3c2.4,0,4.3-1.9,4.3-4.3l0,0V77"/>
		<path class="st1" d="M59.2,66.4c0,2.2-1.8,3.9-3.9,3.9l0,0c-2.2,0-3.9-1.8-3.9-3.9V51.6"/>
		<path class="st0" d="M59.2,17.8H49.1c-10.3,0-18.6,8.3-18.6,18.6v1.8c3-4,7.3-6.8,12.2-7.8c1.5,2.8,6.1,4.9,11.4,4.9
			s9.9-2.1,11.4-4.9c4.9,1,9.2,3.8,12.2,7.8v-1.8C77.8,26.1,69.5,17.8,59.2,17.8z"/>
		<path class="st2" d="M79.8,44.6l-3.7-5.2c-2.4-3.2-5.9-5.6-9.8-6.6c-2.4,2.8-7,4.6-12.3,4.6s-9.9-1.8-12.3-4.6
			c-3.9,1-7.3,3.4-9.8,6.6l-3.6,5.2v-8.2c0-11.4,9.2-20.6,20.6-20.6h10.1c11.4,0,20.6,9.2,20.6,20.6V44.6z M43.8,28.1l0.7,1.3
			c1,1.9,4.7,3.8,9.7,3.8s8.6-1.9,9.7-3.8l0.7-1.3l1.5,0.4c3.4,0.8,6.6,2.3,9.4,4.4c-1.7-7.6-8.4-13.1-16.3-13.1H49.1
			c-7.8,0-14.6,5.5-16.3,13.1c2.8-2.1,6-3.6,9.4-4.4L43.8,28.1z"/>
		<path class="st2" d="M61.3,116.8H49.8v-13.5h11.5V116.8z M53.8,112.8h3.5v-5.5h-3.5V112.8z"/>
		<path class="st1" d="M77.9,78h27.3c0.5,0,0.8,0.4,0.8,0.8V112c0,0.5-0.4,0.8-0.8,0.8H77.9c-0.5,0-0.8-0.4-0.8-0.8V78.8
			C77.1,78.4,77.5,78,77.9,78z"/>
		<path class="st2" d="M105.2,78c0.5,0,0.8,0.4,0.8,0.8V112c0,0.5-0.4,0.8-0.8,0.8H77.9c-0.5,0-0.8-0.4-0.8-0.8V78.8
			c0-0.5,0.4-0.8,0.8-0.8l0,0L105.2,78 M105.2,74H77.9c-2.7,0-4.8,2.2-4.8,4.8V112c0,2.7,2.2,4.8,4.8,4.8h27.3
			c2.7,0,4.8-2.2,4.8-4.8V78.8C110.1,76.2,107.9,74,105.2,74L105.2,74z"/>
		<path class="st1" d="M98.9,77c0-0.1-0.2-0.2-0.5-0.2H85.2c-0.3,0-0.5,0.1-0.5,0.2l-2.3,2.6c0,0.1,0.2,0.2,0.5,0.2h17.4
			c0.3,0,0.5-0.1,0.5-0.2L98.9,77z M91.6,75.9c1.5,0,2.7-1.2,2.7-2.7s-1.2-2.7-2.7-2.7c-1.5,0-2.7,1.2-2.7,2.7
			C88.9,74.7,90.1,75.9,91.6,75.9L91.6,75.9z"/>
		<path class="st2" d="M91.6,70.6c1.5,0,2.7,1.2,2.7,2.7c0,1.5-1.2,2.7-2.7,2.7s-2.7-1.2-2.7-2.7c0,0,0,0,0,0
			C88.9,71.7,90.1,70.5,91.6,70.6C91.6,70.5,91.6,70.5,91.6,70.6 M98.3,76.8c0.3,0,0.5,0.1,0.5,0.2l1.9,2.6c0,0.1-0.2,0.2-0.5,0.2
			H82.9c-0.3,0-0.5-0.1-0.5-0.2l2.3-2.6c0-0.1,0.2-0.2,0.5-0.2L98.3,76.8 M91.6,66.6c-3.5,0-6.4,2.8-6.6,6.2c-1.4,0-2.7,0.7-3.5,1.8
			L79.4,77l-1,1.1v1.5c0,2.4,2,4.2,4.3,4.2c0.1,0,0.1,0,0.2,0h17.4c2.3,0.1,4.4-1.6,4.5-4c0-0.1,0-0.1,0-0.2v-1.3l-0.8-1.1l-1.8-2.4
			c-0.9-1.3-2.3-2.1-3.9-2h-0.1C98,69.3,95.1,66.5,91.6,66.6L91.6,66.6z"/>
		<rect x="80.7" y="89" class="st2" width="21.7" height="4"/>
		<rect x="80.7" y="97.2" class="st2" width="21.7" height="4"/>
		<rect x="80.7" y="105.4" class="st2" width="21.7" height="4"/>
	</g>
</g>
</svg>
