<?xml version="1.0" encoding="utf-8"?>
<!-- Generator: Adobe Illustrator 24.0.0, SVG Export Plug-In . SVG Version: 6.00 Build 0)  -->
<svg version="1.1" id="Layer_1" xmlns="http://www.w3.org/2000/svg" xmlns:xlink="http://www.w3.org/1999/xlink" x="0px" y="0px"
	 viewBox="0 0 113.1 121.3" style="enable-background:new 0 0 113.1 121.3;" xml:space="preserve">
<style type="text/css">
	.st0{fill:#F99D22;}
	.st1{fill:#B7BEC0;}
	.st2{fill:#414042;}
	.st3{fill:#FFFFFF;}
	.st4{fill:#F5F6F6;}
</style>
<title>persona-mechanics</title>
<g id="Layer_2_1_">
	<g id="Layer_1-2">
		<circle class="st0" cx="56.5" cy="61" r="56.5"/>
		<path class="st1" d="M76.7,34.3L76.7,34.3c-0.2-1.9-1.1-3.8-2.5-5.1v15.2c2.9,0.5,5,3,5,5.9v14.5h6v-22
			C85.2,38.1,81.4,34.3,76.7,34.3C76.7,34.3,76.7,34.3,76.7,34.3z"/>
		<path class="st2" d="M87.2,66.8h-10V50.3c0-1.9-1.4-3.6-3.3-3.9l-1.7-0.3v-22l3.5,3.8c1.3,1.3,2.2,2.9,2.7,4.6
			c5.1,0.8,8.8,5.2,8.8,10.4V66.8z M81.2,62.8h2v-20c0-3.6-2.9-6.5-6.5-6.5h-0.5v6.6c3,1.2,5,4.2,5,7.4V62.8z"/>
		<path class="st3" d="M17.9,121.3v-13.4c0-5.9,5.4-10.7,12.1-10.7h53.1c6.7,0,12.1,4.8,12.1,10.7v13.4"/>
		<path class="st2" d="M97.2,121.3h-4v-13.4c0-4.8-4.5-8.7-10.1-8.7H30c-5.6,0-10.1,3.9-10.1,8.7v13.4h-4v-13.4
			c0-7,6.3-12.7,14.1-12.7h53.1c7.8,0,14.1,5.7,14.1,12.7V121.3z"/>
		<polygon class="st3" points="66.7,99.1 56.5,106.8 46.4,99.1 46.4,69.8 56.5,69.8 66.7,69.8 		"/>
		<path class="st2" d="M56.5,109.3l-12.2-9.3V67.8h24.3v32.3L56.5,109.3z M48.4,98.1l8.2,6.2l8.2-6.2V71.8H48.4V98.1z"/>
		<path class="st3" d="M82,60.3h0.4c2.6,0,4.7,2.1,4.7,4.7v4.6c0,2.6-2.1,4.7-4.7,4.7H82c-2.6,0-4.7-2.1-4.7-4.7V65
			C77.3,62.4,79.4,60.3,82,60.3z"/>
		<path class="st2" d="M82.3,76.3H82c-3.7,0-6.7-3-6.7-6.7V65c0-3.7,3-6.7,6.7-6.7h0.4c3.7,0,6.7,3,6.7,6.7v4.6
			C89.1,73.3,86.1,76.3,82.3,76.3C82.4,76.3,82.4,76.3,82.3,76.3z M82,62.3c-1.5,0-2.7,1.2-2.7,2.7v4.6c0,1.5,1.2,2.7,2.7,2.7h0.4
			c1.5,0,2.7-1.2,2.7-2.7V65c0-1.5-1.2-2.7-2.7-2.7L82,62.3z"/>
		<path class="st3" d="M79.5,68.4c0,13.1-10.6,23.8-23.8,23.8l0,0C42.6,92.2,32,81.5,32,68.4v-19c0-13.1,10.6-23.8,23.8-23.8
			c0,0,0,0,0,0l0,0c13.1,0,23.8,10.6,23.8,23.8l0,0V68.4z"/>
		<path class="st2" d="M55.8,94.2C41.5,94.2,30,82.6,30,68.4v-19c0-14.2,11.6-25.8,25.8-25.8c14.2,0,25.8,11.5,25.8,25.8v19
			C81.5,82.6,70,94.2,55.8,94.2z M55.8,27.6c-12,0-21.7,9.8-21.8,21.8v19c0,12,9.7,21.8,21.8,21.8c12,0,21.8-9.7,21.8-21.8
			c0,0,0,0,0,0v-19C77.5,37.3,67.8,27.6,55.8,27.6z"/>
		<path class="st1" d="M82.5,31.1c-0.9-6.6-8-13.5-22.9-11.5C45.5,21.6,34.5,28,34.3,34.3l0,0c-4.7,0-8.5,3.8-8.5,8.5v22h6V50.3
			c0-3.3,2.7-6,6-6h0.5c3.4,2.7,10.7,4.3,19.1,3.9c6.6-0.3,12.4-1.8,16.1-3.9h2.8c6.1,0,9.6-3.1,9.6-9.1l-2.2-0.8
			C85,32.7,82.8,32.9,82.5,31.1z"/>
		<path class="st2" d="M33.8,66.8h-10v-24c0-5.2,3.7-9.5,8.8-10.4c1.8-6.8,12.6-12.8,26.8-14.7c2.7-0.4,5.4-0.6,8.2-0.6
			c12.8,0,14.1,7,15,13.4c0.2,1.5,4.3,1.7,3.5,3.2l1.8,1.5c0,7.2-4.4,11.1-11.6,11.1H74c-4.1,2.2-10.1,3.6-16.5,3.9
			c-8.4,0.4-15.8-1.1-19.9-3.9c-2.1,0.1-3.8,1.9-3.8,4L33.8,66.8z M27.8,62.8h2V50.3c0-4.4,3.6-8,8-8h1.2l0.5,0.4
			c2.7,2.2,8.7,3.6,15.3,3.6c0.8,0,1.6,0,2.4-0.1c6.1-0.3,11.6-1.6,15.2-3.7l0.4-0.3h3.3c4.3,0,8-3,8.8-7.2l-2.5-0.2l0.6-1.1
			c1.1-1.3,0.2-3.5,0-4.7c-0.5-4-5.5-7.9-15.6-7.9c-2.6,0-5.1,0.2-7.7,0.5C46,23.5,36.5,29.7,36.3,34.3l-0.1,1.9h-1.9
			c-3.6,0-6.5,2.9-6.5,6.5c0,0,0,0,0,0L27.8,62.8z"/>
		<path class="st3" d="M50.7,77.5c1.3,2.8,4.6,4.1,7.5,2.8c1.2-0.6,2.2-1.5,2.8-2.8"/>
		
			<rect x="40.7" y="91.3" transform="matrix(0.7071 -0.7071 0.7071 0.7071 -57.8514 61.8326)" class="st0" width="10" height="18.9"/>
		<path class="st2" d="M48.8,113.8L32.7,97.6l9.9-9.9l16.2,16.2L48.8,113.8z M38.3,97.6l10.5,10.5l4.2-4.2L42.6,93.4L38.3,97.6z"/>
		
			<rect x="57.9" y="95.7" transform="matrix(0.7071 -0.7071 0.7071 0.7071 -51.5044 77.1498)" class="st0" width="18.9" height="10"/>
		<path class="st2" d="M64.2,113.8l-9.9-9.9l16.2-16.2l9.9,9.9L64.2,113.8z M60,103.9l4.2,4.2l10.5-10.5l-4.2-4.2L60,103.9z"/>
		<rect x="56.8" y="112.8" class="st2" width="3.3" height="4"/>
		<path class="st3" d="M31.9,60.9c-0.7-0.4-1.4-0.5-2.2-0.5h-0.4c-2.6,0-4.7,2.1-4.7,4.7v4.6c0,2.6,2.1,4.7,4.7,4.7c0,0,0,0,0,0h0.4
			c0.8,0,1.5-0.2,2.2-0.6V60.9z"/>
		<path class="st2" d="M29.7,76.3h-0.4c-3.7,0-6.7-3-6.7-6.7V65c0-3.7,3-6.7,6.7-6.7h0.4c1.1,0,2.1,0.3,3.1,0.8l1.1,0.6V75l-1.1,0.6
			C31.8,76.1,30.8,76.3,29.7,76.3z M29.3,62.3c-1.5,0-2.7,1.2-2.7,2.7v4.6c0,1.5,1.2,2.7,2.7,2.7h0.6v-10L29.3,62.3L29.3,62.3z"/>
		<path class="st3" d="M56.6,44.6h23.1l1.4-1.2h6.6v-9.7h-2.6c0,0,0.7-6.2-3.7-13.6s-8.6-9.4-8.6-9.4l-7,20.6l2.6-25.6
			c0,0-7-3.2-11.8-3.2h-0.3c-4.8,0-11.8,3.2-11.8,3.2L47,31.3l-7-20.6c0,0-4.2,1.9-8.6,9.4s-3.7,13.6-3.7,13.6h-2.5v9.7h6.5l1.4,1.2
			H56.6z"/>
		<path class="st2" d="M79.6,47.1H33.1c-0.6,0-1.1-0.2-1.6-0.5L30.8,46h-5.6c-1.4,0-2.5-1.1-2.5-2.5v-9.8c0-1.4,1.1-2.5,2.5-2.5h0.1
			c0.4-4.4,1.7-8.6,4-12.4C34,11,38.5,8.7,39,8.5c1.2-0.6,2.7,0,3.3,1.2L41.9,6c-0.1-1.1,0.5-2.1,1.4-2.5C43.7,3.3,50.9,0,56.2,0
			h0.3c5.4,0,12.6,3.3,12.9,3.5c1,0.5,1.5,1.5,1.4,2.5l-0.4,3.7c0.6-1.2,2.1-1.8,3.3-1.2c0.5,0.2,5.1,2.5,9.7,10.4
			c2.2,3.8,3.6,8,4,12.4h0.1c1.4,0,2.5,1.1,2.5,2.5v9.7c0,1.4-1.1,2.5-2.5,2.5h-5.7l-0.8,0.6C80.7,46.9,80.2,47.1,79.6,47.1z
			 M34,42.1h44.7l0.8-0.6c0.5-0.3,1-0.5,1.6-0.5h4.1v-4.8h-0.1c-0.7,0-1.4-0.3-1.9-0.8c-0.5-0.5-0.7-1.2-0.6-1.9
			c0,0,0.4-5.5-3.4-12.1C77.8,19,76,16.7,74,14.8l-5.8,17.3c-0.5,1.3-1.9,2-3.2,1.5c-1.1-0.4-1.7-1.4-1.7-2.5l2.4-23.8
			c-2.4-1-6.4-2.4-9.2-2.4h-0.3c-2.8,0-6.7,1.3-9.1,2.3l2.4,23.8c0.1,1.4-1,2.6-2.3,2.7c-1.1,0.1-2.1-0.6-2.5-1.7l-5.9-17.3
			c-2,1.9-3.8,4.2-5.2,6.6c-3.9,6.6-3.4,12-3.4,12.1c0.1,0.7-0.2,1.4-0.6,1.9c-0.5,0.5-1.1,0.8-1.9,0.8h-0.1V41h4
			c0.6,0,1.1,0.2,1.6,0.5L34,42.1z"/>
		<path class="st2" d="M27.2,111.8h15c0.7,0,1.2,0.6,1.2,1.2v7c0,0.7-0.6,1.2-1.2,1.2h-15c-0.7,0-1.2-0.6-1.2-1.2v-7
			C26,112.3,26.5,111.8,27.2,111.8z"/>
		<path class="st4" d="M72.6,90.5c2.1,2.2,3.2,5.1,3.2,8.2v22.7h7.5V97.6c0-3.1,1.2-6.1,3.4-8.3c1.6-1.5,2.1-3.5,1.4-6.1
			c-1.1-4.2-3-6.5-5.8-7c0,0,0,0-0.1,0c0,0,0,0.1,0,0.1l1.4,5.4c0.4,1.6-0.1,3.2-1.3,4.3c-1.3,1.2-3.1,1.7-4.8,1.2
			c-1.6-0.4-2.8-1.6-3.2-3.2l-1.2-4.8c0,0,0-0.1-0.1-0.1c0,0-0.1,0-0.1,0c-2,2.2-2.7,5.2-2,8.1C71.3,88.5,71.8,89.6,72.6,90.5z"/>
		<path class="st2" d="M69.6,93.2c1.4,1.5,2.2,3.4,2.2,5.5v22.7h4V98.6c0-3-1.2-5.9-3.2-8.1c-0.8-0.9-1.3-2-1.6-3.1
			c-0.7-2.9,0-5.9,2-8.1c0,0,0,0,0.1,0l0,0c0,0,0.1,0,0.1,0.1l1.2,4.8c0.4,1.5,1.6,2.7,3.2,3.2c1.7,0.5,3.5,0,4.8-1.2
			c1.2-1.1,1.7-2.7,1.3-4.3l-1.4-5.5c0,0,0-0.1,0-0.1l0,0l0,0c2.8,0.5,4.7,2.7,5.8,7c0.7,2.5,0.2,4.6-1.4,6.1
			c-2.2,2.2-3.5,5.2-3.4,8.3v23.8h4V97.6c0-2,0.8-4,2.2-5.4c2.6-2.5,3.6-6,2.5-10s-3.4-9-9-9.9h-0.3h-0.3c-1.1,0-2.2,0.5-3,1.4
			c-0.9,1-1.3,2.4-0.9,3.8l1.4,5.4c0,0.2-0.1,0.3-0.2,0.4c-0.2,0.2-0.5,0.3-0.7,0.3c-0.1,0-0.2,0-0.2,0c-0.2,0-0.3-0.1-0.4-0.3
			L77,78.4c-0.4-1.5-1.5-2.6-3-3l-0.4-0.1h-0.5c-1.2,0-2.4,0.5-3.1,1.4c-2.8,3.2-3.8,7.6-2.8,11.7C67.6,90.2,68.4,91.8,69.6,93.2z"
			/>
	</g>
</g>
</svg>
