<?xml version="1.0" encoding="utf-8"?>
<!-- Generator: Adobe Illustrator 24.0.0, SVG Export Plug-In . SVG Version: 6.00 Build 0)  -->
<svg version="1.1" id="Layer_1" xmlns="http://www.w3.org/2000/svg" xmlns:xlink="http://www.w3.org/1999/xlink" x="0px" y="0px"
	 viewBox="0 0 113.1 116.8" style="enable-background:new 0 0 113.1 116.8;" xml:space="preserve">
<style type="text/css">
	.st0{fill:#F99D22;}
	.st1{fill:#FFFFFF;}
	.st2{fill:#414042;}
	.st3{fill:#B7BEC0;}
</style>
<title>persona-dispatcher</title>
<g id="Layer_2_1_">
	<g id="Layer_1-2">
		<circle class="st0" cx="56.5" cy="56.5" r="56.5"/>
		<path class="st1" d="M28.1,116.8v-8c0-4.4,3.6-8,8-8h44c4.4,0,8,3.6,8,8v8"/>
		<path class="st2" d="M90.1,116.8h-4v-8c0-3.3-2.7-6-6-6l0,0h-44c-3.3,0-6,2.7-6,6l0,0v8h-4v-8c0-5.5,4.5-10,10-10h44
			c5.5,0,10,4.5,10,10V116.8z"/>
		<path class="st1" d="M58.2,112.5c-5.3,0-9.5-4.3-9.6-9.5V51.8c0-5.3,4.3-9.6,9.6-9.6l0,0l0,0c5.3,0,9.6,4.3,9.6,9.6c0,0,0,0,0,0
			V103C67.8,108.3,63.5,112.6,58.2,112.5L58.2,112.5z"/>
		<path class="st2" d="M58.2,114.5c-6.4,0-11.5-5.1-11.6-11.5V51.8c-0.2-6.4,4.8-11.7,11.2-11.9s11.7,4.8,11.9,11.2
			c0,0.2,0,0.5,0,0.7V103C69.8,109.4,64.6,114.5,58.2,114.5z M58.2,44.2c-4.2,0-7.6,3.4-7.6,7.6V103c0.2,4.2,3.7,7.4,7.8,7.3
			c4-0.1,7.1-3.3,7.3-7.3V51.8C65.8,47.6,62.4,44.2,58.2,44.2z"/>
		<path class="st3" d="M87.9,96.5V45.5c0-17-13.8-30.8-30.8-30.8c-17,0-30.8,13.8-30.8,30.8v50.9h1c13.7,0,24.9-11.1,25-24.8h10.3
			c0.1,13.7,11.3,24.8,25,24.8H87.9z"/>
		<path class="st2" d="M89.9,98.5h-2.2c-14.1,0-25.8-10.8-26.9-24.8h-6.4c-1.2,14-12.9,24.8-26.9,24.8h-3V45.5
			c0-18.1,14.7-32.8,32.8-32.8S90,27.4,90,45.5L89.9,98.5z M57.2,16.8c-15.9,0-28.8,12.9-28.8,28.8v48.9
			c12.2-0.6,21.9-10.6,22.1-22.8v-2h14.2v2c0.1,12,9.4,21.8,21.3,22.8V45.5C85.9,29.7,73,16.8,57.2,16.8z"/>
		<path class="st1" d="M86.4,64.8c0,2.6-2.1,4.7-4.7,4.7h-0.4c-2.6,0-4.7-2.1-4.7-4.7c0,0,0,0,0,0v-8.6c0-2.6,2.1-4.7,4.7-4.7l0,0
			h0.4c2.6,0,4.7,2.1,4.7,4.7V64.8z"/>
		<path class="st2" d="M81.8,71.5h-0.4c-3.7,0-6.7-3-6.7-6.7v-8.6c0-3.7,3-6.7,6.7-6.7h0.4c3.7,0,6.7,3,6.7,6.7v8.6
			C88.4,68.5,85.4,71.5,81.8,71.5z M81.4,53.5c-1.5,0-2.7,1.2-2.7,2.7l0,0v8.6c0,1.5,1.2,2.7,2.7,2.7c0,0,0,0,0,0h0.4
			c1.5,0,2.7-1.2,2.7-2.7v-8.6c0-1.5-1.2-2.7-2.7-2.7H81.4z"/>
		<path class="st1" d="M80.9,46.8v17.7c0,13.1-10.6,23.8-23.8,23.8l0,0l0,0c-13.1,0-23.8-10.6-23.8-23.8c0,0,0,0,0,0V46.8"/>
		<path class="st2" d="M57.2,90.3c-14.2,0-25.8-11.5-25.8-25.8V46.8h4v17.7c0,12,9.8,21.8,21.8,21.8s21.8-9.8,21.8-21.8V46.8h4v17.7
			C82.9,78.8,71.4,90.3,57.2,90.3z"/>
		<path class="st1" d="M33.4,51.5c-2.4,0.2-6.2,2.2-6.2,4.6v8.6c0,2.4,3.8,4.4,6.2,4.7V51.5z"/>
		<path class="st2" d="M35.4,71.6l-2.2-0.2c-3.3-0.3-8-2.9-8-6.6v-8.6c0-3.7,4.7-6.3,8-6.6l2.2-0.2V71.6z M31.4,54.2
			c-1.2,0.6-2.2,1.4-2.2,2v8.6c0,0.5,1,1.4,2.2,2V54.2z"/>
		<path class="st1" d="M55.9,78.8h3c2.3,0,4.3-1.9,4.3-4.2c0,0,0,0,0,0v-0.4"/>
		<path class="st3" d="M40.9,28.2c-4.8,4.5-7.5,10.8-7.5,17.3v3.3h17.8c2.5,0,4.7-1.3,6-3.4c1.3,2.1,3.5,3.4,6,3.4h17.8"/>
		<path class="st2" d="M80.9,50.8H63.2c-2.2,0-4.4-0.8-6-2.3c-1.6,1.5-3.8,2.3-6,2.3H31.4v-5.3c0-7.1,3-13.9,8.1-18.8l2.7,2.9
			c-4.4,4.1-6.9,9.9-6.9,15.9v1.3h15.8c1.8,0,3.4-0.9,4.3-2.4l1.7-2.9l1.7,2.9c0.9,1.5,2.5,2.4,4.3,2.4h17.8V50.8z"/>
		<path class="st2" d="M86.2,48.3L86.2,48.3c2.6,0,4.7,2.1,4.7,4.7v15.8c0,2.6-2.1,4.7-4.7,4.7h0c-2.6,0-4.7-2.1-4.7-4.7V53
			C81.5,50.4,83.6,48.3,86.2,48.3z"/>
		<path class="st2" d="M56.6,80.2v-4c8.3-0.1,16.2-3,22.5-8.3l2.8,2.9C74.9,76.8,65.9,80.2,56.6,80.2z"/>
		<path class="st2" d="M51.1,77.9v-1c0-1.8,1.5-3.3,3.3-3.3h8.3c1.8,0,3.3,1.5,3.3,3.3v1c0,1.8-1.5,3.3-3.3,3.3h-8.3
			C52.5,81.2,51.1,79.8,51.1,77.9z"/>
	</g>
</g>
</svg>
