<svg id="Twitter" xmlns="http://www.w3.org/2000/svg" viewBox="0 0 100 100"><defs><style>.cls-1{fill:#010002;}</style></defs><title>Twitter</title><path id="base" class="cls-1" d="M84.93,28.34A28.76,28.76,0,0,1,76.7,30.6,14.39,14.39,0,0,0,83,22.67a28.66,28.66,0,0,1-9.11,3.48A14.36,14.36,0,0,0,49.47,39.27a40.66,40.66,0,0,1-29.53-15A14.07,14.07,0,0,0,18,31.45a14.35,14.35,0,0,0,6.37,11.93,14.33,14.33,0,0,1-6.49-1.8v.18A14.35,14.35,0,0,0,29.37,55.81a14.57,14.57,0,0,1-3.77.5A13.63,13.63,0,0,1,22.9,56,14.37,14.37,0,0,0,36.29,66a28.79,28.79,0,0,1-17.8,6.12,32.66,32.66,0,0,1-3.42-.19,40.48,40.48,0,0,0,22,6.44c26.36,0,40.77-21.83,40.77-40.77V35.74A28.68,28.68,0,0,0,84.93,28.34Z"/></svg>