<?xml version="1.0" encoding="UTF-8"?>
<svg width="40px" height="40px" viewBox="0 0 40 40" version="1.1" xmlns="http://www.w3.org/2000/svg" xmlns:xlink="http://www.w3.org/1999/xlink">
    <!-- Generator: Sketch 54.1 (76490) - https://sketchapp.com -->
    <title>Reddit</title>
    <desc>Created with Sketch.</desc>
    <defs>
        <linearGradient x1="100%" y1="94.5196702%" x2="0%" y2="5.48032976%" id="linearGradient-1">
            <stop stop-color="#66BDFC" offset="0%"></stop>
            <stop stop-color="#358DCC" offset="100%"></stop>
        </linearGradient>
        <path d="M31.4999344,16.6875365 C32.6249318,16.6875365 33.4999297,17.1042025 34.1249282,17.9375335 C34.7499267,18.7708646 34.9686762,19.6875294 34.7811766,20.687527 C34.5936771,21.6875246 33.9999285,22.4375228 32.9999309,22.9375216 C33.1249306,23.3958535 33.1874304,23.9166863 33.1874304,24.5000179 C33.1874304,26.2500137 32.5936818,27.8437599 31.4061847,29.2812565 C30.2186875,30.7187531 28.6249413,31.8645833 26.6249461,32.7187483 C24.6249508,33.5729132 22.4270391,33.9999952 20.0312118,33.9999952 C17.6353845,33.9999952 15.4374727,33.5729132 13.4374775,32.7187483 C11.4374823,31.8645833 9.84373607,30.7187531 8.6562389,29.2812565 C7.46874173,27.8437599 6.87499315,26.2500137 6.87499315,24.5000179 C6.87499315,23.9583522 6.937493,23.4583534 7.0624927,23.0000215 C6.0208282,22.4583558 5.40624665,21.6875246 5.21874709,20.687527 C5.03124754,19.6875294 5.24999702,18.7708646 5.87499553,17.9375335 C6.49999404,17.1042025 7.37499195,16.7083695 8.49998927,16.7500364 C9.41665407,16.7500364 10.2083182,17.0833686 10.8749836,17.750034 C13.2499779,16.083371 16.0833042,15.1875401 19.3749633,15.0625404 L21.3124587,6.43756095 C21.3541256,6.31256124 21.4374584,6.1979785 21.5624581,6.09381177 C21.6874578,5.98964503 21.8332905,5.9583951 21.9999571,6.00006199 L28.0624426,7.37505871 C28.2707751,6.95839272 28.5728584,6.6250605 28.9686905,6.37506109 C29.3645225,6.12506169 29.7916055,6.00006199 30.2499374,6.00006199 C30.9582687,6.00006199 31.5520173,6.23964443 32.0311832,6.71881028 C32.510349,7.19797612 32.7499315,7.78130774 32.7499315,8.4688061 C32.7499315,9.15630446 32.510349,9.73963609 32.0311832,10.2188019 C31.5520173,10.6979678 30.9686857,10.9375502 30.2811873,10.9375502 C29.593689,10.9375502 29.0103574,10.6979678 28.5311915,10.2188019 C28.0520257,9.73963609 27.8124432,9.16672142 27.8124432,8.50005603 L22.3124563,7.25005901 L20.5624605,15.0625404 C22.2291235,15.1042073 23.7916198,15.3646227 25.2499493,15.8437885 C26.7082789,16.3229544 27.9999428,16.9375359 29.1249401,17.6875341 C29.7916055,17.0625356 30.5832696,16.7292034 31.4999344,16.6875365 Z M12.0624808,23.3125267 C12.0624808,23.9791861 12.3124802,24.5521008 12.812479,25.0312666 C13.3124778,25.5104325 13.8958094,25.7500149 14.5624748,25.7500149 C15.2291402,25.7500149 15.8020549,25.5104325 16.2812207,25.0312666 C16.7603866,24.5521008 16.999969,23.9687691 16.999969,23.2812708 C16.999969,22.5937724 16.7603866,22.0104408 16.2812207,21.531275 C15.8020549,21.0521091 15.2291402,20.8125267 14.5624808,20.8125267 C13.8958094,20.8125267 13.3124778,21.0521091 12.812479,21.531275 C12.3124802,22.0104408 12.0624808,22.6041894 12.0624808,23.3125267 Z M25.4999487,29.1250069 C25.6249484,29.041674 25.6874483,28.9166743 25.6874483,28.7500077 C25.6874483,28.5833412 25.6249484,28.4375085 25.4999487,28.3125088 C25.374949,28.1875091 25.2291164,28.1250092 25.0624498,28.1250092 C24.8957832,28.1250092 24.7499505,28.1875091 24.6249508,28.3125088 C24.0416192,28.8958404 23.1145374,29.2916734 21.8437075,29.500006 C20.5728775,29.7083385 19.3124635,29.6979225 18.0624665,29.468756 C16.8124695,29.2395896 15.8958047,28.8541745 15.312473,28.3125088 C15.2291402,28.1875091 15.1041405,28.1250092 14.9374739,28.1250092 C14.7708073,28.1250092 14.6249747,28.1875091 14.499975,28.3125088 C14.3749753,28.4375085 14.3124754,28.5833412 14.3124754,28.7500077 C14.3124754,28.9166743 14.3749753,29.041674 14.499975,29.1250069 C15.2499732,29.8750051 16.3541375,30.3854208 17.8124671,30.6562532 C19.2707966,30.9270856 20.7291271,30.9270856 22.1874566,30.6562532 C23.6457862,30.3854208 24.7499505,29.8750051 25.4999487,29.1250069 Z M25.4374489,25.7500149 C26.1041143,25.7500149 26.6874459,25.5104325 27.1874447,25.0312666 C27.6874435,24.5521008 27.9374429,23.9687691 27.9374429,23.2812708 C27.9374429,22.5937724 27.6874435,22.0104408 27.1874447,21.531275 C26.6874459,21.0521091 26.1041143,20.8125267 25.4374489,20.8125267 C24.7707835,20.8125267 24.1978688,21.0625261 23.718703,21.5625249 C23.2395371,22.0625237 22.9999547,22.6458553 22.9999547,23.3125267 C22.9999547,23.9791861 23.2395371,24.5521008 23.718703,25.0312666 C24.1978688,25.5104325 24.7707835,25.7500149 25.4374489,25.7500149 Z" id="path-2"></path>
        <filter x="-1.7%" y="-1.8%" width="103.4%" height="103.6%" filterUnits="objectBoundingBox" id="filter-3">
            <feOffset dx="0" dy="-1" in="SourceAlpha" result="shadowOffsetInner1"></feOffset>
            <feComposite in="shadowOffsetInner1" in2="SourceAlpha" operator="arithmetic" k2="-1" k3="1" result="shadowInnerInner1"></feComposite>
            <feColorMatrix values="0 0 0 0 0   0 0 0 0 0   0 0 0 0 0  0 0 0 0.1 0" type="matrix" in="shadowInnerInner1"></feColorMatrix>
        </filter>
    </defs>
    <g id="Reddit" stroke="none" stroke-width="1" fill="none" fill-rule="evenodd">
        <g id="r" fill-rule="nonzero">
            <use fill="#FFFFFF" xlink:href="#path-2"></use>
            <use fill="url(#linearGradient-1)" xlink:href="#path-2"></use>
            <use fill="black" fill-opacity="1" filter="url(#filter-3)" xlink:href="#path-2"></use>
        </g>
    </g>
</svg>