<?xml version="1.0" encoding="UTF-8"?>
<svg width="40px" height="40px" viewBox="0 0 40 40" version="1.1" xmlns="http://www.w3.org/2000/svg" xmlns:xlink="http://www.w3.org/1999/xlink">
    <!-- Generator: Sketch 54.1 (76490) - https://sketchapp.com -->
    <title>Youtube</title>
    <desc>Created with Sketch.</desc>
    <defs>
        <linearGradient x1="100%" y1="74.7313126%" x2="0%" y2="25.2686874%" id="linearGradient-1">
            <stop stop-color="#66BDFC" offset="0%"></stop>
            <stop stop-color="#358DCC" offset="100%"></stop>
        </linearGradient>
        <path d="M36.374918,11.7500483 C36.6665843,12.8750456 36.8749169,14.5833745 36.9999166,16.8750361 L37.0624164,20.0000286 L36.9999166,23.1250212 C36.8749169,25.4583486 36.6665843,27.1875115 36.374918,28.3125088 C36.1665855,29.0208401 35.7915864,29.6458386 35.2499207,30.1875043 C34.708255,30.72917 34.0624236,31.1041691 33.3124253,31.3125016 C32.2290949,31.6041679 29.687434,31.8125004 25.6874435,31.9375001 L19.9999571,32 L14.3124706,31.9375001 C10.3124802,31.8125004 7.77081926,31.6041679 6.68748882,31.3125016 C5.93749061,31.1041691 5.29165914,30.72917 4.74999344,30.1875043 C4.20832775,29.6458386 3.83332864,29.0208401 3.62499613,28.3125088 C3.33332984,27.1875115 3.12499732,25.4583486 2.99999762,23.1250212 L2.93749776,20.0000286 C2.93749776,19.0833638 2.95833073,18.0417003 2.99999762,16.8750361 C3.12499732,14.5833745 3.33332984,12.8750456 3.62499613,11.7500483 C3.83332864,11.0000501 4.20832775,10.3542186 4.74999344,9.8125529 C5.29165914,9.27088721 5.93749061,8.8958881 6.68748882,8.68755558 C7.77081926,8.39588929 10.3124802,8.18755677 14.3124706,8.06255707 L19.9999571,8.00005722 L25.6874435,8.06255707 C29.687434,8.18755677 32.2290949,8.39588929 33.3124253,8.68755558 C34.0624236,8.8958881 34.708255,9.27088721 35.2499207,9.8125529 C35.7915864,10.3542186 36.1665855,11.0000501 36.374918,11.7500483 Z M16.4999654,25.1250164 L25.4374441,20.0000286 L16.4999654,14.9375407 L16.4999654,25.1250164 Z" id="path-2"></path>
        <filter x="-1.5%" y="-2.1%" width="102.9%" height="104.2%" filterUnits="objectBoundingBox" id="filter-3">
            <feOffset dx="0" dy="-1" in="SourceAlpha" result="shadowOffsetInner1"></feOffset>
            <feComposite in="shadowOffsetInner1" in2="SourceAlpha" operator="arithmetic" k2="-1" k3="1" result="shadowInnerInner1"></feComposite>
            <feColorMatrix values="0 0 0 0 0   0 0 0 0 0   0 0 0 0 0  0 0 0 0.1 0" type="matrix" in="shadowInnerInner1"></feColorMatrix>
        </filter>
    </defs>
    <g id="Youtube" stroke="none" stroke-width="1" fill="none" fill-rule="evenodd">
        <g id="y" fill-rule="nonzero">
            <use fill="#FFFFFF" xlink:href="#path-2"></use>
            <use fill="url(#linearGradient-1)" xlink:href="#path-2"></use>
            <use fill="black" fill-opacity="1" filter="url(#filter-3)" xlink:href="#path-2"></use>
        </g>
    </g>
</svg>