<?xml version="1.0" encoding="utf-8"?>
<!-- Generator: Adobe Illustrator 21.1.0, SVG Export Plug-In . SVG Version: 6.00 Build 0)  -->
<svg version="1.1" id="Layer_1" xmlns="http://www.w3.org/2000/svg" xmlns:xlink="http://www.w3.org/1999/xlink" x="0px" y="0px"
	 viewBox="0 0 23 25" style="enable-background:new 0 0 23 25;" xml:space="preserve">
<style type="text/css">
	.st0{clip-path:url(#SVGID_2_);}
	.st1{fill:#FFFFFF;}
</style>
<title>top</title>
<g>
	<defs>
		<path id="SVGID_1_" d="M10.2,9.7v9c-0.1,0.7,0.5,1.4,1.2,1.5c0.7,0.1,1.4-0.5,1.5-1.2c0-0.1,0-0.2,0-0.2v-9l2.8,2.8
			c0.5,0.5,1.4,0.5,1.9,0c0,0,0,0,0,0c0.5-0.5,0.5-1.4,0-1.9l-5-5c-0.5-0.6-1.3-0.7-1.9-0.3c-0.1,0.1-0.1,0.1-0.2,0.2l-5.1,5.1
			c-0.5,0.5-0.5,1.4,0,1.9c0.5,0.5,1.4,0.5,1.9,0c0,0,0,0,0,0L10.2,9.7z"/>
	</defs>
	<use xlink:href="#SVGID_1_"  style="overflow:visible;fill:#FFFFFF;"/>
	<clipPath id="SVGID_2_">
		<use xlink:href="#SVGID_1_"  style="overflow:visible;"/>
	</clipPath>
	<g class="st0">
		<g>
			<rect class="st1" width="23" height="25"/>
		</g>
	</g>
</g>
</svg>
