<?xml version="1.0" encoding="utf-8"?>
<!-- Generator: Adobe Illustrator 24.0.0, SVG Export Plug-In . SVG Version: 6.00 Build 0)  -->
<svg version="1.1" id="Layer_1" xmlns="http://www.w3.org/2000/svg" xmlns:xlink="http://www.w3.org/1999/xlink" x="0px" y="0px"
	 viewBox="0 0 113.1 119.2" style="enable-background:new 0 0 113.1 119.2;" xml:space="preserve">
<style type="text/css">
	.st0{fill:#F99D22;}
	.st1{fill:#FFFFFF;}
	.st2{fill:#414042;}
</style>
<title>persona-safety-manager</title>
<g id="Layer_2_1_">
	<g id="Layer_1-2">
		<g id="Safety_Manager">
			<circle class="st0" cx="56.5" cy="60" r="56.5"/>
			<path class="st1" d="M17.9,119.1v-13.4C17.9,99.8,23.3,95,30,95h53.1c6.7,0,12.1,4.8,12.1,10.7v13.4"/>
			<path class="st2" d="M97.2,119.1h-4v-13.4c0-4.8-4.5-8.7-10.1-8.7H30c-5.6,0-10.1,3.9-10.1,8.7v13.4h-4v-13.4
				c0-7,6.3-12.7,14.1-12.7h53.1c7.8,0,14.1,5.7,14.1,12.7V119.1z"/>
			<polygon class="st1" points="66.7,95.1 56.5,101 46.4,95.1 46.4,72.9 56.5,72.9 66.7,72.9 			"/>
			<path class="st2" d="M56.5,103.3l-12.2-7V70.9h24.3v25.4L56.5,103.3z M48.4,94l8.2,4.7l8.2-4.7V75H48.4V94z"/>
			<polygon class="st1" points="45.3,108.8 56.5,101.3 46.2,95.3 			"/>
			<polygon class="st1" points="67.8,108.8 56.6,101.3 66.9,95.3 			"/>
			<path class="st2" d="M70.1,112.6L68.7,92l-12.2,7l-12.2-7L43,112.6l13.5-9L70.1,112.6z M65.2,98.6l0.4,6.2l-5.2-3.4L65.2,98.6z
				 M47.5,104.8l0.5-6.2l4.8,2.8L47.5,104.8z"/>
			<path class="st1" d="M81,50.6h0.4c2.6,0,4.7,2.1,4.7,4.7v8.6c0,2.6-2.1,4.7-4.7,4.7H81c-2.6,0-4.7-2.1-4.7-4.7v-8.6
				C76.3,52.7,78.5,50.6,81,50.6z"/>
			<path class="st2" d="M81.4,70.6h-0.4c-3.7,0-6.7-3-6.7-6.7v-8.6c0-3.7,3-6.7,6.7-6.7h0.4c3.7,0,6.7,3,6.7,6.7v8.6
				C88.1,67.6,85.1,70.6,81.4,70.6z M81.1,52.6c-1.5,0-2.7,1.2-2.7,2.7v8.6c0,1.5,1.2,2.7,2.7,2.7h0.4c1.5,0,2.7-1.2,2.7-2.7v-8.6
				c0-1.5-1.2-2.7-2.7-2.7L81.1,52.6z"/>
			<path class="st1" d="M80.6,64.7c0,13.1-10.6,23.8-23.8,23.8c0,0,0,0,0,0l0,0c-13.1,0-23.8-10.6-23.8-23.8v-19
				c0-13.1,10.6-23.8,23.8-23.8c0,0,0,0,0,0l0,0c13.1,0,23.8,10.6,23.8,23.8V64.7z"/>
			<path class="st2" d="M56.8,90.5c-14.2,0-25.8-11.5-25.8-25.8v-19c0.3-14.2,12.1-25.6,26.3-25.3c13.8,0.3,25,11.4,25.3,25.3v19
				C82.6,78.9,71.1,90.5,56.8,90.5z M56.8,23.9c-12,0-21.8,9.8-21.8,21.8v19c0.3,12,10.2,21.6,22.3,21.3
				c11.7-0.2,21.1-9.6,21.3-21.3v-19C78.6,33.6,68.9,23.9,56.8,23.9z"/>
			<path class="st1" d="M33.1,50.7c-2.4,0.2-6.2,2.2-6.2,4.6v8.6c0,2.4,3.9,4.4,6.2,4.7V50.7z"/>
			<path class="st2" d="M35.1,70.8l-2.2-0.2c-3.3-0.3-8-2.9-8-6.6v-8.6c0-3.7,4.7-6.3,8-6.6l2.2-0.2V70.8z M31.1,53.3
				c-1.2,0.6-2.2,1.5-2.2,2v8.6c0,0.5,1,1.4,2.2,2V53.3z"/>
			<path class="st1" d="M51.8,73.8c1.3,2.8,4.7,4.1,7.5,2.8c1.2-0.6,2.2-1.5,2.8-2.8"/>
			<path class="st1" d="M57.4,44.6h23.1l1.4-1.2h6.6v-9.7h-2.6c0,0,0.7-6.2-3.7-13.6s-8.6-9.4-8.6-9.4l-7,20.6l2.6-25.6
				c0,0-7-3.2-11.8-3.2h-0.3c-4.8,0-11.8,3.2-11.8,3.2l2.6,25.6l-7-20.6c0,0-4.2,1.9-8.6,9.4s-3.7,13.6-3.7,13.6H26v9.7h6.5l1.5,1.2
				H57.4z"/>
			<path class="st2" d="M80.5,47.1H34c-0.6,0-1.1-0.2-1.6-0.5L31.7,46H26c-1.4,0-2.5-1.1-2.5-2.5v-9.8c0-1.4,1.1-2.5,2.5-2.5h0.1
				c0.4-4.4,1.7-8.6,4-12.4c4.7-7.9,9.2-10.2,9.7-10.4c1.2-0.6,2.7,0,3.3,1.2L42.8,6c-0.1-1.1,0.5-2.1,1.4-2.5
				C44.5,3.3,51.8,0,57.1,0h0.3C62.8,0,70,3.3,70.3,3.5c1,0.5,1.5,1.5,1.4,2.5l-0.4,3.7c0.6-1.2,2.1-1.8,3.3-1.2
				c0.5,0.2,5.1,2.5,9.7,10.4c2.2,3.8,3.6,8,4,12.4h0.1c1.4,0,2.5,1.1,2.5,2.5v9.7c0,1.4-1.1,2.5-2.5,2.5h-5.7L82,46.6
				C81.6,46.9,81,47.1,80.5,47.1z M34.9,42.1h44.7l0.8-0.6c0.5-0.3,1-0.5,1.6-0.5H86v-4.8h-0.1c-0.7,0-1.4-0.3-1.9-0.8
				c-0.5-0.5-0.7-1.2-0.6-1.9c0,0,0.5-5.5-3.4-12.1c-1.4-2.4-3.1-4.7-5.2-6.6L69,32.1c-0.5,1.3-1.9,2-3.2,1.5
				c-1.1-0.4-1.7-1.4-1.7-2.5l2.4-23.8c-2.4-1-6.4-2.4-9.1-2.4h-0.3c-2.8,0-6.7,1.3-9.1,2.3l2.4,23.8c0.1,1.4-1,2.6-2.3,2.7
				c-1.1,0.1-2.1-0.6-2.5-1.7l-5.9-17.3c-2,1.9-3.8,4.2-5.2,6.6c-3.8,6.6-3.4,12-3.4,12.1c0.1,0.7-0.2,1.4-0.6,1.9
				c-0.5,0.5-1.1,0.8-1.9,0.8h-0.1V41h4c0.6,0,1.1,0.2,1.6,0.5L34.9,42.1z"/>
			<rect x="54.3" y="102.1" class="st2" width="4" height="17.1"/>
			<path class="st2" d="M103.4,109.5h-3.2L89.5,74.8h-5l-10.4,34.7h-3.2c-2.2,0-4,1.3-4,2.8s1.8,2.8,4,2.8h32.5c2.2,0,4-1.3,4-2.8
				S105.7,109.5,103.4,109.5z"/>
			<path class="st2" d="M89.5,74.8l10.7,34.7h3.2c2.2,0,4,1.3,4,2.8s-1.8,2.8-4,2.8H70.9c-2.2,0-4-1.3-4-2.8s1.8-2.8,4-2.8h3.2
				l10.4-34.7H89.5 M89.5,70.8h-5c-1.8,0-3.3,1.2-3.8,2.9l-9.5,31.9h-0.2c-4.5,0-8,3-8,6.8s3.5,6.8,8,6.8h32.5c4.5,0,8-3,8-6.8
				s-3.5-6.8-8-6.8h-0.2l-9.8-31.9C92.8,71.9,91.3,70.8,89.5,70.8L89.5,70.8z"/>
			<path class="st1" d="M89.5,74.8h-5l-4.5,15h14.2L89.5,74.8z M95.6,94.5h-17l-2,6.7h21L95.6,94.5z M103.4,109.5h-3.2l-1.1-3.7
				H75.2l-1.1,3.7h-3.2c-2.2,0-4,1.3-4,2.8s1.8,2.8,4,2.8h32.5c2.2,0,4-1.3,4-2.8S105.7,109.5,103.4,109.5L103.4,109.5z"/>
		</g>
	</g>
</g>
</svg>
