<?xml version="1.0" encoding="utf-8"?>
<!-- Generator: Adobe Illustrator 24.0.0, SVG Export Plug-In . SVG Version: 6.00 Build 0)  -->
<svg version="1.1" id="Layer_1" xmlns="http://www.w3.org/2000/svg" xmlns:xlink="http://www.w3.org/1999/xlink" x="0px" y="0px"
	 viewBox="0 0 113.1 116.8" style="enable-background:new 0 0 113.1 116.8;" xml:space="preserve">
<style type="text/css">
	.st0{fill:#F99D22;}
	.st1{fill:#FFFFFF;}
	.st2{fill:#414042;}
</style>
<title>persona-truck-driver</title>
<g id="Layer_2_1_">
	<g id="Layer_1-2">
		<circle class="st0" cx="56.5" cy="56.5" r="56.5"/>
		<path class="st1" d="M25.8,50.3v11.3c0.1,1.8,1.7,3.3,3.5,3.2c1.7-0.1,3.1-1.5,3.2-3.2V50.3H25.8z"/>
		<path class="st2" d="M29.1,67c-2.9,0-5.3-2.4-5.3-5.3l0,0V48.3h10.7v13.3C34.4,64.6,32,67,29.1,67z M27.8,52.3v9.3
			c0.1,0.7,0.7,1.3,1.5,1.2c0.6-0.1,1.2-0.6,1.2-1.2v-9.3H27.8z"/>
		<path class="st1" d="M81.1,50.3v11.3c0.1,1.8,1.7,3.3,3.5,3.2c1.7-0.1,3.1-1.5,3.2-3.2V50.3H81.1z"/>
		<path class="st2" d="M84.4,67c-2.9,0-5.3-2.4-5.3-5.3V48.3h10.7v13.3C89.8,64.6,87.4,67,84.4,67C84.4,67,84.4,67,84.4,67z
			 M83.1,52.3v9.3c0.1,0.7,0.7,1.3,1.5,1.2c0.6-0.1,1.2-0.6,1.2-1.2v-9.3H83.1z"/>
		<path class="st1" d="M17.9,116.8v-11.5c0-5.9,5.4-10.7,12.1-10.7h53.1c6.7,0,12.1,4.8,12.1,10.7v11.5"/>
		<path class="st2" d="M97.2,116.8h-4v-11.5c0-4.8-4.5-8.7-10.1-8.7H30c-5.6,0-10.1,3.9-10.1,8.7v11.5h-4v-11.5
			c0-7,6.3-12.7,14.1-12.7h53.1c7.8,0,14.1,5.7,14.1,12.7V116.8z"/>
		<polygon class="st0" points="73.7,103.1 73.7,94.6 39.4,94.6 39.4,103.1 56.5,113 		"/>
		<path class="st2" d="M56.5,115.3l-19.2-11.1V92.6h38.3v11.6L56.5,115.3z M41.4,101.9l15.2,8.8l15.2-8.8v-5.3H41.4V101.9z"/>
		<polygon class="st1" points="66.7,99 56.5,104.9 46.4,99 46.4,76.8 56.5,76.8 66.7,76.8 		"/>
		<path class="st2" d="M56.5,107.2l-12.2-7V74.8h24.3v25.4L56.5,107.2z M48.4,97.9l8.2,4.7l8.2-4.7v-19H48.4L48.4,97.9z"/>
		<path class="st1" d="M80.7,35.3c0-7.8-6.3-14.1-14.1-14.1c0,0,0,0,0,0H46.3c-7.8,0-14.1,6.3-14.1,14.1c0,0,0,0,0,0V75l13.3,15.4
			h21.8L80.7,75L80.7,35.3z"/>
		<path class="st2" d="M68.2,92.4H44.6L30.1,75.7l0-40.5c0-8.9,7.2-16.1,16.1-16.1h20.2c8.9,0,16.1,7.2,16.1,16.1v40.5L68.2,92.4z
			 M46.4,88.4h20l12.3-14.1v-39c0-6.7-5.5-12.1-12.2-12.1H46.3c-6.7,0-12.1,5.4-12.1,12.1v39L46.4,88.4z"/>
		<path class="st2" d="M34.4,116.8c-5.9-12.2-0.9-27,11.4-32.9c12.2-5.9,27-0.9,32.9,11.4c3.3,6.8,3.3,14.7,0,21.5h4.4
			c6-14.6-1-31.4-15.6-37.4s-31.4,1-37.4,15.6c-2.9,7-2.9,14.8,0,21.7H34.4z"/>
		<path class="st2" d="M53.4,86.9c-9.4,1.5-16.3,9.7-16.3,19.2c0,0.1,0,0.2,0,0.2l16.3-4.1L53.4,86.9z M49.4,99.1L42,101
			c1.3-3.7,3.9-6.8,7.4-8.6L49.4,99.1z"/>
		<path class="st2" d="M44.1,115.2l12.4-3.1l12.5,3.1c-0.4,0.6-0.9,1.1-1.4,1.6h5.1c0.9-1.3,1.6-2.8,2.2-4.3L56.5,108l-18.3,4.6
			c0.5,1.5,1.3,2.9,2.2,4.3h5.1C45,116.3,44.6,115.8,44.1,115.2z"/>
		<path class="st2" d="M59.7,86.9v15.4l16.3,4.1c0-0.1,0-0.2,0-0.2C76,96.5,69.1,88.4,59.7,86.9z M63.7,99.1v-6.7
			c3.5,1.8,6.1,4.9,7.4,8.6L63.7,99.1z"/>
		<path class="st1" d="M40.4,116.8c-0.9-1.3-1.6-2.8-2.2-4.3l18.3-4.6l18.3,4.6c-0.5,1.5-1.3,2.9-2.2,4.3h6
			c5.9-12.2,0.9-27-11.4-32.9c-12.2-5.9-27-0.9-32.9,11.4c-3.3,6.8-3.3,14.7,0,21.5L40.4,116.8z M59.7,86.9
			c9.4,1.5,16.3,9.7,16.3,19.2c0,0.1,0,0.2,0,0.2l-16.3-4.1L59.7,86.9z M53.4,86.9v15.4l-16.3,4.1c0-0.1,0-0.2,0-0.2
			C37.1,96.5,44,88.4,53.4,86.9z"/>
	</g>
</g>
</svg>
