<?xml version="1.0" encoding="utf-8"?>
<!-- Generator: Adobe Illustrator 24.0.0, SVG Export Plug-In . SVG Version: 6.00 Build 0)  -->
<svg version="1.1" id="Layer_1" xmlns="http://www.w3.org/2000/svg" xmlns:xlink="http://www.w3.org/1999/xlink" x="0px" y="0px"
	 viewBox="0 0 113.1 116.8" style="enable-background:new 0 0 113.1 116.8;" xml:space="preserve">
<style type="text/css">
	.st0{fill:#F99D22;}
	.st1{fill:#FFFFFF;}
	.st2{fill:#414042;}
</style>
<title>persona-executive</title>
<g id="Layer_2_1_">
	<g id="Layer_1-2">
		<circle class="st0" cx="56.5" cy="56.5" r="56.5"/>
		<path class="st1" d="M17.9,115.6v-13.4c0-5.9,5.4-10.7,12.1-10.7h53.1c6.7,0,12.1,4.8,12.1,10.7v13.4"/>
		<path class="st2" d="M97.2,115.6h-4v-13.4c0-4.8-4.5-8.7-10.1-8.7H30c-5.6,0-10.1,3.9-10.1,8.7v13.4h-4v-13.4
			c0-7,6.3-12.7,14.1-12.7h53.1c7.8,0,14.1,5.7,14.1,12.7V115.6z"/>
		<polygon class="st1" points="66.7,91.6 56.5,97.5 46.4,91.6 46.4,69.4 56.5,69.4 66.7,69.4 		"/>
		<path class="st2" d="M56.5,99.8l-12.2-7V67.4h24.3v25.4L56.5,99.8z M48.4,90.5l8.2,4.7l8.2-4.7v-19H48.4L48.4,90.5z"/>
		<polygon class="st0" points="53.8,107.6 50.9,102.7 53.8,97.8 59.4,97.8 62.2,102.7 59.4,107.6 		"/>
		<path class="st2" d="M60.5,109.6h-7.9l-4-6.9l4-6.9h7.9l4,6.9L60.5,109.6z M54.9,105.6h3.3l1.7-2.9l-1.7-2.9h-3.3l-1.7,2.9
			L54.9,105.6z"/>
		<polyline class="st0" points="51.9,116.4 53.8,107.6 59.4,107.6 61.2,116.4 		"/>
		<polygon class="st2" points="59.2,116.8 57.7,109.6 55.4,109.6 53.9,116.8 50,116 52.1,105.6 61,105.6 63.2,116 		"/>
		<polygon class="st1" points="45.3,105.2 56.5,97.8 46.2,91.8 		"/>
		<path class="st2" d="M43,109.1l1.4-20.7l15.9,9.2L43,109.1z M47.9,95.1l-0.4,6.2l5.2-3.4L47.9,95.1z"/>
		<polygon class="st1" points="67.8,105.2 56.6,97.8 66.9,91.8 		"/>
		<path class="st2" d="M70.1,109.1L52.8,97.7l15.9-9.2L70.1,109.1z M60.4,97.9l5.2,3.4l-0.4-6.2L60.4,97.9z"/>
		<path class="st1" d="M81,47.1h0.4c2.6,0,4.7,2.1,4.7,4.7v8.6c0,2.6-2.1,4.7-4.7,4.7H81c-2.6,0-4.7-2.1-4.7-4.7v-8.6
			C76.3,49.2,78.5,47.1,81,47.1z"/>
		<path class="st2" d="M81.4,67.1h-0.4c-3.7,0-6.7-3-6.7-6.7v-8.6c0-3.7,3-6.7,6.7-6.7h0.4c3.7,0,6.7,3,6.7,6.7v8.6
			C88.1,64.1,85.1,67.1,81.4,67.1z M81.1,49.1c-1.5,0-2.7,1.2-2.7,2.7v8.6c0,1.5,1.2,2.7,2.7,2.7h0.4c1.5,0,2.7-1.2,2.7-2.7v-8.6
			c0-1.5-1.2-2.7-2.7-2.7L81.1,49.1z"/>
		<path class="st1" d="M80.6,61.2C80.7,74.3,70,85,56.9,85c0,0,0,0-0.1,0l0,0c-13.1,0-23.8-10.6-23.8-23.8c0,0,0,0,0,0v-19
			C33,29,43.7,18.4,56.8,18.4c0,0,0,0,0,0l0,0C70,18.4,80.6,29,80.6,42.2c0,0,0,0,0,0V61.2z"/>
		<path class="st2" d="M56.8,87c-14.2,0-25.8-11.6-25.8-25.8v-19c0.3-14.2,12.1-25.6,26.3-25.3c13.8,0.3,25,11.4,25.3,25.3v19
			C82.6,75.4,71.1,87,56.8,87z M56.8,20.4c-12,0-21.7,9.7-21.8,21.7v19c0.3,12,10.2,21.6,22.3,21.3c11.7-0.2,21.1-9.6,21.3-21.3v-19
			C78.6,30.1,68.9,20.4,56.8,20.4L56.8,20.4z"/>
		<path class="st1" d="M48.3,17.1c-3.7,0-7.2,1.9-9.2,5h-3.8c-4.7,0-8.5,3.8-8.5,8.5v41h6V43.1c0-3.3,2.7-6,6-6h38.5
			c6.1,0,11-4.9,11-11v-9H48.3z"/>
		<path class="st2" d="M34.8,73.6h-10v-43c0-5.8,4.7-10.5,10.5-10.5h2.8c2.5-3.1,6.2-5,10.2-5h42v11c0,7.2-5.8,13-13,13H38.8
			c-2.2,0-4,1.8-4,4V73.6z M28.8,69.6h2V43.1c0-4.4,3.6-8,8-8h38.5c5,0,9-4,9-9v-7h-38c-3,0-5.9,1.5-7.5,4.1l-0.6,0.9h-4.8
			c-3.6,0-6.5,2.9-6.5,6.5L28.8,69.6z"/>
		<path class="st1" d="M33.1,47.1c-2.4,0.2-6.2,2.2-6.2,4.6v8.6c0,2.4,3.9,4.4,6.2,4.7V47.1z"/>
		<path class="st2" d="M35.1,67.3L32.9,67c-3.3-0.3-8-2.9-8-6.6v-8.6c0-3.7,4.7-6.3,8-6.6l2.2-0.2V67.3z M31.1,49.8
			c-1.2,0.6-2.2,1.4-2.2,2v8.6c0,0.5,1,1.4,2.2,2V49.8z"/>
		<path class="st1" d="M51.8,70.2c1.3,2.8,4.7,4.1,7.5,2.8c1.2-0.6,2.2-1.5,2.8-2.8"/>
	</g>
</g>
</svg>
