<?xml version="1.0" encoding="utf-8"?>
<!-- Generator: Adobe Illustrator 24.0.0, SVG Export Plug-In . SVG Version: 6.00 Build 0)  -->
<svg version="1.1" id="Layer_1" xmlns="http://www.w3.org/2000/svg" xmlns:xlink="http://www.w3.org/1999/xlink" x="0px" y="0px"
	 viewBox="0 0 113.1 119.2" style="enable-background:new 0 0 113.1 119.2;" xml:space="preserve">
<style type="text/css">
	.st0{fill:#F99D22;}
	.st1{fill:#FFFFFF;}
	.st2{fill:#414042;}
</style>
<title>persona-superintendent</title>
<g id="Layer_2_1_">
	<g id="Layer_1-2">
		<circle class="st0" cx="56.5" cy="58.9" r="56.5"/>
		<path class="st1" d="M17,119.1v-13.4C17,99.8,22.4,95,29.1,95h53.1c6.7,0,12.1,4.8,12.1,10.7v13.4"/>
		<path class="st2" d="M96.3,119.1h-4v-13.4c0-4.8-4.5-8.7-10.1-8.7H29.1c-5.6,0-10.1,3.9-10.1,8.7v13.4h-4v-13.4
			c0-7,6.3-12.7,14.1-12.7h53.1c7.8,0,14.1,5.7,14.1,12.7L96.3,119.1z"/>
		<polygon class="st1" points="65.8,95.1 55.7,101 45.5,95.1 45.5,72.9 55.7,72.9 65.8,72.9 		"/>
		<path class="st2" d="M55.7,103.3l-12.2-7V70.9h24.3v25.4L55.7,103.3z M47.5,94l8.2,4.7l8.2-4.7V75H47.5V94z"/>
		<polygon class="st1" points="44.4,108.8 55.7,101.3 45.3,95.3 		"/>
		<path class="st2" d="M42.2,112.6L43.5,92l16,9.2L42.2,112.6z M47.1,98.6l-0.4,6.2l5.2-3.4L47.1,98.6z"/>
		<polygon class="st1" points="67,108.8 55.7,101.3 66.1,95.3 		"/>
		<path class="st2" d="M69.2,112.6l-17.3-11.4l16-9.2L69.2,112.6z M59.5,101.4l5.2,3.4l-0.4-6.2L59.5,101.4z"/>
		<path class="st1" d="M80.2,50.6h0.4c2.6,0,4.7,2.1,4.7,4.7v8.6c0,2.6-2.1,4.7-4.7,4.7h-0.4c-2.6,0-4.7-2.1-4.7-4.7v-8.6
			C75.5,52.7,77.6,50.6,80.2,50.6z"/>
		<path class="st2" d="M80.6,70.6h-0.4c-3.7,0-6.7-3-6.7-6.7v-8.6c0-3.7,3-6.7,6.7-6.7h0.4c3.7,0,6.7,3,6.7,6.7v8.6
			C87.3,67.6,84.3,70.6,80.6,70.6z M80.2,52.6c-1.5,0-2.7,1.2-2.7,2.7v8.6c0,1.5,1.2,2.7,2.7,2.7h0.4c1.5,0,2.7-1.2,2.7-2.7
			c0,0,0,0,0,0v-8.6c0-1.5-1.2-2.7-2.7-2.7l0,0L80.2,52.6z"/>
		<path class="st1" d="M79.8,64.7c0,13.1-10.6,23.8-23.8,23.8l0,0c-13.1,0-23.8-10.6-23.8-23.7c0,0,0,0,0,0v-19
			c0-13.1,10.6-23.8,23.8-23.8c0,0,0,0,0.1,0l0,0c13.1,0,23.8,10.7,23.8,23.8V64.7z"/>
		<path class="st2" d="M56,90.5c-14.2,0-25.8-11.5-25.8-25.8v-19c0-14.2,11.6-25.8,25.8-25.8c14.2,0,25.8,11.5,25.8,25.8v19
			C81.7,78.9,70.2,90.4,56,90.5z M56,23.9c-12,0-21.8,9.7-21.8,21.8v19c0,12,9.8,21.8,21.8,21.8c12,0,21.8-9.8,21.8-21.8v-19
			C77.7,33.7,68,23.9,56,23.9z"/>
		<path class="st1" d="M32.2,50.7c-2.4,0.2-6.2,2.2-6.2,4.6v8.6c0,2.4,3.9,4.4,6.2,4.7V50.7z"/>
		<path class="st2" d="M34.2,70.8L32,70.5c-3.3-0.3-8-2.9-8-6.6v-8.6c0-3.7,4.7-6.3,8-6.6l2.2-0.2L34.2,70.8z M30.2,53.3
			c-1.2,0.6-2.2,1.5-2.2,2v8.6c0,0.5,1,1.4,2.2,2V53.3z"/>
		<path class="st1" d="M50.9,73.8c1.3,2.8,4.6,4.1,7.5,2.8c1.2-0.6,2.2-1.5,2.8-2.8"/>
		<path class="st1" d="M56.5,44.6h23.1l1.4-1.2h6.6v-9.7h-2.6c0,0,0.7-6.2-3.7-13.6s-8.6-9.4-8.6-9.4l-7,20.6l2.6-25.6
			c0,0-7-3.2-11.8-3.2h-0.3c-4.8,0-11.8,3.2-11.8,3.2L47,31.3l-7-20.6c0,0-4.2,1.9-8.6,9.4s-3.7,13.6-3.7,13.6h-2.6v9.7h6.5l1.4,1.2
			H56.5z"/>
		<path class="st2" d="M79.6,47.1H33.1c-0.6,0-1.1-0.2-1.6-0.5L30.8,46h-5.6c-1.4,0-2.5-1.1-2.5-2.5v-9.8c0-1.4,1.1-2.5,2.5-2.5h0.1
			c0.4-4.4,1.8-8.6,4-12.4C33.9,11,38.5,8.7,39,8.5c1.2-0.6,2.7,0,3.3,1.2L41.9,6c-0.1-1.1,0.5-2.1,1.4-2.5C43.7,3.3,50.9,0,56.2,0
			h0.3c5.4,0,12.6,3.3,12.9,3.5c1,0.5,1.5,1.5,1.4,2.5l-0.4,3.7c0.6-1.2,2.1-1.8,3.3-1.2c0.5,0.2,5.1,2.5,9.7,10.4
			c2.2,3.8,3.6,8,4,12.4h0.1c1.4,0,2.5,1.1,2.5,2.5v9.7c0,1.4-1.1,2.5-2.5,2.5h-5.7l-0.8,0.6C80.7,46.9,80.2,47.1,79.6,47.1z
			 M34,42.1h44.7l0.8-0.6c0.5-0.3,1-0.5,1.6-0.5h4.1v-4.8h-0.1c-0.7,0-1.4-0.3-1.9-0.8c-0.5-0.5-0.7-1.2-0.6-1.9
			c0,0,0.4-5.5-3.4-12.1C77.8,19,76,16.7,74,14.8l-5.8,17.3c-0.5,1.3-1.9,2-3.2,1.5c-1.1-0.4-1.7-1.4-1.7-2.5l2.4-23.8
			c-2.4-1-6.4-2.3-9.1-2.3h-0.3c-2.8,0-6.7,1.3-9.1,2.3l2.4,23.8c0.1,1.4-1,2.6-2.3,2.7c-1.1,0.1-2.1-0.6-2.5-1.7l-5.9-17.3
			c-2,1.9-3.8,4.2-5.2,6.6c-3.9,6.6-3.4,12-3.4,12.1c0.1,1.4-0.9,2.6-2.3,2.7c-0.1,0-0.1,0-0.2,0h-0.1V41h4c0.6,0,1.1,0.2,1.6,0.5
			L34,42.1z"/>
		<rect x="53.5" y="102.1" class="st2" width="4" height="17.1"/>
		<path class="st1" d="M102.7,73.7h-24c-2.3,0-4.2,1.9-4.2,4.2v33c0,2.3,1.9,4.2,4.2,4.2h24c2.3,0,4.2-1.9,4.2-4.2v-33
			C106.9,75.6,105,73.7,102.7,73.7z"/>
		<path class="st2" d="M102.7,73.7c2.3,0,4.2,1.9,4.2,4.2v33c0,2.3-1.9,4.2-4.2,4.2h-24c-2.3,0-4.2-1.9-4.2-4.2v-33
			c0-2.3,1.9-4.2,4.2-4.2H102.7 M102.7,69.7h-24c-4.5,0-8.2,3.7-8.2,8.2v33c0,4.5,3.7,8.2,8.2,8.2h24c4.5,0,8.2-3.7,8.2-8.2v-33
			C110.9,73.4,107.2,69.7,102.7,69.7z"/>
		<circle class="st2" cx="90.7" cy="112.9" r="1.7"/>
		<path class="st1" d="M102.7,77.2c0.4,0,0.7,0.3,0.7,0.7V109c0,0.4-0.3,0.7-0.7,0.7h0h-24c-0.4,0-0.7-0.3-0.7-0.7V77.9
			c0-0.4,0.3-0.7,0.7-0.7H102.7"/>
		<path class="st2" d="M102.7,110.8h-24c-0.9,0-1.7-0.8-1.7-1.8V77.9c0-1,0.8-1.7,1.7-1.7h24c1,0,1.7,0.8,1.7,1.7V109
			C104.5,110,103.7,110.7,102.7,110.8C102.7,110.8,102.7,110.8,102.7,110.8z M79,108.8h23.4V78.2H79L79,108.8z"/>
	</g>
</g>
</svg>
