<?xml version="1.0" encoding="utf-8"?>
<!-- Generator: Adobe Illustrator 23.0.1, SVG Export Plug-In . SVG Version: 6.00 Build 0)  -->
<svg version="1.1" id="Layer_1" xmlns="http://www.w3.org/2000/svg" xmlns:xlink="http://www.w3.org/1999/xlink" x="0px" y="0px"
	 viewBox="0 0 283.5 96.2" style="enable-background:new 0 0 283.5 96.2;" xml:space="preserve">
<style type="text/css">
	.st0{fill:#FFFFFF;}
	.st1{opacity:0.65;}
</style>
<g>
	<g>
		<polygon class="st0" points="254.6,80.6 256.4,85.3 261,83.7 258.4,88 262.7,90.7 257.7,91.3 258.2,96.2 254.6,92.7 251.1,96.2 
			251.5,91.3 246.6,90.7 250.8,88 248.2,83.7 252.9,85.3 		"/>
		<polygon class="st0" points="275.4,23.5 277.1,28.1 281.8,26.6 279.2,30.8 283.5,33.5 278.5,34.2 279,39.1 275.4,35.7 271.8,39.1 
			272.3,34.2 267.4,33.5 271.6,30.8 269,26.6 273.7,28.1 		"/>
		<polygon class="st0" points="249.6,0 251.3,4.7 256.1,3 253.5,7.3 257.6,10 252.7,10.6 253.2,15.6 249.6,12.1 246.1,15.6 
			246.6,10.6 241.6,10 245.8,7.3 243.2,3 248,4.7 		"/>
		<polygon class="st0" points="220.8,21.9 222.4,26.6 227.2,25 224.6,29.3 228.7,31.9 223.8,32.6 224.3,37.6 220.8,34.1 217.2,37.6 
			217.7,32.6 212.8,31.9 216.9,29.3 214.3,25 219.1,26.6 		"/>
		<polygon class="st0" points="261.6,46.9 262.8,50.4 266.5,50.5 263.6,52.8 264.6,56.3 261.6,54.2 258.5,56.3 259.6,52.8 
			256.6,50.5 260.3,50.4 		"/>
	</g>
	<g>
		<g>
			<circle class="st0" cx="149.8" cy="83.1" r="6.4"/>
		</g>
		<g>
			<path class="st0" d="M174.9,52.6c5.9,0,9.8,2.8,12,5.8v-5.2h9.2v36.3h-9.2v-5.4c-2.2,3.1-6.3,5.9-12.1,5.9
				c-9.2,0-16.6-7.5-16.6-18.9C158.3,59.8,165.6,52.6,174.9,52.6z M177.3,60.6c-4.9,0-9.6,3.7-9.6,10.5c0,6.8,4.7,10.8,9.6,10.8
				c5.1,0,9.7-3.8,9.7-10.7C186.9,64.4,182.3,60.6,177.3,60.6z"/>
			<path class="st0" d="M234.5,89.5h-9.2V85c-2.3,3.1-6.3,5.1-10.8,5.1c-8.5,0-14.6-5.5-14.6-15.5V53.2h9.2v20c0,5.9,3.2,9,8,9
				c5,0,8.1-3.1,8.1-9v-20h9.2L234.5,89.5L234.5,89.5z"/>
		</g>
	</g>
	<g class="st1">
		<path class="st0" d="M5,84.9c-3.3-3.4-5-8-5-13.6c0-5.7,1.7-10.2,5-13.6c3.3-3.4,7.6-5.1,12.9-5.1c4.4,0,8.1,1.1,11.1,3.2
			c3,2.1,5,5.2,6,9.1H25c-1.2-3-3.5-4.5-7.1-4.5c-2.7,0-4.8,1-6.3,2.9c-1.5,1.9-2.3,4.6-2.3,8c0,3.4,0.8,6,2.3,8
			c1.5,1.9,3.6,2.9,6.3,2.9c3.5,0,5.9-1.5,7.1-4.6h10c-1.1,3.8-3.1,6.8-6.1,9.1c-3,2.2-6.7,3.4-11,3.4C12.6,90,8.3,88.3,5,84.9z"/>
		<path class="st0" d="M42.2,84.9c-3.5-3.5-5.3-8-5.3-13.6c0-5.6,1.8-10.1,5.4-13.5c3.6-3.4,8-5.1,13.4-5.1c5.3,0,9.8,1.7,13.4,5.1
			c3.6,3.4,5.4,7.9,5.4,13.5c0,5.6-1.8,10.1-5.4,13.6c-3.6,3.5-8.1,5.2-13.4,5.2C50.2,90,45.7,88.3,42.2,84.9z M55.5,82.2
			c2.6,0,4.8-1,6.7-2.9c1.9-1.9,2.8-4.6,2.8-8.1c0-3.5-0.9-6.2-2.8-8c-1.8-1.9-4.1-2.8-6.7-2.8c-2.6,0-4.8,0.9-6.6,2.8
			c-1.8,1.9-2.7,4.6-2.7,8.1c0,3.5,0.9,6.2,2.7,8.1C50.8,81.3,52.9,82.2,55.5,82.2z"/>
		<path class="st0" d="M88.4,53.1v5.5c2.3-4,6.1-6,11.3-6c2.8,0,5.2,0.6,7.4,1.9c2.2,1.3,3.8,3.1,5,5.5c1.3-2.3,3-4.1,5.2-5.4
			c2.2-1.3,4.7-2,7.5-2c4.3,0,7.8,1.4,10.5,4.1c2.6,2.7,4,6.5,4,11.4v21.4H130V69.4c0-2.8-0.7-5-2.2-6.5c-1.4-1.5-3.4-2.3-5.9-2.3
			s-4.5,0.8-5.9,2.3c-1.5,1.5-2.2,3.7-2.2,6.5v20.1h-9.2V69.4c0-2.8-0.7-5-2.2-6.5c-1.4-1.5-3.4-2.3-5.9-2.3s-4.5,0.8-5.9,2.3
			c-1.5,1.5-2.2,3.7-2.2,6.5v20.1h-9.3V53.1H88.4z"/>
	</g>
</g>
</svg>
