<?xml version="1.0" encoding="utf-8"?>
<!-- Generator: Adobe Illustrator 22.0.1, SVG Export Plug-In . SVG Version: 6.00 Build 0)  -->
<svg version="1.1" id="Laag_1" xmlns="http://www.w3.org/2000/svg" xmlns:xlink="http://www.w3.org/1999/xlink" x="0px" y="0px"
	 width="50px" height="50px" viewBox="0 0 50 50" style="enable-background:new 0 0 50 50;" xml:space="preserve">
<style type="text/css">
	.st0{fill:#1D1D1B;}
</style>
<path class="st0" d="M17.2,6.1l-3.6,3.6c-0.1,0.1-0.1,0.5,0.2,0.7l6.1,6.1l6.1,6.1l2.3,2.3L13.8,39.5c-0.3,0.3-0.3,0.6-0.2,0.7
	l3.6,3.6c0.1,0.1,0.5,0.1,0.7-0.2l6.1-6.1l6.1-6.1l2.6-2.6l3.5-3.5l0.2-0.2c0.1-0.1,0.1-0.2,0.1-0.3c0-0.1,0-0.2-0.1-0.3l-0.2-0.2
	l-3.5-3.5L18,6.3C17.7,6,17.4,6,17.2,6.1z"/>
</svg>
