<?xml version="1.0" encoding="utf-8"?>
<!-- Generator: Adobe Illustrator 22.0.1, SVG Export Plug-In . SVG Version: 6.00 Build 0)  -->
<svg version="1.1" id="Laag_1" xmlns="http://www.w3.org/2000/svg" xmlns:xlink="http://www.w3.org/1999/xlink" x="0px" y="0px"
	 width="764.5px" height="157.7px" viewBox="0 0 764.5 157.7" style="enable-background:new 0 0 764.5 157.7;" xml:space="preserve"
	>
<style type="text/css">
	.st0{fill:#FFFFFF;}
	.st1{fill:#272A55;}
</style>
<path class="st0" d="M275.5,122c0,16.9-11.1,34-32.8,34c-22,0-32.9-17.1-32.9-34s10.9-33.9,32.9-33.9
	C264.4,88.2,275.5,105.1,275.5,122 M260.9,122.2c0-10.3-6.2-20.6-18.2-20.6c-12.1,0-18.2,10.3-18.2,20.6c0,10.2,6.1,20.3,18.2,20.3
	C254.7,142.5,260.9,132.4,260.9,122.2"/>
<path class="st0" d="M299,102.6v13.1h24c1.2,0,1.9,0.8,1.9,1.6v10c0,0.8-0.7,1.6-1.9,1.6h-24v12.9h29.1c1.2,0,2.1,0.8,2.1,1.6v10.1
	c0,0.8-0.9,1.6-2.1,1.6h-41.5c-1.1,0-1.9-0.9-1.9-1.6V90.7c0-0.9,0.8-1.6,1.9-1.6h41.5c1.2,0,2.1,0.8,2.1,1.6v10.2
	c0,0.8-0.9,1.6-2.1,1.6H299V102.6z"/>
<path class="st0" d="M396.7,153.5c0,0.8-0.8,1.6-2,1.6h-10.4c-0.4,0-1.3-0.2-1.7-0.7l-27.3-39.8v38.8c0,0.8-0.9,1.6-2,1.6h-10.4
	c-1.3,0-1.9-0.9-1.9-1.6V90.6c0-0.9,0.6-1.6,1.9-1.6h10.5c0.5,0,1.3,0.2,1.6,0.6l27.4,40.3V90.6c0-0.9,0.9-1.6,2-1.6h10.3
	c1.2,0,2,0.8,2,1.6V153.5z"/>
<path class="st0" d="M409.2,136.2c0-1,0.8-1.5,2-1.5h10.4c1,0,2,0.6,2,1.5c0.2,4.1,3.3,6.1,7.1,6.1c3.7,0,7.1-2.4,7.1-6.3
	c0-4.1-3.9-6.8-7.1-7.1c-0.6,0-5.3,0-10.2-2.2c-7.2-3.4-11.3-9.9-11.3-17.9c0-12.8,10.3-20.6,21.5-20.6c11.7,0,21,7.9,21.2,19.5
	c0,0.9-0.9,1.6-2,1.6h-10.3c-1.1,0-2-0.8-2-1.6c-0.2-3.9-3.3-5.9-6.9-5.9c-3.9,0-7.1,2.3-7.1,7.1c0,4.2,3.3,6.9,7.1,6.9
	c0.5,0,5.2,0,10,2.2c7.3,3.3,11.3,10.2,11.3,18.1c0,13-10.4,20-21.4,20C418.7,155.8,409.4,148.9,409.2,136.2"/>
<path class="st0" d="M501,121.5c9,4.3,8.5,14.1,8.5,14.1c0,18.7-19,19.6-23.6,19.6h-20.7c-1.1,0-1.9-0.9-1.9-1.6V90.7
	c0-0.9,0.8-1.6,1.9-1.6H486c0,0,22.8-0.6,22.8,19.1C508.8,115.1,505.4,119.1,501,121.5 M477.7,115.5h8.3c1.6,0,8.4-0.6,8.4-6.8
	c0-6.6-8.4-6.1-8.4-6.1h-8.3V115.5z M495.2,135.2c0-6.7-7.4-6.7-9.3-6.7h-8.3v13.1h8.3C489.6,141.6,495.2,140.5,495.2,135.2"/>
<path class="st0" d="M556,155.1c-0.6,0-1.6-0.5-1.8-1l0.1,0.1l-16-25.6h-2.9v24.8c0,0.8-0.8,1.6-2,1.6h-10.6c-1.1,0-2-0.9-2-1.6v-37
	c0-0.9,0.9-1.7,2-1.7h6.9c-1.2-2.1-2.7-4-4-6.1l-4.9-7.8V90.1c0-0.9,0.9-1.7,2-1.7H544c0,0,23.2,0,23.2,20.1
	c0,11.3-6.9,16.2-13.2,18.4l16,25.8v-0.1c0.9,1.2,0,2.6-1.5,2.6L556,155.1L556,155.1z M545.8,114.7c3.1-0.2,6.7-1.5,6.7-6.2
	c0-6.2-6.7-6.2-8.5-6.2h-6L545.8,114.7z"/>
<path class="st0" d="M639.3,122c0,16.9-11.1,34-32.8,34c-22,0-32.9-17.1-32.9-34s10.9-33.9,32.9-33.9
	C628.3,88.2,639.3,105.1,639.3,122 M624.7,122.2c0-10.3-6.2-20.6-18.2-20.6c-12.1,0-18.2,10.3-18.2,20.6c0,10.2,6.1,20.3,18.2,20.3
	C618.5,142.5,624.7,132.4,624.7,122.2"/>
<path class="st0" d="M662.8,102.6v13.1h23.9c1.2,0,1.9,0.8,1.9,1.6v10c0,0.8-0.7,1.6-1.9,1.6h-23.9v12.9h29.1c1.2,0,2.1,0.8,2.1,1.6
	v10.1c0,0.8-0.9,1.6-2.1,1.6h-42.6c-1.1,0-1.9-0.9-1.9-1.6V90.7c0-0.9,0.8-1.6,1.9-1.6h42.6c1.2,0,2.1,0.8,2.1,1.6v10.2
	c0,0.8-0.9,1.6-2.1,1.6h-29.1V102.6z"/>
<path class="st0" d="M732.4,122.7l25.2,29.8c1.1,1.3,0.2,2.7-1.5,2.7h-13.6c-0.4,0-1.4-0.5-1.6-0.7l-17.9-22c-0.4,0.4-0.5,0.7-1,1.1
	v-0.1c-1,1.2-1.6,2.1-2.8,3.2v16.8c0,0.8-0.8,1.6-2,1.6h-10.4c-1.2,0-2.1-0.9-2.1-1.6V90.7c0-0.9,0.9-1.6,2.1-1.6h10.4
	c1.2,0,2,0.8,2,1.6v26.8l22.1-27.9c0.2-0.1,1.2-0.6,1.5-0.6h13.1c1.7,0,2.7,1.3,1.5,2.7L732.4,122.7z"/>
<path class="st0" d="M171.7,36.3l25.6,30.1c1.1,1.2,0.2,2.7-1.5,2.7h-13.9c-0.4,0-1.4-0.5-1.6-0.7l-18-22.3l-0.9,1.1V47
	c-1,1.1-1.9,2.3-3.1,3.4v17c0,0.8-0.9,1.6-2,1.6h-10.6c-1.2,0-2.1-0.9-2.1-1.6V4c0-0.9,0.9-1.7,2.1-1.7h10.6c1.1,0,2,0.9,2,1.7v26.5
	c7.4-9.3,15-18.4,22.4-27.6c0.2-0.2,1.2-0.7,1.6-0.7h13.3c1.7,0,2.7,1.4,1.5,2.7L171.7,36.3z"/>
<path class="st0" d="M235.8,61.4h-19.1l-2.4,6.6v-0.1c-0.2,0.7-1,1.1-2,1.1h-11.4c-1.6,0-2.3-1.1-1.8-2.3
	c8.2-21,17.1-43.9,25.3-64.9c0.7-1.4,3.1-1.4,3.7,0l25.3,64.9c0.5,1.1-0.3,2.3-1.7,2.3h-11.5c-0.8,0-1.6-0.5-1.8-1.1V68L235.8,61.4z
	 M220.5,49.9h11.4l-3.3-9.9c-1-3.1-1.7-5.9-2.3-9.3c-0.7,3.5-1.4,6.4-2.4,9.3L220.5,49.9z"/>
<path class="st0" d="M257.2,49.9c0-0.9,0.9-1.7,2-1.7h10.6c1,0,2,0.9,2,1.7c0.2,4.1,3.5,6.2,7.3,6.2c3.9,0,7.3-2.6,7.3-6.5
	c0-4.3-3.9-6.9-7.3-7.2c-0.6,0-5.3,0-10.4-2.3c-7.2-3.4-11.4-9.5-11.4-17.7c0-13.1,10.7-21.1,21.8-21.1c12,0,21.5,8.1,21.7,19.9
	c0,0.7-0.9,1.6-2.1,1.6h-10.4c-1,0-2.1-1-2.1-1.6c-0.2-4-3.3-6-7.1-6c-3.9,0-7.3,2.4-7.3,7.2c0,4.2,3.5,6.4,7.3,6.4
	c0.5,0,5.4,0,10.3,2.3c7.5,3.4,11.5,10.3,11.5,18.5c0,13.1-10.6,20.4-21.8,20.4C266.9,69.7,257.4,62.7,257.2,49.9"/>
<path class="st0" d="M347.1,13.6c0,0.8-0.9,1.6-2.1,1.6h-11.3v52.2c0,0.8-0.9,1.6-2.1,1.6h-10.5c-1.1,0-2-0.9-2-1.6V15.3h-11.4
	c-1.1,0-2-0.9-2-1.6V4c0-0.9,0.9-1.7,2-1.7H345c1.2,0,2.1,0.9,2.1,1.7V13.6z"/>
<path class="st0" d="M368.7,15.9v12.8h24.4c1.1,0,1.9,0.9,1.9,1.7v10.3c0,0.8-0.8,1.6-1.9,1.6h-24.4v12.8h29.7
	c1.2,0,2.1,0.9,2.1,1.7v10.6c0,0.8-0.9,1.6-2.1,1.6h-42.3c-1.2,0-2-0.9-2-1.6V4c0-0.9,0.8-1.7,2-1.7h41.5c1.1,0,2,0.9,2,1.7v10.2
	c0,0.9-0.9,1.7-2,1.7H368.7z"/>
<path class="st0" d="M424.8,15.9v12.8h24.4c1.1,0,1.9,0.9,1.9,1.7v10.3c0,0.8-0.8,1.6-1.9,1.6h-24.4v12.8h29.7
	c1.2,0,2.1,0.9,2.1,1.7v10.6c0,0.8-0.9,1.6-2.1,1.6h-42.3c-1.2,0-2-0.9-2-1.6V4c0-0.9,0.8-1.7,2-1.7h41.5c1.1,0,2,0.9,2,1.7v10.2
	c0,0.9-0.9,1.7-2,1.7H424.8z"/>
<path class="st0" d="M502.3,55.1c1.2,0,2.1,0.9,2.1,1.7v10.6c0,0.8-0.9,1.6-2.1,1.6h-34.2c-1.1,0-2-0.9-2-1.6V4c0-0.9,0.9-1.7,2-1.7
	h10.7c1.1,0,2,0.9,2,1.7v51.1H502.3z"/>
<path class="st1" d="M123.9,28.2c0,0.9-1.2,1.8-2.9,1.8H82.6H44.4H5.9C4.2,30,3,29.1,3,28.2v-23c0-0.9,1.1-1.8,2.9-1.8H121
	c1.7,0,2.9,0.9,2.9,1.8V28.2z"/>
<path class="st1" d="M36,62.2c0,0.9-0.3,1.8-0.8,1.8H24.7H14.3H3.9c-0.5,0-0.8-0.9-0.8-1.8v-23c0-0.9,0.3-1.8,0.8-1.8h31.4
	c0.5,0,0.8,0.9,0.8,1.8L36,62.2L36,62.2z"/>
<path class="st1" d="M123.9,62.2c0,0.9-0.3,1.8-0.8,1.8h-10.5h-10.4H91.8c-0.5,0-0.8-0.9-0.8-1.8v-23c0-0.9,0.3-1.8,0.8-1.8h31.4
	c0.5,0,0.8,0.9,0.8,1.8v23H123.9z"/>
<path class="st1" d="M80,62.2c0,0.9-0.3,1.8-0.8,1.8H68.7H58.3H47.8c-0.5,0-0.8-0.9-0.8-1.8v-23c0-0.9,0.3-1.8,0.8-1.8h31.4
	c0.5,0,0.8,0.9,0.8,1.8V62.2z"/>
<path class="st1" d="M123.1,71.4H91c-0.5,0-0.8,0.5-0.8,1.1v0.4c0,6-0.3,13.8-1,16.6c-2.5,9.7-8.3,17.7-17.6,24.5
	c-2.4,1.8-5,3.2-7.7,4.7l-0.4,0.2l-0.4-0.2c-2.6-1.5-5.3-2.9-7.7-4.7c-9.3-6.8-15.1-14.8-17.6-24.5c-0.6-2.4-1.3-8.5-1.5-14l0,0v-3
	c0-0.5-0.3-1.1-0.8-1.1H3.9c-0.5,0-0.8,0.5-0.8,1.1v3l0,0c0,5.7,0.4,15.7,2.2,22.5c4.5,17.3,14.7,31.8,30.3,43.3
	c3.8,2.7,7.6,4.9,11.1,6.8l2.1,1.2c2.5,1.4,8,3.9,8,3.9l6.6,3l6.8-3c0,0,5.4-2.4,8-3.8l2.2-1.2c3.4-1.9,7.2-4.1,11-6.8
	c15.6-11.4,25.8-26,30.3-43.2c1.8-6.9,2.1-16.8,2.2-22.5l0,0v-3C123.9,71.9,123.6,71.4,123.1,71.4"/>
<path class="st0" d="M198.9,89.1h-11.8c-1.3,0-2.2,0.9-2.2,1.7v11.6H160V90.8c0-0.8-1-1.7-2.3-1.7h-11.8c-1.3,0-2.2,0.9-2.2,1.7
	v62.7c0,0.8,1,1.6,2.2,1.6h11.8c1.4,0,2.3-0.8,2.3-1.6v-18.8l0,0c0-6.1,5.6-11,12.4-11c6.9,0,12.4,4.9,12.4,11l0,0v18.8
	c0,0.8,1,1.6,2.2,1.6h11.8c1.4,0,2.3-0.8,2.3-1.6V90.8C201.2,89.9,200.3,89.1,198.9,89.1"/>
</svg>
