<?xml version="1.0" encoding="utf-8"?>
<!-- Generator: Adobe Illustrator 24.0.0, SVG Export Plug-In . SVG Version: 6.00 Build 0)  -->
<svg version="1.1" id="Layer_1" xmlns="http://www.w3.org/2000/svg" xmlns:xlink="http://www.w3.org/1999/xlink" x="0px" y="0px"
	 viewBox="0 0 113.1 116.8" style="enable-background:new 0 0 113.1 116.8;" xml:space="preserve">
<style type="text/css">
	.st0{fill:#F99D22;}
	.st1{fill:#FFFFFF;}
	.st2{fill:#414042;}
</style>
<title>persona-payroll-manager</title>
<g id="Layer_2_1_">
	<g id="Layer_1-2">
		<circle class="st0" cx="56.5" cy="56.5" r="56.5"/>
		<path class="st1" d="M18.1,116.8v-13.4c0-5.9,5.4-10.7,12.1-10.7h53.1c6.7,0,12.1,4.8,12.1,10.7v13.4"/>
		<path class="st2" d="M97.4,116.8h-4v-13.4c0-4.8-4.5-8.7-10.1-8.7H30.2c-5.6,0-10.1,3.9-10.1,8.7v13.4h-4v-13.4
			c0-7,6.3-12.7,14.1-12.7h53.1c7.8,0,14.1,5.7,14.1,12.7V116.8z"/>
		<polygon class="st1" points="66.7,92.8 56.5,98.7 46.4,92.8 46.4,70.6 56.5,70.6 66.7,70.6 		"/>
		<path class="st2" d="M56.5,101l-12.2-7V68.6h24.3V94L56.5,101z M48.4,91.7l8.2,4.7l8.2-4.7v-19H48.4L48.4,91.7z"/>
		<polygon class="st0" points="44.6,108.9 56.5,101 45.6,94.7 		"/>
		<polygon class="st0" points="68.4,108.9 56.6,101 67.5,94.7 		"/>
		<path class="st1" d="M81,49.8h0.4c2.6,0,4.7,2.1,4.7,4.7v8.6c0,2.6-2.1,4.7-4.7,4.7H81c-2.6,0-4.7-2.1-4.7-4.7v-8.6
			C76.3,52,78.4,49.8,81,49.8z"/>
		<path class="st2" d="M81.4,69.8H81c-3.7,0-6.7-3-6.7-6.7v-8.6c0-3.7,3-6.7,6.7-6.7h0.4c3.7,0,6.7,3,6.7,6.7v8.6
			C88.1,66.9,85.1,69.9,81.4,69.8C81.4,69.8,81.4,69.8,81.4,69.8z M81,51.8c-1.5,0-2.7,1.2-2.7,2.7v8.6c0,1.5,1.2,2.7,2.7,2.7h0.4
			c1.5,0,2.7-1.2,2.7-2.7v-8.6c0-1.5-1.2-2.7-2.7-2.7H81z"/>
		<path class="st1" d="M80.6,64c0,13.1-10.7,23.7-23.8,23.7l0,0C43.7,87.7,33,77.1,33,64V45c0-13.1,10.6-23.8,23.7-23.9
			c0,0,0.1,0,0.1,0l0,0c13.1,0,23.8,10.7,23.8,23.8V64z"/>
		<path class="st2" d="M56.8,89.7C42.6,89.7,31,78.2,31,64V45c0-14.2,11.5-25.8,25.8-25.8C71,19.2,82.6,30.7,82.6,45c0,0,0,0,0,0v19
			C82.5,78.2,71,89.7,56.8,89.7z M56.8,23.1c-12,0-21.8,9.8-21.8,21.8V64c0,12,9.7,21.8,21.8,21.8c12,0,21.8-9.7,21.8-21.8
			c0,0,0,0,0,0V45C78.6,33,68.8,23.2,56.8,23.1C56.8,23.1,56.8,23.1,56.8,23.1z"/>
		<path class="st0" d="M48.3,19.9c-3.7,0-7.2,1.9-9.2,5h-3.8c-4.7,0-8.5,3.8-8.5,8.5c0,0,0,0,0,0v41h6V45.8c0-3.3,2.7-6,6-6h38.5
			c6.1,0,11-4.9,11-11v-9L48.3,19.9z"/>
		<path class="st2" d="M34.8,76.3h-10v-43c0-5.8,4.7-10.5,10.5-10.5h2.8c2.5-3.2,6.2-5,10.2-5h42v11c0,7.2-5.8,13-13,13l0,0H38.8
			c-2.2,0-4,1.8-4,4V76.3z M28.8,72.3h2V45.8c0-4.4,3.6-8,8-8h38.5c5,0,9-4,9-9v-7h-38c-3,0-5.9,1.5-7.5,4.1l-0.6,0.9h-4.9
			c-3.6,0-6.5,2.9-6.5,6.5V72.3z"/>
		<path class="st1" d="M33,49.9c-2.4,0.2-6.2,2.2-6.2,4.7v8.6c0,2.4,3.9,4.4,6.2,4.6V49.9z"/>
		<path class="st2" d="M35,70l-2.2-0.2c-3.3-0.3-8-2.9-8-6.6v-8.6c0-3.7,4.7-6.3,8-6.6l2.2-0.2V70z M31,52.6c-1.2,0.6-2.2,1.4-2.2,2
			v8.6c0,0.5,1,1.4,2.2,2V52.6z"/>
		<path class="st1" d="M51.8,73c1.3,2.8,4.7,4.1,7.5,2.7c1.2-0.6,2.2-1.5,2.7-2.7"/>
	</g>
</g>
</svg>
