<?xml version="1.0" encoding="utf-8"?>
<!-- Generator: Adobe Illustrator 24.0.0, SVG Export Plug-In . SVG Version: 6.00 Build 0)  -->
<svg version="1.1" id="Layer_1" xmlns="http://www.w3.org/2000/svg" xmlns:xlink="http://www.w3.org/1999/xlink" x="0px" y="0px"
	 viewBox="0 0 113.1 116.8" style="enable-background:new 0 0 113.1 116.8;" xml:space="preserve">
<style type="text/css">
	.st0{fill:#F99D22;}
	.st1{fill:#B7BEC0;}
	.st2{fill:#414042;}
	.st3{fill:#FFFFFF;}
</style>
<title>persona-project-manager</title>
<g id="Layer_2_1_">
	<g id="Layer_1-2">
		<circle class="st0" cx="56.5" cy="56.5" r="56.5"/>
		<path class="st1" d="M53.1,36.3h8c10.5,0,19,8.5,19,19v34.5c0,10.5-8.5,19-19,19h-8c-10.5,0-19-8.5-19-19V55.3
			C34.1,44.8,42.6,36.3,53.1,36.3z"/>
		<path class="st2" d="M61.1,110.8h-8c-11.6,0-21-9.4-21-21l0,0V55.3c0-11.6,9.4-21,21-21h8c11.6,0,21,9.4,21,21v34.5
			C82.1,101.4,72.7,110.8,61.1,110.8z M53.1,38.3c-9.4,0-17,7.6-17,17v34.5c0,9.4,7.6,17,17,17h8c9.4,0,17-7.6,17-17V55.3
			c0-9.4-7.6-17-17-17H53.1z"/>
		<path class="st3" d="M91,115.8c-5.9-9.8-19.1-16.7-34.5-16.7S28,106,22.1,115.8"/>
		<path class="st2" d="M89.3,116.8c-5.8-9.5-18.6-15.7-32.8-15.7s-27,6.2-32.8,15.7l-3.4-2.1c6.5-10.7,20.6-17.6,36.2-17.6
			s29.7,6.9,36.2,17.6L89.3,116.8z"/>
		<path class="st3" d="M87,71.3c0,4.5-3.6,8.1-8.1,8.1H35.3c-4.5,0-8.1-3.6-8.1-8.1l0,0c0-4.5,3.6-8.1,8.1-8.1h43.6
			C83.4,63.2,87,66.8,87,71.3z"/>
		<path class="st2" d="M78.9,81.4H35.3c-5.6,0-10.1-4.5-10.1-10.1c0-5.6,4.5-10.1,10.1-10.1h43.6c5.6,0,10.1,4.5,10.1,10.1
			C89,76.9,84.5,81.4,78.9,81.4z M35.3,65.2c-3.4,0-6.1,2.8-6.1,6.1c0,3.4,2.7,6.1,6.1,6.1h43.6c3.4,0,6.1-2.8,6.1-6.1
			c0-3.4-2.7-6.1-6.1-6.1H35.3z"/>
		<path class="st3" d="M56.5,109.5c-4.7,0-8.5-3.8-8.5-8.5c0,0,0,0,0-0.1V55.5c0-4.7,3.8-8.5,8.5-8.5l0,0c4.7,0,8.5,3.8,8.5,8.5V101
			C65,105.7,61.2,109.5,56.5,109.5L56.5,109.5z"/>
		<path class="st2" d="M56.5,111.5c-5.8,0-10.5-4.7-10.5-10.5c0,0,0,0,0-0.1V55.5C46,49.7,50.7,45,56.5,45S67,49.7,67,55.5V101
			C67,106.8,62.3,111.5,56.5,111.5z M56.5,49C53,49,50,52,50,55.5V101c0,3.6,2.9,6.5,6.5,6.5s6.5-2.9,6.5-6.5V55.5
			C63.1,51.9,60.2,49,56.5,49C56.6,49,56.5,49,56.5,49L56.5,49z"/>
		<path class="st3" d="M53.1,21.3h8c10.5,0,19,8.5,19,19v34.5c0,10.5-8.5,19-19,19h-8c-10.5,0-19-8.5-19-19V40.3
			C34.1,29.8,42.6,21.3,53.1,21.3z"/>
		<path class="st2" d="M61.1,95.8h-8c-11.6,0-21-9.4-21-21V40.3c0-11.6,9.4-21,21-21h8c11.6,0,21,9.4,21,21v34.5
			C82.1,86.4,72.7,95.8,61.1,95.8z M53.1,23.3c-9.4,0-17,7.6-17,17v34.5c0,9.4,7.6,17,17,17h8c9.4,0,17-7.6,17-17V40.3
			c0-9.4-7.6-17-17-17H53.1z"/>
		<path class="st1" d="M61.1,21.3h-8c-10.5,0-19,8.5-19,19V63c9.5-0.9,18.5-9.7,23-22.4c4.5,12.7,13.5,21.6,23,22.4V40.3
			C80.1,29.8,71.6,21.3,61.1,21.3L61.1,21.3z"/>
		<path class="st2" d="M82.1,65.2L79.9,65c-9-0.8-17.6-8.2-22.8-19.1c-5.2,11-13.8,18.3-22.8,19.1l-2.2,0.2V40.3
			c0-11.6,9.4-21,21-21h8c11.6,0,21,9.4,21,21L82.1,65.2z M57.1,34.7L59,40c3.9,11,11.2,18.8,19.1,20.7V40.3c0-9.4-7.6-17-17-17h-8
			c-9.4,0-17,7.6-17,17v20.4C44,58.8,51.3,51,55.2,40L57.1,34.7z"/>
		<path class="st3" d="M49,75.3v3.5c0,2.8,2.2,5,5,5h3.5c2.8,0,5-2.2,5-5v-3.5H49z"/>
		<path class="st3" d="M56.7,49.8h23l1.4-1.2h6.6v-9.7h-2.5c0,0,0.6-6.2-3.7-13.6s-8.6-9.4-8.6-9.4l-7,20.6l2.6-25.6
			c0,0-7-3.2-11.8-3.2h-0.3c-4.9,0-11.8,3.2-11.8,3.2l2.6,25.6l-7-20.6c0,0-4.1,1.9-8.5,9.4s-3.7,13.6-3.7,13.6h-2.6v9.7h6.5
			l1.4,1.2C33.3,49.8,56.7,49.8,56.7,49.8z"/>
		<path class="st2" d="M79.8,52.3H33.3c-0.6,0-1.1-0.2-1.6-0.5l-0.8-0.6h-5.6c-1.4,0-2.5-1.1-2.5-2.5v-9.7c0-1.4,1.1-2.5,2.5-2.5
			h0.1c0.4-4.4,1.8-8.6,4-12.4c4.6-7.9,9.2-10.2,9.7-10.4c1.2-0.6,2.7,0,3.3,1.2L42,11.1c-0.1-1.1,0.5-2.1,1.4-2.5
			c0.3-0.1,7.5-3.5,12.9-3.5h0.3c5.3,0,12.6,3.3,12.9,3.5c1,0.4,1.6,1.5,1.5,2.5l-0.4,3.7c0.6-1.2,2.1-1.8,3.3-1.2
			c0.5,0.2,5.1,2.5,9.7,10.4c2.3,3.8,3.6,8,4,12.4h0.1c1.4,0,2.5,1.1,2.5,2.5v9.7c0,1.4-1.1,2.5-2.5,2.5h-5.7l-0.8,0.6
			C80.9,52.1,80.3,52.3,79.8,52.3z M34.1,47.3h44.7l0.8-0.6c0.4-0.4,1-0.6,1.6-0.5h4.1v-4.7h-0.1c-1.4,0-2.5-1.1-2.5-2.5
			c0-0.1,0-0.2,0-0.2c0,0,0.5-5.5-3.4-12.1c-1.4-2.4-3.1-4.7-5.2-6.6l-5.9,17.3c-0.5,1.3-1.9,2-3.2,1.5c-1.1-0.4-1.8-1.4-1.7-2.6
			l2.4-23.8c-2.4-1-6.4-2.3-9.2-2.3h-0.3c-2.8,0-6.7,1.3-9.2,2.3l2.4,23.8c0.2,1.4-0.8,2.6-2.2,2.8c-1.2,0.1-2.3-0.6-2.7-1.7
			l-5.9-17.3c-2,1.9-3.8,4.2-5.2,6.6c-3.9,6.6-3.4,12-3.4,12.1c0.1,0.7-0.2,1.4-0.6,1.9c-0.5,0.5-1.1,0.8-1.9,0.8h-0.1v4.7h4
			c0.6,0,1.1,0.2,1.6,0.5L34.1,47.3z"/>
	</g>
</g>
</svg>
