<?xml version="1.0" encoding="utf-8"?>
<!-- Generator: Adobe Illustrator 24.0.0, SVG Export Plug-In . SVG Version: 6.00 Build 0)  -->
<svg version="1.1" id="Layer_1" xmlns="http://www.w3.org/2000/svg" xmlns:xlink="http://www.w3.org/1999/xlink" x="0px" y="0px"
	 viewBox="0 0 362 90" style="enable-background:new 0 0 362 90;" xml:space="preserve">
<style type="text/css">
	.st0{enable-background:new    ;}
	.st1{fill:#009639;}
	.st2{fill:none;stroke:#009639;stroke-width:1.5;}
</style>
<g id="Group_1385" transform="translate(-329 -10915.5)">
	<g class="st0">
		<path class="st1" d="M399.5,10925.4v70h-70v-70H399.5z M393.5,10931.4h-58v58h58V10931.4z M390.6,10963v23.5h-52.2v-27.1
			c1-2.7,1.8-5.6,2.4-8.6c0.6-3,0.9-5.3,0.9-6.9l-3.3-1.4v-8.3h52.2v9.8l-0.1-0.1l-3.4,1.8l-0.9,0.4c0.1,0.1,0.2,0.2,0.3,0.3
			c0.1,0.1,0.2,0.2,0.2,0.3c0,0,0.1,0.1,0.1,0.2c0,0.1,0.1,0.1,0.2,0.2c0.7,0.9,1.3,1.9,1.9,3c0.6,1.1,1.1,2.3,1.6,3.5v5.8
			c-0.6-2-1.3-4-2.2-6c-0.8-2-1.8-3.8-2.9-5.2l-4.9,2c-0.1,0-0.3,0.1-0.5,0c-0.2,0-0.4-0.1-0.4-0.2c-1.4-1-2.4-1.7-3.1-2
			c-0.5-0.2-1-0.5-1.4-0.8c-0.4-0.3-0.8-0.6-1.3-0.9c-0.6-0.5-1.2-0.9-1.7-1.3c-0.6-0.3-1.2-0.6-1.9-0.6c-0.4,0-0.7,0-0.9,0
			c-0.2,0-0.5,0.1-0.8,0.1c-0.3,0-0.6,0.1-0.9,0.1c-0.3,0-0.8,0.1-1.3,0.1c-0.2,0-0.5,0-0.7,0c-0.2,0-0.5,0-0.8,0s-0.5,0-0.8,0
			s-0.5,0-0.8,0c-0.8,0-1.4,0.1-1.7,0.3c0,0.1,0,0.2-0.1,0.3c0,0.1-0.1,0.2-0.1,0.4c-0.1,0.7-0.3,1.4-0.6,2.3
			c-0.3,0.8-0.6,1.6-1.1,2.3c-0.1,0-0.2,0.1-0.2,0.2c0,0.1-0.1,0.2-0.3,0.3c-0.2,0.3-0.5,0.7-0.9,1.2c-0.3,0.5-0.5,0.8-0.4,1.1
			c0,0.1,0.1,0.2,0.2,0.3c0.1,0.1,0.2,0.1,0.2,0.2c0.3,0.1,0.5,0.2,0.8,0.2c0.2,0.1,0.5,0.1,0.8,0.1c0.6,0,1.1-0.1,1.6-0.4
			s0.9-0.5,1.2-0.8c0.7-0.5,1.3-1,1.8-1.4c0.5-0.5,0.7-0.8,0.7-1.2c-0.1-0.2-0.2-0.5-0.4-0.8c-0.2-0.4-0.2-0.5-0.1-0.4
			c0.1,0.2,0.3,0.4,0.4,0.6c0.1,0.3,0.3,0.4,0.4,0.4c0.3,0.1,0.7,0.2,1.2,0.2s1,0.1,1.4,0.1c0.5,0,1,0,1.5-0.1
			c0.5-0.1,0.9-0.3,1.1-0.5c0.2-0.1,0.4-0.4,0.5-0.7c0.2-0.3,0.3-0.6,0.3-0.8c0-0.1,0,0.1-0.1,0.7c-0.1,0.6-0.2,1-0.3,1.2
			c-0.1,0.3,0.1,0.6,0.4,0.8c0.4,0.2,0.7,0.4,0.9,0.6c0,0.1,0,0.2,0.1,0.2c0,0,0.1,0.1,0.1,0.1l3.5,2.9c0,0,0.1,0,0.1,0l3.1,2.9
			l4.1,4l0.1,0.1c0.5,0.6,1,1.1,1.4,1.6c0.2,0.2,0.5,0.5,0.7,0.8c0.2,0.3,0.5,0.5,0.8,0.8l2-1l1.8-0.8L390.6,10963z M385.4,10967.7
			c-0.2-0.7-0.6-1.4-1.3-2.2c0-0.1-0.1-0.2-0.2-0.4c-0.1-0.2-0.2-0.3-0.3-0.4c-0.4-0.5-0.7-0.8-0.9-1.1c-0.3-0.3-0.4-0.5-0.4-0.6
			l-4.1-3.9l-3-2.9l-3.6-2.8c0,0-0.2-0.2-0.6-0.6s-0.6-0.9-0.8-1.5c-0.4,0.2-0.7,0.3-1.1,0.4c-0.4,0.1-0.8,0.1-1.2,0.1
			c-0.3,0-0.5,0-0.8-0.1c-0.3,0-0.5-0.1-0.7-0.2c-0.2,0.5-0.6,1-1,1.5c-0.4,0.5-0.9,0.9-1.3,1.2c-0.5,0.4-1,0.8-1.6,1.1
			c-0.6,0.3-1.4,0.5-2.3,0.5c-0.4,0-0.8,0-1.2-0.1c-0.4-0.1-0.8-0.2-1.2-0.4c-0.4-0.2-0.8-0.4-1-0.7c-0.3-0.3-0.4-0.6-0.5-1
			c-0.2-0.7,0-1.4,0.4-2.1c0.5-0.7,0.9-1.3,1.3-1.8c0.1-0.1,0.2-0.2,0.3-0.3c0.1-0.1,0.1-0.2,0.2-0.2c0.1-0.1,0.3-0.3,0.4-0.6
			s0.2-0.5,0.3-0.8c-2,0-3.9,0-5.7,0.1c-1.8,0.1-3.1,0.2-4,0.4h-0.1l-6-0.9c-0.4,2.2-0.9,4.7-1.5,7.6c-0.7,2.9-1.4,5.4-2.3,7.7
			c0.4,0.3,1,0.7,1.8,1.3c0.8,0.6,1.5,1,2,1.3c0.1,0.2,0.3,0.4,0.6,0.5c0.3,0.2,0.6,0.4,0.9,0.5c0.6,0.5,1.2,0.9,1.8,1.3
			c0.6,0.4,1.2,0.8,1.7,1.2c0.3-1,0.7-1.8,1.3-2.5c0.6-0.7,1.3-1.1,1.9-1.1c1.3,0,2.1,0.5,2.4,1.4s0.6,1.9,0.8,2.7
			c0.2-0.2,0.4-0.4,0.8-0.5c0.3-0.1,0.6-0.2,1-0.2c0.2,0,0.4,0,0.5,0.1c0.2,0,0.3,0.1,0.4,0.1c0.6,0.2,1,0.6,1.3,1.2
			c0.3,0.6,0.5,1.3,0.6,2.1c0.1-0.1,0.3-0.2,0.5-0.3c0.2-0.1,0.4-0.1,0.6-0.1c0.1,0,0.3,0,0.4,0c0.1,0,0.2,0,0.3,0.1
			c0.8,0.3,1.3,1,1.6,2.2c0.3,1.2,0.4,2.3,0.2,3.4c1.3,0.5,2.3,0.9,3.2,1.1c0.9,0.2,1.5,0.1,1.9-0.1c0.1,0,0.2-0.1,0.3-0.2
			c0.1-0.1,0.2-0.4,0.2-0.7c-0.8-0.6-1.4-1.1-1.7-1.5s-0.7-0.7-1.1-1.1c-0.2-0.2-0.3-0.6-0.3-1.3s0.1-0.9,0.3-0.7
			c0.6,1,1.3,1.7,2.1,2.1c0.7,0.5,1.4,0.9,2,1.4c0,0,0.6,0.2,1.7,0.5c1.1,0.3,1.9,0.3,2.4,0.1c0.3-0.2,0.5-0.4,0.6-0.8
			c0.2-0.3,0.3-0.7,0.4-1.2c-0.8-0.5-1.4-1-1.9-1.4c-0.4-0.4-1-0.9-1.6-1.7c-0.2-0.1-0.4-0.6-0.5-1.5c-0.1-0.9-0.1-1.2,0-1
			c0.5,0.9,1.2,1.6,2.2,2.2s2,1.3,3,2c0.7,0.2,1.3,0.4,1.8,0.5c0.5,0.1,1,0.1,1.2-0.2c0.2-0.1,0.4-0.4,0.5-0.8
			c0.2-0.4,0.2-1.2,0.2-2.3c-1-0.8-1.6-1.3-2.1-1.7c-0.4-0.4-1-1-1.7-1.8c-0.1-0.2-0.3-0.7-0.4-1.5c-0.2-0.8-0.2-1.1-0.1-0.9
			c0.2,0.4,1,1.1,2.4,2.1c1.3,1,2.5,1.9,3.5,2.7c0.7,0.3,1.4,0.5,2,0.4c0.6,0,1.1-0.3,1.4-0.8
			C385.4,10968.9,385.5,10968.4,385.4,10967.7z M344.3,10971.3c0.9-0.2,1.7-0.6,2.5-1.3c-0.5-0.3-1.1-0.7-1.6-1
			c-0.5-0.4-1.1-0.8-1.6-1.2c-0.1,0-0.3-0.1-0.5-0.3c-0.2-0.2-0.4-0.3-0.5-0.3c-0.6,0.1-1.2,0.5-1.7,1.1c-0.5,0.7-0.3,1.3,0.6,2
			C342.4,10971.2,343.4,10971.5,344.3,10971.3z M352.7,10971.9c0.2-0.9,0.3-1.9,0.2-2.9c0-1-0.5-1.6-1.4-1.8c-0.7,0-1.2,0.4-1.6,1.4
			c-0.4,1-0.6,1.5-0.6,1.6c-0.1,0.3-0.2,0.6-0.2,1.1c-0.1,0.5-0.1,0.8,0,1c0.1,0.3,0.2,0.5,0.5,0.6c0.2,0.1,0.4,0.3,0.6,0.3
			c0.2,0,0.4,0.1,0.6,0.1c0.2,0,0.3,0.1,0.5,0.1c0.1,0,0.2,0,0.2,0c0,0,0.1,0,0.1,0c0.2,0,0.4-0.1,0.6-0.3c0.2-0.2,0.4-0.5,0.5-1.1
			V10971.9z M357.5,10974.2c0.3-0.8,0.4-1.7,0.2-2.7c-0.2-1-0.6-1.4-1.3-1.4c-0.5,0-0.8,0.3-1.1,0.9s-0.5,1.3-0.7,2.1v0.1
			c0,0.3-0.1,0.6-0.2,1s-0.1,0.8,0,1.2c0.1,0.2,0.2,0.5,0.4,0.7c0.2,0.2,0.4,0.4,0.7,0.5c0.7,0,1.1,0,1.1-0.2c0-0.1,0.1-0.4,0.3-1
			C357.3,10974.8,357.4,10974.4,357.5,10974.2z M361.7,10974.3c-0.2-0.9-0.6-1.3-1.3-1.4c-0.8,0-1.4,0.5-1.8,1.5
			c-0.4,1-0.5,1.6-0.5,1.8c0,0.2,0,0.8,0.1,1.6c0.1,0.8,0.5,1.3,1.3,1.5c0.9,0.1,1.5-0.3,1.8-1.1c0.3-0.8,0.5-1.4,0.5-1.5
			C361.9,10976,361.9,10975.2,361.7,10974.3z M376.4,10944.9c-0.6-0.2-1.1-0.2-1.6-0.1c0.3,0.2,0.7,0.5,1.3,0.9
			c0.6,0.4,1,0.6,1.3,0.7c0.5,0.2,0.9,0.4,1.3,0.7s0.8,0.5,1.1,0.8c-0.1-0.6-0.4-1.1-0.6-1.4c-0.3-0.3-0.6-0.6-0.9-0.8
			C377.6,10945.3,377,10945,376.4,10944.9z"/>
	</g>
	<g class="st0">
		<path d="M436.9,10949.4c0.6,0.5,1.1,0.9,1.8,1.2c0.6,0.3,1.4,0.4,2.2,0.4c1,0,1.9-0.3,2.7-0.9s1.3-1.3,1.7-2.3s0.6-1.9,0.6-3v-0.4
			c-0.5,0.7-1.2,1.3-2.2,1.8c-0.9,0.5-1.9,0.8-3,0.8c-1.2,0-2.4-0.2-3.4-0.8c-1-0.5-1.9-1.2-2.5-2.2s-0.9-2.1-0.9-3.5
			c0-1.3,0.3-2.5,1-3.5c0.6-1,1.6-1.9,2.7-2.5c1.2-0.6,2.5-0.9,4-0.9c1.9,0,3.6,0.5,4.8,1.4c1.3,0.9,2.2,2.2,2.9,3.7
			c0.6,1.6,0.9,3.3,0.9,5.3s-0.4,3.8-1.1,5.4c-0.7,1.6-1.8,2.8-3.2,3.7c-1.4,0.9-3.1,1.3-5,1.3c-1.2,0-2.3-0.2-3.3-0.5
			s-1.9-0.8-2.6-1.4L436.9,10949.4z M444.7,10938.4c-0.7-0.9-1.7-1.3-3-1.3c-0.7,0-1.3,0.2-1.9,0.5c-0.5,0.3-0.9,0.7-1.2,1.2
			c-0.3,0.5-0.4,1-0.4,1.5c0,1.1,0.4,1.9,1.1,2.4c0.7,0.6,1.6,0.8,2.6,0.8c0.8,0,1.5-0.2,2.2-0.5c0.7-0.4,1.3-0.8,1.8-1.5
			C445.8,10940.4,445.4,10939.3,444.7,10938.4z"/>
		<path d="M453.2,10938.9c0.6-1.6,1.5-2.8,2.8-3.8c1.2-1,2.8-1.5,4.6-1.5s3.4,0.5,4.6,1.5s2.2,2.2,2.8,3.8c0.6,1.6,0.9,3.3,0.9,5.1
			s-0.3,3.5-0.9,5.1s-1.5,2.9-2.8,3.8c-1.2,1-2.8,1.5-4.6,1.5s-3.4-0.5-4.6-1.5s-2.2-2.3-2.8-3.8c-0.6-1.6-0.9-3.3-0.9-5.1
			C452.3,10942.2,452.6,10940.5,453.2,10938.9z M463.5,10939c-0.6-1.3-1.6-1.9-3-1.9s-2.4,0.6-3,1.9s-1,2.9-1,5s0.3,3.8,1,5.1
			c0.6,1.3,1.6,1.9,3,1.9s2.4-0.6,3-1.9c0.6-1.3,0.9-3,0.9-5.1C464.5,10941.9,464.2,10940.2,463.5,10939z"/>
		<path d="M479.5,10934h7.9c2.1,0,3.9,0.4,5.5,1.2s2.9,2,3.8,3.5s1.4,3.3,1.4,5.2c0,2-0.5,3.7-1.4,5.2s-2.2,2.7-3.8,3.5
			c-1.6,0.8-3.4,1.2-5.5,1.2h-7.9V10934z M487.4,10950.6c1.3,0,2.4-0.3,3.3-0.9c0.9-0.6,1.7-1.4,2.2-2.4s0.8-2.1,0.8-3.3
			c0-1.9-0.6-3.5-1.6-4.8c-1.1-1.2-2.6-1.8-4.6-1.8h-3.6v13.2H487.4z"/>
		<path d="M512.8,10950.5h-8.9l-1.3,3.5h-4.7l7.7-20h5.3l7.7,20H514L512.8,10950.5z M504.9,10947.1h6.7l-3.3-9.2L504.9,10947.1z"/>
		<path d="M524.1,10945.8l-7.7-11.8h4.9l5,8l4.9-8h4.9l-7.7,11.8v8.2h-4.3L524.1,10945.8L524.1,10945.8z"/>
		<path d="M545.6,10934h9.4c1.4,0,2.6,0.3,3.6,0.9s1.8,1.4,2.3,2.3c0.5,1,0.8,2.1,0.8,3.3s-0.3,2.3-0.8,3.2c-0.5,1-1.3,1.7-2.3,2.3
			s-2.2,0.9-3.6,0.9h-5.1v7.2h-4.3L545.6,10934L545.6,10934z M556.4,10938.2c-0.6-0.6-1.3-0.8-2.1-0.8h-4.5v6h4.5
			c0.9,0,1.6-0.3,2.1-0.8c0.6-0.6,0.8-1.3,0.8-2.2S557,10938.8,556.4,10938.2z"/>
		<path d="M571.7,10946.8h-3.1v7.2h-4.3v-20h9.4c1.4,0,2.5,0.3,3.6,0.8c1,0.5,1.8,1.3,2.3,2.3s0.8,2.1,0.8,3.3c0,1.6-0.4,3-1.3,4
			c-0.9,1-1.9,1.7-3.1,2l4.5,7.6h-4.9L571.7,10946.8z M575.2,10938.2c-0.6-0.6-1.3-0.8-2.1-0.8h-4.5v6h4.5c0.9,0,1.6-0.3,2.1-0.8
			c0.6-0.6,0.9-1.3,0.9-2.2S575.7,10938.8,575.2,10938.2z"/>
		<path d="M584,10938.7c0.9-1.6,2.1-2.8,3.7-3.7s3.4-1.3,5.4-1.3s3.8,0.4,5.4,1.3s2.8,2.1,3.7,3.7c0.9,1.6,1.4,3.3,1.4,5.3
			s-0.5,3.8-1.4,5.3c-0.9,1.6-2.1,2.8-3.7,3.7c-1.6,0.9-3.4,1.3-5.4,1.3s-3.8-0.4-5.4-1.3c-1.6-0.9-2.8-2.1-3.7-3.7
			c-0.9-1.6-1.4-3.4-1.4-5.3C582.6,10942,583.1,10940.3,584,10938.7z M598.4,10940.5c-0.5-1.1-1.2-1.9-2.1-2.5
			c-0.9-0.6-2-0.9-3.2-0.9s-2.3,0.3-3.2,0.9c-0.9,0.6-1.6,1.4-2.1,2.5s-0.8,2.2-0.8,3.6s0.2,2.5,0.8,3.6c0.5,1.1,1.2,1.9,2.1,2.5
			s2,0.9,3.2,0.9s2.3-0.3,3.2-0.9c0.9-0.6,1.6-1.4,2.1-2.5s0.8-2.2,0.8-3.6S598.9,10941.5,598.4,10940.5z"/>
		<path d="M603.8,10934h4.9l5.5,15.4l5.5-15.4h4.9l-7.7,20h-5.3L603.8,10934z"/>
		<path d="M626.4,10934h14.2v3.4h-9.9v4.6h9.7v3.4h-9.7v5.2h9.9v3.4h-14.2V10934z"/>
		<path d="M648.2,10940.6v13.4h-4.3v-20h4.4l9.3,13v-13h4.3v20h-4.1L648.2,10940.6z"/>
	</g>
	<g class="st0">
		<path d="M435,10966h4.3v20H435V10966z"/>
		<path d="M460.6,10971.6l-5.6,14.4h-1.9l-5.6-14.4v14.4h-4.3v-20h6l4.9,12.5l4.9-12.5h6v20h-4.3v-14.4H460.6z"/>
		<path d="M468.8,10966h9.4c1.4,0,2.6,0.3,3.6,0.9s1.8,1.4,2.3,2.3c0.5,1,0.8,2.1,0.8,3.3s-0.3,2.3-0.8,3.2c-0.5,1-1.3,1.7-2.3,2.3
			s-2.2,0.9-3.6,0.9h-5.1v7.2h-4.3V10966z M479.7,10970.2c-0.6-0.6-1.3-0.8-2.1-0.8h-4.5v6h4.5c0.9,0,1.6-0.3,2.1-0.8
			c0.6-0.6,0.8-1.3,0.8-2.2S480.3,10970.8,479.7,10970.2z"/>
		<path d="M487.6,10966h4.3v16.6h8.5v3.4h-12.7L487.6,10966L487.6,10966z"/>
		<path d="M503.3,10966h14.2v3.4h-9.9v4.6h9.7v3.4h-9.7v5.2h9.9v3.4h-14.2V10966z"/>
		<path d="M538.1,10971.6l-5.6,14.4h-1.9l-5.6-14.4v14.4h-4.3v-20h6l4.9,12.5l4.9-12.5h6v20h-4.3v-14.4H538.1z"/>
		<path d="M546.4,10966h14.2v3.4h-9.9v4.6h9.7v3.4h-9.7v5.2h9.9v3.4h-14.2V10966z"/>
		<path d="M568.1,10972.6v13.4h-4.3v-20h4.4l9.3,13v-13h4.3v20h-4.1L568.1,10972.6z"/>
		<path d="M590.4,10969.4h-5.9v-3.4h16v3.4h-5.8v16.6h-4.3V10969.4z"/>
		<path d="M614,10982.5h-8.9l-1.3,3.5h-4.7l7.7-20h5.3l7.7,20h-4.6L614,10982.5z M606.1,10979.1h6.7l-3.3-9.2L606.1,10979.1z"/>
		<path d="M624.5,10969.4h-5.8v-3.4h16v3.4h-5.8v16.6h-4.3v-16.6H624.5z"/>
		<path d="M637.4,10966h4.3v20h-4.3V10966z"/>
		<path d="M646,10970.7c0.9-1.6,2.1-2.8,3.7-3.7s3.4-1.3,5.4-1.3s3.8,0.4,5.4,1.3s2.8,2.1,3.7,3.7s1.4,3.3,1.4,5.3s-0.5,3.8-1.4,5.3
			c-0.9,1.6-2.1,2.8-3.7,3.7c-1.6,0.9-3.4,1.3-5.4,1.3s-3.8-0.4-5.4-1.3c-1.6-0.9-2.8-2.1-3.7-3.7c-0.9-1.6-1.3-3.4-1.3-5.3
			C644.6,10974,645.1,10972.3,646,10970.7z M660.4,10972.5c-0.5-1.1-1.2-1.9-2.1-2.5c-0.9-0.6-2-0.9-3.2-0.9s-2.3,0.3-3.2,0.9
			c-0.9,0.6-1.6,1.4-2.1,2.5s-0.8,2.2-0.8,3.6s0.2,2.5,0.8,3.6c0.5,1.1,1.2,1.9,2.1,2.5s2,0.9,3.2,0.9s2.3-0.3,3.2-0.9
			s1.6-1.4,2.1-2.5s0.8-2.2,0.8-3.6S660.9,10973.5,660.4,10972.5z"/>
		<path d="M672.8,10972.6v13.4h-4.3v-20h4.4l9.3,13v-13h4.3v20h-4.1L672.8,10972.6z"/>
	</g>
	<line id="Line_35" class="st2" x1="420.5" y1="10915.5" x2="420.5" y2="11005.5"/>
</g>
</svg>
