<?xml version="1.0" encoding="utf-8"?>
<!-- Generator: Adobe Illustrator 22.0.1, SVG Export Plug-In . SVG Version: 6.00 Build 0)  -->
<svg version="1.1" id="Laag_1" xmlns="http://www.w3.org/2000/svg" xmlns:xlink="http://www.w3.org/1999/xlink" x="0px" y="0px"
	 width="50px" height="50px" viewBox="0 0 50 50" style="enable-background:new 0 0 50 50;" xml:space="preserve">
<style type="text/css">
	.st0{fill:#FFC107;stroke:#000000;stroke-miterlimit:10;}
	.st1{fill:#010202;}
	.st2{fill:#272A55;}
</style>
<rect x="-13" y="-13" class="st0" width="73" height="73"/>
<g>
	<polygon class="st1" points="17.1,42.5 15,40.2 30.8,25 15,9.8 17.1,7.5 35,25 	"/>
</g>
<path class="st2" d="M16.8,5.4L13.2,9c-0.1,0.1-0.1,0.5,0.2,0.7l6.1,6.1l6.1,6.1l2.3,2.3L13.3,38.7C13,39,13,39.3,13.2,39.5l3.6,3.6
	c0.1,0.1,0.5,0.1,0.7-0.2l6.1-6.1l6.1-6.1l2.6-2.6l3.5-3.5l0.2-0.2c0.1-0.1,0.1-0.2,0.1-0.3c0-0.1,0-0.2-0.1-0.3l-0.2-0.2l-3.5-3.5
	L17.5,5.5C17.3,5.3,16.9,5.2,16.8,5.4z"/>
</svg>
