<?xml version="1.0" encoding="utf-8"?>
<!-- Generator: Adobe Illustrator 22.0.1, SVG Export Plug-In . SVG Version: 6.00 Build 0)  -->
<svg version="1.1" id="Laag_1" xmlns="http://www.w3.org/2000/svg" xmlns:xlink="http://www.w3.org/1999/xlink" x="0px" y="0px"
	 width="50px" height="50px" viewBox="0 0 50 50" style="enable-background:new 0 0 50 50;" xml:space="preserve">
<style type="text/css">
	.st0{fill:#272A55;}
</style>
<path class="st0" d="M32.8,6.1l3.6,3.6c0.1,0.1,0.1,0.5-0.2,0.7l-6.1,6.1l-6.1,6.1L21.7,25l14.5,14.5c0.3,0.3,0.3,0.6,0.2,0.7
	l-3.6,3.6C32.6,44,32.3,44,32,43.7l-6.1-6.1l-6.1-6.1l-2.6-2.6l-3.5-3.5l-0.2-0.2c-0.1-0.1-0.1-0.2-0.1-0.3c0-0.1,0-0.2,0.1-0.3
	l0.2-0.2l3.5-3.5L32,6.3C32.3,6,32.6,6,32.8,6.1z"/>
</svg>
