<?xml version="1.0" encoding="utf-8"?>
<!-- Generator: Adobe Illustrator 21.0.2, SVG Export Plug-In . SVG Version: 6.00 Build 0)  -->
<svg version="1.1" id="Laag_1" xmlns="http://www.w3.org/2000/svg" xmlns:xlink="http://www.w3.org/1999/xlink" x="0px" y="0px"
	 width="50px" height="50px" viewBox="0 0 50 50" style="enable-background:new 0 0 50 50;" xml:space="preserve">
<style type="text/css">
	.st0{fill:#FFFFFF;}
</style>
<path class="st0" d="M25,15.2c3.2,0,3.6,0,4.9,0.1c3.3,0.1,4.8,1.7,4.9,4.9c0.1,1.3,0.1,1.6,0.1,4.8s0,3.6-0.1,4.8
	c-0.1,3.2-1.7,4.8-4.9,4.9c-1.3,0.1-1.6,0.1-4.9,0.1c-3.2,0-3.6,0-4.8-0.1c-3.3-0.1-4.8-1.7-4.9-4.9c-0.1-1.3-0.1-1.6-0.1-4.8
	s0-3.6,0.1-4.8c0.1-3.2,1.7-4.8,4.9-4.9C21.4,15.2,21.8,15.2,25,15.2z M25,13c-3.3,0-3.7,0-4.9,0.1c-4.4,0.2-6.8,2.6-7,7
	C13,21.3,13,21.7,13,25s0,3.7,0.1,4.9c0.2,4.4,2.6,6.8,7,7C21.3,37,21.7,37,25,37s3.7,0,4.9-0.1c4.4-0.2,6.8-2.6,7-7
	C37,28.7,37,28.3,37,25s0-3.7-0.1-4.9c-0.2-4.4-2.6-6.8-7-7C28.7,13,28.3,13,25,13z M25,18.8c-3.4,0-6.2,2.8-6.2,6.2
	s2.8,6.2,6.2,6.2s6.2-2.8,6.2-6.2S28.4,18.8,25,18.8z M25,29c-2.2,0-4-1.8-4-4s1.8-4,4-4s4,1.8,4,4S27.2,29,25,29z M31.4,17.2
	c-0.8,0-1.4,0.6-1.4,1.4s0.6,1.4,1.4,1.4c0.8,0,1.4-0.6,1.4-1.4S32.2,17.2,31.4,17.2z"/>
</svg>
