<svg xmlns="http://www.w3.org/2000/svg" viewBox="0 0 872.26 117.1"><defs><style>.cls-1{fill:#00953b;}.cls-2{fill:#4d4d4f;}</style></defs><title>hcss-logo</title><g id="Layer_2" data-name="Layer 2"><g id="Layer_1-2" data-name="Layer 1"><path class="cls-1" d="M166.58,31.45,162.74,48.9c-25.37-1.28-58.4,5.36-87.41,16.11l-8.42,35.22-22.33,6.22,8.16-31.84A155.46,155.46,0,0,0,27.35,89.82l-5,21.07L0,117.1,22.93,27.75l21.16-8.13L32.66,67.55a202.8,202.8,0,0,1,25.2-12.87L67.51,17.1,88.67,9,79.82,46.11c29.83-10.43,63.68-17.57,86.76-14.66M116.3,17.74c.5-4.09-1.42-9.78-8.87-9.78C101,8,95.07,12.89,93.22,22.54s2,14.51,8.58,14.51c6.24,0,10.56-4.2,12.76-10.19h-5.19c-1.28,3.37-3.63,5.18-6.5,5.18-4.41,0-5.3-4.46-4.37-9.42C100,14.81,104,13,106.52,13c4.28,0,4.48,3.12,4.58,4.78Zm2.32,4.61c-.66,3.41-.22,9.23,8.85,9.23,2.18,0,9.95-.73,11.53-9,.94-5-1.87-6.5-5.09-7.42l-5.74-1.66c-1-.27-2.5-.73-2.08-2.88.48-2.5,3-3.31,5-3.31,4.53,0,4.38,2.93,4.29,4.14h5c.61-3.37-.38-8.91-8-8.91-8.07,0-10.6,5.42-11.18,8.5-1.17,6.09,2.52,7.08,6.34,8.11l2.53.7c2.5.69,4.25,1.26,3.85,3.43-.57,2.91-3.42,3.56-5.88,3.56-4.53,0-4.68-2.91-4.42-4.45Zm25.24-2.51c-.64,3.43-.21,9.24,8.87,9.24,2.17,0,9.93-.73,11.52-9,.95-5-1.88-6.49-5.08-7.42L153.41,11c-1-.28-2.49-.73-2.08-2.88.49-2.5,3-3.31,5-3.31,4.53,0,4.39,2.93,4.29,4.16h5c.61-3.39-.37-8.93-8-8.93C149.53,0,147,5.42,146.41,8.5c-1.16,6.08,2.52,7.08,6.34,8.12l2.53.68c2.49.7,4.26,1.28,3.85,3.43-.55,2.92-3.42,3.58-5.88,3.58-4.53,0-4.67-2.93-4.41-4.47Z"/><rect class="cls-2" x="222.1" y="16.01" width="1.83" height="85.08"/><path class="cls-2" d="M277.4,11h7.31V45.38H277.4Z"/><path class="cls-2" d="M307.11,29.71a4.94,4.94,0,0,0-1.19-3.7,4.75,4.75,0,0,0-3.4-1.13,6.48,6.48,0,0,0-3.27.85,8,8,0,0,0-2.39,2.09V44.55h-6.54v-24h6.54v3.24A11.11,11.11,0,0,1,300.47,21a11.27,11.27,0,0,1,5.09-1.13q4,0,6.05,2.11a8,8,0,0,1,2,5.82V45.38h-6.54Z"/><path class="cls-2" d="M335.89,29.71a4.93,4.93,0,0,0-1.18-3.7,4.76,4.76,0,0,0-3.4-1.13,6.48,6.48,0,0,0-3.27.85,7.88,7.88,0,0,0-2.4,2.09V44.55H319.1v-24h6.54v3.24a11.44,11.44,0,0,1,8.71-3.86q4,0,6,2.11a8.07,8.07,0,0,1,2,5.82V45.38h-6.54Z"/><path class="cls-2" d="M352.47,44.29a11.92,11.92,0,0,1-4.58-4.74,14.33,14.33,0,0,1,0-13.16,12,12,0,0,1,4.58-4.75,14.78,14.78,0,0,1,13.95,0A12,12,0,0,1,371,26.39a14.41,14.41,0,0,1,0,13.16,12,12,0,0,1-4.59,4.74,14.7,14.7,0,0,1-13.95,0Zm11.61-5.57a9.44,9.44,0,0,0,1.73-5.78,9.39,9.39,0,0,0-1.73-5.73,5.5,5.5,0,0,0-4.66-2.33,5.42,5.42,0,0,0-4.63,2.33,9.44,9.44,0,0,0-1.7,5.73,9.49,9.49,0,0,0,1.7,5.78,5.4,5.4,0,0,0,4.63,2.33A5.48,5.48,0,0,0,364.08,38.72Z"/><path class="cls-2" d="M372.86,20.51h7l6.49,17.3,6.49-17.3h7.05l-10,24.87h-7Z"/><path class="cls-2" d="M416.73,42.8a8.84,8.84,0,0,1-3.37,2.37,11.62,11.62,0,0,1-4.51.88,9.51,9.51,0,0,1-4.09-.93,8.06,8.06,0,0,1-3.27-2.82,7.79,7.79,0,0,1-1.29-4.52,7.32,7.32,0,0,1,4.53-7.13,10.52,10.52,0,0,1,4.12-.82,12.83,12.83,0,0,1,4.58.77,7.67,7.67,0,0,1,3.3,2.26v-3.5a4.34,4.34,0,0,0-1.49-3.45,5.92,5.92,0,0,0-4-1.28A10.42,10.42,0,0,0,404,27.56l-2.47-4.21a15.56,15.56,0,0,1,5-2.6,19.94,19.94,0,0,1,5.84-.86,13,13,0,0,1,7.83,2.21q3,2.22,3,7.21V45.38h-6.54Zm0-6.27a5,5,0,0,0-2.19-1.45,8.93,8.93,0,0,0-3.06-.52,5.8,5.8,0,0,0-3.35.92,2.88,2.88,0,0,0-1.34,2.5,2.79,2.79,0,0,0,1.34,2.44,6,6,0,0,0,3.35.89,8.7,8.7,0,0,0,3.06-.52,4.93,4.93,0,0,0,2.19-1.45Z"/><path class="cls-2" d="M431.82,44.23A7.12,7.12,0,0,1,430,39V25.5h-4.12v-5H430v-6.8h6.59v6.8h5v5h-5V38a3.65,3.65,0,0,0,.62,2.18,1.94,1.94,0,0,0,1.65.86,4.43,4.43,0,0,0,1.34-.2,2.39,2.39,0,0,0,.93-.52l1.39,4.35a9,9,0,0,1-5.46,1.37A7.08,7.08,0,0,1,431.82,44.23Z"/><path class="cls-2" d="M445.59,16.16a3.85,3.85,0,0,1,0-5.51,3.73,3.73,0,0,1,2.75-1.16,3.88,3.88,0,0,1,3.92,3.91,3.81,3.81,0,0,1-1.14,2.76,3.9,3.9,0,0,1-5.53,0Zm-.49,4.35h6.54V45.38H445.1Z"/><path class="cls-2" d="M453.54,20.51h7L467,37.81l6.49-17.3h7.06l-10,24.87h-7.06Z"/><path class="cls-2" d="M482.53,26.36a12.57,12.57,0,0,1,4.58-4.72,12.73,12.73,0,0,1,6.65-1.75,12.25,12.25,0,0,1,6.49,1.72,11.8,11.8,0,0,1,4.4,4.84,15.76,15.76,0,0,1,1.57,7.14V35H487.73A7.08,7.08,0,0,0,490,39.51a6.89,6.89,0,0,0,4.94,1.8,10.43,10.43,0,0,0,3.63-.67,8.65,8.65,0,0,0,3-1.8l2.89,4.06a12.88,12.88,0,0,1-4.54,2.33,20,20,0,0,1-5.71.82,14.24,14.24,0,0,1-6.8-1.63,11.88,11.88,0,0,1-4.76-4.59,13.45,13.45,0,0,1-1.73-6.89A13.31,13.31,0,0,1,482.53,26.36Zm6.9,0a6.7,6.7,0,0,0-1.76,3.94h12.21a6.57,6.57,0,0,0-1.67-3.92,5.59,5.59,0,0,0-4.45-1.74A5.5,5.5,0,0,0,489.43,26.35Z"/><path class="cls-2" d="M523.88,35.54a15.13,15.13,0,0,0,4.76,3.35,14.54,14.54,0,0,0,6.15,1.29,6.52,6.52,0,0,0,4.41-1.37,4.24,4.24,0,0,0,1.57-3.29,3.56,3.56,0,0,0-1.7-3.2,20.53,20.53,0,0,0-5.25-2.08,58.21,58.21,0,0,1-6.54-1.76,11,11,0,0,1-4.41-2.85A7.45,7.45,0,0,1,521,20.28a8.44,8.44,0,0,1,1.59-5,10.57,10.57,0,0,1,4.56-3.54A17,17,0,0,1,534,10.47q8.19,0,13.39,4.4l-4.07,5.23a13.46,13.46,0,0,0-4.61-2.81,14.93,14.93,0,0,0-5.22-.95,6,6,0,0,0-3.74,1,3.32,3.32,0,0,0-1.31,2.74,2.64,2.64,0,0,0,1.6,2.52,28.2,28.2,0,0,0,5.25,1.75,46,46,0,0,1,6.51,1.88,11.39,11.39,0,0,1,4.48,3.13A8.11,8.11,0,0,1,548.18,35a10,10,0,0,1-3.53,8q-3.52,3-10.22,3a24.4,24.4,0,0,1-8.36-1.33A17.79,17.79,0,0,1,519.91,41Z"/><path class="cls-2" d="M556.52,44.29a11.92,11.92,0,0,1-4.58-4.74,14.33,14.33,0,0,1,0-13.16,12,12,0,0,1,4.58-4.75,14.79,14.79,0,0,1,14,0,12,12,0,0,1,4.58,4.75,14.33,14.33,0,0,1,0,13.16,11.92,11.92,0,0,1-4.58,4.74,14.72,14.72,0,0,1-14,0Zm11.61-5.57a9.44,9.44,0,0,0,1.73-5.78,9.39,9.39,0,0,0-1.73-5.73,5.5,5.5,0,0,0-4.66-2.33,5.44,5.44,0,0,0-4.63,2.33,9.51,9.51,0,0,0-1.7,5.73,9.56,9.56,0,0,0,1.7,5.78,5.41,5.41,0,0,0,4.63,2.33A5.48,5.48,0,0,0,568.13,38.72Z"/><path class="cls-2" d="M581.91,25.5h-4.12v-5h4.12V19.16a8.56,8.56,0,0,1,2.34-6.36,8.18,8.18,0,0,1,6-2.33,10.31,10.31,0,0,1,4.74,1L593.7,16a3.86,3.86,0,0,0-2.11-.52,2.82,2.82,0,0,0-2.27,1,4.17,4.17,0,0,0-.82,2.79v1.29h5v5h-5V45.38h-6.59Z"/><path class="cls-2" d="M599.36,44.23a7.16,7.16,0,0,1-1.8-5.25V25.5h-4.12v-5h4.12v-6.8h6.59v6.8h5.05v5h-5.05V38a3.65,3.65,0,0,0,.62,2.18,1.94,1.94,0,0,0,1.65.86,4.36,4.36,0,0,0,1.33-.2,2.25,2.25,0,0,0,.93-.52l1.39,4.35a9,9,0,0,1-5.46,1.37A7.08,7.08,0,0,1,599.36,44.23Z"/><path class="cls-2" d="M629.23,28.44,624,45.38h-7L609.4,20.51h6.8l4.63,16.73,5.46-16.73h5.82l5.46,16.73,4.63-16.73H649l-7.57,24.87h-6.95Z"/><path class="cls-2" d="M666.15,42.8a8.87,8.87,0,0,1-3.38,2.37,11.57,11.57,0,0,1-4.5.88,9.55,9.55,0,0,1-4.1-.93,8.06,8.06,0,0,1-3.27-2.82,7.86,7.86,0,0,1-1.28-4.52,7.29,7.29,0,0,1,4.53-7.13,10.48,10.48,0,0,1,4.12-.82,12.83,12.83,0,0,1,4.58.77,7.73,7.73,0,0,1,3.3,2.26v-3.5a4.32,4.32,0,0,0-1.5-3.45,5.89,5.89,0,0,0-4-1.28,10.38,10.38,0,0,0-7.26,2.93L651,23.35a15.46,15.46,0,0,1,5-2.6,19.89,19.89,0,0,1,5.84-.86,13,13,0,0,1,7.83,2.21q3,2.22,3,7.21V45.38h-6.53Zm0-6.27A5,5,0,0,0,664,35.08a9,9,0,0,0-3.07-.52,5.77,5.77,0,0,0-3.34.92,2.85,2.85,0,0,0-1.34,2.5,2.77,2.77,0,0,0,1.34,2.44,5.91,5.91,0,0,0,3.34.89,8.8,8.8,0,0,0,3.07-.52,4.93,4.93,0,0,0,2.19-1.45Z"/><path class="cls-2" d="M678.14,20.51h6.54v3.4a10.84,10.84,0,0,1,3.5-2.86,9.31,9.31,0,0,1,4.43-1.16V26a8.78,8.78,0,0,0-1.8-.2,8.47,8.47,0,0,0-3.5.84,5.92,5.92,0,0,0-2.63,2V45.38h-6.54Z"/><path class="cls-2" d="M695.7,26.36a12.54,12.54,0,0,1,11.22-6.47,12.22,12.22,0,0,1,6.49,1.72,11.66,11.66,0,0,1,4.4,4.84,15.63,15.63,0,0,1,1.58,7.14V35H700.9a7.07,7.07,0,0,0,2.21,4.48,6.91,6.91,0,0,0,4.95,1.8,10.43,10.43,0,0,0,3.63-.67,8.65,8.65,0,0,0,3-1.8l2.88,4.06a12.75,12.75,0,0,1-4.53,2.33,20,20,0,0,1-5.71.82,14.21,14.21,0,0,1-6.8-1.63,11.82,11.82,0,0,1-4.76-4.59,13.45,13.45,0,0,1-1.73-6.89A13.31,13.31,0,0,1,695.7,26.36Zm6.9,0a6.7,6.7,0,0,0-1.76,3.94h12.21a6.57,6.57,0,0,0-1.67-3.92,5.6,5.6,0,0,0-4.46-1.74A5.5,5.5,0,0,0,702.6,26.35Z"/><path class="cls-2" d="M279.05,75h-4.12V72.65h4.12V70.37a8.36,8.36,0,0,1,1.8-5.72,6.25,6.25,0,0,1,4.94-2,6.46,6.46,0,0,1,3.35.79l-.83,2.14a4.39,4.39,0,0,0-2.26-.57,3.87,3.87,0,0,0-3.22,1.4,6.28,6.28,0,0,0-1.11,4v2.27h5V75h-5v22.5h-2.67Z"/><path class="cls-2" d="M295,96.46a11.63,11.63,0,0,1-4.19-4.72,14.68,14.68,0,0,1-1.5-6.66,14.5,14.5,0,0,1,1.5-6.63A11.61,11.61,0,0,1,295,73.76,11.41,11.41,0,0,1,301.29,72a11.6,11.6,0,0,1,6.33,1.73,11.42,11.42,0,0,1,4.2,4.69,14.74,14.74,0,0,1,1.47,6.63,14.93,14.93,0,0,1-1.47,6.66,11.44,11.44,0,0,1-4.2,4.72,11.6,11.6,0,0,1-6.33,1.73A11.41,11.41,0,0,1,295,96.46Zm11.15-2.12a9.43,9.43,0,0,0,3.14-3.94,13.11,13.11,0,0,0,1.08-5.32,12.93,12.93,0,0,0-1.08-5.29,9.41,9.41,0,0,0-3.14-3.91,8.74,8.74,0,0,0-9.73,0,9.41,9.41,0,0,0-3.14,3.91,12.93,12.93,0,0,0-1.08,5.29,13.11,13.11,0,0,0,1.08,5.32,9.43,9.43,0,0,0,3.14,3.94,8.74,8.74,0,0,0,9.73,0Z"/><path class="cls-2" d="M319.16,72.65h2.67v4.27a15,15,0,0,1,3.82-3.55A8.38,8.38,0,0,1,330.23,72v2.63a6.44,6.44,0,0,0-1.34-.11,7.41,7.41,0,0,0-4,1.42,8.64,8.64,0,0,0-3,3.09V97.52h-2.67Z"/><path class="cls-2" d="M348.51,96.77a5.88,5.88,0,0,1-1.24-4V75h-4.12V72.65h4.12v-6.8H350v6.8h5V75h-5V92.4a4.3,4.3,0,0,0,.64,2.49,2.19,2.19,0,0,0,1.93.93,3.67,3.67,0,0,0,1.57-.34,3.42,3.42,0,0,0,1.21-.85l1,2a5.59,5.59,0,0,1-1.8,1.14,6.79,6.79,0,0,1-2.42.38A4.59,4.59,0,0,1,348.51,96.77Z"/><path class="cls-2" d="M376.67,80.54q0-3.41-1.54-4.77a6.53,6.53,0,0,0-4.48-1.37,9.43,9.43,0,0,0-4.59,1.24,9.9,9.9,0,0,0-3.5,3V97.52h-2.68V63.17h2.68V76.41a13.47,13.47,0,0,1,4-3.07,10.57,10.57,0,0,1,5-1.31c2.58,0,4.52.64,5.85,1.93s2,3.3,2,6.05V97.52h-2.68Z"/><path class="cls-2" d="M386.79,78.53a12.34,12.34,0,0,1,4.3-4.75,11.82,11.82,0,0,1,12.43,0,11.3,11.3,0,0,1,4,4.76A15.48,15.48,0,0,1,409,85.21v.72h-20.8a12.2,12.2,0,0,0,1.37,5,9.16,9.16,0,0,0,3.37,3.61,9.31,9.31,0,0,0,5,1.33,11.48,11.48,0,0,0,4.46-.87A10.78,10.78,0,0,0,406,92.47l1.39,1.75a13,13,0,0,1-9.73,4,12.37,12.37,0,0,1-6.44-1.68,11.85,11.85,0,0,1-4.43-4.64,14.15,14.15,0,0,1-1.59-6.79A13.86,13.86,0,0,1,386.79,78.53Zm5.58-2.83a9.23,9.23,0,0,0-3.06,3.54,11.09,11.09,0,0,0-1.16,4.43h18.08a11.06,11.06,0,0,0-1.06-4.41,8.69,8.69,0,0,0-3-3.56,8.49,8.49,0,0,0-5-1.41A8.13,8.13,0,0,0,392.37,75.7Z"/><path class="cls-2" d="M434.49,95.94a16.2,16.2,0,0,1-6.25-6.31,19.67,19.67,0,0,1,0-18.46,16.23,16.23,0,0,1,6.25-6.32,17.41,17.41,0,0,1,8.76-2.24,15.61,15.61,0,0,1,12.61,5.92l-2.47,1.59A11.93,11.93,0,0,0,449,66.49a12.68,12.68,0,0,0-5.79-1.36,13.71,13.71,0,0,0-12.34,7.35,17.5,17.5,0,0,0,0,15.78A13.9,13.9,0,0,0,436,93.71a13.7,13.7,0,0,0,7.21,2A12.68,12.68,0,0,0,449,94.3a11.93,11.93,0,0,0,4.35-3.63l2.47,1.54a15.64,15.64,0,0,1-12.61,6A17.42,17.42,0,0,1,434.49,95.94Z"/><path class="cls-2" d="M465,96.46a11.73,11.73,0,0,1-4.2-4.72,14.81,14.81,0,0,1-1.49-6.66,14.62,14.62,0,0,1,1.49-6.63,11.71,11.71,0,0,1,4.2-4.69A11.37,11.37,0,0,1,471.2,72a11.61,11.61,0,0,1,6.34,1.73,11.33,11.33,0,0,1,4.19,4.69,14.74,14.74,0,0,1,1.47,6.63,14.93,14.93,0,0,1-1.47,6.66,11.35,11.35,0,0,1-4.19,4.72,11.61,11.61,0,0,1-6.34,1.73A11.37,11.37,0,0,1,465,96.46Zm11.15-2.12a9.43,9.43,0,0,0,3.14-3.94,13.11,13.11,0,0,0,1.08-5.32,12.93,12.93,0,0,0-1.08-5.29,9.41,9.41,0,0,0-3.14-3.91,8.17,8.17,0,0,0-4.9-1.48,8.07,8.07,0,0,0-4.84,1.48,9.41,9.41,0,0,0-3.14,3.91,12.93,12.93,0,0,0-1.08,5.29,13.11,13.11,0,0,0,1.08,5.32,9.43,9.43,0,0,0,3.14,3.94,8.07,8.07,0,0,0,4.84,1.48A8.17,8.17,0,0,0,476.1,94.34Z"/><path class="cls-2" d="M505.86,80.64q0-3.4-1.55-4.82a6.37,6.37,0,0,0-4.48-1.42,9.52,9.52,0,0,0-4.58,1.23,9.91,9.91,0,0,0-3.5,3v18.8h-2.68V72.65h2.68v3.76a13.42,13.42,0,0,1,4-3.07,10.64,10.64,0,0,1,5-1.31q7.83,0,7.83,8.08V97.52h-2.68Z"/><path class="cls-2" d="M515.28,92.26a9.78,9.78,0,0,0,3.4,2.63,10.38,10.38,0,0,0,4.63,1,7.65,7.65,0,0,0,4.87-1.41A4.48,4.48,0,0,0,530,90.82,3.53,3.53,0,0,0,529,88.3a6.15,6.15,0,0,0-2.32-1.51c-.93-.35-2.16-.74-3.71-1.17a40.81,40.81,0,0,1-4.58-1.34,7.64,7.64,0,0,1-2.93-1.94,5,5,0,0,1-1.24-3.54A6,6,0,0,1,516.64,74,10,10,0,0,1,523.11,72a11.39,11.39,0,0,1,8.9,3.65l-1.49,1.91a8,8,0,0,0-3.06-2.39,10.2,10.2,0,0,0-4.35-.91,7.42,7.42,0,0,0-4.53,1.27,3.82,3.82,0,0,0-1.7,3.21,2.85,2.85,0,0,0,.87,2.17,6,6,0,0,0,2.16,1.28,35.06,35.06,0,0,0,3.61,1,36.37,36.37,0,0,1,4.71,1.45,8,8,0,0,1,3.06,2.2,5.78,5.78,0,0,1,1.29,3.95,6.63,6.63,0,0,1-2.42,5.27q-2.42,2.07-6.9,2.07a14.11,14.11,0,0,1-5.38-1,11.65,11.65,0,0,1-4.2-3Z"/><path class="cls-2" d="M540.2,96.77a5.93,5.93,0,0,1-1.23-4V75h-4.12V72.65H539v-6.8h2.72v6.8h5V75h-5V92.4a4.3,4.3,0,0,0,.65,2.49,2.19,2.19,0,0,0,1.93.93,3.7,3.7,0,0,0,1.57-.34,3.42,3.42,0,0,0,1.21-.85l1,2a5.59,5.59,0,0,1-1.8,1.14,6.83,6.83,0,0,1-2.42.38A4.6,4.6,0,0,1,540.2,96.77Z"/><path class="cls-2" d="M551.58,72.65h2.68v4.27a14.8,14.8,0,0,1,3.81-3.55A8.41,8.41,0,0,1,562.65,72v2.63a6.37,6.37,0,0,0-1.34-.11,7.41,7.41,0,0,0-4,1.42,8.47,8.47,0,0,0-3,3.09V97.52h-2.68Z"/><path class="cls-2" d="M583.66,93.86A14.46,14.46,0,0,1,579.59,97a10.5,10.5,0,0,1-4.89,1.24q-3.91,0-5.87-1.94t-2-6.06V72.65h2.68v17q0,3.47,1.54,4.84a6.58,6.58,0,0,0,4.48,1.37,9.64,9.64,0,0,0,4.56-1.19,10.26,10.26,0,0,0,3.53-2.95v-19h2.68V97.52h-2.68Z"/><path class="cls-2" d="M593.72,78.48A11.55,11.55,0,0,1,604.31,72a11,11,0,0,1,5.09,1.06,11.39,11.39,0,0,1,3.71,3.11l-1.85,1.65a8,8,0,0,0-6.8-3.45,8.9,8.9,0,0,0-5,1.4,9,9,0,0,0-3.27,3.84,12.82,12.82,0,0,0-1.13,5.44,13,13,0,0,0,1.13,5.47,9.07,9.07,0,0,0,3.27,3.87,8.9,8.9,0,0,0,5,1.4,8.07,8.07,0,0,0,6.8-3.5L613.11,94a11.23,11.23,0,0,1-3.71,3.17,11.12,11.12,0,0,1-5.09,1.06,11.51,11.51,0,0,1-10.59-6.48,14.55,14.55,0,0,1-1.51-6.63A14.37,14.37,0,0,1,593.72,78.48Z"/><path class="cls-2" d="M619.8,96.77a5.93,5.93,0,0,1-1.23-4V75h-4.12V72.65h4.12v-6.8h2.73v6.8h5V75h-5V92.4a4.3,4.3,0,0,0,.64,2.49,2.19,2.19,0,0,0,1.93.93,3.7,3.7,0,0,0,1.57-.34,3.42,3.42,0,0,0,1.21-.85l1,2a5.59,5.59,0,0,1-1.8,1.14,6.79,6.79,0,0,1-2.42.38A4.63,4.63,0,0,1,619.8,96.77Z"/><path class="cls-2" d="M631.08,67.91a2,2,0,0,1,0-2.88,1.94,1.94,0,0,1,1.44-.62,2.06,2.06,0,0,1,1.47,3.5,2,2,0,0,1-2.91,0Zm.1,4.74h2.68V97.52h-2.68Z"/><path class="cls-2" d="M645.42,96.46a11.73,11.73,0,0,1-4.2-4.72,14.81,14.81,0,0,1-1.49-6.66,14.62,14.62,0,0,1,1.49-6.63,11.71,11.71,0,0,1,4.2-4.69A11.38,11.38,0,0,1,651.68,72,11.6,11.6,0,0,1,658,73.76a11.42,11.42,0,0,1,4.2,4.69,14.87,14.87,0,0,1,1.46,6.63,15.06,15.06,0,0,1-1.46,6.66,11.44,11.44,0,0,1-4.2,4.72,11.6,11.6,0,0,1-6.33,1.73A11.38,11.38,0,0,1,645.42,96.46Zm11.15-2.12a9.43,9.43,0,0,0,3.14-3.94,13.11,13.11,0,0,0,1.08-5.32,12.93,12.93,0,0,0-1.08-5.29,9.41,9.41,0,0,0-3.14-3.91,8.75,8.75,0,0,0-9.74,0,9.48,9.48,0,0,0-3.14,3.91,12.93,12.93,0,0,0-1.08,5.29,13.11,13.11,0,0,0,1.08,5.32,9.51,9.51,0,0,0,3.14,3.94,8.75,8.75,0,0,0,9.74,0Z"/><path class="cls-2" d="M686.33,80.64q0-3.4-1.55-4.82a6.37,6.37,0,0,0-4.48-1.42,9.52,9.52,0,0,0-4.58,1.23,9.91,9.91,0,0,0-3.5,3v18.8h-2.68V72.65h2.68v3.76a13.42,13.42,0,0,1,4-3.07,10.64,10.64,0,0,1,5-1.31Q689,72,689,80.11V97.52h-2.68Z"/><path class="cls-2" d="M708.73,63.17h2.93V97.52h-2.93Z"/><path class="cls-2" d="M735.86,80.64q0-3.4-1.54-4.82a6.39,6.39,0,0,0-4.48-1.42,9.52,9.52,0,0,0-4.59,1.23,10,10,0,0,0-3.5,3v18.8h-2.68V72.65h2.68v3.76a13.47,13.47,0,0,1,4-3.07,10.57,10.57,0,0,1,5-1.31q7.83,0,7.83,8.08V97.52h-2.68Z"/><path class="cls-2" d="M764.18,93.55a11,11,0,0,1-3.68,3.32,9.81,9.81,0,0,1-5,1.32,10.68,10.68,0,0,1-5.82-1.6A10.53,10.53,0,0,1,745.8,92a17.75,17.75,0,0,1,0-13.77A10.38,10.38,0,0,1,755.53,72a10,10,0,0,1,4.87,1.23,11.46,11.46,0,0,1,3.78,3.4V63.17h2.73V97.52h-2.73Zm0-14.59a9.25,9.25,0,0,0-3.4-3.24A9.38,9.38,0,0,0,756,74.4a7.63,7.63,0,0,0-6.36,3,12.24,12.24,0,0,0-2.34,7.7,12.14,12.14,0,0,0,2.34,7.68,7.64,7.64,0,0,0,6.36,3,9.45,9.45,0,0,0,4.79-1.3,9.23,9.23,0,0,0,3.4-3.16Z"/><path class="cls-2" d="M791,93.86A14.6,14.6,0,0,1,786.94,97a10.5,10.5,0,0,1-4.89,1.24q-3.91,0-5.87-1.94t-2-6.06V72.65h2.68v17q0,3.47,1.54,4.84a6.58,6.58,0,0,0,4.48,1.37,9.64,9.64,0,0,0,4.56-1.19A10.26,10.26,0,0,0,791,91.68v-19h2.67V97.52H791Z"/><path class="cls-2" d="M800.43,92.26a9.78,9.78,0,0,0,3.4,2.63,10.35,10.35,0,0,0,4.63,1,7.65,7.65,0,0,0,4.87-1.41,4.47,4.47,0,0,0,1.77-3.69,3.57,3.57,0,0,0-.92-2.52,6.15,6.15,0,0,0-2.32-1.51c-.93-.35-2.16-.74-3.71-1.17a40.81,40.81,0,0,1-4.58-1.34,7.75,7.75,0,0,1-2.94-1.94,5,5,0,0,1-1.23-3.54A6,6,0,0,1,801.79,74,10,10,0,0,1,808.25,72a11.4,11.4,0,0,1,8.91,3.65l-1.49,1.91a8.12,8.12,0,0,0-3.06-2.39,10.21,10.21,0,0,0-4.36-.91,7.46,7.46,0,0,0-4.53,1.27,3.85,3.85,0,0,0-1.7,3.21,2.85,2.85,0,0,0,.88,2.17,5.93,5.93,0,0,0,2.16,1.28,35.06,35.06,0,0,0,3.61,1,37.39,37.39,0,0,1,4.71,1.45,8.1,8.1,0,0,1,3.06,2.2,5.78,5.78,0,0,1,1.29,3.95,6.63,6.63,0,0,1-2.42,5.27q-2.41,2.07-6.9,2.07a14.07,14.07,0,0,1-5.38-1,11.65,11.65,0,0,1-4.2-3Z"/><path class="cls-2" d="M825.35,96.77a5.93,5.93,0,0,1-1.24-4V75H820V72.65h4.11v-6.8h2.73v6.8h5V75h-5V92.4a4.3,4.3,0,0,0,.65,2.49,2.19,2.19,0,0,0,1.93.93,3.7,3.7,0,0,0,1.57-.34,3.42,3.42,0,0,0,1.21-.85l1,2a5.59,5.59,0,0,1-1.8,1.14,6.83,6.83,0,0,1-2.42.38A4.6,4.6,0,0,1,825.35,96.77Z"/><path class="cls-2" d="M836.73,72.65h2.68v4.27a14.8,14.8,0,0,1,3.81-3.55A8.38,8.38,0,0,1,847.8,72v2.63a6.44,6.44,0,0,0-1.34-.11,7.46,7.46,0,0,0-4,1.42,8.52,8.52,0,0,0-3,3.09V97.52h-2.68Z"/><path class="cls-2" d="M872.26,72.65,859.38,103q-1.95,4.64-6.38,4.64a9.4,9.4,0,0,1-2.63-.35l.47-2.43a3.59,3.59,0,0,0,1,.31,6.74,6.74,0,0,0,1.13.1,3.41,3.41,0,0,0,2.16-.67,5.77,5.77,0,0,0,1.6-2.37l2-4.44-10.5-25.11h3l9.06,21.73,9-21.73Z"/></g></g></svg>