<?xml version="1.0" encoding="UTF-8"?>
<svg width="40px" height="40px" viewBox="0 0 40 40" version="1.1" xmlns="http://www.w3.org/2000/svg" xmlns:xlink="http://www.w3.org/1999/xlink">
    <!-- Generator: Sketch 54.1 (76490) - https://sketchapp.com -->
    <title>facebook</title>
    <desc>Created with Sketch.</desc>
    <defs>
        <linearGradient x1="63.293457%" y1="100%" x2="36.706543%" y2="0%" id="linearGradient-1">
            <stop stop-color="#66BDFC" offset="0%"></stop>
            <stop stop-color="#358DCC" offset="100%"></stop>
        </linearGradient>
        <path d="M16.5624885,35.9999905 L16.5624885,21.6875246 L11.75,21.6875246 L11.75,16.0000381 L16.5624885,16.0000381 L16.5624885,11.5000489 C16.5624885,9.12505454 17.2291539,7.28130893 18.5624838,5.96881206 C19.8958136,4.65631519 21.6666433,4.00006676 23.8749711,4.00006676 C25.6666338,4.00006676 27.1249633,4.08339957 28.2499607,4.25006616 L28.2499607,9.31255409 L25.2499678,9.31255409 C24.1249705,9.31255409 23.3541393,9.5625535 22.9374733,10.0625523 C22.6041411,10.4792183 22.4374745,11.1458827 22.4374745,12.0625475 L22.4374745,16.0000381 L27.7499619,16.0000381 L26.9999636,21.6875246 L22.4374745,21.6875246 L22.4374745,35.9999905 L16.5624885,35.9999905 Z" id="path-2"></path>
        <filter x="-3.0%" y="-1.6%" width="106.1%" height="103.1%" filterUnits="objectBoundingBox" id="filter-3">
            <feOffset dx="0" dy="-1" in="SourceAlpha" result="shadowOffsetInner1"></feOffset>
            <feComposite in="shadowOffsetInner1" in2="SourceAlpha" operator="arithmetic" k2="-1" k3="1" result="shadowInnerInner1"></feComposite>
            <feColorMatrix values="0 0 0 0 0   0 0 0 0 0   0 0 0 0 0  0 0 0 0.1 0" type="matrix" in="shadowInnerInner1"></feColorMatrix>
        </filter>
    </defs>
    <g id="facebook" stroke="none" stroke-width="1" fill="none" fill-rule="evenodd">
        <g id="f" fill-rule="nonzero">
            <use fill="#FFFFFF" xlink:href="#path-2"></use>
            <use fill="url(#linearGradient-1)" xlink:href="#path-2"></use>
            <use fill="black" fill-opacity="1" filter="url(#filter-3)" xlink:href="#path-2"></use>
        </g>
    </g>
</svg>