<?xml version="1.0" encoding="UTF-8"?>
<svg width="40px" height="40px" viewBox="0 0 40 40" version="1.1" xmlns="http://www.w3.org/2000/svg" xmlns:xlink="http://www.w3.org/1999/xlink">
    <!-- Generator: Sketch 54.1 (76490) - https://sketchapp.com -->
    <title>Twitter</title>
    <desc>Created with Sketch.</desc>
    <defs>
        <linearGradient x1="100%" y1="83.0078125%" x2="0%" y2="16.9921875%" id="linearGradient-1">
            <stop stop-color="#66BDFC" offset="0%"></stop>
            <stop stop-color="#358DCC" offset="100%"></stop>
        </linearGradient>
        <path d="M32.6874316,13.5000441 C32.7290985,13.6667107 32.7499315,13.9375431 32.7499315,14.3125422 C32.7499315,17.312535 32.0207662,20.2083611 30.5624367,23.0000215 C29.0624402,25.9583474 26.9582783,28.3125088 24.2499517,30.0625046 C21.2916258,32.020833 17.8957999,32.9999976 14.062476,32.9999976 C10.3958178,32.9999976 7.04165973,32.020833 4,30.0625046 C4.45833192,30.1041715 4.97916465,30.1250045 5.56249627,30.1250045 C8.60415601,30.1250045 11.3333155,29.1875067 13.7499768,27.3125112 C12.2916472,27.3125112 11.0104003,26.8854292 9.90623592,26.0312642 C8.80207157,25.1770993 8.04165735,24.1041858 7.62499136,22.8125219 C8.04165735,22.8541888 8.43748942,22.8750218 8.81248853,22.8750218 C9.39582015,22.8750218 9.97915273,22.8125219 10.5624844,22.6875222 C9.06248793,22.35419 7.81249091,21.5833579 6.81249329,20.3750277 C5.81249568,19.1666976 5.31249687,17.7917009 5.31249687,16.2500376 L5.31249687,16.1250378 C6.22916167,16.6667035 7.20832537,16.9583689 8.24998987,17.0000358 C7.37499195,16.3750373 6.66666063,15.5833722 6.12499493,14.6250414 C5.58332924,13.6667107 5.31249687,12.6146292 5.31249687,11.468799 C5.31249687,10.3229687 5.62499613,9.22922127 6.24999464,8.18755677 C7.87499076,10.2292189 9.86456903,11.854215 12.2187304,13.0625452 C14.5728918,14.2708753 17.0833018,14.9375407 19.7499624,15.0625404 C19.6666296,14.5625416 19.6249627,14.0625428 19.6249627,13.562544 C19.6249627,12.3958798 19.916629,11.3021324 20.4999607,10.2813018 C21.0832923,9.2604712 21.8749574,8.45838914 22.874955,7.87505752 C23.8749526,7.29172589 24.958283,7.0000596 26.1249472,7.0000596 C27.083278,7.0000596 27.9686929,7.18755916 28.7811909,7.56255826 C29.593689,7.93755737 30.3124373,8.43755618 30.9374358,9.06255469 C32.4374322,8.7708884 33.8332619,8.25005662 35.1249258,7.50005841 C34.624927,9.04172172 33.6665963,10.2500519 32.2499326,11.1250498 C33.4999297,10.9583832 34.7499267,10.604218 35.9999237,10.0625523 C35.0832589,11.3958821 33.9790955,12.5417134 32.6874316,13.5000441 Z" id="path-2"></path>
        <filter x="-1.6%" y="-1.9%" width="103.1%" height="103.8%" filterUnits="objectBoundingBox" id="filter-3">
            <feOffset dx="0" dy="-1" in="SourceAlpha" result="shadowOffsetInner1"></feOffset>
            <feComposite in="shadowOffsetInner1" in2="SourceAlpha" operator="arithmetic" k2="-1" k3="1" result="shadowInnerInner1"></feComposite>
            <feColorMatrix values="0 0 0 0 0   0 0 0 0 0   0 0 0 0 0  0 0 0 0.1 0" type="matrix" in="shadowInnerInner1"></feColorMatrix>
        </filter>
    </defs>
    <g id="Twitter" stroke="none" stroke-width="1" fill="none" fill-rule="evenodd">
        <g id="T" fill-rule="nonzero">
            <use fill="#358DCC" xlink:href="#path-2"></use>
            <use fill="url(#linearGradient-1)" xlink:href="#path-2"></use>
            <use fill="black" fill-opacity="1" filter="url(#filter-3)" xlink:href="#path-2"></use>
        </g>
    </g>
</svg>