<svg width="1300" height="400" viewBox="0 0 1300 400" fill="none" xmlns="http://www.w3.org/2000/svg">
<path d="M200 400C89.5436 400 6.10352e-05 310.456 6.10352e-05 200C6.10352e-05 89.544 89.5436 0 200 0C310.457 0 400 89.544 400 200C400 310.456 310.457 400 200 400Z" fill="#2568E4"/>
<mask id="mask0" mask-type="alpha" maskUnits="userSpaceOnUse" x="110" y="176" width="179" height="48">
<path d="M288.044 223.914H159.189C130.696 223.914 110.87 202.5 110.87 176.088H247.776C268.211 176.088 288.044 197.502 288.044 223.914Z" fill="white"/>
</mask>
<g mask="url(#mask0)">
<path fill-rule="evenodd" clip-rule="evenodd" d="M108.696 172.827H291.304V227.175H108.696V172.827Z" fill="white"/>
</g>
<mask id="mask1" mask-type="alpha" maskUnits="userSpaceOnUse" x="110" y="88" width="179" height="72">
<path d="M247.776 88.0439H159.189C130.702 88.0439 110.87 107.811 110.87 135.87V159.783H159.189V135.87H288.044C288.044 107.811 268.211 88.0439 247.776 88.0439Z" fill="white"/>
</mask>
<g mask="url(#mask1)">
<path fill-rule="evenodd" clip-rule="evenodd" d="M108.696 84.7832H291.304V163.044H108.696V84.7832Z" fill="white"/>
</g>
<mask id="mask2" mask-type="alpha" maskUnits="userSpaceOnUse" x="110" y="240" width="179" height="74">
<path d="M239.724 240.218V264.493H110.87C110.87 292.977 130.702 313.044 159.189 313.044H247.776C268.211 313.044 288.044 292.977 288.044 264.493V240.218H239.724Z" fill="white"/>
</mask>
<g mask="url(#mask2)">
<path fill-rule="evenodd" clip-rule="evenodd" d="M108.696 236.957H291.304V316.305H108.696V236.957Z" fill="white"/>
</g>
<path d="M560.748 282C551.169 282 540.919 281.491 529.996 280.473C519.073 279.456 509.831 278.147 502.269 276.548V251.032C517.225 252.34 536.129 252.995 558.983 252.995C569.234 252.995 576.964 251.832 582.173 249.505C587.383 247.034 589.987 242.745 589.987 236.638V230.75C589.987 225.952 588.307 222.317 584.946 219.846C581.753 217.229 577.132 215.92 571.082 215.92H555.202C536.718 215.92 522.854 212.431 513.612 205.452C504.537 198.473 500 187.06 500 171.213V163.362C500 133.121 520.081 118 560.244 118C569.654 118 579.401 118.582 589.483 119.745C599.566 120.762 608.64 121.998 616.706 123.452V148.968C593.684 147.66 576.292 147.005 564.529 147.005C554.95 147.005 547.724 148.314 542.851 150.931C537.978 153.402 535.541 158.055 535.541 164.888V169.25C535.541 174.775 537.306 178.846 540.835 181.463C544.532 183.934 550.077 185.17 557.471 185.17H575.872C592.004 185.17 604.271 189.023 612.673 196.729C621.243 204.289 625.529 214.248 625.529 226.606V235.766C625.529 247.979 622.924 257.502 617.715 264.335C612.505 271.023 605.195 275.676 595.785 278.293C586.374 280.764 574.695 282 560.748 282Z" fill="#00233A"/>
<path d="M692.04 148.314H640.871V119.309H780.767V148.314H729.346V280.691H692.04V148.314Z" fill="#00233A"/>
<path d="M834.989 119.309H882.125L940.604 280.691H901.786L889.939 246.888H826.419L814.824 280.691H776.51L834.989 119.309ZM881.117 217.883L858.179 147.005L835.241 217.883H881.117Z" fill="#00233A"/>
<path d="M1017.12 282C1007.55 282 997.295 281.491 986.372 280.473C975.449 279.456 966.207 278.147 958.645 276.548V251.032C973.601 252.34 992.505 252.995 1015.36 252.995C1025.61 252.995 1033.34 251.832 1038.55 249.505C1043.76 247.034 1046.36 242.745 1046.36 236.638V230.75C1046.36 225.952 1044.68 222.317 1041.32 219.846C1038.13 217.229 1033.51 215.92 1027.46 215.92H1011.58C993.094 215.92 979.23 212.431 969.988 205.452C960.913 198.473 956.376 187.06 956.376 171.213V163.362C956.376 133.121 976.457 118 1016.62 118C1026.03 118 1035.78 118.582 1045.86 119.745C1055.94 120.762 1065.02 121.998 1073.08 123.452V148.968C1050.06 147.66 1032.67 147.005 1020.9 147.005C1011.33 147.005 1004.1 148.314 999.227 150.931C994.354 153.402 991.917 158.055 991.917 164.888V169.25C991.917 174.775 993.682 178.846 997.211 181.463C1000.91 183.934 1006.45 185.17 1013.85 185.17H1032.25C1048.38 185.17 1060.65 189.023 1069.05 196.729C1077.62 204.289 1081.9 214.248 1081.9 226.606V235.766C1081.9 247.979 1079.3 257.502 1074.09 264.335C1068.88 271.023 1061.57 275.676 1052.16 278.293C1042.75 280.764 1031.07 282 1017.12 282Z" fill="#00233A"/>
<path d="M1109.35 119.309H1146.65V280.691H1109.35V119.309Z" fill="#00233A"/>
<path d="M1235.22 282C1225.64 282 1215.39 281.491 1204.47 280.473C1193.54 279.456 1184.3 278.147 1176.74 276.548V251.032C1191.7 252.34 1210.6 252.995 1233.45 252.995C1243.71 252.995 1251.44 251.832 1256.64 249.505C1261.85 247.034 1264.46 242.745 1264.46 236.638V230.75C1264.46 225.952 1262.78 222.317 1259.42 219.846C1256.22 217.229 1251.6 215.92 1245.55 215.92H1229.67C1211.19 215.92 1197.33 212.431 1188.08 205.452C1179.01 198.473 1174.47 187.06 1174.47 171.213V163.362C1174.47 133.121 1194.55 118 1234.72 118C1244.13 118 1253.87 118.582 1263.95 119.745C1274.04 120.762 1283.11 121.998 1291.18 123.452V148.968C1268.16 147.66 1250.76 147.005 1239 147.005C1229.42 147.005 1222.2 148.314 1217.32 150.931C1212.45 153.402 1210.01 158.055 1210.01 164.888V169.25C1210.01 174.775 1211.78 178.846 1215.31 181.463C1219 183.934 1224.55 185.17 1231.94 185.17H1250.34C1266.48 185.17 1278.74 189.023 1287.14 196.729C1295.72 204.289 1300 214.248 1300 226.606V235.766C1300 247.979 1297.4 257.502 1292.19 264.335C1286.98 271.023 1279.67 275.676 1270.26 278.293C1260.85 280.764 1249.17 282 1235.22 282Z" fill="#00233A"/>
</svg>
