<svg xmlns="http://www.w3.org/2000/svg" viewBox="0 0 203.71 68"><defs><style>.cls-1{fill:#009639;}.cls-2{fill:none;stroke:#009639;stroke-miterlimit:10;}</style></defs><title>Asset 3</title><g id="Layer_2" data-name="Layer 2"><g id="Layer_1-2" data-name="Layer 1"><path class="cls-1" d="M17.25,16.36l-5.33,5.42L8,17.7,18.11,7.57h6v32H17.25Z"/><path class="cls-1" d="M29.49,34.12q7.1-5.36,10.54-8.27a30.35,30.35,0,0,0,4.92-5,7,7,0,0,0,1.49-4.08,3.69,3.69,0,0,0-1.54-3.15,6.06,6.06,0,0,0-3.7-1.13,11.43,11.43,0,0,0-8.54,3.7l-3.89-4.43a14.37,14.37,0,0,1,5.54-3.54A19.75,19.75,0,0,1,41.11,7a14.85,14.85,0,0,1,6.22,1.28,10.43,10.43,0,0,1,4.42,3.63,9.59,9.59,0,0,1,1.61,5.54,12.41,12.41,0,0,1-3.17,7.9,52.71,52.71,0,0,1-9.94,8.73H53.59v5.47H29.49Z"/><path d="M10.44,54,7.06,62.67H5.94L2.56,54v8.64H0v-12H3.58L6.5,58.15l2.92-7.49H13v12H10.44Z"/><path d="M15.62,53.48a5.81,5.81,0,0,1,2.24-2.22,6.87,6.87,0,0,1,6.44,0,5.81,5.81,0,0,1,2.24,2.22,6.72,6.72,0,0,1,0,6.4,5.8,5.8,0,0,1-2.24,2.22,6.87,6.87,0,0,1-6.44,0,5.8,5.8,0,0,1-2.24-2.22,6.72,6.72,0,0,1,0-6.4Zm8.66,1.07A3.54,3.54,0,0,0,23,53.06a3.45,3.45,0,0,0-1.92-.54,3.41,3.41,0,0,0-1.91.54,3.56,3.56,0,0,0-1.28,1.49,5.28,5.28,0,0,0,0,4.26,3.56,3.56,0,0,0,1.28,1.49,3.41,3.41,0,0,0,1.91.54A3.45,3.45,0,0,0,23,60.31a3.54,3.54,0,0,0,1.29-1.49,5.28,5.28,0,0,0,0-4.26Z"/><path d="M31.72,54.6v8.06H29.16v-12h2.63l5.56,7.78V50.66h2.56v12H37.44Z"/><path d="M45.05,52.71H41.54V50.66h9.58v2.05H47.63v10H45.05Z"/><path d="M61,57.43H55.31v5.24H52.76v-12h2.56v4.72H61V50.66h2.57v12H61Z"/><line class="cls-2" x1="73.53" x2="73.53" y2="68"/><path d="M96.38,11.59,92.43,21.67h-1.3L87.18,11.59V21.67h-3v-14h4.18l3.4,8.74,3.4-8.74h4.2v14h-3Z"/><path d="M102.43,11A6.77,6.77,0,0,1,105,8.37a8,8,0,0,1,7.52,0A6.77,6.77,0,0,1,115.17,11a7.37,7.37,0,0,1,.95,3.73,7.38,7.38,0,0,1-.95,3.73A6.76,6.76,0,0,1,112.56,21,8,8,0,0,1,105,21a6.76,6.76,0,0,1-2.61-2.59,7.38,7.38,0,0,1-.95-3.73A7.37,7.37,0,0,1,102.43,11Zm10.1,1.25a4.12,4.12,0,0,0-1.5-1.74,4,4,0,0,0-2.24-.63,4,4,0,0,0-2.23.63,4.15,4.15,0,0,0-1.49,1.74,5.74,5.74,0,0,0-.53,2.49,5.74,5.74,0,0,0,.53,2.49,4.14,4.14,0,0,0,1.49,1.74,4,4,0,0,0,2.23.63,4,4,0,0,0,2.24-.63,4.12,4.12,0,0,0,1.5-1.74,5.74,5.74,0,0,0,.53-2.49A5.74,5.74,0,0,0,112.53,12.2Z"/><path d="M121.2,12.26v9.41h-3v-14h3.07l6.49,9.07V7.66h3v14h-2.88Z"/><path d="M133.53,7.66h9.91v2.39h-6.93v3.21h6.78v2.39h-6.78v3.61h6.93v2.39h-9.91Z"/><path d="M149.68,15.93l-5.4-8.27h3.4l3.49,5.63,3.44-5.63H158l-5.35,8.27v5.73h-3Z"/><path d="M84.2,27.66h7.37a4.6,4.6,0,0,1,2.19.49,3.38,3.38,0,0,1,1.38,1.29,3.46,3.46,0,0,1,.46,1.76,3.25,3.25,0,0,1-.69,2.12,2.91,2.91,0,0,1-1.72,1.06,2.92,2.92,0,0,1,1.91,1.17,3.65,3.65,0,0,1,.78,2.31,3.72,3.72,0,0,1-1.07,2.73,4,4,0,0,1-3,1.08H84.2Zm6.72,5.63a1.53,1.53,0,0,0,1.64-1.63,1.56,1.56,0,0,0-1.64-1.61H87.18v3.23Zm.1,6a1.77,1.77,0,0,0,1.32-.49,2,2,0,0,0,0-2.58A1.73,1.73,0,0,0,91,35.68H87.18v3.59Z"/><path d="M107,39.25h-6.26l-.88,2.42H96.63l5.42-14h3.74l5.4,14h-3.26Zm-5.53-2.39h4.71l-2.31-6.43Z"/><path d="M114.73,41a6.8,6.8,0,0,1-2.66-2.58,7.74,7.74,0,0,1,0-7.53,6.8,6.8,0,0,1,2.66-2.58,7.65,7.65,0,0,1,3.72-.92,7,7,0,0,1,3.65.87,6.57,6.57,0,0,1,2.31,2.31l-2.56,1.26a3.81,3.81,0,0,0-1.38-1.46,3.72,3.72,0,0,0-2-.58,4,4,0,0,0-2.18.63,4.32,4.32,0,0,0-1.54,1.74,5.83,5.83,0,0,0,0,5,4.31,4.31,0,0,0,1.54,1.74,4,4,0,0,0,2.18.63,3.79,3.79,0,0,0,3.4-2l2.56,1.24a6.57,6.57,0,0,1-6,3.19A7.65,7.65,0,0,1,114.73,41Z"/><path d="M130.27,36.06l-1.09,1.3v4.3h-3v-14h3v6.26l5-6.26h3.67l-5.56,6.57,5.94,7.43h-3.67Z"/><path d="M84.51,50.8a6.66,6.66,0,0,1,2.65-2.5,7.83,7.83,0,0,1,3.69-.88,7.24,7.24,0,0,1,3.41.75,6.25,6.25,0,0,1,2.28,2l-2.44,1.32a4,4,0,0,0-1.37-1.25,3.77,3.77,0,0,0-1.89-.48,4.05,4.05,0,0,0-2.22.62,4.3,4.3,0,0,0-1.54,1.71,5.64,5.64,0,0,0,0,4.89,4.3,4.3,0,0,0,1.54,1.71,4.2,4.2,0,0,0,3.9.26,4.23,4.23,0,0,0,1.29-.86V56.18H90.15V53.83h6.56v5.26a8,8,0,0,1-9.55,1.71,6.71,6.71,0,0,1-2.65-2.52,7.63,7.63,0,0,1,0-7.48Z"/><path d="M99,47.66h3V56a3.46,3.46,0,0,0,.82,2.42,3.05,3.05,0,0,0,2.38.9,3,3,0,0,0,2.34-.9,3.46,3.46,0,0,0,.81-2.42V47.66h3v8.27a5.7,5.7,0,0,1-1.55,4.22,6.21,6.21,0,0,1-4.58,1.55,6.27,6.27,0,0,1-4.61-1.55A5.65,5.65,0,0,1,99,55.94Z"/><path d="M122.16,59H116l-.87,2.37h-3.22l5.32-13.76h3.67l5.3,13.76H123Zm-5.43-2.35h4.63l-2.27-6.31Z"/><path d="M132.58,56.49h-2.15v4.93H127.5V47.66h6.44a5.1,5.1,0,0,1,2.46.57A3.91,3.91,0,0,1,138,49.8a4.66,4.66,0,0,1,.56,2.29,4.14,4.14,0,0,1-.88,2.74,3.85,3.85,0,0,1-2.14,1.34l3.1,5.24h-3.36Zm2.4-5.91a2,2,0,0,0-1.48-.57h-3.07v4.13h3.07a2,2,0,0,0,1.48-.57,2.19,2.19,0,0,0,0-3Z"/><path d="M149.54,59h-6.15l-.87,2.37H139.3l5.32-13.76h3.67l5.3,13.76h-3.2Zm-5.43-2.35h4.63l-2.27-6.31Z"/><path d="M157.81,52.17v9.24h-2.93V47.66h3l6.38,8.91V47.66h2.93V61.42h-2.83Z"/><path d="M173.1,50h-4V47.66h11V50h-4V61.42h-3Z"/><path d="M181.94,47.66h9.74V50h-6.81v3.16h6.67v2.35h-6.67v3.55h6.81v2.35h-9.74Z"/><path d="M194,47.66h9.74V50H196.9v3.16h6.67v2.35H196.9v3.55h6.81v2.35H194Z"/></g></g></svg>