<?xml version="1.0" encoding="utf-8"?>
<!-- Generator: Adobe Illustrator 23.0.1, SVG Export Plug-In . SVG Version: 6.00 Build 0)  -->
<svg version="1.1" id="Layer_1" xmlns="http://www.w3.org/2000/svg" xmlns:xlink="http://www.w3.org/1999/xlink" x="0px" y="0px"
	 viewBox="0 0 2584 1024" style="enable-background:new 0 0 2584 1024;" xml:space="preserve">
<style type="text/css">
	.st0{fill:#FFFFFF;}
	.st1{opacity:0.65;fill:#FFFFFF;enable-background:new    ;}
</style>
<title></title>
<g id="icomoon-ignore">
</g>
<path class="st0" d="M2276.5,857.6l18.4,50.6l49.6-17.5l-27.6,46l45,28.5l-52.4,6.4l4.6,52.4l-37.7-36.8l-37.6,36.8l4.6-52.4
	l-52.4-6.4l45-28.5l-27.5-46l49.6,17.5L2276.5,857.6z"/>
<path class="st0" d="M2498,250.1l17.5,49.6l50.6-16.5l-27.6,45l45.1,28.5l-53.3,7.4l5.5,52.4l-37.7-36.7l-38.6,36.7l5.5-52.4
	l-52.4-7.4l44.1-28.5l-27.6-45l50.6,16.5L2498,250.1z"/>
<path class="st0" d="M2223.1,0l18.4,49.6l50.5-17.5l-27.5,46l44.1,28.5l-52.4,6.4l5.6,53.3l-38.7-37.7l-37.6,37.7l5.5-53.3
	l-53.3-6.4l45-28.5l-27.5-46l50.6,17.5L2223.1,0z"/>
<path class="st0" d="M1916.1,233.5l17.5,49.6l50.5-16.5l-27.5,45l44.1,28.5l-52.4,7.4l5.5,52.4l-37.6-36.7l-38.7,36.7l5.6-52.4
	l-52.4-7.4l44.1-28.5l-27.5-45l50.5,16.5L1916.1,233.5z"/>
<path class="st0" d="M2350.9,499.1l12.9,37.7l39.5,0.9l-31.3,23.9l11.1,37.6l-32.2-22l-33.1,22l11.9-37.6l-32.2-23.9l39.5-0.9
	L2350.9,499.1z"/>
<path class="st0" d="M1228.5,885.2c0,37.5-30.4,68-68,68s-68-30.4-68-68s30.4-68,68-68S1228.5,847.7,1228.5,885.2z"/>
<path class="st0" d="M1427.1,559.8c62.5,0,104.8,29.4,127.7,61.6v-55.1h98.3v387h-98.3v-57c-23,33.1-67.1,62.5-128.7,62.5
	c-97.5,0-176.5-80-176.5-201.3C1250.6,637,1328.8,559.8,1427.1,559.8L1427.1,559.8z M1452.9,645.3c-52.4,0-102,39.5-102,112.1
	s49.6,114.9,102,114.9c54.3,0,103-40.5,103-114C1554.9,685.7,1506.1,645.3,1452.9,645.3z"/>
<path class="st0" d="M2062.3,953.3H1964v-48.7c-24.9,33.1-67.1,54.3-114.9,54.3c-90.1,0-155.3-58.8-155.3-164.5V566.2h97.5v213.3
	c0,62.5,34,95.6,85.5,95.6c53.3,0,86.4-33.1,86.4-95.6V566.2h98.3v387L2062.3,953.3L2062.3,953.3z"/>
<path class="st1" d="M98.6,565.6v58.1C123.3,581.3,163.4,560,219,560c44.3,0,80.5,14.6,108.4,43.7c28,29.2,42,69.6,42,121.4v228.1
	h-98V739.1c0-30.3-7.7-53.5-23.1-69.6s-36.4-24.1-63-24.1s-47.7,8-63.3,24.1s-23.4,39.3-23.4,69.6v214.1H0V565.6L98.6,565.6
	L98.6,565.6z"/>
<path class="st1" d="M606.5,958.8c-56.4,0-102.4-18.3-137.9-54.9s-53.2-85-53.2-145.2s17.8-108.3,53.5-144.5
	c35.7-36.1,81.9-54.2,138.5-54.2s103.2,17.6,139.6,52.8c36.4,35.3,54.5,82.2,54.5,141c0,13.5-0.9,26.2-2.8,37.8H516.3
	c2.3,25.2,11.6,45.4,28,60.9c16.3,15.4,37.1,23.1,62.3,23.1c34,0,59.2-14,75.6-42h106.4c-11.2,36.8-32.9,66.9-65.1,90.2
	C691.2,947.1,652.3,958.8,606.5,958.8L606.5,958.8z M671.3,666.3c-17.5-15.4-38.6-23.1-63.3-23.1s-45.4,7.7-61.9,23.1
	c-16.5,15.4-26.4,35.9-29.8,61.6h183.3C698.2,702.2,688.8,681.7,671.3,666.3z"/>
<path class="st1" d="M1001.8,870.6h46.9v82.6h-62.3c-39.7,0-70.2-9.1-91.6-27.3c-21.5-18.2-32.2-48.3-32.2-90.2V646h-41.3v-80.4
	h41.3v-95.9h98.6v95.9h86.8V646h-86.8v189.6c0,12.6,3,21.6,9.1,26.9C976.4,867.9,986.9,870.6,1001.8,870.6L1001.8,870.6z"/>
</svg>
