<svg version="1.1" id="Layer_1" xmlns="http://www.w3.org/2000/svg" x="0" y="0" viewBox="0 0 182.9 127.3" xml:space="preserve"><style>.st92{fill:#dac6a8}.st93{fill:#edb326}</style><path class="st92" d="M160.8 33.7l-60-.2L114 16.9l-14.1-2.7-5.8-13.1-25.6 32.3 10.1 28.1v.1l92.4.3zM151.4 114.2l5.8 13.1 25.6-32.2.1-.1-10.2-28.1-92.3-.4 10.1 28.2 60 .2-13.2 16.7z"/><path d="M89.7 0L64.1 32.3l32.3.1 13.2-16.6-14.1-2.7z"/><path class="st93" d="M64.1 32.3l32.3.1 60 .2 10.1 28.2-92.3-.3v-.1L64.1 32.3zM152.8 126.3L178.4 94l-32.3-.2-13.2 16.7 14.1 2.6z"/><path d="M178.4 94l-32.3-.2-60-.2L76 65.4l92.3.4 10.1 28.1zM76.2 37.8h3.7L82 51.9l2.2-14.1h3.7l2.2 14.1h.1l2.1-14.1H96l-3.5 19h-4.3L86.1 43H86l-2.1 13.8h-4.3l-3.4-19zM107.6 37.8v3.1h-6.8v4.5h6.4v3.1h-6.4v5.1h7.1v3.1H97v-19h10.6zM118.9 37.8h4.7l5 19h-4l-.9-4h-5.1l-.9 4h-4l5.2-19zm.5 11.8h3.7l-1.8-8.6h-.1l-1.8 8.6zM129.4 37.8h7.1c3.1 0 5.1 1.7 5.1 4.9 0 2.5-1 4.2-3.2 4.7v.1c2.6.3 3 1.8 3.1 5.8 0 2 .1 3 .9 3.4v.2h-4.2c-.4-.5-.5-1.3-.5-2l-.1-3.7c-.1-1.5-.7-2.4-2.3-2.4h-2.1v8h-3.8v-19zm3.9 8.3h1.6c1.8 0 2.9-.8 2.9-2.9 0-1.8-.9-2.6-2.7-2.6h-1.8v5.5zM154.3 37.8v3.1h-6.8v4.5h6.4v3.1h-6.4v5.1h7.1v3.1h-10.9v-19h10.6z"/><g><path class="st92" d="M91 68.4h4.4v8.4h5.1v-8.4h4.4v21.9h-4.4v-9.7h-5.1v9.7H91V68.4zM120.3 68.4V72h-7.8v5.1h7.4v3.6h-7.4v5.9h8.1v3.6H108V68.4h12.3zM122.8 68.4h8.2c3.6 0 5.8 1.9 5.8 5.6 0 2.9-1.2 4.9-3.6 5.4v.1c3 .4 3.5 2.1 3.5 6.7 0 2.3.2 3.5 1 3.9v.2h-4.8c-.4-.6-.5-1.4-.6-2.3l-.1-4.2c-.1-1.7-.8-2.8-2.6-2.8h-2.4v9.3h-4.4V68.4zm4.4 9.6h1.8c2.1 0 3.3-.9 3.3-3.3 0-2-1.1-3-3.1-3h-2.1V78zM152 68.4V72h-7.8v5.1h7.4v3.6h-7.4v5.9h8.1v3.6h-12.5V68.4H152zM156 84.2l-.6-8.7v-7.1h4.2v7.1l-.6 8.7h-3zm3.7 2.1v4h-4.2v-4h4.2z"/></g><g><path d="M.5 68.2V45.3h4.6v19.1h8.2v3.8H.5zM19 60.3v1.4c0 2 .5 4 2.2 4 1.5 0 2.1-1.1 2.3-3.2h4c-.2 4-2.1 6.3-6.3 6.3-6.4 0-6.7-4.9-6.7-9.2 0-4.6.9-8.9 6.9-8.9 5.2 0 6.3 3.5 6.3 8.8v1H19zm4.5-2.7c-.1-2.6-.4-4.1-2.2-4.1-1.8 0-2.3 1.8-2.3 3.4v.7h4.5zM31 46h4.4v5H38v3h-2.6v9.3c0 1.3.3 1.9 1.6 1.9.4 0 .7 0 1-.1v3.1c-1 .1-1.9.2-2.9.2-3.5 0-4.1-1.1-4.1-4.6V54h-2.2v-3H31v-5zM44.4 49.5c0 3.4-.8 5.8-4.2 6.1v-2.2c1.1-.2 1.7-1.3 1.7-2.5v-.5h-1.7v-5h4.2v4.1zM50 62.6v.6c0 1.5.8 2.5 2.3 2.5 1.3 0 2.2-.7 2.2-2.1 0-1.1-.7-1.6-1.6-2l-3.1-1.1c-2.4-.9-3.7-2.4-3.7-4.8 0-2.9 1.8-5.2 6.4-5.2 4 0 5.9 1.8 5.9 4.9v.7h-4c0-1.7-.5-2.6-2-2.6-1.1 0-2.1.6-2.1 1.9 0 .8.4 1.5 1.9 2l2.7.9c2.8.9 3.8 2.3 3.8 4.9 0 3.6-2.7 5.4-6.4 5.4-5 0-6.4-2.2-6.4-5.5v-.6H50zM10.3 78.2c0-3.3-.7-4.8-2.8-4.8-2.3 0-2.9 2.3-2.9 8.8 0 6.9 1 8.2 3 8.2 1.7 0 2.9-.9 2.9-5.8h4.6c0 4.9-1.2 9.2-7.3 9.2C.9 93.8 0 88.9 0 81.9S.9 70 7.8 70c6.6 0 7.1 4.8 7.1 8.2h-4.6zM17.7 70.5h4.6v8.8h5.4v-8.8h4.6v22.9h-4.6V83.2h-5.4v10.2h-4.6V70.5zM40 70.5h5.7l6.1 22.9H47l-1.1-4.8h-6.1l-1.1 4.8H34l6-22.9zm.6 14.2h4.5l-2.2-10.3h-.1l-2.2 10.3zM65.1 70.5v3.8h-5v19.1h-4.6V74.2h-5v-3.8h14.6zM68.6 87l-.6-9.1v-7.4h4.4v7.4l-.6 9.1h-3.2zm3.8 2.1v4.2H68v-4.2h4.4z"/></g></svg>