<?xml version="1.0" encoding="UTF-8"?>
<svg width="40px" height="40px" viewBox="0 0 40 40" version="1.1" xmlns="http://www.w3.org/2000/svg" xmlns:xlink="http://www.w3.org/1999/xlink">
    <!-- Generator: Sketch 54.1 (76490) - https://sketchapp.com -->
    <title>Linkedin</title>
    <desc>Created with Sketch.</desc>
    <defs>
        <linearGradient x1="100%" y1="100%" x2="0%" y2="0%" id="linearGradient-1">
            <stop stop-color="#66BDFC" offset="0%"></stop>
            <stop stop-color="#358DCC" offset="100%"></stop>
        </linearGradient>
        <path d="M12.2499851,32 L6.43749896,32 L6.43749896,13.3125446 L12.2499851,13.3125446 L12.2499851,32 Z M9.37499195,10.7500507 C8.45832715,10.7500507 7.66666301,10.4167184 6.99999762,9.75005305 C6.33333222,9.08338765 6,8.29172351 6,7.37505871 C6,6.45839391 6.33333222,5.66672977 7,5.00006676 C7.66666301,4.33339898 8.45832715,4.00006676 9.37499195,4.00006676 C10.2916568,4.00006676 11.0833209,4.33339898 11.7499863,5.00006437 C12.4166517,5.66672977 12.7499839,6.45839391 12.7499839,7.37505871 C12.7499839,8.29172351 12.4166517,9.08338765 11.7499863,9.75005305 C11.0833209,10.4167184 10.2916568,10.7500507 9.37499195,10.7500507 Z M33.9999332,32 L28.1874471,32 L28.1874471,22.8750218 C28.1874471,21.3750253 28.0624474,20.2916949 27.812448,19.6250295 C27.3541161,18.5000322 26.4582842,17.9375335 25.1249544,17.9375335 C23.7916246,17.9375335 22.8541268,18.4375323 22.3124611,19.43753 C21.8957951,20.1875282 21.6874626,21.2916925 21.6874626,22.7500221 L21.6874626,32 L15.9374763,32 L15.9374763,13.3125457 L21.499963,13.3125446 L21.499963,15.8750384 L21.5624629,15.8750384 C21.9791289,15.0417074 22.6457933,14.3542091 23.5624581,13.8125434 C24.5624557,13.145878 25.7291199,12.8125457 27.0624498,12.8125457 C29.7707763,12.8125457 31.6666058,13.6667107 32.7499362,15.3750396 C33.5832673,16.7500364 33.9999332,18.8750313 33.9999332,21.7500244 L33.9999332,32 Z" id="path-2"></path>
        <filter x="-1.8%" y="-1.8%" width="103.6%" height="103.6%" filterUnits="objectBoundingBox" id="filter-3">
            <feOffset dx="0" dy="-1" in="SourceAlpha" result="shadowOffsetInner1"></feOffset>
            <feComposite in="shadowOffsetInner1" in2="SourceAlpha" operator="arithmetic" k2="-1" k3="1" result="shadowInnerInner1"></feComposite>
            <feColorMatrix values="0 0 0 0 0   0 0 0 0 0   0 0 0 0 0  0 0 0 0.1 0" type="matrix" in="shadowInnerInner1"></feColorMatrix>
        </filter>
    </defs>
    <g id="Linkedin" stroke="none" stroke-width="1" fill="none" fill-rule="evenodd">
        <g id="l" fill-rule="nonzero">
            <use fill="#FFFFFF" xlink:href="#path-2"></use>
            <use fill="url(#linearGradient-1)" xlink:href="#path-2"></use>
            <use fill="black" fill-opacity="1" filter="url(#filter-3)" xlink:href="#path-2"></use>
        </g>
    </g>
</svg>