<?xml version="1.0" encoding="utf-8"?>
<!-- Generator: Adobe Illustrator 16.0.0, SVG Export Plug-In . SVG Version: 6.00 Build 0)  -->
<!DOCTYPE svg PUBLIC "-//W3C//DTD SVG 1.1//EN" "http://www.w3.org/Graphics/SVG/1.1/DTD/svg11.dtd">
<svg version="1.1" id="PO8__x2B__Coin_Design_xA0_Image_1_"
	 xmlns="http://www.w3.org/2000/svg" xmlns:xlink="http://www.w3.org/1999/xlink" x="0px" y="0px" width="115px" height="43px"
	 viewBox="0 0 115 43" enable-background="new 0 0 115 43" xml:space="preserve">
<path fill-rule="evenodd" clip-rule="evenodd" fill="#132a52" d="M21.245,33.56c-0.025-0.105-0.05-0.212-0.076-0.325
	c-0.423-0.055-0.856-0.111-1.291-0.168c-0.006,0.006-0.018,0.012-0.021,0.021c-0.1,0.344-0.136,0.271-0.387,0.205
	c-0.407-0.108-0.814-0.217-1.221-0.328c-0.276-0.075-0.32-0.029-0.241-0.393c-0.404-0.168-0.812-0.337-1.218-0.506
	c-0.01,0.006-0.023,0.01-0.028,0.018c-0.161,0.245-0.161,0.246-0.414,0.1c-0.37-0.213-0.74-0.426-1.11-0.641
	c-0.271-0.156-0.271-0.157-0.118-0.436c-0.349-0.269-0.7-0.538-1.055-0.811c-0.003,0.001-0.017,0-0.023,0.006
	c-0.224,0.205-0.224,0.205-0.437-0.007c-0.295-0.294-0.588-0.59-0.884-0.882c-0.278-0.277-0.226-0.234-0.021-0.478
	c-0.27-0.349-0.539-0.698-0.808-1.048c-0.3,0.123-0.3,0.123-0.474-0.177c-0.197-0.34-0.394-0.68-0.591-1.021
	c-0.162-0.28-0.162-0.28,0.095-0.475c-0.169-0.406-0.338-0.812-0.507-1.219c-0.317,0.051-0.317,0.051-0.402-0.264
	c-0.112-0.418-0.224-0.836-0.336-1.254c-0.064-0.238-0.061-0.244,0.178-0.315c0.021-0.007,0.041-0.017,0.061-0.024
	c-0.058-0.438-0.114-0.87-0.171-1.303c-0.01-0.006-0.019-0.015-0.028-0.016c-0.286-0.02-0.286-0.02-0.286-0.316
	c0-0.456,0.004-0.911-0.002-1.367c-0.002-0.152,0.038-0.24,0.207-0.223c0.079,0.009,0.12-0.014,0.13-0.107
	c0.042-0.402,0.093-0.803,0.142-1.215c0.002,0.002-0.003-0.011-0.012-0.014c-0.274-0.105-0.274-0.105-0.198-0.391
	c0.105-0.396,0.21-0.793,0.317-1.189c0.083-0.311,0.083-0.311,0.396-0.277c0.167-0.401,0.333-0.805,0.502-1.211
	c-0.002-0.005-0.004-0.02-0.012-0.023c-0.246-0.146-0.252-0.15-0.098-0.414c0.211-0.358,0.414-0.721,0.625-1.079
	c0.167-0.283,0.12-0.319,0.452-0.159c0.27-0.351,0.539-0.701,0.809-1.053c-0.226-0.249-0.224-0.223,0.028-0.475
	c0.291-0.289,0.581-0.58,0.871-0.87c0.22-0.221,0.22-0.221,0.457-0.013c0.349-0.269,0.699-0.537,1.051-0.809
	c0-0.007,0.004-0.02,0-0.028c-0.143-0.255-0.143-0.255,0.103-0.396c0.395-0.228,0.788-0.455,1.183-0.683
	c0.204-0.117,0.215-0.114,0.34,0.088c0.012,0.019,0.026,0.035,0.04,0.054c0.413-0.171,0.82-0.34,1.234-0.512
	c-0.004-0.021-0.008-0.043-0.013-0.063c-0.058-0.231-0.053-0.241,0.175-0.303c0.429-0.116,0.857-0.23,1.286-0.346
	c0.298-0.081,0.298-0.081,0.406,0.217c0.435-0.058,0.872-0.115,1.307-0.172c0.043-0.326,0.043-0.326,0.375-0.326
	c0.428,0,0.855,0,1.283,0c0.249,0.001,0.25,0.002,0.259,0.254c0,0.022,0.005,0.043,0.008,0.068c0.438,0.058,0.871,0.113,1.308,0.171
	c0.004-0.003,0.018-0.009,0.021-0.018c0.1-0.288,0.1-0.288,0.397-0.21c0.402,0.107,0.803,0.215,1.205,0.322
	c0.314,0.084,0.314,0.084,0.243,0.398c0.406,0.168,0.813,0.337,1.222,0.506c0.009-0.006,0.022-0.009,0.027-0.018
	c0.162-0.251,0.162-0.251,0.425-0.1c0.36,0.208,0.721,0.414,1.081,0.623c0.285,0.164,0.284,0.164,0.139,0.457
	c0.35,0.268,0.701,0.537,1.052,0.807c0.298-0.26,0.253-0.208,0.5,0.033c0.306,0.299,0.605,0.604,0.908,0.906
	c0.174,0.175,0.174,0.178,0,0.361c-0.015,0.017-0.028,0.034-0.046,0.055c0.271,0.353,0.541,0.702,0.81,1.052
	c0.346-0.169,0.29-0.149,0.476,0.165c0.214,0.362,0.422,0.729,0.632,1.094c0.132,0.229,0.131,0.23-0.089,0.363
	c-0.019,0.012-0.037,0.025-0.055,0.038c0.172,0.411,0.342,0.817,0.515,1.231c0.037-0.008,0.076-0.01,0.111-0.023
	c0.153-0.061,0.225-0.002,0.264,0.152c0.117,0.462,0.245,0.922,0.369,1.383c0.062,0.234,0.058,0.244-0.182,0.315
	c-0.021,0.007-0.041,0.014-0.066,0.022c0.058,0.442,0.116,0.881,0.173,1.321c0.007,0.004,0.015,0.015,0.025,0.015
	c0.301,0.023,0.301,0.023,0.301,0.322c0,0.443,0,0.888,0,1.332c0,0.246-0.004,0.25-0.255,0.261
	c-0.021,0.001-0.043,0.005-0.068,0.009c-0.057,0.437-0.114,0.869-0.171,1.303c0.007,0.007,0.014,0.018,0.023,0.021
	c0.281,0.095,0.282,0.095,0.205,0.386c-0.109,0.407-0.219,0.813-0.328,1.221c-0.081,0.301-0.082,0.301-0.394,0.238
	c-0.168,0.403-0.337,0.809-0.509,1.22c0.002,0.003,0.004,0.017,0.012,0.022c0.255,0.164,0.255,0.164,0.104,0.424
	c-0.208,0.359-0.416,0.719-0.624,1.079c-0.165,0.285-0.165,0.285-0.457,0.146c-0.269,0.349-0.538,0.699-0.807,1.049
	c0.204,0.254,0.204,0.254-0.03,0.488c-0.286,0.287-0.573,0.572-0.859,0.859c-0.227,0.227-0.227,0.227-0.469,0.014
	c-0.348,0.268-0.699,0.535-1.048,0.805c0,0.009-0.004,0.021,0,0.03c0.141,0.262,0.141,0.261-0.112,0.407
	c-0.385,0.222-0.769,0.443-1.154,0.665c-0.228,0.131-0.228,0.131-0.365-0.087c-0.012-0.018-0.026-0.034-0.038-0.049
	c-0.408,0.17-0.812,0.337-1.217,0.506c-0.002,0.007-0.01,0.019-0.008,0.027c0.06,0.289,0.06,0.289-0.237,0.369
	c-0.401,0.107-0.801,0.222-1.205,0.322c-0.276,0.068-0.297,0.158-0.418-0.219c-0.43,0.057-0.862,0.113-1.283,0.168
	c-0.033,0.112-0.065,0.221-0.098,0.329C22.437,33.56,21.841,33.56,21.245,33.56z M33.2,15.562c-0.285,0.126-0.263,0.178-0.442-0.133
	c-0.207-0.36-0.415-0.721-0.622-1.08c-0.152-0.265-0.152-0.265,0.094-0.463c-0.259-0.334-0.518-0.67-0.776-1.004
	c-0.124,0.073-0.194,0.249-0.344,0.1c-0.375-0.373-0.748-0.748-1.123-1.121c-0.081-0.08-0.076-0.154,0.005-0.23
	c0.032-0.029,0.059-0.062,0.101-0.109c-0.346-0.265-0.684-0.522-1.02-0.779c-0.097,0.102-0.122,0.291-0.304,0.188
	c-0.464-0.263-0.927-0.528-1.385-0.804c-0.042-0.026-0.052-0.128-0.054-0.194c-0.001-0.043,0.041-0.087,0.075-0.152
	c-0.403-0.166-0.793-0.327-1.184-0.487c-0.122,0.297-0.121,0.296-0.41,0.219c-0.396-0.106-0.792-0.212-1.189-0.317
	c-0.303-0.081-0.303-0.08-0.28-0.404c-0.418-0.053-0.837-0.105-1.258-0.158c-0.03,0.147,0.034,0.317-0.175,0.318
	c-0.528,0.001-1.057,0.001-1.585,0c-0.102,0-0.156-0.052-0.154-0.157c0-0.044-0.004-0.087-0.008-0.163
	c-0.432,0.058-0.849,0.113-1.268,0.168c0.051,0.325,0.051,0.325-0.254,0.406c-0.385,0.104-0.771,0.207-1.155,0.312
	c-0.321,0.087-0.321,0.087-0.469-0.215c-0.389,0.162-0.779,0.325-1.171,0.488c0.138,0.3,0.137,0.3-0.131,0.454
	c-0.365,0.211-0.729,0.422-1.095,0.633c-0.252,0.146-0.252,0.145-0.419-0.087c-0.005-0.007-0.019-0.008-0.049-0.019
	c-0.323,0.25-0.655,0.506-0.987,0.762c0.203,0.261,0.203,0.261-0.021,0.484c-0.314,0.313-0.628,0.628-0.943,0.941
	c-0.151,0.151-0.171,0.15-0.327,0.002c-0.019-0.018-0.04-0.034-0.075-0.064c-0.267,0.348-0.524,0.684-0.784,1.021
	c0.287,0.191,0.289,0.164,0.121,0.453c-0.203,0.35-0.405,0.7-0.607,1.05c-0.168,0.291-0.168,0.291-0.479,0.172
	c-0.162,0.391-0.323,0.782-0.487,1.178c0.044,0.019,0.063,0.028,0.084,0.034c0.226,0.072,0.23,0.078,0.168,0.309
	c-0.123,0.461-0.25,0.921-0.369,1.383c-0.039,0.152-0.106,0.218-0.263,0.155c-0.029-0.012-0.064-0.009-0.118-0.016
	c-0.056,0.425-0.11,0.841-0.165,1.263c0.045,0.009,0.072,0.018,0.099,0.02c0.23,0.016,0.235,0.02,0.236,0.246
	c0,0.483-0.002,0.967,0.001,1.45c0.001,0.14-0.045,0.216-0.195,0.205c-0.038-0.003-0.076,0.006-0.139,0.011
	c0.057,0.43,0.112,0.848,0.167,1.268c0.32-0.061,0.321-0.061,0.396,0.222c0.119,0.445,0.23,0.892,0.358,1.335
	c0.046,0.157,0.005,0.235-0.151,0.266c-0.031,0.006-0.06,0.021-0.107,0.037c0.168,0.402,0.331,0.793,0.495,1.186
	c0.143-0.051,0.261-0.202,0.377,0.003c0.253,0.45,0.513,0.896,0.774,1.343c0.062,0.105,0.042,0.178-0.061,0.235
	c-0.039,0.021-0.075,0.047-0.13,0.082c0.265,0.343,0.524,0.679,0.791,1.022c0.055-0.051,0.087-0.104,0.129-0.113
	c0.065-0.017,0.167-0.033,0.203,0.001c0.385,0.37,0.76,0.751,1.138,1.129c0.075,0.074,0.067,0.147-0.005,0.22
	c-0.031,0.031-0.06,0.065-0.108,0.118c0.342,0.263,0.679,0.521,1.023,0.786c0.031-0.045,0.054-0.069,0.067-0.099
	c0.065-0.142,0.154-0.151,0.284-0.075c0.431,0.255,0.864,0.504,1.299,0.75c0.127,0.072,0.152,0.155,0.069,0.273
	c-0.019,0.026-0.033,0.055-0.062,0.105c0.405,0.168,0.797,0.331,1.2,0.498c0.023-0.072,0.025-0.138,0.06-0.174
	c0.042-0.047,0.119-0.107,0.165-0.096c0.523,0.131,1.043,0.272,1.563,0.414c0.097,0.026,0.137,0.092,0.1,0.193
	c-0.015,0.041-0.021,0.084-0.038,0.156c0.434,0.055,0.853,0.107,1.281,0.162c0.005-0.057,0.012-0.084,0.009-0.11
	c-0.015-0.167,0.071-0.213,0.224-0.212c0.495,0.006,0.99,0.004,1.485,0.002c0.13-0.001,0.206,0.043,0.198,0.186
	c-0.001,0.036,0.008,0.073,0.015,0.135c0.426-0.057,0.841-0.111,1.265-0.168c-0.016-0.07-0.021-0.113-0.036-0.154
	c-0.038-0.112,0.011-0.174,0.114-0.201c0.504-0.136,1.009-0.271,1.514-0.406c0.111-0.029,0.187,0.001,0.212,0.123
	c0.008,0.041,0.028,0.08,0.051,0.142c0.402-0.167,0.794-0.329,1.188-0.493c-0.149-0.289-0.149-0.288,0.118-0.442
	c0.375-0.216,0.75-0.433,1.125-0.648c0.24-0.138,0.24-0.138,0.39,0.092c0.005,0.007,0.019,0.009,0.05,0.024
	c0.327-0.252,0.662-0.511,0.998-0.77c-0.08-0.121-0.257-0.191-0.108-0.342c0.372-0.376,0.748-0.748,1.121-1.122
	c0.079-0.079,0.155-0.079,0.232,0.002c0.03,0.032,0.064,0.061,0.113,0.105c0.265-0.344,0.522-0.681,0.787-1.024
	c-0.061-0.038-0.098-0.062-0.135-0.085c-0.094-0.056-0.116-0.125-0.058-0.225c0.264-0.45,0.524-0.903,0.785-1.356
	c0.06-0.104,0.134-0.126,0.236-0.062c0.036,0.022,0.075,0.038,0.133,0.067c0.167-0.404,0.328-0.794,0.488-1.182
	c-0.125-0.073-0.316-0.047-0.263-0.25c0.133-0.511,0.271-1.021,0.409-1.53c0.028-0.103,0.091-0.15,0.202-0.114
	c0.041,0.014,0.084,0.02,0.153,0.035c0.056-0.434,0.109-0.854,0.162-1.272c-0.154-0.024-0.317,0.024-0.317-0.181
	c-0.001-0.523,0-1.046,0-1.569c0-0.11,0.052-0.166,0.163-0.171c0.043-0.001,0.086-0.005,0.158-0.01
	c-0.057-0.437-0.113-0.859-0.169-1.285c-0.313,0.059-0.313,0.059-0.388-0.22c-0.12-0.45-0.238-0.901-0.362-1.351
	c-0.038-0.137-0.011-0.219,0.135-0.248c0.031-0.006,0.061-0.022,0.116-0.043C33.527,16.344,33.364,15.953,33.2,15.562z"/>
<path fill-rule="evenodd" clip-rule="evenodd" fill="#132a52" d="M81.482,20.955c-0.009,1.924-0.335,3.736-1.196,5.424
	c-1.302,2.552-3.354,4.246-6.068,5.093c-3.439,1.073-6.752,0.731-9.828-1.194c-2.4-1.503-3.834-3.719-4.426-6.471
	c-0.475-2.203-0.435-4.409,0.256-6.564c1.16-3.617,3.657-5.869,7.283-6.859c2.744-0.749,5.447-0.53,8.027,0.682
	c2.988,1.402,4.84,3.757,5.619,6.959C81.386,19.001,81.475,19.996,81.482,20.955z M65.229,21.012
	c0.041,0.402,0.066,0.807,0.125,1.206c0.439,2.939,2.905,4.862,5.86,4.521c1.972-0.227,3.393-1.274,4.193-3.099
	c0.561-1.277,0.631-2.623,0.387-3.985c-0.215-1.196-0.734-2.241-1.652-3.056c-1.185-1.051-2.587-1.474-4.15-1.297
	c-1.886,0.215-3.286,1.168-4.138,2.879C65.412,19.07,65.259,20.025,65.229,21.012z"/>
<path fill-rule="evenodd" clip-rule="evenodd" fill="#132a52" d="M97.481,19.49c0.357,0.342,0.727,0.648,1.041,1.005
	c2.849,3.229,2.022,8.173-1.721,10.329c-1.099,0.634-2.292,0.967-3.548,1.091c-1.373,0.136-2.73,0.06-4.062-0.317
	c-1.801-0.51-3.278-1.484-4.288-3.092c-1.839-2.929-1.13-6.79,1.619-8.889c0.053-0.04,0.105-0.082,0.165-0.129
	c-0.1-0.123-0.198-0.237-0.29-0.355c-2.064-2.687-1.297-6.475,1.659-8.183c0.997-0.576,2.08-0.86,3.221-0.949
	c1.189-0.093,2.361-0.007,3.497,0.373c1.844,0.616,3.205,1.772,3.824,3.651c0.651,1.98,0.271,3.791-1.062,5.398
	C97.516,19.449,97.494,19.475,97.481,19.49z M92.062,22.102c-0.077,0.004-0.167,0.006-0.257,0.014
	c-1.081,0.093-1.889,0.598-2.271,1.631c-0.39,1.055-0.231,2.05,0.564,2.876c0.655,0.682,1.501,0.839,2.409,0.733
	c2.264-0.263,2.894-2.758,1.806-4.218C93.757,22.392,92.976,22.112,92.062,22.102z M92.131,14.227
	c-0.263,0.038-0.472,0.055-0.673,0.1c-0.783,0.18-1.327,0.799-1.361,1.539c-0.037,0.773,0.427,1.432,1.198,1.68
	c0.535,0.172,1.075,0.169,1.606-0.018c0.69-0.242,1.129-0.854,1.135-1.559c0.004-0.696-0.42-1.319-1.103-1.562
	C92.662,14.311,92.368,14.278,92.131,14.227z"/>
<path fill-rule="evenodd" clip-rule="evenodd" fill="#132a52" d="M45.34,26.168c0,1.821,0,3.619,0,5.426c-1.81,0-3.607,0-5.418,0
	c0-7.074,0-14.151,0-21.244c0.041-0.003,0.089-0.01,0.137-0.01c3.116,0,6.231-0.013,9.347,0.006
	c1.792,0.012,3.423,0.531,4.805,1.711c1.257,1.072,2.04,2.444,2.415,4.04c0.556,2.36,0.29,4.62-0.991,6.704
	c-1.156,1.881-2.875,2.944-5.05,3.265c-0.476,0.07-0.962,0.093-1.444,0.099c-1.198,0.014-2.396,0.004-3.594,0.004
	C45.486,26.168,45.425,26.168,45.34,26.168z M45.346,21.275c0.076,0,0.137,0,0.198,0c1.176,0,2.352-0.016,3.527,0.004
	c0.937,0.016,1.601-0.406,2.012-1.217c0.568-1.118,0.612-2.281,0.137-3.44c-0.385-0.938-1.093-1.435-2.135-1.426
	c-1.204,0.011-2.407,0.003-3.611,0.004c-0.042,0-0.084,0.009-0.127,0.013C45.346,17.234,45.346,19.242,45.346,21.275z"/>
<path fill-rule="evenodd" clip-rule="evenodd" fill="#132a52" d="M22.132,32.272c-6.304,0.001-11.42-5.113-11.421-11.416
	C10.71,14.545,15.83,9.429,22.142,9.434c6.302,0.005,11.418,5.125,11.416,11.425S28.437,32.271,22.132,32.272z M33.398,20.859
	c0.001-6.212-5.028-11.258-11.229-11.266c-6.246-0.008-11.293,5.015-11.301,11.245c-0.008,6.224,5.031,11.271,11.255,11.273
	C28.353,32.115,33.396,27.082,33.398,20.859z"/>
<path fill-rule="evenodd" clip-rule="evenodd" fill="#132a52" d="M11.355,21.744c-0.492-6.181,4.26-11.406,10.262-11.688
	c-0.005-0.145,0.087-0.158,0.208-0.154c0.225,0.006,0.45,0,0.675-0.004c0.106-0.002,0.206-0.003,0.164,0.16
	c2.515,0.155,4.723,1.031,6.604,2.686c1.875,1.651,3.029,3.721,3.506,6.185c0.167-0.015,0.178,0.101,0.19,0.231
	c0.02,0.201,0.054,0.401,0.087,0.602c0.019,0.114,0.031,0.219-0.139,0.225c0.177,2.759-0.525,5.256-2.213,7.444
	c-1.687,2.188-3.914,3.521-6.634,4.059c0.021,0.156-0.082,0.175-0.21,0.188c-0.212,0.021-0.423,0.055-0.634,0.09
	c-0.116,0.02-0.203,0.011-0.204-0.13c-0.501,0-0.99,0.018-1.478-0.003c-4.022-0.164-7.723-2.753-9.341-6.524
	c-0.302-0.704-0.527-1.433-0.673-2.186c-0.014-0.071-0.014-0.147-0.125-0.139c-0.022,0.001-0.066-0.069-0.073-0.11
	c-0.039-0.238-0.066-0.479-0.105-0.717C11.204,21.846,11.209,21.756,11.355,21.744z M11.661,22.773
	c0.002,0.029,0.001,0.047,0.004,0.062c0.415,2.121,1.361,3.969,2.894,5.494c2.288,2.275,5.058,3.313,8.281,3.143
	c0.049-0.003,0.137-0.014,0.139-0.029c0.019-0.166,0.156-0.121,0.247-0.138c0.199-0.037,0.4-0.064,0.602-0.081
	c0.074-0.006,0.151,0.028,0.227,0.045c-0.002,0.017-0.004,0.033-0.006,0.051c5.262-0.927,9.15-5.799,8.678-11.281
	c-0.054-0.053-0.109-0.11-0.121-0.176c-0.042-0.232-0.076-0.467-0.098-0.701c-0.007-0.073,0.034-0.15,0.053-0.227
	c0.021-0.001,0.043-0.002,0.065-0.004c-0.703-3.326-2.512-5.849-5.513-7.486c-1.326-0.724-2.755-1.115-4.264-1.211
	c-0.054-0.004-0.15-0.007-0.157,0.014c-0.053,0.157-0.181,0.1-0.282,0.105c-0.19,0.009-0.382,0.002-0.573,0.011
	c-0.115,0.005-0.213,0-0.228-0.167c-0.481,0.062-0.953,0.104-1.417,0.188c-4.083,0.751-7.366,3.827-8.388,7.853
	c-0.271,1.066-0.362,2.149-0.305,3.246c0.004,0.077,0.013,0.216,0.039,0.22c0.183,0.032,0.128,0.181,0.148,0.281
	c0.039,0.192,0.049,0.391,0.086,0.583C11.792,22.679,11.784,22.756,11.661,22.773z"/>
<path fill-rule="evenodd" clip-rule="evenodd" fill="#132a52" d="M11.977,20.436c-0.168,0.018-0.166-0.086-0.153-0.205
	c0.022-0.213,0.041-0.426,0.053-0.639c0.007-0.131,0.028-0.238,0.204-0.205c0.305-1.986,1.119-3.728,2.436-5.244
	c-0.173-0.123-0.121-0.221,0.006-0.336c0.229-0.208,0.449-0.427,0.663-0.65c0.112-0.116,0.208-0.177,0.322-0.002
	c2.448-2.021,5.237-2.781,8.378-2.317c0.032-0.144,0.13-0.146,0.26-0.111c0.201,0.054,0.404,0.098,0.609,0.135
	c0.127,0.022,0.218,0.059,0.167,0.219c1.451,0.419,2.742,1.113,3.893,2.103c0.119-0.191,0.213-0.091,0.316,0.016
	c0.215,0.223,0.433,0.442,0.657,0.656c0.107,0.102,0.182,0.19,0.041,0.291c0.311,0.433,0.637,0.842,0.917,1.281
	c1.101,1.73,1.622,3.628,1.581,5.68c-0.002,0.086-0.047,0.196,0.1,0.224c0.016,0.003,0.03,0.069,0.027,0.104
	c-0.02,0.27-0.039,0.539-0.072,0.807c-0.006,0.049-0.078,0.09-0.137,0.122c-0.164,0.948-0.434,1.871-0.84,2.754
	c-0.404,0.878-0.925,1.682-1.563,2.421c0.153,0.116,0.076,0.203-0.024,0.299c-0.231,0.223-0.455,0.452-0.682,0.679
	c-0.136,0.136-0.136,0.135-0.25,0.055c-0.576,0.388-1.12,0.801-1.706,1.14c-1.634,0.947-3.407,1.375-5.295,1.33
	c-0.08-0.002-0.186-0.049-0.211,0.095c-0.003,0.018-0.077,0.034-0.117,0.032c-0.263-0.02-0.527-0.037-0.789-0.071
	c-0.054-0.007-0.098-0.085-0.135-0.145c-1.937-0.317-3.659-1.114-5.162-2.404c-0.117,0.146-0.208,0.098-0.314-0.017
	c-0.223-0.238-0.456-0.467-0.691-0.692c-0.102-0.097-0.142-0.179,0.018-0.271C12.737,25.513,11.907,23.147,11.977,20.436z
	 M15.432,14.587c-0.137-0.129-0.272-0.259-0.408-0.388c-0.231,0.205-0.231,0.205-0.396,0.078c-0.005,0.001-0.012,0-0.015,0.004
	c-1.275,1.452-2.054,3.137-2.362,5.042c-0.004,0.024-0.004,0.071,0.007,0.075c0.129,0.053,0.078,0.16,0.072,0.247
	c-0.015,0.224-0.036,0.448-0.059,0.672c-0.004,0.041-0.021,0.11-0.043,0.114c-0.104,0.021-0.092,0.094-0.094,0.167
	c-0.046,2.512,0.725,4.739,2.317,6.683c0.042,0.051,0.086,0.1,0.129,0.149c0.17-0.13,0.17-0.13,0.437,0.038
	c0.076-0.087,0.165-0.175,0.237-0.274c0.121-0.166,0.286-0.171,0.466-0.154c0.054,0.005,0.127-0.01,0.163-0.044
	c0.296-0.285,0.586-0.576,0.877-0.865c0.023-0.023,0.069-0.061,0.063-0.074c-0.062-0.146,0.071-0.19,0.134-0.271
	c0.074-0.094,0.14-0.123,0.244-0.018c0.105,0.107,0.049,0.17-0.032,0.229c-0.136,0.101-0.29,0.18-0.415,0.292
	c-0.209,0.188-0.392,0.404-0.604,0.588c-0.19,0.164-0.308,0.343-0.258,0.602c0.001,0.008-0.01,0.019-0.015,0.029
	c-0.191-0.059-0.071-0.229-0.109-0.313c-0.121-0.031-0.226-0.06-0.291-0.075c-0.13,0.147-0.262,0.299-0.383,0.438
	c0.096,0.098,0.194,0.195,0.285,0.287c0.182-0.051,0.213-0.355,0.523-0.279c-0.162,0.147-0.297,0.271-0.432,0.395
	c0.268,0.286,0.268,0.286,0.116,0.482c1.465,1.257,3.148,2.034,5.08,2.339c-0.007-0.161,0.1-0.135,0.198-0.127
	c0.224,0.02,0.448,0.042,0.672,0.056c0.109,0.008,0.2,0.023,0.188,0.176c2.661,0.07,4.992-0.743,7.013-2.459
	c-0.165-0.184-0.165-0.184,0.047-0.463c-0.147-0.141-0.295-0.282-0.444-0.424h0c0.115-0.039,0.209-0.025,0.288,0.083
	c0.071,0.097,0.161,0.181,0.226,0.252c0.125-0.116,0.223-0.206,0.312-0.288c-0.046-0.195-0.356-0.23-0.264-0.512
	c0.124,0.136,0.248,0.272,0.371,0.407c0.259-0.214,0.259-0.214,0.462-0.062c1.258-1.47,2.034-3.159,2.302-5.067
	c-0.052-0.065-0.099-0.136-0.097-0.203c0.008-0.23,0.039-0.46,0.052-0.689c0.006-0.114,0.034-0.196,0.177-0.189
	c0.064-2.653-0.754-4.977-2.468-6.989c-0.181,0.145-0.181,0.145-0.455-0.063c-0.067,0.072-0.142,0.141-0.204,0.221
	c-0.139,0.179-0.309,0.264-0.54,0.227c-0.043-0.007-0.105,0.028-0.141,0.062c-0.291,0.282-0.577,0.568-0.863,0.854
	c-0.028,0.028-0.062,0.073-0.058,0.105c0.021,0.179-0.141,0.226-0.236,0.308c-0.023,0.021-0.151-0.081-0.25-0.137
	c0.065-0.071,0.098-0.119,0.141-0.15c0.146-0.107,0.309-0.196,0.441-0.317c0.261-0.239,0.505-0.496,0.757-0.745
	c0.045-0.045,0.069-0.074,0.049-0.158c-0.025-0.107,0.022-0.231,0.038-0.348c0.038,0.126,0.077,0.253,0.111,0.368
	c0.1,0.028,0.202,0.059,0.291,0.085c0.028-0.216,0.271-0.291,0.369-0.464c-0.1-0.098-0.198-0.194-0.314-0.308
	c-0.082,0.087-0.178,0.18-0.263,0.282c-0.06,0.073-0.119,0.087-0.196,0.038c0.127-0.143,0.255-0.285,0.382-0.427
	c-0.219-0.233-0.219-0.233-0.083-0.429c-0.002-0.005-0.004-0.011-0.008-0.015c-1.083-0.938-2.317-1.598-3.687-2.007
	c-0.035-0.011-0.079,0.008-0.119,0.018c-0.048,0.011-0.099,0.045-0.143,0.037c-0.253-0.05-0.506-0.107-0.757-0.166
	c-0.04-0.01-0.106-0.042-0.105-0.062c0.006-0.116-0.077-0.105-0.146-0.112c-0.363-0.037-0.726-0.091-1.09-0.105
	c-2.594-0.108-4.893,0.67-6.9,2.313c-0.034,0.027-0.076,0.044-0.125,0.073c0.319,0.24-0.025,0.308-0.068,0.493
	c0.056,0.046,0.129,0.107,0.205,0.166c0.187,0.144,0.262,0.325,0.203,0.56c-0.008,0.03,0.021,0.08,0.047,0.106
	c0.295,0.302,0.593,0.6,0.891,0.898c0.02,0.021,0.051,0.058,0.062,0.053c0.146-0.064,0.191,0.071,0.272,0.134
	c0.097,0.074,0.118,0.14,0.016,0.242c-0.108,0.109-0.168,0.047-0.229-0.032c-0.109-0.144-0.196-0.307-0.317-0.439
	c-0.224-0.245-0.468-0.47-0.697-0.71c-0.081-0.085-0.154-0.138-0.282-0.116c-0.088,0.015-0.184-0.019-0.276-0.03
	c0.122-0.045,0.244-0.09,0.369-0.137c0.024-0.083,0.054-0.186,0.074-0.252c-0.146-0.125-0.297-0.256-0.446-0.383
	c-0.102,0.098-0.198,0.19-0.327,0.313c0.094,0.079,0.178,0.153,0.268,0.222C15.45,14.412,15.481,14.487,15.432,14.587z"/>
<path fill-rule="evenodd" clip-rule="evenodd" fill="#132a52" d="M25.314,13.895c0,0.377,0,0.745,0,1.131c-0.85,0-1.696,0-2.558,0
	c0,1.762,0,3.507,0,5.263c1.741,0,3.481,0,5.243,0c0-0.846,0-1.69,0-2.549c0.395,0,0.768,0,1.152,0c0,2.095,0,4.189,0,6.291
	c-0.381,0-0.75,0-1.144,0c0-0.854,0-1.706,0-2.564c-1.765,0-3.505,0-5.256,0c0,1.751,0,3.491,0,5.251c0.853,0,1.7,0,2.558,0
	c0,0.393,0,0.766,0,1.154c-2.093,0-4.182,0-6.285,0c0-0.379,0-0.752,0-1.145c0.844,0,1.69,0,2.548,0c0-1.764,0-3.509,0-5.263
	c-1.749,0-3.49,0-5.247,0c0,0.855,0,1.702,0,2.562c-0.39,0-0.763,0-1.146,0c0-2.091,0-4.181,0-6.284c0.368,0,0.741,0,1.133,0
	c0,0.841,0,1.687,0,2.545c1.764,0,3.509,0,5.263,0c0-1.745,0-3.485,0-5.245c-0.846,0-1.692,0-2.551,0c0-0.39,0-0.763,0-1.146
	C21.118,13.895,23.212,13.895,25.314,13.895z"/>
<path fill-rule="evenodd" clip-rule="evenodd" fill="#132a52" d="M12.572,20.819c0.026-2.183,0.708-4.163,2.072-5.905
	c0.079-0.101,0.142-0.125,0.264-0.082c0.35,0.121,0.708,0.22,1.059,0.341c0.128,0.044,0.237,0.148,0.367,0.185
	c0.141,0.039,0.236,0.119,0.333,0.217c0.082,0.082,0.062,0.137-0.013,0.208c-0.074,0.07-0.137,0.101-0.205,0.003
	c-0.064-0.094-0.206-0.135-0.165-0.302c0.009-0.038-0.08-0.158-0.202-0.175c-0.148-0.021-0.293-0.078-0.434-0.133
	c-0.116-0.045-0.187-0.023-0.269,0.076c-0.807,0.982-1.403,2.079-1.713,3.311c-0.724,2.873-0.172,5.487,1.652,7.828
	c0.093,0.119,0.172,0.167,0.32,0.098c0.126-0.059,0.272-0.075,0.398-0.134c0.099-0.046,0.213-0.075,0.206-0.253
	c-0.004-0.089,0.148-0.191,0.246-0.27c0.018-0.014,0.12,0.055,0.162,0.104c0.022,0.025,0.019,0.113-0.007,0.135
	c-0.092,0.08-0.156,0.184-0.307,0.208c-0.13,0.021-0.238,0.157-0.37,0.207c-0.284,0.106-0.576,0.188-0.865,0.281
	c-0.385,0.123-0.387,0.125-0.627-0.199C13.216,24.868,12.592,22.958,12.572,20.819z M15.313,15.077
	c-0.1-0.031-0.19-0.048-0.27-0.088c-0.154-0.077-0.244-0.032-0.344,0.104c-2.074,2.828-2.516,5.891-1.319,9.184
	c0.312,0.861,0.78,1.642,1.347,2.361c0.033,0.041,0.1,0.096,0.138,0.088c0.138-0.029,0.271-0.084,0.412-0.132
	C12.511,23.295,12.51,18.368,15.313,15.077z"/>
<path fill-rule="evenodd" clip-rule="evenodd" fill="#132a52" d="M28.201,28.236c-1.442,1.157-3.041,1.868-4.844,2.086
	c-2.645,0.32-5.025-0.341-7.14-1.962c-0.125-0.095-0.146-0.174-0.093-0.32c0.115-0.316,0.197-0.645,0.309-0.962
	c0.053-0.149,0.179-0.277,0.208-0.428c0.03-0.152,0.128-0.228,0.215-0.325c0.083-0.093,0.138-0.049,0.206,0.021
	c0.064,0.066,0.1,0.126,0.008,0.191c-0.097,0.069-0.145,0.212-0.316,0.177c-0.034-0.008-0.165,0.072-0.174,0.207
	c-0.011,0.146-0.073,0.293-0.13,0.434c-0.046,0.114-0.016,0.18,0.076,0.255c1.091,0.899,2.32,1.526,3.704,1.813
	c2.751,0.57,5.24-0.019,7.455-1.754c0.136-0.107,0.167-0.201,0.096-0.352c-0.081-0.17-0.144-0.348-0.228-0.516
	c-0.017-0.033-0.103-0.024-0.144-0.055c-0.099-0.073-0.198-0.152-0.278-0.244c-0.015-0.018,0.048-0.125,0.096-0.164
	c0.03-0.024,0.123-0.019,0.148,0.01c0.081,0.089,0.223,0.146,0.189,0.308C27.958,27.109,27.938,27.725,28.201,28.236z M16.359,27.68
	c-0.026,0.073-0.051,0.135-0.07,0.197c-0.087,0.273-0.088,0.277,0.141,0.445c2.48,1.824,5.215,2.354,8.192,1.59
	c1.218-0.313,2.316-0.886,3.305-1.663c0.048-0.038,0.099-0.118,0.091-0.168c-0.02-0.124-0.074-0.243-0.121-0.383
	c-1.69,1.378-3.605,2.093-5.772,2.089C19.954,29.783,18.042,29.061,16.359,27.68z"/>
<path fill-rule="evenodd" clip-rule="evenodd" fill="#132a52" d="M17.223,15.259c-0.104,0.06-0.219,0.159-0.251,0.138
	c-0.1-0.069-0.169-0.183-0.247-0.281c-0.014-0.018,0.005-0.063-0.009-0.076c-0.26-0.224-0.254-0.563-0.368-0.851
	c-0.081-0.203-0.129-0.419-0.207-0.623c-0.038-0.1-0.011-0.149,0.065-0.21c1.363-1.066,2.898-1.739,4.614-1.962
	c2.727-0.354,5.208,0.351,7.367,2.068c-0.094,0.304-0.185,0.614-0.288,0.921c-0.078,0.23-0.135,0.461-0.278,0.678
	c-0.09,0.136-0.178,0.26-0.306,0.384c-0.067-0.063-0.13-0.124-0.212-0.201c0.143-0.091,0.176-0.296,0.399-0.258
	c0.045,0.007,0.106-0.08,0.144-0.11c0.053-0.178,0.093-0.356,0.16-0.524c0.049-0.124,0.014-0.188-0.082-0.266
	c-1.866-1.501-3.992-2.162-6.378-1.962c-1.77,0.148-3.34,0.805-4.73,1.907c-0.126,0.1-0.187,0.183-0.107,0.344
	c0.059,0.12,0.071,0.262,0.128,0.382c0.049,0.104,0.083,0.258,0.266,0.199c0.018-0.006,0.052,0.019,0.07,0.037
	C17.048,15.067,17.119,15.146,17.223,15.259z M27.902,14.024c0.033-0.101,0.051-0.189,0.089-0.269
	c0.074-0.154,0.022-0.244-0.112-0.344c-2.346-1.748-4.952-2.325-7.812-1.723c-1.369,0.287-2.6,0.889-3.704,1.747
	c-0.046,0.035-0.105,0.106-0.097,0.148c0.028,0.139,0.083,0.272,0.131,0.413C19.716,11.184,24.67,11.29,27.902,14.024z"/>
<path fill-rule="evenodd" clip-rule="evenodd" fill="#FFFFFF" d="M28.093,26.44c0.056-0.012,0.113-0.04,0.166-0.032
	c0.088,0.014,0.172,0.05,0.258,0.076c0.292,0.09,0.292,0.09,0.489-0.155c2.587-3.232,2.546-7.872-0.095-11.06
	c-0.074-0.09-0.137-0.129-0.254-0.078c-0.128,0.055-0.268,0.084-0.399,0.133c-0.126,0.049-0.232,0.096-0.236,0.282
	c-0.002,0.092-0.155,0.196-0.261,0.259c-0.03,0.017-0.137-0.1-0.228-0.17c0.154-0.108,0.211-0.289,0.41-0.273
	c0.204-0.256,0.525-0.258,0.798-0.364c0.25-0.098,0.51-0.171,0.767-0.255c2.684,3.098,3.118,8.336,0.014,12.102
	c-0.457-0.142-0.917-0.283-1.377-0.428c-0.018-0.006-0.032-0.026-0.047-0.039L28.093,26.44z M28.972,15.094
	c1.379,1.685,2.099,3.596,2.1,5.764c0.001,2.171-0.722,4.086-2.097,5.766c0.096,0.031,0.174,0.047,0.245,0.08
	c0.155,0.072,0.253,0.037,0.361-0.107c1.774-2.389,2.345-5.035,1.691-7.938c-0.3-1.329-0.897-2.523-1.737-3.596
	c-0.037-0.047-0.117-0.1-0.167-0.091C29.236,14.993,29.112,15.048,28.972,15.094z"/>
<path fill-rule="evenodd" clip-rule="evenodd" fill="#132a52" d="M28.341,27.539c0.061-0.27-0.041-0.463-0.248-0.64
	c-0.237-0.204-0.444-0.444-0.67-0.662c-0.039-0.037-0.116-0.032-0.16-0.065c-0.1-0.076-0.195-0.16-0.277-0.254
	c-0.013-0.014,0.045-0.099,0.08-0.145c0.057-0.077,0.121-0.072,0.177,0.002c0.07,0.092,0.21,0.139,0.183,0.297
	c-0.005,0.027,0.053,0.066,0.083,0.099c0.272,0.274,0.545,0.55,0.818,0.824C28.536,27.205,28.539,27.332,28.341,27.539
	L28.341,27.539z"/>
<path fill-rule="evenodd" clip-rule="evenodd" fill="#132a52" d="M28.097,26.438c-0.188-0.117-0.375-0.234-0.562-0.352
	c0.001-0.025,0.003-0.049,0.004-0.073c0.077-0.051,0.149-0.125,0.233-0.146c0.066-0.016,0.226,0.238,0.234,0.32
	c0.003,0.037,0.043,0.07,0.056,0.108c0.016,0.046,0.021,0.097,0.031,0.145L28.097,26.438z"/>
<path fill-rule="evenodd" clip-rule="evenodd" fill="#132a52" d="M28.818,27.05c-0.053,0.188-0.187,0.12-0.292,0.123
	c-0.011,0-0.037-0.047-0.031-0.063c0.008-0.023,0.038-0.055,0.061-0.057C28.638,27.046,28.722,27.05,28.818,27.05z"/>
</svg>
