<svg id="Layer_1" data-name="Layer 1" xmlns="http://www.w3.org/2000/svg" viewBox="0 0 375 39"><defs><style>.cls-1{fill:#231f20;}.cls-2{fill:#df3127;}</style></defs><title>Artboard 1</title><polygon class="cls-1" points="49.26 2.77 60.76 37.54 43.92 37.54 41.66 29.4 30.48 37.54 1 37.54 49.26 2.77"/><polygon class="cls-1" points="52.28 2.72 56.88 16.94 61.02 16.94 58.08 20.39 63.73 37.59 81.08 16.94 84.53 16.94 96.53 2.72 52.28 2.72"/><path class="cls-1" d="M70.48,37.54l19.38-23.2c-1,4.94,1.17,9.54,5.31,13s9.92,5,14.73,2.68l-6.2,7.53Z"/><path class="cls-2" d="M105.19,28.07a12.46,12.46,0,0,0,7.72-2.67H97.47A12.46,12.46,0,0,0,105.19,28.07Z"/><path class="cls-2" d="M94.73,22.43h20.92A12.5,12.5,0,0,0,117,19.74H93.4A12.5,12.5,0,0,0,94.73,22.43Z"/><path class="cls-2" d="M92.66,15.53c0,.42,0,.84.06,1.25h24.94c0-.41.06-.83.06-1.25a12.62,12.62,0,0,0-.09-1.44H92.75A12.63,12.63,0,0,0,92.66,15.53Z"/><path class="cls-2" d="M93.47,11.12h23.44a12.5,12.5,0,0,0-1.4-2.69H94.87A12.5,12.5,0,0,0,93.47,11.12Z"/><path class="cls-2" d="M97.75,5.46h14.88a12.46,12.46,0,0,0-14.88,0Z"/><path class="cls-1" d="M157.84,36.57a7.47,7.47,0,0,1-1.21-1.89L141.27,1.3h-.1L126.54,35.55a2.25,2.25,0,0,1-.87,1h5.42a1.32,1.32,0,0,1-.39-.77,6.24,6.24,0,0,1,.43-1.16l3.1-7.51h14.92l3.1,7.51a6.31,6.31,0,0,1,.43,1.16,1.31,1.31,0,0,1-.39.77ZM135.26,23.83l6.06-14.68h.1l6.25,14.68Z"/><path class="cls-1" d="M158.32,36.57c.78-.39.87-1.55.87-3.44V4.25c0-.92,0-1.74-.77-2.18h4.17V34.58a2.11,2.11,0,0,0,.87,2Z"/><path class="cls-1" d="M166.65,36.57c.77-.39.87-1.55.87-3.44V4.25c0-.92,0-1.74-.78-2.18h4.17V34.58a2.11,2.11,0,0,0,.87,2Z"/><path class="cls-1" d="M175,36.57c.78-.39.87-1.55.87-3.44V15c0-.92,0-1.74-.77-2.18h4.17V34.58a2.11,2.11,0,0,0,.87,2Z"/><path class="cls-1" d="M179.73,6.92a2.18,2.18,0,1,1-2.18-2.18,2.2,2.2,0,0,1,2.18,2.18"/><path class="cls-1" d="M339.33,36.57c.77-.39.87-1.55.87-3.44V15c0-.92,0-1.74-.77-2.18h4.17V34.58a2.11,2.11,0,0,0,.87,2Z"/><path class="cls-1" d="M344.08,6.92a2.18,2.18,0,1,1-2.18-2.18,2.2,2.2,0,0,1,2.18,2.18"/><path class="cls-1" d="M231.63,2.07h-4.26a1.88,1.88,0,0,1,.87,1.6V15.49l-.19.1c-1.84-2.81-4.65-3.54-8-3.54-7.07,0-13.32,5.14-13.32,12.45a12.71,12.71,0,0,0,13,12.84c4.26,0,6.25-2,9.69-3.92a7.94,7.94,0,0,1,2.81-1.36C231.63,31.63,231.63,2.07,231.63,2.07Zm-3.39,28.29c-1.79,1-4.17,3.68-8.53,3.68a9.5,9.5,0,0,1-9.55-9.21c0-5.18,3.73-9.5,9.16-9.5,4.7,0,6.39,1.36,8.91,3.88Z"/><path class="cls-1" d="M258.2,34.87a2.73,2.73,0,0,0,.58,1.69h-4.85a2.74,2.74,0,0,0,.58-1.69V5.37H249a2.39,2.39,0,0,0-2.23,1V2.07h19.09V6.34a2.39,2.39,0,0,0-2.23-1H258.2Z"/><path class="cls-1" d="M288.43,36.69c.77-.39.87-1.55.87-3.44V4.37c0-.92-.05-1.74-.78-2.18h4.17V34.7a2.11,2.11,0,0,0,.87,2Z"/><path class="cls-1" d="M333.73,17a6.93,6.93,0,0,0-4.31-1.7c-2.08,0-3.83.73-3.83,3.05C325.59,23.83,336,21.11,336,30a7.3,7.3,0,0,1-7.51,7.32,16.2,16.2,0,0,1-4.07-.49,17.2,17.2,0,0,0-2.18-.49,1.38,1.38,0,0,0-.92.58h0V31.14a8.54,8.54,0,0,0,6.2,2.91c2.52,0,5-.73,5-3.63,0-6.78-10.42-3.54-10.42-12,0-3.92,3-6.35,6.83-6.35,1.36,0,2.91.48,3.73.48a1.46,1.46,0,0,0,1.07-.39Z"/><path class="cls-1" d="M360.46,17a6.94,6.94,0,0,0-4.31-1.7c-2.08,0-3.83.73-3.83,3.05,0,5.43,10.42,2.71,10.42,11.63a7.29,7.29,0,0,1-7.51,7.32,16.23,16.23,0,0,1-4.07-.49,17.19,17.19,0,0,0-2.18-.49,1.38,1.38,0,0,0-.92.58H348V31.14a8.55,8.55,0,0,0,6.2,2.91c2.52,0,5-.73,5-3.63,0-6.78-10.42-3.54-10.42-12,0-3.92,3-6.35,6.83-6.35,1.36,0,2.91.48,3.73.48a1.45,1.45,0,0,0,1.07-.39Z"/><path class="cls-1" d="M206.57,16.7,188.46,31.9c3.8,3.39,9,3.23,13.12-.19a16.63,16.63,0,0,0,2.95-3v4.83c-.27.25-.56.49-.83.72-5.6,4.7-13.77,4.85-18.56-.87s-3.71-13.46,2-18.29c6-5.08,14.24-3.6,18,.93a2.47,2.47,0,0,0,1.35.7m-17.24.87a9.68,9.68,0,0,0-3,11.78l15-12.55c-3.79-2.7-8.29-2.34-12,.77"/><path class="cls-1" d="M286.18,16.7,268.07,31.9c3.8,3.39,9,3.23,13.12-.19a16.74,16.74,0,0,0,3-3v4.83l-.83.72c-5.61,4.7-13.77,4.85-18.56-.87s-3.71-13.46,2-18.29c6.05-5.08,14.25-3.6,18,.93a2.48,2.48,0,0,0,1.35.7m-17.24.87a9.67,9.67,0,0,0-3,11.78l15-12.55c-3.79-2.7-8.29-2.34-12,.77"/><path class="cls-1" d="M320.54,16.7,302.43,31.9c3.8,3.39,9,3.23,13.12-.19a16.62,16.62,0,0,0,3-3v4.83l-.83.72c-5.61,4.7-13.77,4.85-18.56-.87s-3.71-13.46,2-18.29c6.05-5.08,14.24-3.6,18,.93a2.48,2.48,0,0,0,1.35.7m-17.24.87a9.68,9.68,0,0,0-3,11.78l15-12.55c-3.79-2.7-8.29-2.34-12,.77"/><path class="cls-1" d="M361.34,3.61v-1h4.79v1h-1.84V8.47h-1.12V3.61Zm7.34-1,1.44,4.17,1.44-4.17h1.6V8.47h-1V3.77l-1.55,4.7h-.91l-1.57-4.7v4.7h-1V2.64Z"/></svg>