<?xml version="1.0" encoding="UTF-8"?>
<svg width="19px" height="19px" viewBox="0 0 19 19" version="1.1" xmlns="http://www.w3.org/2000/svg" xmlns:xlink="http://www.w3.org/1999/xlink">
    <!-- Generator: Sketch 53.2 (72643) - https://sketchapp.com -->
    <title>Twitter</title>
    <desc>Created with Sketch.</desc>
    <g id="Page-1" stroke="none" stroke-width="1" fill="none" fill-rule="evenodd">
        <g id="Extra-Large---1200px" transform="translate(-164.000000, -9.000000)">
            <g id="default" transform="translate(134.000000, 10.000000)">
                <g id="Twitter" transform="translate(30.633333, 0.000000)">
                    <circle id="Oval-1" stroke="#FFFFFF" cx="8.5" cy="8.5" r="8.5"></circle>
                    <path d="M12.3935181,5.24890381 C12.1536022,5.40257841 11.602759,5.62588825 11.331099,5.62588825 L11.331099,5.62634698 C11.0209057,5.3023 10.5841946,5.1 10.0998673,5.1 C9.15919524,5.1 8.39641873,5.86277651 8.39641873,6.80308159 C8.39641873,6.93372794 8.41155683,7.06116317 8.43953937,7.18336889 L8.43926413,7.18336889 C7.16326032,7.14988159 5.76771143,6.51032 4.92759302,5.4156981 C4.41106286,6.30976317 4.85804952,7.30410667 5.44421492,7.66641175 C5.24356635,7.68154984 4.87419683,7.64329175 4.7003381,7.47365333 C4.68868635,8.06706667 4.97401651,8.85333016 6.01441651,9.13856857 C5.81404317,9.24637016 5.45935302,9.21545175 5.30512794,9.19251524 C5.3592581,9.69344857 6.06074825,10.3483317 6.82783683,10.3483317 C6.55443365,10.6645803 5.52577714,11.2381765 4.37142857,11.0556937 C5.15539841,11.5326813 6.06909714,11.8089286 7.03619206,11.8089286 C9.78444444,11.8089286 11.9187324,9.58161016 11.8038663,6.83390825 C11.8034076,6.83088063 11.8034076,6.82785302 11.8031324,6.82455016 C11.8034076,6.81748571 11.8038663,6.81042127 11.8038663,6.80308159 C11.8038663,6.79454921 11.8031324,6.78647556 11.8028571,6.77821841 C12.0530486,6.60711206 12.3887473,6.3044419 12.6285714,5.90608063 C12.4894844,5.98268857 12.0722235,6.13608794 11.6839543,6.17416254 C11.9331365,6.03966286 12.3023225,5.59919016 12.3935181,5.24890381" id="Fill-1" fill="#FFFFFF"></path>
                </g>
            </g>
        </g>
    </g>
</svg>