<svg id="Layer_1" data-name="Layer 1" xmlns="http://www.w3.org/2000/svg" viewBox="0 0 412.55 74.85"><defs><style>.cls-1{fill:#fff;}</style></defs><title>Artboard 1</title><polygon class="cls-1" points="53.5 1.63 66.25 40.18 47.58 40.18 45.08 31.15 32.68 40.18 0 40.18 53.5 1.63"/><polygon class="cls-1" points="56.85 1.58 61.95 17.34 66.54 17.34 63.27 21.17 69.54 40.23 88.77 17.34 92.6 17.34 105.9 1.58 56.85 1.58"/><path class="cls-1" d="M77,40.18,98.51,14.46C97.43,19.93,99.8,25,104.4,28.86s11,5.59,16.33,3l-6.88,8.34Z"/><path class="cls-1" d="M115.5,29.68a13.82,13.82,0,0,0,8.55-3H107A13.82,13.82,0,0,0,115.5,29.68Z"/><path class="cls-1" d="M103.9,23.42h23.19a14,14,0,0,0,1.48-3H102.43A13.92,13.92,0,0,0,103.9,23.42Z"/><path class="cls-1" d="M101.61,15.77a9,9,0,0,0,.07,1.38h27.65c0-.46.07-.92.07-1.38a14.32,14.32,0,0,0-.1-1.6H101.7A14.3,14.3,0,0,0,101.61,15.77Z"/><path class="cls-1" d="M102.51,10.88h26a13.54,13.54,0,0,0-1.55-3h-22.9A13.54,13.54,0,0,0,102.51,10.88Z"/><path class="cls-1" d="M107.26,4.61h16.5A13.83,13.83,0,0,0,107.26,4.61Z"/><path class="cls-1" d="M173.86,39.1A8.37,8.37,0,0,1,172.52,37l-17-37h-.11L139.19,38a2.5,2.5,0,0,1-1,1.13h6a1.42,1.42,0,0,1-.43-.86,7.41,7.41,0,0,1,.48-1.29l3.44-8.33h16.58L167.7,37a7.41,7.41,0,0,1,.48,1.29,1.42,1.42,0,0,1-.43.86ZM154.5,25h-5.67l6.72-16.27h.11L162.59,25Z"/><path class="cls-1" d="M174.4,39.1c.86-.43,1-1.72,1-3.81v-32c0-1-.05-1.93-.86-2.42h4.62v36a2.33,2.33,0,0,0,1,2.2Z"/><path class="cls-1" d="M183.63,39.1c.86-.43,1-1.72,1-3.81v-32c0-1,0-1.93-.86-2.42h4.62v36a2.33,2.33,0,0,0,1,2.2Z"/><path class="cls-1" d="M192.87,39.1c.86-.43,1-1.72,1-3.81V15.2c0-1-.05-1.93-.86-2.42h4.62V36.89a2.33,2.33,0,0,0,1,2.2Z"/><path class="cls-1" d="M198.13,6.23a2.42,2.42,0,1,1-2.42-2.42,2.44,2.44,0,0,1,2.42,2.42"/><path class="cls-1" d="M375.05,39.1c.86-.43,1-1.72,1-3.81V15.2c0-1-.05-1.93-.86-2.42h4.62V36.89a2.33,2.33,0,0,0,1,2.2Z"/><path class="cls-1" d="M380.31,6.23a2.42,2.42,0,1,1-2.42-2.42,2.44,2.44,0,0,1,2.42,2.42"/><path class="cls-1" d="M255.67,30.45V.86h-4.73a2.08,2.08,0,0,1,1,1.77v13.1l-.21.11c-2-3.11-5.16-3.92-8.92-3.92C235,11.92,228,17.61,228,25.72A14.09,14.09,0,0,0,242,40h.44c4.73,0,6.93-2.2,10.74-4.35a8.7,8.7,0,0,1,3.12-1.51C255.67,33.62,255.67,31.74,255.67,30.45Zm-3.76,1.77c-2,1.08-4.62,4.08-9.45,4.08a10.53,10.53,0,0,1-10.58-10.21c0-5.75,4.14-10.53,10.15-10.53,5.21,0,7.09,1.51,9.88,4.3Z"/><path class="cls-1" d="M285.12,37.22a3,3,0,0,0,.65,1.88H280.4a3,3,0,0,0,.64-1.88V4.51H275a2.65,2.65,0,0,0-2.47,1.07V.85h21.16V5.58a2.65,2.65,0,0,0-2.47-1.07h-6.07Z"/><path class="cls-1" d="M318.62,39.23c.86-.43,1-1.72,1-3.81v-32c0-1-.06-1.93-.86-2.42h4.62V37a2.33,2.33,0,0,0,1,2.2Z"/><path class="cls-1" d="M368.84,17.45a7.67,7.67,0,0,0-4.78-1.88c-2.31,0-4.24.81-4.24,3.38,0,6,11.55,3,11.55,12.89A8.09,8.09,0,0,1,363.3,40H363a18,18,0,0,1-4.51-.54,19.7,19.7,0,0,0-2.42-.54,1.52,1.52,0,0,0-1,.65h-.05V33.07a9.47,9.47,0,0,0,6.88,3.22c2.79,0,5.58-.81,5.58-4C367.52,24.77,356,28.37,356,19c0-4.35,3.28-7,7.57-7,1.5,0,3.23.54,4.13.54a1.6,1.6,0,0,0,1.18-.43Z"/><path class="cls-1" d="M398.48,17.45a7.67,7.67,0,0,0-4.78-1.88c-2.31,0-4.24.81-4.24,3.38,0,6,11.55,3,11.55,12.89A8.09,8.09,0,0,1,392.94,40h-.25a18,18,0,0,1-4.51-.54,19.7,19.7,0,0,0-2.42-.54,1.52,1.52,0,0,0-1,.65h-.06V33.07a9.47,9.47,0,0,0,6.88,3.22c2.79,0,5.58-.81,5.58-4,0-7.52-11.55-3.92-11.55-13.32,0-4.35,3.28-7,7.58-7,1.5,0,3.22.54,4.13.54a1.6,1.6,0,0,0,1.18-.43Z"/><path class="cls-1" d="M227.89,17.07,207.81,33.92c4.21,3.76,10,3.58,14.54-.21a18.2,18.2,0,0,0,3.27-3.35v5.35l-.92.8c-6.21,5.21-15.26,5.38-20.58-1S200,20.59,206.39,15.24c6.71-5.63,15.79-4,20,1a2.73,2.73,0,0,0,1.49.78m-19.11,1c-4.24,3.56-5.26,8.27-3.28,13.06l16.58-13.91c-4.2-3-9.19-2.6-13.3.86"/><path class="cls-1" d="M316.13,17.07,296.05,33.92c4.21,3.76,10,3.58,14.54-.21a18.2,18.2,0,0,0,3.27-3.35v5.35l-.92.8c-6.21,5.21-15.26,5.38-20.58-1s-4.11-14.92,2.27-20.27c6.71-5.63,15.79-4,20,1a2.73,2.73,0,0,0,1.49.78M297,18c-4.24,3.56-5.26,8.27-3.28,13.06l16.58-13.91c-4.2-3-9.19-2.6-13.3.86"/><path class="cls-1" d="M354.26,17.07,334.15,33.92c4.21,3.76,10,3.58,14.54-.21A18.42,18.42,0,0,0,352,30.32v5.35l-.92.8c-6.21,5.21-15.26,5.38-20.58-1s-4.11-14.92,2.27-20.27c6.71-5.63,15.79-4,20,1a2.73,2.73,0,0,0,1.49.78m-19.11,1c-4.24,3.56-5.26,8.27-3.28,13.06l16.58-13.91c-4.2-3-9.19-2.6-13.31.86"/><path class="cls-1" d="M399.45,2.56V1.49h5.31V2.56h-2V8h-1.24V2.56Zm8.13-1.07,1.59,4.63,1.59-4.63h1.78V8H411.4V2.74L409.69,8h-1L407,2.74V8h-1.14V1.49Z"/><path class="cls-1" d="M138.2,74.52v-20h3l6.86,10.12a55.17,55.17,0,0,1,3.84,6.5H152c-.25-2.67-.32-5.11-.32-8.22V54.55h2.61v20h-2.8l-6.79-10.23a61.75,61.75,0,0,1-4-6.68h-.1c.16,2.52.22,4.93.22,8.25v8.55Z"/><path class="cls-1" d="M169.77,65.14h-8.31v7.18h9.27v2.17h-12v-20h11.53v2.17h-8.79V63h8.31Z"/><path class="cls-1" d="M178.68,56.71h-6.51v-2.2H188v2.2h-6.54V74.52h-2.79Z"/><path class="cls-1" d="M195,74.52l-5.43-20h2.92L195,64.64c.63,2.49,1.2,5,1.59,6.92h.06c.35-2,1-4.36,1.75-7l2.84-10.05h2.89l2.6,10.15c.6,2.38,1.17,4.75,1.49,6.86h.07c.44-2.2,1-4.42,1.71-6.92l2.83-10.09h2.82l-6.06,20h-2.89L204,64.09a58.37,58.37,0,0,1-1.4-6.53h-.06a60.57,60.57,0,0,1-1.65,6.53l-3,10.42Z"/><path class="cls-1" d="M236.43,64.32c0,6.89-4.48,10.54-9.93,10.54-5.65,0-9.61-4.1-9.61-10.16,0-6.35,4.22-10.51,9.93-10.51S236.43,58.37,236.43,64.32Zm-16.6.33c0,4.28,2.48,8.1,6.82,8.1s6.86-3.77,6.86-8.31c0-4-2.22-8.14-6.83-8.14s-6.85,3.94-6.85,8.34Z"/><path class="cls-1" d="M239.56,54.78a30.31,30.31,0,0,1,5.3-.41c3,0,4.86.5,6.19,1.63a4.86,4.86,0,0,1,1.68,3.8,5.32,5.32,0,0,1-4,5.11V65c1.65.54,2.63,2,3.14,4a30.73,30.73,0,0,0,1.65,5.49h-2.86a24.13,24.13,0,0,1-1.43-4.78c-.63-2.76-1.78-3.8-4.28-3.89h-2.6v8.67h-2.79Zm2.76,9.12h2.82c3,0,4.82-1.51,4.82-3.8,0-2.58-2-3.71-4.92-3.74a11.9,11.9,0,0,0-2.73.23Z"/><path class="cls-1" d="M256.56,54.51h2.76v9.65h.09c.57-.77,1.14-1.48,1.68-2.14l6.54-7.51h3.43L263.31,63l8.35,11.52h-3.27l-7-9.83-2,2.2v7.63h-2.83Z"/><path class="cls-1" d="M278.26,71.38a10.3,10.3,0,0,0,5,1.3c2.83,0,4.48-1.39,4.48-3.41,0-1.87-1.14-2.94-4-4-3.49-1.16-5.65-2.85-5.65-5.67,0-3.12,2.76-5.43,6.92-5.43a10.33,10.33,0,0,1,4.73,1L289,57.28a9,9,0,0,0-4.06-1c-2.92,0-4,1.63-4,3,0,1.87,1.3,2.79,4.25,3.86,3.62,1.31,5.46,2.94,5.46,5.88s-2.44,5.76-7.49,5.76a11.76,11.76,0,0,1-5.46-1.28Z"/><path class="cls-1" d="M312.26,65.73c-.16-2.79-.35-6.14-.32-8.64h-.1c-.73,2.34-1.62,4.84-2.7,7.6l-3.78,9.71h-2.09l-3.46-9.53c-1-2.82-1.87-5.4-2.48-7.78h-.06c-.07,2.5-.22,5.85-.41,8.85l-.57,8.58h-2.63l1.49-20h3.52l3.65,9.68c.89,2.46,1.62,4.66,2.16,6.74h.1c.54-2,1.3-4.21,2.25-6.74l3.81-9.68h3.62l1.33,20h-2.7Z"/><path class="cls-1" d="M323.57,68.23l-2.22,6.29h-2.86l7.27-20h3.33l7.3,20h-3l-2.29-6.29Zm7-2-2.1-5.76c-.48-1.31-.79-2.5-1.11-3.65h-.07c-.32,1.19-.66,2.41-1.08,3.62l-2.1,5.79Z"/><path class="cls-1" d="M339.75,54.78a30.31,30.31,0,0,1,5.3-.41c3,0,4.86.5,6.19,1.63a4.86,4.86,0,0,1,1.68,3.8,5.32,5.32,0,0,1-4,5.11V65c1.65.54,2.63,2,3.14,4a30.73,30.73,0,0,0,1.65,5.49h-2.86a24.13,24.13,0,0,1-1.43-4.78c-.63-2.76-1.78-3.8-4.28-3.89h-2.6v8.67h-2.76Zm2.76,9.12h2.82c3,0,4.82-1.51,4.82-3.8,0-2.58-2-3.71-4.92-3.74a11.9,11.9,0,0,0-2.73.23Z"/><path class="cls-1" d="M361,56.71H354.5v-2.2h15.83v2.2h-6.54V74.52H361Z"/><path class="cls-1" d="M384,65.14h-8.31v7.18h9.27v2.17h-12v-20h11.55v2.17h-8.82V63H384Z"/><path class="cls-1" d="M388.35,54.78a30.31,30.31,0,0,1,5.3-.41c3,0,4.86.5,6.19,1.63a4.86,4.86,0,0,1,1.68,3.8,5.32,5.32,0,0,1-4,5.11V65c1.65.54,2.63,2,3.14,4a30.32,30.32,0,0,0,1.6,5.52H399.4A24.13,24.13,0,0,1,398,69.74c-.63-2.76-1.78-3.8-4.28-3.89h-2.6v8.67h-2.76Zm2.76,9.12h2.82c3,0,4.82-1.51,4.82-3.8,0-2.58-2-3.71-4.92-3.74a11.9,11.9,0,0,0-2.73.23Z"/></svg>