<?xml version="1.0" encoding="utf-8"?>
<!-- Generator: Adobe Illustrator 22.0.1, SVG Export Plug-In . SVG Version: 6.00 Build 0)  -->
<svg version="1.1" id="Laag_1" xmlns="http://www.w3.org/2000/svg" xmlns:xlink="http://www.w3.org/1999/xlink" x="0px" y="0px"
	 width="1090.9px" height="970.9px" viewBox="0 0 1090.9 970.9" style="enable-background:new 0 0 1090.9 970.9;"
	 xml:space="preserve">
<style type="text/css">
	.st0{fill:#CF9116;}
</style>
<g>
	<path class="st0" d="M62.1,85.8L62.1,85.8c0-0.2,0-0.4,0-0.7c0-7.3-3.9-13.8-9.7-17.4L44.6,34c1.7-1,2.9-2.8,2.9-4.9
		c0-2.8-2-5.2-4.7-5.6V16c0-0.6-0.4-1-1-1s-1,0.4-1,1v7.5C38,23.9,36,26.2,36,29c0,2.1,1.1,4,2.9,4.9L31,67.8
		c-5.8,3.6-9.7,10-9.7,17.4c0,0.2,0,0.5,0,0.7l0,0v105h40.9V85.8H62.1z"/>
	<polygon class="st0" points="88.6,57.3 88.6,67.8 88.3,67.8 88.3,126.9 108.3,126.9 131.4,126.9 151.4,126.9 151.4,70.5 
		151.4,67.8 151.4,57.3 134.5,57.3 134.5,67.8 105.4,67.8 105.4,57.3 	"/>
	<path class="st0" d="M55.4,230.1h-3.6v0.1c-1.4,0.2-2.6,1-3.3,2.2L27.6,234v1l20.8,1.6c0.7,1.2,1.9,2,3.3,2.2v0.1h3.4
		c1.6,4.3,5.8,7.3,10.6,7.3c0.3,0,0.6,0,1,0l9.8,9.4v0.5H77l0.7,0.7v-0.7h92.5v-42.4H77.8V213l-0.8,0.7h-0.4v0.4l-9.8,9.4
		c-0.3,0-0.6,0-1,0C61.2,223.3,57.2,226.1,55.4,230.1z"/>
	<path class="st0" d="M185.6,65.3v92.5H228V65.3h0.7l-0.7-0.8v-0.4h-0.4l-9.4-9.8c0-0.3,0-0.6,0-1c0-4.6-2.8-8.6-6.8-10.4v-3.6h-0.1
		c-0.2-1.4-1-2.6-2.2-3.3l-1.6-20.9h-1l-1.5,21c-1.2,0.7-2,1.9-2.2,3.3h-0.1v3.4c-4.3,1.6-7.3,5.8-7.3,10.6c0,0.3,0,0.6,0,1
		l-9.4,9.8h-0.5v0.5l-0.7,0.7L185.6,65.3L185.6,65.3z"/>
	<path class="st0" d="M344.6,327.8L344.6,327.8c0,0.2,0,0.4,0,0.7c0,7.3,3.9,13.8,9.7,17.4l7.9,33.8c-1.7,1-2.9,2.8-2.9,4.9
		c0,2.8,2,5.2,4.7,5.6v7.5c0,0.6,0.4,1,1,1s1-0.4,1-1v-7.5c2.7-0.5,4.7-2.8,4.7-5.6c0-2.1-1.1-4-2.9-4.9l7.9-33.8
		c5.8-3.6,9.7-10,9.7-17.4c0-0.2,0-0.5,0-0.7l0,0v-105h-40.9L344.6,327.8L344.6,327.8z"/>
	<polygon class="st0" points="322.3,337.8 322.3,246.6 323.4,246.6 322.3,245.8 322.3,245.6 321.9,245.6 288.5,222.7 255.1,245.6 
		254.7,245.6 254.7,245.8 253.6,246.6 254.7,246.6 254.7,337.8 	"/>
	<polygon class="st0" points="154.2,190.8 154.5,190.8 154.5,190.5 171.1,166.1 154.5,141.8 154.5,141.5 154.2,141.5 153.5,140.4 
		153.5,141.5 87.2,141.5 87.2,190.8 153.5,190.8 153.5,191.9 	"/>
	<polygon class="st0" points="346.9,89.3 346.9,100.2 332.6,100.2 332.6,89.3 314.2,89.3 314.2,100.2 300,100.2 300,89.3 
		281.6,89.3 281.6,100.2 267.3,100.2 267.3,89.3 248.9,89.3 248.9,100.2 248.9,102.5 248.9,194.7 365.5,194.7 365.5,100.2 
		365.3,100.2 365.3,89.3 	"/>
	<polygon class="st0" points="231.6,264.2 223.6,249.2 206,173 188.4,249.2 180.4,264.2 180.2,264.2 180.2,264.6 179.8,265.2 
		180.2,265.2 180.2,369.2 231.8,369.2 231.8,265.2 232.1,265.2 231.8,264.6 231.8,264.2 	"/>
	<polygon class="st0" points="406.2,88.2 435.4,88.2 435.4,98.7 452.2,98.7 452.2,88.2 452.5,88.2 452.5,29.1 432.5,29.1 
		409.4,29.1 389.4,29.1 389.4,85.5 389.4,88.2 389.4,98.7 406.2,98.7 	"/>
	<polygon class="st0" points="140,390 140,379.1 140,376.8 140,284.6 23.3,284.6 23.3,379.1 23.5,379.1 23.5,390 41.9,390 
		41.9,379.1 56.2,379.1 56.2,390 74.6,390 74.6,379.1 88.9,379.1 88.9,390 107.3,390 107.3,379.1 121.6,379.1 121.6,390 	"/>
	<path class="st0" d="M322.8,68.9l0.8-0.7h0.4v-0.4l7.9-7.6c0.2,0,0.5,0,0.7,0c3.8,0,7-2.3,8.5-5.5h2.9v-0.1
		c1.1-0.2,2.1-0.8,2.6-1.8l16.8-1.3v-1l-16.8-1.3c-0.5-0.9-1.5-1.6-2.6-1.8v-0.1h-2.8c-1.4-3.4-4.7-5.9-8.6-5.9c-0.2,0-0.5,0-0.7,0
		l-7.9-7.6v-0.4h-0.4l-0.7-0.7v0.7H248v34.4h74.8V68.9z"/>
	<polygon class="st0" points="452.6,191.9 453.4,190.8 453.6,190.8 453.6,190.5 470.3,166.1 453.6,141.8 453.6,141.5 453.4,141.5 
		452.6,140.4 452.6,141.5 386.3,141.5 386.3,190.8 452.6,190.8 	"/>
	<path class="st0" d="M407.7,269.5v0.5l-0.7,0.7h0.7v92.5h42.4v-92.5h0.7l-0.7-0.8v-0.4h-0.4l-9.4-9.8c0-0.3,0-0.6,0-1
		c0-4.6-2.8-8.6-6.8-10.4v-3.6h-0.1c-0.2-1.4-1-2.6-2.2-3.3l-1.6-20.9h-1l-1.6,20.8c-1.2,0.7-2,1.9-2.2,3.3h-0.1v3.4
		c-4.3,1.6-7.3,5.8-7.3,10.6c0,0.3,0,0.6,0,1l-9.4,9.8L407.7,269.5L407.7,269.5z"/>
	<polygon class="st0" points="256.7,408.1 256.9,408.1 257.7,409.2 257.7,408.1 324,408.1 324,358.8 257.7,358.8 257.7,357.6 
		256.9,358.8 256.7,358.8 256.7,359.1 240,383.4 256.7,407.8 	"/>
	<polygon class="st0" points="472.5,306 472.5,306.4 472.7,306.4 480.7,321.4 498.3,397.6 515.9,321.4 523.9,306.4 524.1,306.4 
		524.1,306 524.4,305.4 524.1,305.4 524.1,201.4 472.5,201.4 472.5,305.4 472.2,305.4 	"/>
	<polygon class="st0" points="114.3,470.2 114.3,470.4 114.7,470.4 115.3,470.7 115.3,470.4 219.3,470.4 219.3,418.8 115.3,418.8 
		115.3,418.4 114.7,418.8 114.3,418.8 114.3,418.9 99.3,427 23.1,444.6 99.3,462.2 	"/>
	<path class="st0" d="M361.8,465c0.2,0,0.4,0,0.7,0c7.3,0,13.8-3.9,17.4-9.7l33.8-7.9c1,1.7,2.8,2.9,4.9,2.9c2.8,0,5.2-2,5.6-4.7
		h7.5c0.6,0,1-0.4,1-1s-0.4-1-1-1h-7.5c-0.5-2.7-2.8-4.7-5.6-4.7c-2.1,0-4,1.1-4.9,2.9l-33.8-7.9c-3.6-5.8-10-9.7-17.4-9.7
		c-0.2,0-0.5,0-0.7,0l0,0h-105V465H361.8L361.8,465z"/>
	<path class="st0" d="M435.9,374.5c-9.1,0-16.5,7.3-16.8,16.3l0,0V421h33.6v-30.2l0,0C452.4,381.8,445,374.5,435.9,374.5z"/>
	<polygon class="st0" points="472.8,420 472.8,424.8 472.8,426.3 472.8,466.4 524.1,466.4 524.1,424.8 524,424.8 524,420 515.5,420 
		515.5,424.8 509.8,424.8 509.8,420 501.3,420 501.3,424.8 495.6,424.8 495.6,420 487,420 487,424.8 481.4,424.8 481.4,420 	"/>
	<path class="st0" d="M77.4,28.6h4.4c0.4,1.5,1.8,2.6,3.5,2.6c1.3,0,2.4-0.7,3.1-1.7l20,4.6c2.2,3.5,6.1,5.8,10.5,5.8
		c0.1,0,0.1,0,0.2,0l0,0h63.3V15.1h-63.3l0,0c-0.1,0-0.1,0-0.2,0c-4.4,0-8.3,2.3-10.5,5.8l-20,4.6c-0.6-1-1.8-1.7-3.1-1.7
		c-1.7,0-3,1.1-3.5,2.6h-4.4c-0.6,0-1,0.4-1,1S76.9,28.6,77.4,28.6z"/>
	<path class="st0" d="M477.2,119.7v0.4h0.4l9.4,9.8c0,0.3,0,0.6,0,1c0,4.6,2.8,8.6,6.8,10.4v3.6h0.1c0.2,1.4,1,2.6,2.2,3.3l1.6,20.9
		h1l1.6-20.8c1.2-0.7,2-1.9,2.2-3.3h0.1v-3.4c4.3-1.6,7.3-5.8,7.3-10.6c0-0.3,0-0.6,0-1l9.4-9.8h0.5v-0.5l0.7-0.7h-0.7V26.4h-42.4
		V119h-0.7L477.2,119.7z"/>
	<path class="st0" d="M498.4,883.6L498.4,883.6c0,0.2,0,0.4,0,0.7c0,7.3,3.9,13.8,9.7,17.4l7.9,33.8c-1.7,1-2.9,2.8-2.9,4.9
		c0,2.8,2,5.2,4.7,5.6v7.5c0,0.6,0.4,1,1,1s1-0.4,1-1V946c2.7-0.5,4.7-2.8,4.7-5.6c0-2.1-1.1-4-2.9-4.9l7.9-33.8
		c5.8-3.6,9.7-10,9.7-17.4c0-0.2,0-0.5,0-0.7l0,0v-105h-40.9L498.4,883.6L498.4,883.6z"/>
	<polygon class="st0" points="471.9,912.1 471.9,901.6 472.2,901.6 472.2,842.5 452.2,842.5 429.2,842.5 409.1,842.5 409.1,898.9 
		409.1,901.6 409.1,912.1 426,912.1 426,901.6 455.1,901.6 455.1,912.1 	"/>
	<path class="st0" d="M505.1,739.3h3.6v-0.1c1.4-0.2,2.6-1,3.3-2.2l20.9-1.6v-1l-20.8-1.6c-0.7-1.2-1.9-2-3.3-2.2v-0.1h-3.4
		c-1.6-4.3-5.8-7.3-10.6-7.3c-0.3,0-0.6,0-1,0l-9.8-9.4v-0.5h-0.5l-0.7-0.7v0.7h-92.5v42.4h92.5v0.7l0.8-0.7h0.4v-0.4l9.8-9.4
		c0.3,0,0.6,0,1,0C499.3,746.1,503.3,743.3,505.1,739.3z"/>
	<path class="st0" d="M374.9,904.1v-92.5h-42.4v92.5h-0.7l0.7,0.8v0.4h0.4l9.4,9.8c0,0.3,0,0.6,0,1c0,4.6,2.8,8.6,6.8,10.4v3.6h0.1
		c0.2,1.4,1,2.6,2.2,3.3l1.6,20.9h1l1.6-20.8c1.2-0.7,2-1.9,2.2-3.3h0.1v-3.4c4.3-1.6,7.3-5.8,7.3-10.6c0-0.3,0-0.6,0-1l9.4-9.8h0.5
		v-0.5l0.7-0.7h-0.9V904.1z"/>
	<path class="st0" d="M215.9,641.6L215.9,641.6c0-0.2,0-0.4,0-0.7c0-7.3-3.9-13.8-9.7-17.4l-7.9-33.8c1.7-1,2.9-2.8,2.9-4.9
		c0-2.8-2-5.2-4.7-5.6v-7.5c0-0.6-0.4-1-1-1s-1,0.4-1,1v7.5c-2.7,0.5-4.7,2.8-4.7,5.6c0,2.1,1.1,4,2.9,4.9l-7.9,33.8
		c-5.8,3.6-9.7,10-9.7,17.4c0,0.2,0,0.5,0,0.7l0,0v105H216v-105H215.9z"/>
	<polygon class="st0" points="238.2,631.6 238.2,722.8 237.1,722.8 238.2,723.6 238.2,723.8 238.6,723.8 271.7,746.5 272,746.7 
		305.4,723.8 305.8,723.8 305.8,723.6 306.9,722.8 305.8,722.8 305.8,631.6 	"/>
	<polygon class="st0" points="406.3,778.6 406,778.6 406,779 389.4,803.3 406,827.6 406,828 406.3,828 407,829.1 407,828 473.3,828 
		473.3,778.6 407,778.6 407,777.5 	"/>
	<polygon class="st0" points="213.6,880.2 213.6,869.2 227.9,869.2 227.9,880.2 246.3,880.2 246.3,869.2 260.5,869.2 260.5,880.2 
		278.9,880.2 278.9,869.2 293.2,869.2 293.2,880.2 311.6,880.2 311.6,869.2 311.6,867 311.6,774.7 195,774.7 195,869.2 195.2,869.2 
		195.2,880.2 	"/>
	<polygon class="st0" points="328.9,705.2 336.9,720.2 354.5,796.4 372.1,720.2 380.1,705.2 380.3,705.2 380.3,704.8 380.7,704.2 
		380.3,704.2 380.3,600.2 328.7,600.2 328.7,704.2 328.4,704.2 328.7,704.8 328.7,705.2 	"/>
	<polygon class="st0" points="154.3,881.2 125.1,881.2 125.1,870.7 108.3,870.7 108.3,881.2 108,881.2 108,940.3 128,940.3 
		151.1,940.3 171.1,940.3 171.1,883.9 171.1,881.2 171.1,870.7 154.3,870.7 	"/>
	<polygon class="st0" points="420.5,579.4 420.5,590.4 420.5,592.6 420.5,684.8 537.2,684.8 537.2,590.4 537,590.4 537,579.4 
		518.6,579.4 518.6,590.4 504.3,590.4 504.3,579.4 485.9,579.4 485.9,590.4 471.6,590.4 471.6,579.4 453.2,579.4 453.2,590.4 
		438.9,590.4 438.9,579.4 	"/>
	<path class="st0" d="M237.7,900.5l-0.8,0.7h-0.4v0.4l-7.9,7.6c-0.2,0-0.5,0-0.7,0c-3.8,0-7,2.3-8.5,5.5h-2.9v0.1
		c-1.1,0.2-2.1,0.8-2.6,1.8l-16.8,1.3v1l16.8,1.3c0.5,0.9,1.5,1.6,2.6,1.8v0.1h2.8c1.4,3.4,4.7,5.9,8.6,5.9c0.2,0,0.5,0,0.7,0
		l7.9,7.6v0.4h0.4l0.7,0.7V936h74.8v-34.4h-74.8L237.7,900.5L237.7,900.5z"/>
	<polygon class="st0" points="107.9,777.5 107.1,778.6 106.9,778.6 106.9,779 90.2,803.3 106.9,827.6 106.9,828 107.1,828 
		107.9,829.1 107.9,828 174.2,828 174.2,778.6 107.9,778.6 	"/>
	<path class="st0" d="M152.8,699.9v-0.5l0.7-0.7h-0.7v-92.5h-42.4v92.5h-0.7l0.7,0.8v0.4h0.4l9.4,9.8c0,0.3,0,0.6,0,1
		c0,4.6,2.8,8.6,6.8,10.4v3.6h0.1c0.2,1.4,1,2.6,2.2,3.3l1.6,20.9h1l1.6-20.8c1.2-0.7,2-1.9,2.2-3.3h0.1v-3.4
		c4.3-1.6,7.3-5.8,7.3-10.6c0-0.3,0-0.6,0-1l9.4-9.8h0.3V699.9z"/>
	<polygon class="st0" points="303.8,561.3 303.6,561.3 302.8,560.2 302.8,561.3 236.5,561.3 236.5,610.7 302.8,610.7 302.8,611.8 
		303.6,610.7 303.8,610.7 303.8,610.3 320.5,586 303.8,561.7 	"/>
	<polygon class="st0" points="88,663.4 88,663.1 87.8,663.1 79.8,648 62.2,571.9 44.6,648 36.6,663.1 36.4,663.1 36.4,663.4 
		36.1,664.1 36.4,664.1 36.4,768.1 88,768.1 88,664.1 88.3,664.1 	"/>
	<polygon class="st0" points="461.2,507.3 446.2,499.3 446.2,499.1 445.8,499.1 445.2,498.7 445.2,499.1 341.2,499.1 341.2,550.7 
		445.2,550.7 445.2,551 445.8,550.7 446.2,550.7 446.2,550.5 461.2,542.5 537.4,524.9 	"/>
	<path class="st0" d="M303.7,545.3v-40.9h-105l0,0c-0.2,0-0.4,0-0.7,0c-7.3,0-13.8,3.9-17.4,9.7l-33.8,7.9c-1-1.7-2.8-2.9-4.9-2.9
		c-2.8,0-5.2,2-5.6,4.7h-7.5c-0.6,0-1,0.4-1,1s0.4,1,1,1h7.5c0.5,2.7,2.8,4.7,5.6,4.7c2.1,0,4-1.1,4.9-2.9l33.8,7.9
		c3.6,5.8,10,9.7,17.4,9.7c0.2,0,0.5,0,0.7,0l0,0L303.7,545.3L303.7,545.3z"/>
	<path class="st0" d="M124.6,594.9c9.1,0,16.5-7.3,16.8-16.3l0,0v-30.2h-33.6v30.2l0,0C108.1,587.6,115.5,594.9,124.6,594.9z"/>
	<polygon class="st0" points="87.7,549.4 87.7,544.7 87.7,543.1 87.7,503 36.4,503 36.4,544.7 36.5,544.7 36.5,549.4 45,549.4 
		45,544.7 50.7,544.7 50.7,549.4 59.2,549.4 59.2,544.7 64.9,544.7 64.9,549.4 73.5,549.4 73.5,544.7 79.1,544.7 79.1,549.4 	"/>
	<path class="st0" d="M483.1,940.9h-4.4c-0.4-1.5-1.8-2.6-3.5-2.6c-1.3,0-2.4,0.7-3.1,1.7l-20-4.6c-2.2-3.5-6.1-5.8-10.5-5.8
		c-0.1,0-0.1,0-0.2,0l0,0h-63.3v24.9h63.3l0,0c0.1,0,0.1,0,0.2,0c4.4,0,8.3-2.3,10.5-5.8l20-4.6c0.6,1,1.8,1.7,3.1,1.7
		c1.7,0,3-1.1,3.5-2.6h4.4c0.6,0,1-0.4,1-1S483.6,940.9,483.1,940.9z"/>
	<path class="st0" d="M83.3,849.7v-0.4H83l-9.4-9.8c0-0.3,0-0.6,0-1c0-4.6-2.8-8.6-6.8-10.4v-3.6h-0.1c-0.2-1.4-1-2.6-2.2-3.3
		L63,800.4h-1l-1.6,20.8c-1.2,0.7-2,1.9-2.2,3.3h-0.1v3.4c-4.3,1.6-7.3,5.8-7.3,10.6c0,0.3,0,0.6,0,1l-9.4,9.8H41v0.5l-0.7,0.7H41
		V943h42.4v-92.5h0.7L83.3,849.7z"/>
	<path class="st0" d="M1077.3,782.1h-40.9v105l0,0c0,0.2,0,0.4,0,0.7c0,7.3,3.9,13.8,9.7,17.4l7.9,33.8c-1.7,1-2.9,2.8-2.9,4.9
		c0,2.8,2,5.2,4.7,5.6v7.5c0,0.6,0.4,1,1,1s1-0.4,1-1v-7.5c2.7-0.5,4.7-2.8,4.7-5.6c0-2.1-1.1-4-2.9-4.9l7.9-33.8
		c5.8-3.6,9.7-10,9.7-17.4c0-0.2,0-0.5,0-0.7l0,0v-105H1077.3z"/>
	<polygon class="st0" points="1010,915.5 1010,905 1010.2,905 1010.2,845.9 990.2,845.9 967.2,845.9 947.2,845.9 947.2,902.3 
		947.2,905 947.2,915.5 964,915.5 964,905 993.2,905 993.2,915.5 	"/>
	<path class="st0" d="M1043.1,742.7h3.6v-0.1c1.4-0.2,2.6-1,3.3-2.2l20.9-1.6v-1l-20.8-1.6c-0.7-1.2-1.9-2-3.3-2.2v-0.1h-3.4
		c-1.6-4.3-5.8-7.3-10.6-7.3c-0.3,0-0.6,0-1,0l-9.8-9.4v-0.5h-0.5l-0.7-0.7v0.7h-92.5v42.4h92.5v0.7l0.8-0.7h0.4v-0.4l9.8-9.4
		c0.3,0,0.6,0,1,0C1037.4,749.5,1041.4,746.7,1043.1,742.7z"/>
	<path class="st0" d="M912.9,907.6V815h-42.4v92.5h-0.7l0.7,0.8v0.4h0.4l9.4,9.8c0,0.3,0,0.6,0,1c0,4.6,2.8,8.6,6.8,10.4v3.6h0.1
		c0.2,1.4,1,2.6,2.2,3.3l1.6,20.9h1l1.6-20.8c1.2-0.7,2-1.9,2.2-3.3h0.1v-3.4c4.3-1.6,7.3-5.8,7.3-10.6c0-0.3,0-0.6,0-1l9.4-9.8h0.5
		v-0.5l0.7-0.7L912.9,907.6L912.9,907.6z"/>
	<path class="st0" d="M754,645.1L754,645.1c0-0.2,0-0.4,0-0.7c0-7.3-3.9-13.8-9.7-17.4l-7.9-33.8c1.7-1,2.9-2.8,2.9-4.9
		c0-2.8-2-5.2-4.7-5.6v-7.5c0-0.6-0.4-1-1-1s-1,0.4-1,1v7.5c-2.7,0.5-4.7,2.8-4.7,5.6c0,2.1,1.1,4,2.9,4.9l-7.9,33.8
		c-5.8,3.6-9.7,10-9.7,17.4c0,0.2,0,0.5,0,0.7l0,0v105H754V645.1z"/>
	<polygon class="st0" points="776.3,635 776.3,726.3 775.2,726.3 776.3,727 776.3,727.3 776.6,727.3 809.8,750 810.1,750.2 
		843.5,727.3 843.8,727.3 843.8,727 845,726.3 843.8,726.3 843.8,635 	"/>
	<polygon class="st0" points="944.3,782.1 944.1,782.1 944.1,782.4 927.6,806.4 927.4,806.7 944.1,831.1 944.1,831.4 944.3,831.4 
		945.1,832.5 945.1,831.4 1011.4,831.4 1011.4,782.1 945.1,782.1 945.1,780.9 	"/>
	<polygon class="st0" points="751.6,883.6 751.6,872.6 765.9,872.6 765.9,883.6 784.3,883.6 784.3,872.6 798.6,872.6 798.6,883.6 
		817,883.6 817,872.6 831.3,872.6 831.3,883.6 849.7,883.6 849.7,872.6 849.7,870.4 849.7,778.2 733.1,778.2 733.1,872.6 
		733.2,872.6 733.2,883.6 	"/>
	<polygon class="st0" points="867,708.6 875,723.7 892.6,799.9 910.2,723.7 918.2,708.6 918.4,708.6 918.4,708.3 918.7,707.6 
		918.4,707.6 918.4,603.6 866.8,603.6 866.8,707.6 866.5,707.6 866.8,708.3 866.8,708.6 	"/>
	<polygon class="st0" points="692.3,884.6 663.2,884.6 663.2,874.1 646.3,874.1 646.3,884.6 646.1,884.6 646.1,943.7 666.1,943.7 
		689.1,943.7 709.1,943.7 709.1,887.3 709.1,884.6 709.1,874.1 692.3,874.1 	"/>
	<polygon class="st0" points="958.6,582.8 958.6,593.8 958.6,596 958.6,688.2 1075.2,688.2 1075.2,593.8 1075,593.8 1075,582.8 
		1056.6,582.8 1056.6,593.8 1042.3,593.8 1042.3,582.8 1024,582.8 1024,593.8 1009.7,593.8 1009.7,582.8 991.3,582.8 991.3,593.8 
		977,593.8 977,582.8 	"/>
	<path class="st0" d="M775.8,903.9l-0.8,0.7h-0.4v0.4l-7.9,7.6c-0.2,0-0.5,0-0.7,0c-3.8,0-7,2.3-8.5,5.5h-2.9v0.1
		c-1.1,0.2-2.1,0.8-2.6,1.8l-16.8,1.3v1l16.8,1.3c0.5,0.9,1.5,1.6,2.6,1.8v0.1h2.8c1.4,3.4,4.7,5.9,8.6,5.9c0.2,0,0.5,0,0.7,0
		l7.9,7.6v0.4h0.4l0.7,0.7v-0.7h74.8V905h-74.8v-1.1H775.8z"/>
	<polygon class="st0" points="645.9,780.9 645.2,782.1 644.9,782.1 644.9,782.4 628.5,806.4 628.3,806.7 644.9,831.1 644.9,831.4 
		645.2,831.4 645.9,832.5 645.9,831.4 712.2,831.4 712.2,782.1 645.9,782.1 	"/>
	<path class="st0" d="M690.8,703.3v-0.5l0.7-0.7h-0.7v-92.5h-42.4v92.5h-0.7l0.7,0.8v0.4h0.4l9.4,9.8c0,0.3,0,0.6,0,1
		c0,4.6,2.8,8.6,6.8,10.4v3.6h0.1c0.2,1.4,1,2.6,2.2,3.3l1.6,20.9h1l1.6-20.8c1.2-0.7,2-1.9,2.2-3.3h0.1v-3.4
		c4.3-1.6,7.3-5.8,7.3-10.6c0-0.3,0-0.6,0-1l9.4-9.8h0.3V703.3z"/>
	<polygon class="st0" points="841.9,564.8 841.6,564.8 840.9,563.7 840.9,564.8 774.6,564.8 774.6,614.1 840.9,614.1 840.9,615.2 
		841.6,614.1 841.9,614.1 841.9,613.8 858.3,589.7 858.5,589.4 841.9,565.1 	"/>
	<polygon class="st0" points="626.1,666.9 626.1,666.5 625.9,666.5 617.8,651.5 600.2,575.3 582.6,651.5 574.6,666.5 574.4,666.5 
		574.4,666.9 574.1,667.5 574.4,667.5 574.4,771.5 626.1,771.5 626.1,667.5 626.4,667.5 	"/>
	<polygon class="st0" points="999.3,510.7 984.2,502.7 984.2,502.5 983.9,502.5 983.2,502.2 983.2,502.5 879.2,502.5 879.2,554.1 
		983.2,554.1 983.2,554.4 983.9,554.1 984.2,554.1 984.2,553.9 999.3,545.9 1075.5,528.3 	"/>
	<path class="st0" d="M841.7,548.7v-40.9h-105l0,0c-0.2,0-0.4,0-0.7,0c-7.3,0-13.8,3.9-17.4,9.7l-33.8,7.8c-1-1.7-2.8-2.9-4.9-2.9
		c-2.8,0-5.2,2-5.6,4.7h-7.5c-0.6,0-1,0.4-1,1s0.4,1,1,1h7.5c0.5,2.7,2.8,4.7,5.6,4.7c2.1,0,4-1.1,4.9-2.9l33.8,7.9
		c3.6,5.8,10,9.7,17.4,9.7c0.2,0,0.5,0,0.7,0l0,0h105V548.7z"/>
	<path class="st0" d="M662.7,598.3c9.1,0,16.5-7.3,16.8-16.3l0,0v-30.2h-33.6V582l0,0C646.1,591.1,653.6,598.3,662.7,598.3z"/>
	<polygon class="st0" points="625.7,552.9 625.7,548.1 625.7,546.6 625.7,506.5 574.4,506.5 574.4,548.1 574.5,548.1 574.5,552.9 
		583.1,552.9 583.1,548.1 588.7,548.1 588.7,552.9 597.3,552.9 597.3,548.1 602.9,548.1 602.9,552.9 611.5,552.9 611.5,548.1 
		617.2,548.1 617.2,552.9 	"/>
	<path class="st0" d="M1021.2,944.3h-4.4c-0.4-1.5-1.8-2.6-3.5-2.6c-1.3,0-2.4,0.7-3.1,1.7l-20-4.6c-2.2-3.5-6.1-5.8-10.5-5.8
		c-0.1,0-0.1,0-0.2,0l0,0h-63.3v24.9h63.3l0,0c0.1,0,0.1,0,0.2,0c4.4,0,8.3-2.3,10.5-5.8l20-4.6c0.6,1,1.8,1.7,3.1,1.7
		c1.7,0,3-1.1,3.5-2.6h4.4c0.6,0,1-0.4,1-1S1021.7,944.3,1021.2,944.3z"/>
	<path class="st0" d="M621.4,853.1v-0.4H621l-9.4-9.8c0-0.3,0-0.6,0-1c0-4.6-2.8-8.6-6.8-10.4v-3.6h-0.1c-0.2-1.4-1-2.6-2.2-3.3
		l-1.6-20.9h-1l-1.6,20.8c-1.2,0.7-2,1.9-2.2,3.3H596v3.4c-4.3,1.6-7.3,5.8-7.3,10.6c0,0.3,0,0.6,0,1l-9.4,9.8H579v0.5l-0.7,0.7h0.7
		v92.5h42.4v-92.5h0.7L621.4,853.1z"/>
	<path class="st0" d="M600.2,89.3L600.2,89.3c0-0.2,0-0.4,0-0.7c0-7.3-3.9-13.8-9.7-17.4l-7.8-33.8c1.7-1,2.9-2.8,2.9-4.9
		c0-2.8-2-5.2-4.7-5.6v-7.5c0-0.6-0.4-1-1-1s-1,0.4-1,1v7.5c-2.7,0.5-4.7,2.8-4.7,5.6c0,2.1,1.1,4,2.9,4.9L569,71.2
		c-5.8,3.6-9.7,10-9.7,17.4c0,0.2,0,0.5,0,0.7l0,0v105h40.9V89.3z"/>
	<polygon class="st0" points="626.6,60.8 626.6,71.3 626.4,71.3 626.4,130.4 646.4,130.4 669.4,130.4 689.4,130.4 689.4,74 
		689.4,71.3 689.4,60.8 672.6,60.8 672.6,71.3 643.4,71.3 643.4,60.8 	"/>
	<path class="st0" d="M593.5,233.6h-3.6v0.1c-1.4,0.2-2.6,1-3.3,2.2l-20.9,1.6v1l20.8,1.6c0.7,1.2,1.9,2,3.3,2.2v0.1h3.4
		c1.6,4.3,5.8,7.3,10.6,7.3c0.3,0,0.6,0,1,0l9.8,9.4v0.5h0.5l0.7,0.7v-0.7h92.5V217h-92.5v-0.7L615,217h-0.4v0.4l-9.8,9.4
		c-0.3,0-0.6,0-1,0C599.2,226.8,595.2,229.6,593.5,233.6z"/>
	<path class="st0" d="M723.7,68.7v92.5H766V68.7h0.7L766,68v-0.4h-0.4l-9.4-9.8c0-0.3,0-0.6,0-1c0-4.6-2.8-8.6-6.8-10.4v-3.6h-0.1
		c-0.2-1.4-1-2.6-2.2-3.3l-1.6-20.9h-1l-1.6,20.8c-1.2,0.7-2,1.9-2.2,3.3h-0.1v3.4c-4.3,1.6-7.3,5.8-7.3,10.6c0,0.3,0,0.6,0,1
		l-9.4,9.8h-0.5V68l-0.7,0.7H723.7z"/>
	<path class="st0" d="M882.6,331.2L882.6,331.2c0,0.2,0,0.4,0,0.7c0,7.3,3.9,13.8,9.7,17.4l7.8,33.8c-1.7,1-2.9,2.8-2.9,4.9
		c0,2.8,2,5.2,4.7,5.6v7.5c0,0.6,0.4,1,1,1s1-0.4,1-1v-7.5c2.7-0.5,4.7-2.8,4.7-5.6c0-2.1-1.1-4-2.9-4.9l7.9-33.8
		c5.8-3.6,9.7-10,9.7-17.4c0-0.2,0-0.5,0-0.7l0,0v-105h-40.9v105H882.6z"/>
	<polygon class="st0" points="860.3,341.3 860.3,250 861.4,250 860.3,249.3 860.3,249 860,249 826.5,226.1 793.1,249 792.8,249 
		792.8,249.3 791.7,250 792.8,250 792.8,341.3 	"/>
	<polygon class="st0" points="692.3,194.3 692.5,194.3 692.5,193.9 709.2,169.6 692.5,145.3 692.5,144.9 692.3,144.9 691.5,143.8 
		691.5,144.9 625.2,144.9 625.2,194.3 691.5,194.3 691.5,195.4 	"/>
	<polygon class="st0" points="885,92.7 885,103.7 870.7,103.7 870.7,92.7 852.3,92.7 852.3,103.7 838,103.7 838,92.7 819.6,92.7 
		819.6,103.7 805.3,103.7 805.3,92.7 786.9,92.7 786.9,103.7 786.9,105.9 786.9,198.1 903.6,198.1 903.6,103.7 903.4,103.7 
		903.4,92.7 	"/>
	<polygon class="st0" points="769.6,267.7 761.6,252.6 744,176.4 726.4,252.6 718.4,267.7 718.2,267.7 718.2,268 717.9,268.7 
		718.2,268.7 718.2,372.7 769.8,372.7 769.8,268.7 770.2,268.7 769.8,268 769.8,267.7 	"/>
	<polygon class="st0" points="944.3,91.7 973.5,91.7 973.5,102.2 990.3,102.2 990.3,91.7 990.5,91.7 990.5,32.6 970.5,32.6 
		947.5,32.6 927.5,32.6 927.5,89 927.5,91.7 927.5,102.2 944.3,102.2 	"/>
	<polygon class="st0" points="678,393.5 678,382.5 678,380.3 678,288.1 561.4,288.1 561.4,382.5 561.6,382.5 561.6,393.5 580,393.5 
		580,382.5 594.3,382.5 594.3,393.5 612.7,393.5 612.7,382.5 626.9,382.5 626.9,393.5 645.3,393.5 645.3,382.5 659.6,382.5 
		659.6,393.5 	"/>
	<path class="st0" d="M860.8,72.4l0.8-0.7h0.4v-0.4l7.9-7.6c0.2,0,0.5,0,0.7,0c3.8,0,7-2.3,8.5-5.5h2.9v-0.1
		c1.1-0.2,2.1-0.8,2.6-1.8l16.8-1.3v-1l-16.8-1.3c-0.5-0.9-1.5-1.6-2.6-1.8v-0.1h-2.8c-1.4-3.4-4.7-5.9-8.6-5.9c-0.2,0-0.5,0-0.7,0
		l-7.9-7.6v-0.4h-0.4l-0.7-0.7v0.7H786v34.4h74.8V72.4z"/>
	<polygon class="st0" points="990.7,195.4 991.4,194.3 991.7,194.3 991.7,193.9 1008.3,169.6 991.7,145.3 991.7,144.9 991.4,144.9 
		990.7,143.8 990.7,144.9 924.4,144.9 924.4,194.3 990.7,194.3 	"/>
	<path class="st0" d="M945.8,273v0.5l-0.7,0.7h0.7v92.5h42.4v-92.5h0.7l-0.7-0.8V273h-0.4l-9.4-9.8c0-0.3,0-0.6,0-1
		c0-4.6-2.8-8.6-6.8-10.4v-3.6h-0.1c-0.2-1.4-1-2.6-2.2-3.3l-1.6-20.9h-1l-1.6,20.8c-1.2,0.7-2,1.9-2.2,3.3h0.1v3.4
		c-4.3,1.6-7.3,5.8-7.3,10.6c0,0.3,0,0.6,0,1l-9.4,9.8h-0.5V273z"/>
	<polygon class="st0" points="794.8,411.5 795,411.5 795.8,412.7 795.8,411.5 862,411.5 862,362.2 795.8,362.2 795.8,361.1 
		795,362.2 794.8,362.2 794.8,362.5 778.1,386.9 794.8,411.2 	"/>
	<polygon class="st0" points="1010.6,309.4 1010.6,309.8 1010.8,309.8 1018.8,324.8 1036.4,401 1054,324.8 1062,309.8 1062.2,309.8 
		1062.2,309.4 1062.5,308.8 1062.2,308.8 1062.2,204.8 1010.6,204.8 1010.6,308.8 1010.2,308.8 	"/>
	<polygon class="st0" points="652.4,473.6 652.4,473.8 652.7,473.8 653.4,474.1 653.4,473.8 757.4,473.8 757.4,422.2 653.4,422.2 
		653.4,421.9 652.7,422.2 652.4,422.2 652.4,422.4 637.3,430.4 561.2,448 637.3,465.6 	"/>
	<path class="st0" d="M899.9,468.4c0.2,0,0.4,0,0.7,0c7.3,0,13.8-3.9,17.4-9.7l33.8-7.8c1,1.7,2.8,2.9,4.9,2.9c2.8,0,5.2-2,5.6-4.7
		h7.5c0.6,0,1-0.4,1-1s-0.4-1-1-1h-7.5c-0.5-2.7-2.8-4.7-5.6-4.7c-2.1,0-4,1.1-4.9,2.9l-33.8-7.9c-3.6-5.8-10-9.7-17.4-9.7
		c-0.2,0-0.5,0-0.7,0l0,0h-105v40.9L899.9,468.4L899.9,468.4z"/>
	<path class="st0" d="M974,378c-9.1,0-16.5,7.3-16.8,16.3l0,0v30.2h33.6v-30.2l0,0C990.5,385.2,983.1,378,974,378z"/>
	<polygon class="st0" points="1010.9,423.4 1010.9,428.2 1010.9,429.7 1010.9,469.8 1062.2,469.8 1062.2,428.2 1062.1,428.2 
		1062.1,423.4 1053.5,423.4 1053.5,428.2 1047.9,428.2 1047.9,423.4 1039.3,423.4 1039.3,428.2 1033.7,428.2 1033.7,423.4 
		1025.1,423.4 1025.1,428.2 1019.5,428.2 1019.5,423.4 	"/>
	<path class="st0" d="M615.5,32h4.4c0.4,1.5,1.8,2.6,3.5,2.6c1.3,0,2.4-0.7,3.1-1.7l20,4.6c2.2,3.5,6.1,5.8,10.5,5.8
		c0.1,0,0.1,0,0.2,0l0,0h63.3V18.6h-63.3l0,0c-0.1,0-0.1,0-0.2,0c-4.4,0-8.3,2.3-10.5,5.8l-20,4.6c-0.6-1-1.8-1.7-3.1-1.7
		c-1.7,0-3,1.1-3.5,2.6h-4.4c-0.6,0-1,0.4-1,1S614.9,32,615.5,32z"/>
	<path class="st0" d="M1015.2,123.2v0.4h0.4l9.4,9.8c0,0.3,0,0.6,0,1c0,4.6,2.8,8.6,6.8,10.4v3.6h0.1c0.2,1.4,1,2.6,2.2,3.3
		l1.6,20.9h1l1.6-20.8c1.2-0.7,2-1.9,2.2-3.3h0.1V145c4.3-1.6,7.3-5.8,7.3-10.6c0-0.3,0-0.6,0-1l9.4-9.8h0.5v-0.5l0.7-0.7h-0.7V29.9
		h-42.4v92.5h-0.7L1015.2,123.2z"/>
</g>
</svg>
