<?xml version="1.0" encoding="utf-8"?>
<!-- Generator: Adobe Illustrator 22.0.1, SVG Export Plug-In . SVG Version: 6.00 Build 0)  -->
<svg version="1.1" id="Laag_1" xmlns="http://www.w3.org/2000/svg" xmlns:xlink="http://www.w3.org/1999/xlink" x="0px" y="0px"
	 width="548px" height="597.4px" viewBox="0 0 548 597.4" style="enable-background:new 0 0 548 597.4;" xml:space="preserve">
<style type="text/css">
	.st0{fill:#D99716;}
	.st1{fill:#272A55;}
</style>
<path class="st0" d="M541.8,12.9c0-3.9-5.1-7.9-12.8-7.9H17.3c-7.6,0-12.7,4-12.7,7.9v102.4c0,0.1,0,0.1,0,0.2
	c0,36.1,0,72.2,0,108.3c-0.1,39.1,5,77.6,17.8,114.6C62.6,455.1,144.9,533,253,586.7c13.9,6.9,28.7,6.6,42.1-1
	c26-14.8,52.8-28.9,76.9-46.5c77.9-56.8,134.1-129.6,158.8-224.5c12.5-48.1,10.8-97.2,10.8-146.2c0-17.7,0.1-35.4,0.1-53.2
	c0,0,0-0.1,0-0.1V12.9z"/>
<path class="st1" d="M367.9,134.7h-42.2c-4.6,0-8,3-8,6.1v41.4h-88.9v-41.4c0-3-3.4-6.1-8.4-6.1h-42.2c-4.6,0-8,3-8,6.1V365
	c0,2.7,3.4,5.7,8,5.7h42.2c4.9,0,8.4-3,8.4-5.7v-67.1h0.1c0-21.7,19.8-39.3,44.3-39.3c24.5,0,44.3,17.6,44.3,39.3h0.1V365
	c0,2.7,3.4,5.7,8,5.7h42.2c4.9,0,8.4-3,8.4-5.7V140.8C376.2,137.8,372.8,134.7,367.9,134.7"/>
</svg>
