<?xml version="1.0" encoding="utf-8"?>
<!-- Generator: Adobe Illustrator 22.0.1, SVG Export Plug-In . SVG Version: 6.00 Build 0)  -->
<svg version="1.1" id="Laag_1" xmlns="http://www.w3.org/2000/svg" xmlns:xlink="http://www.w3.org/1999/xlink" x="0px" y="0px"
	 width="50px" height="50px" viewBox="0 0 50 50" style="enable-background:new 0 0 50 50;" xml:space="preserve">
<style type="text/css">
	.st0{fill:#FFFFFF;}
</style>
<path class="st0" d="M36.9,33.9l-6.4-6.4c0.9-1.5,1.5-3.2,1.5-5.1c0-5.2-4.2-9.5-9.5-9.5s-9.5,4.2-9.5,9.5c0,5.2,4.2,9.5,9.5,9.5
	c1.8,0,3.4-0.5,4.8-1.3l6.4,6.4C33.8,37,36.9,33.9,36.9,33.9z M16.6,22.5c0-3.3,2.7-5.9,5.9-5.9c3.3,0,5.9,2.7,5.9,5.9
	c0,3.3-2.7,5.9-5.9,5.9C19.3,28.4,16.6,25.7,16.6,22.5z"/>
</svg>
