<?xml version="1.0" encoding="utf-8"?>
<!-- Generator: Adobe Illustrator 22.0.1, SVG Export Plug-In . SVG Version: 6.00 Build 0)  -->
<svg version="1.1" id="Laag_1" xmlns="http://www.w3.org/2000/svg" xmlns:xlink="http://www.w3.org/1999/xlink" x="0px" y="0px"
	 width="50px" height="50px" viewBox="0 0 50 50" style="enable-background:new 0 0 50 50;" xml:space="preserve">
<style type="text/css">
	.st0{fill:#010202;}
	.st1{fill:#272A55;}
</style>
<g>
	<polygon class="st0" points="17.1,42.5 15,40.2 30.8,25 15,9.8 17.1,7.5 35,25 	"/>
</g>
<path class="st1" d="M16.8,6.4L13.2,10c-0.1,0.1-0.1,0.5,0.2,0.7l6.1,6.1l6.1,6.1l2.3,2.3L13.3,39.7C13,40,13,40.3,13.2,40.5
	l3.6,3.6c0.1,0.1,0.5,0.1,0.7-0.2l6.1-6.1l6.1-6.1l2.6-2.6l3.5-3.5l0.2-0.2c0.1-0.1,0.1-0.2,0.1-0.3c0-0.1,0-0.2-0.1-0.3l-0.2-0.2
	l-3.5-3.5L17.5,6.5C17.3,6.3,16.9,6.2,16.8,6.4z"/>
</svg>
